<svg width="279" height="573" viewBox="0 0 279 573" fill="none" xmlns="http://www.w3.org/2000/svg">
<g opacity="0.2">
<path d="M215.329 356.586C214.146 360.379 211.196 364.43 205.833 369.377C191.401 382.443 157.932 390.018 122.546 398C103.106 402.41 83.0056 406.949 65.9627 412.498C36.2409 419.091 11.2227 438.184 -13.0163 456.654C-30.7155 470.153 -47.4545 482.891 -65.7705 491.087L-65.8098 491.102C-79.9428 497.14 -92.1195 498.229 -103.015 494.44C-124.281 487.052 -137.479 462.072 -152.743 433.124L-154.216 430.346C-165.614 408.86 -181.291 381.459 -204.984 341.475L-206.895 338.114C-227.079 302.659 -252.193 258.517 -260.304 208.953C-283.29 107.577 -221.314 44.46 -172.145 33.7663C-115.603 24.2552 -64.434 42.5617 23.5315 103.739C115.184 167.658 171.554 263.5 191.524 301.737C197.396 316.667 203.56 326.801 208.07 334.185C213.751 343.553 217.488 349.663 215.329 356.586ZM-68.0823 487.908C-50.1672 479.894 -33.6012 467.27 -16.0517 453.919C8.4628 435.228 33.835 415.883 64.2166 409.16C81.2674 403.586 101.478 399.026 120.989 394.61C155.864 386.719 188.814 379.262 202.562 366.848C215.878 354.495 212.967 349.705 204.33 335.476C199.758 327.961 193.477 317.651 187.566 302.624C167.797 264.842 111.865 169.695 21.0343 106.339C-65.6551 46.0352 -115.859 27.9457 -170.807 37.1999C-218.508 47.5976 -278.776 109.32 -256.222 208.774C-248.165 257.846 -223.23 301.681 -203.209 336.889L-201.29 340.225C-177.575 380.244 -161.874 407.681 -150.461 429.227L-148.987 432.005C-134.16 460.147 -121.329 484.426 -101.897 491.185C-92.177 494.552 -81.1383 493.471 -68.0823 487.908Z" fill="#A7CEFC"/>
<path d="M185.306 352.891C183.671 358.135 179.87 363.038 173.819 369.53L173.709 369.663C160.073 381.497 134.596 386.286 107.658 391.346C89.2415 394.79 70.2278 398.383 52.7673 404.388C25.1298 411.911 1.42083 424.821 -21.4938 437.28C-36.8752 445.665 -51.4229 453.584 -66.6785 459.69L-66.9849 459.79C-107.109 469.395 -117.526 450.281 -136.473 415.604C-138.532 411.833 -140.699 407.862 -143.047 403.694C-146.739 395.784 -150.962 387.26 -155.435 378.212C-175.344 338.012 -202.585 282.928 -216.767 212.786C-228.459 128.813 -185.857 80.0421 -138.444 68.9122C-89.3222 58.2596 -41.9521 83.1179 33.6666 135.891C109.432 191.504 147.779 261.838 168.371 299.626L170.672 303.835C183.485 331.152 188.482 342.71 185.306 352.891ZM170.453 367.083C186.928 349.347 185.648 345.066 166.869 304.883L164.639 300.78C144.195 263.289 106.129 193.49 31.2401 138.486C-43.1025 86.5855 -89.5478 62.0715 -136.863 72.338C-182.752 83.1053 -223.984 130.684 -212.576 212.697C-198.509 282.328 -171.361 337.159 -151.578 377.209C-147.105 386.257 -142.882 394.78 -139.205 402.63C-136.928 406.692 -134.76 410.664 -132.671 414.444C-113.7 449.157 -105.029 465.044 -68.6838 456.411C-53.6954 450.389 -39.3048 442.533 -24.0572 434.246C-0.961538 421.648 22.9439 408.66 50.9192 401.047C68.5369 394.979 87.7312 391.358 106.297 387.877C132.615 382.931 157.511 378.24 170.453 367.083Z" fill="#A7CEFC"/>
<path d="M160.203 349.977C158.115 356.671 153.23 361.962 145.799 368.135C132.17 378.072 109.081 382.266 84.6722 386.718C70.1591 389.341 55.1589 392.091 40.9231 396.141C18.9847 401.168 -0.88411 409.048 -20.1083 416.625C-35.8822 422.849 -50.7602 428.738 -65.3794 432.473L-65.5993 432.516C-102.176 437.92 -112.071 417.462 -130.036 380.298L-130.246 379.869L-133.071 373.15C-149.055 334.928 -170.953 282.573 -178.469 217.861C-183.913 142.541 -143.716 108.213 -107.677 101.663C-69.2183 94.6388 -26.1719 112.73 40.905 164.096C87.3775 200.768 124.534 248.554 151.35 306.103C160.431 327.956 163.188 340.406 160.203 349.977ZM-66.9604 429.047C-52.6318 425.361 -37.8796 419.544 -22.2942 413.374C-2.94422 405.724 17.1052 397.817 39.2322 392.737C53.5545 388.63 68.6881 385.893 83.3112 383.249C107.272 378.908 129.89 374.791 142.764 365.401C159.735 351.367 162.254 342.517 147.43 306.975C120.871 250.037 84.1368 202.773 38.2435 166.561C-27.5577 116.18 -69.4514 98.3645 -106.379 105.112C-143.769 111.911 -179.283 149.431 -174.349 218.001C-166.879 282.196 -145.105 334.289 -129.168 372.329L-126.218 379.31C-108.128 416.737 -99.8466 433.871 -66.9604 429.047Z" fill="#A7CEFC"/>
<path d="M137.88 345.639C135.546 353.122 130.187 359.159 121.533 365.062L121.486 365.103C107.83 373.803 86.1082 377.474 63.1457 381.371C52.5047 383.163 41.526 385.045 30.8592 387.472C15.4426 390.344 0.791294 394.292 -13.3416 398.123C-30.7033 402.818 -47.1301 407.274 -62.2045 408.829C-93.3747 410.027 -103.509 390.89 -116.581 359.218C-128.255 327.144 -143.926 278.322 -145.239 224.064C-142.508 173.498 -122.026 141.371 -87.5673 133.491C-50.4297 124.965 -2.02227 145.064 45.2575 188.635C101.963 236.514 126.684 291.957 132.89 307.802C138.968 324.5 140.818 336.221 137.88 345.639ZM118.671 362.214C134.815 351.163 140.473 340.303 128.885 308.508C122.772 292.915 98.3787 238.189 42.3769 190.92C-3.72955 148.442 -50.514 128.765 -86.0256 136.932C-118.859 144.454 -138.371 175.57 -141.026 224.569C-139.711 278.269 -124.172 326.742 -112.584 358.537C-99.1463 391.133 -89.8692 406.4 -63.0163 405.364C-48.4678 403.841 -32.2295 399.438 -15.017 394.78C-0.77417 390.927 13.9244 386.938 29.443 384.069C40.1177 381.618 51.1905 379.765 61.8707 377.957C84.378 374.085 105.668 370.476 118.671 362.214Z" fill="#A7CEFC"/>
<path d="M117.768 340.846C115.291 348.787 109.657 355.046 100.58 360.538L100.297 360.673C55.0191 378.418 -38.6344 386.883 -56.9344 388.408L-57.3424 388.393C-82.2142 386.277 -92.2661 370.405 -102.124 341.886C-110.427 315.333 -119.613 274.623 -116.319 231.298C-111.924 191.836 -93.509 166.997 -64.4497 161.314C-32.1704 155.016 8.39746 172.669 46.8711 209.723C84.5637 243.544 106.963 283.041 115.332 308.721C119.491 322.084 120.396 332.421 117.768 340.846ZM98.0165 357.504C115.313 346.951 118.915 333.858 111.272 309.27C103.067 284.06 81.0336 245.264 43.9122 211.928C7.10454 176.483 -32.8592 158.879 -63.0494 164.767C-90.4907 170.117 -107.952 193.996 -112.13 231.99C-115.367 274.802 -106.25 315.072 -98.0642 341.337C-88.6496 368.629 -79.7769 382.875 -57.5889 384.88C-5.02054 380.498 63.3804 371.027 98.0165 357.504Z" fill="#A7CEFC"/>
<path d="M99.1824 336.557C96.5306 345.059 90.7554 351.329 82.2746 354.8C48.6963 368.793 -14.7074 374.488 -50.6162 370.8C-58.7738 369.485 -65.8937 365.504 -71.851 359.01C-90.2074 338.984 -97.5115 294.337 -91.3667 239.556C-85.7569 209.326 -69.3496 190.592 -45.1315 186.751C-17.6938 182.406 15.5767 197.42 46.1155 227.921C84.5498 267.196 104.746 306.146 100.219 332.132C99.9775 333.677 99.619 335.157 99.1824 336.557ZM-84.4703 229.251C-85.566 232.763 -86.4818 236.471 -87.1864 240.385C-93.2178 294.14 -86.2946 337.803 -68.6182 357.03C-63.3802 362.741 -57.263 366.186 -50.4153 367.288C-15.2361 370.888 47.1313 365.316 80.12 351.559C88.8838 347.952 94.4186 340.909 96.1014 331.211C100.452 306.231 80.6371 268.378 43.0629 229.985C14.096 201.064 -18.3901 186.183 -43.8725 190.216C-63.3868 193.318 -77.5393 207.03 -84.4703 229.251Z" fill="#A7CEFC"/>
<path d="M82.1814 330.388C79.7202 338.279 74.4169 344.249 66.6423 347.773C39.0024 360.379 -12.2683 364.021 -43.035 355.541L-43.0977 355.522C-71.2032 346.895 -82.438 301.831 -69.7682 248.416C-63.4797 225.939 -49.1704 212.275 -29.3763 209.931C-6.6849 207.234 19.7987 219.516 43.3125 243.636C71.7825 273.268 86.7261 303.904 83.2893 325.623C83.0087 327.295 82.6498 328.887 82.1814 330.388ZM-42.1283 352.193C-12.271 360.389 37.4845 356.861 64.3305 344.595C72.5454 340.873 77.6399 334.027 79.1171 324.768C82.3855 304.031 67.8304 274.466 40.1659 245.671C17.7468 222.675 -7.24743 210.912 -28.3685 213.429C-46.561 215.603 -59.839 228.387 -65.7146 249.54C-77.6996 300.209 -67.5604 344.372 -42.1283 352.193Z" fill="#A7CEFC"/>
<path d="M66.2002 324.146C64.0487 331.044 59.5246 336.392 52.865 339.761C29.5835 351.631 -10.4079 352.759 -34.5198 342.249C-57.5567 331.824 -64.8408 294.723 -51.1785 257.872C-44.8894 241.791 -32.7689 232.278 -17.0677 231.03C0.92585 229.605 21.2425 239.154 38.6169 257.253C58.9151 278.555 69.6398 301.646 67.3173 319.021C67.099 320.824 66.7084 322.517 66.2002 324.146ZM-49.1086 265.026C-59.4773 298.268 -52.8024 330.151 -32.8998 339.151C-10.3944 348.964 28.5377 347.813 50.4195 336.68C57.6217 333.005 62.016 326.64 63.1605 318.227C65.3619 301.792 54.9945 279.762 35.4782 259.263C19.1438 242.242 0.308508 233.239 -16.2013 234.541C-30.348 235.658 -41.3515 244.459 -47.1809 259.287C-47.847 261.202 -48.5131 263.117 -49.1086 265.026Z" fill="#A7CEFC"/>
<path d="M50.997 317.953C49.2662 323.502 45.7187 327.925 40.5437 330.947C22.5885 341.406 -6.9129 341.225 -25.2242 330.542C-43.2922 319.851 -47.5573 292.267 -34.9673 267.79C-29.2857 256.966 -19.6334 250.732 -7.78059 250.239C5.64212 249.678 20.2782 256.589 32.3824 269.191C46.1831 283.634 53.3548 299.473 52.0363 312.635C51.8728 314.483 51.521 316.273 50.997 317.953ZM-23.1029 327.713C-6.48334 337.421 21.4564 337.534 37.8937 327.97C43.7372 324.57 47.1867 319.026 47.8871 311.927C49.0682 299.867 42.122 284.629 29.283 271.184C18.164 259.617 4.93072 253.282 -7.05544 253.761C-17.4403 254.181 -25.968 259.788 -31.0649 269.51C-42.722 292.099 -39.1345 318.216 -23.1029 327.713Z" fill="#A7CEFC"/>
<path d="M36.3182 311.837C35.1193 315.681 32.7372 319.015 29.0868 321.452C17.0025 329.636 -3.02419 328.975 -15.5417 320.016C-27.9886 311.05 -30.3306 292.193 -20.7282 277.956C-16.3018 271.377 -9.35081 267.735 -1.21185 267.677C7.75117 267.623 17.2476 272.038 24.8172 279.762C35.194 290.4 39.1922 302.623 36.3182 311.837ZM26.2559 318.614C36.6802 311.559 34.6671 295.067 21.7333 281.816C15.1021 275.055 6.92227 271.163 -0.667322 271.226C-7.42492 271.269 -13.2438 274.369 -17.0232 279.977C-25.6788 292.834 -23.9023 309.643 -13.0524 317.441C-2.05357 325.312 15.572 325.838 26.2559 318.614Z" fill="#A7CEFC"/>
<path d="M21.8506 306.04C21.1996 308.127 19.9686 309.977 18.1347 311.444C11.8537 316.467 1.17394 315.957 -5.68874 310.269C-12.4732 304.662 -13.4817 294.768 -7.94101 288.257C-5.27705 285.121 -1.37821 283.433 3.05566 283.559C7.73287 283.677 12.5676 285.828 16.2825 289.472C21.5146 294.651 23.4306 300.975 21.8506 306.04ZM-6.8031 294.868C-8.24012 299.475 -6.86952 304.678 -2.93347 307.945C2.23905 312.212 10.3057 312.605 15.0441 308.776C19.8059 304.983 18.9781 297.268 13.2062 291.613C10.3359 288.79 6.87262 287.207 3.38823 287.126C0.249191 287.041 -2.54134 288.265 -4.49594 290.56C-5.56017 291.876 -6.32674 293.34 -6.8031 294.868Z" fill="#A7CEFC"/>
</g>
</svg>
