<svg width="292" height="516" viewBox="0 0 292 516" fill="none" xmlns="http://www.w3.org/2000/svg">
<g opacity="0.2">
<path d="M519.558 187.78C520.508 191.324 520.197 195.944 518.433 202.458C513.564 219.797 491.012 242.281 467.156 266.032C454.061 279.1 440.512 292.595 429.867 305.364C409.773 325.226 399.571 352.508 389.672 378.917C382.45 398.211 375.605 416.436 365.271 431.899L365.248 431.931C357.131 443.639 348.1 450.52 337.659 452.961C317.284 457.732 294.532 444.787 268.191 429.77L265.656 428.334C246.051 417.222 220.151 403.616 181.716 384.167L178.549 382.492C145.115 364.839 103.503 342.851 72.568 308.214C4.26627 240.535 21.7021 160.615 55.0486 127.922C94.7762 92.5003 144.065 81.4346 243.518 85.5789C347.228 90.0355 439.026 136.863 473.669 156.793C485.683 165.529 495.55 170.379 502.753 173.904C511.86 178.398 517.825 181.311 519.558 187.78ZM361.878 430.565C371.988 415.442 378.753 397.392 385.931 378.288C395.937 351.569 406.293 323.916 426.84 303.625C437.48 290.833 451.104 277.267 464.252 264.159C487.752 240.733 509.955 218.597 514.609 202.106C518.954 185.877 514.293 183.583 500.453 176.764C493.136 173.167 483.09 168.238 470.998 159.446C436.738 139.77 345.629 93.2681 242.844 88.8439C144.826 84.7483 96.4034 95.5055 57.8014 129.938C25.4626 161.672 8.67832 239.659 75.6874 306.052C106.337 340.333 147.656 362.17 180.838 379.712L183.999 381.363C222.47 400.828 248.406 414.45 268.053 425.601L270.588 427.038C296.186 441.642 318.303 454.222 336.925 449.869C346.233 447.681 354.374 441.37 361.878 430.565Z" fill="#043873"/>
<path d="M494.131 199.768C495.444 204.667 494.886 210.374 493.347 218.433L493.326 218.592C488.473 234.575 470.822 250.928 452.157 268.216C439.389 280.024 426.225 292.243 415.477 305.574C397.482 325.13 385.245 346.94 373.408 368.006C365.474 382.164 357.964 395.545 348.999 407.863L348.808 408.093C322.031 435.456 304.372 425.709 272.296 408.048C268.81 406.128 265.138 404.104 261.228 402.016C254.407 397.675 246.864 393.12 238.865 388.278C203.297 366.787 154.591 337.319 108.686 289.64C57.8857 229.941 67.2027 170.804 98.9525 138.641C132.282 106.004 181.832 101.93 267.417 105.635C354.524 111.481 419.516 147.342 454.426 166.614L458.319 168.757C481.927 183.716 491.582 190.255 494.131 199.768ZM489.489 218.193C493.649 196.201 490.522 193.496 455.85 171.458L452.065 169.363C417.418 150.249 352.912 114.666 266.795 108.86C182.646 105.204 133.994 109.089 101.893 140.53C71.1609 171.655 62.3296 229.183 111.936 287.494C157.496 334.833 206.004 364.15 241.399 385.586C249.398 390.427 256.941 394.982 263.72 399.283C267.523 401.323 271.195 403.347 274.711 405.26C306.822 422.937 321.51 431.033 345.798 406.299C354.595 394.179 362.012 380.925 369.89 366.91C381.8 345.646 394.153 323.677 412.369 303.884C423.209 290.426 436.501 278.095 449.368 266.185C467.602 249.293 484.845 233.304 489.489 218.193Z" fill="#043873"/>
<path d="M472.956 209.928C474.632 216.183 473.414 222.729 470.633 231.224C464.845 245.724 448.775 260.43 431.797 275.991C421.69 285.225 411.263 294.799 402.081 305.009C387.329 319.795 375.617 335.78 364.262 351.211C354.948 363.878 346.173 375.839 336.533 385.993L336.382 386.135C310.311 408.466 292.397 397.411 259.861 377.325L259.483 377.095L253.933 373.254C222.43 351.362 179.275 321.375 141.303 274.629C99.6999 218.583 114.283 171.903 139.363 148.945C166.11 124.419 208.908 117.208 287.082 124.046C341.78 129.629 394.663 148.495 444.257 180.096C462.223 192.641 470.56 200.986 472.956 209.928ZM333.593 384.104C343.028 374.133 351.741 362.29 360.933 349.758C372.351 334.209 384.191 318.112 399.065 303.191C408.287 292.895 418.825 283.265 429.008 273.96C445.69 258.707 461.427 244.294 466.892 230.594C473.277 211.244 470.872 203.094 441.608 182.717C392.519 151.466 340.227 132.799 286.212 127.287C209.528 120.585 167.773 127.44 142.093 150.992C116.074 174.813 106.753 221.664 144.61 272.698C182.291 319.063 225.218 348.907 256.594 370.68L262.372 374.664C295.136 394.893 310.136 404.154 333.593 384.104Z" fill="#043873"/>
<path d="M453.261 217.601C455.135 224.594 453.915 231.956 450.038 240.846L450.021 240.901C443.599 254.45 428.345 268.071 412.228 282.483C404.753 289.151 397.057 296.057 389.875 303.232C379.181 313.107 369.622 323.443 360.413 333.431C349.093 345.691 338.39 357.302 327.312 365.981C303.407 382.353 285.959 372.448 259.99 354.221C234.922 334.989 198.412 304.675 170.494 263.009C147.584 222.22 147.762 187.02 170.941 163.807C195.905 138.765 243.912 130.464 302.663 141.028C370.958 150.284 417.861 181.28 430.59 190.564C443.642 200.577 450.903 208.802 453.261 217.601ZM446.377 240.042C453.589 223.427 452.656 212.156 427.792 193.098C415.261 183.965 368.97 153.366 301.531 144.238C244.243 133.944 197.722 141.77 173.858 165.728C151.779 187.856 151.862 221.787 174.055 261.316C201.698 302.545 237.931 332.653 262.795 351.711C289.509 370.477 304.365 377.788 324.957 363.68C335.638 355.287 346.219 343.811 357.439 331.653C366.724 321.594 376.3 311.203 387.076 301.28C394.251 294.081 402.036 287.152 409.535 280.452C425.306 266.285 440.251 252.925 446.377 240.042Z" fill="#043873"/>
<path d="M435.079 223.825C437.067 231.245 435.74 238.916 431.327 247.695L431.172 247.94C404.378 284.205 334.963 337.191 321.336 347.445L321.007 347.635C300.41 358.303 284.645 350.903 262.765 333.544C243.082 316.947 215.689 289.747 196.809 254.327C180.709 221.374 182.874 192.881 202.898 174.057C225.147 153.158 265.78 146.833 314.381 156.675C360.765 164.384 397.942 184.094 417.245 199.977C427.136 208.339 432.969 215.952 435.079 223.825ZM427.809 246.598C436.174 229.802 432.518 217.807 414.327 202.416C395.385 186.818 358.843 167.474 313.148 159.861C266.654 150.448 226.52 156.511 205.709 176.056C186.792 193.82 184.901 221.092 200.444 252.792C219.114 287.784 246.234 314.675 265.684 331.105C286.607 347.726 300.641 354.443 319.073 345.018C358.219 315.563 407.287 274.299 427.809 246.598Z" fill="#043873"/>
<path d="M418.346 229.685C420.474 237.628 419.042 245.379 414.096 252.286C394.639 279.83 347.627 315.674 317.576 330.583C310.513 333.597 302.944 334.019 295.044 331.905C270.693 325.378 242.828 294.176 220.512 248.409C209.942 222.055 213.554 199.318 230.686 184.327C250.098 167.349 283.687 162.58 322.804 171.242C372.475 182.837 407.648 203.211 416.967 225.721C417.543 227.045 417.995 228.377 418.346 229.685ZM220.826 236.956C221.706 240.238 222.823 243.584 224.209 246.985C246.105 291.895 273.183 322.519 296.604 328.759C303.551 330.62 310.065 330.276 315.994 327.744C345.427 313.128 391.686 277.894 410.797 250.825C415.898 243.672 416.758 235.438 413.275 227.041C404.316 205.404 369.985 185.697 321.428 174.364C284.329 166.155 251.422 170.639 233.392 186.406C219.592 198.49 215.263 216.193 220.826 236.956Z" fill="#043873"/>
<path d="M401.927 233.294C403.902 240.666 402.693 247.95 398.328 254.548C382.85 278.069 344.358 306.303 315.974 314.928L315.915 314.943C289.55 322.135 258.389 292.555 241.879 244.621C235.683 223.977 240.16 206.234 254.556 194.602C271.054 181.259 297.955 177.722 328.389 184.887C365.449 193.896 392.375 210.388 400.436 229.028C401.044 230.471 401.551 231.89 401.927 233.294ZM315.028 311.867C342.556 303.472 379.914 276.077 394.936 253.214C399.548 246.243 400.16 238.381 396.733 230.428C389.026 212.636 362.936 196.787 326.924 188.033C297.908 181.201 272.435 184.407 257.081 196.831C243.86 207.537 239.758 224.083 245.622 243.491C261.31 288.943 291.163 318.364 315.028 311.867Z" fill="#043873"/>
<path d="M386.273 236.341C388 242.786 387.094 249.198 383.529 255.123C371.112 275.912 340.239 296.598 316.08 300.344C292.807 303.623 268.698 278.296 261.176 242.789C258.15 227.133 262.962 213.71 274.685 204.961C288.121 194.937 308.821 192.322 331.446 197.833C357.955 204.393 377.827 217.09 384.611 231.79C385.333 233.304 385.865 234.819 386.273 236.341ZM266.347 247.343C274.67 278.404 295.715 299.963 315.818 297.126C338.37 293.632 368.399 273.452 380.08 253.932C383.92 247.499 384.22 240.358 380.95 233.23C374.537 219.322 355.472 207.276 329.975 200.954C308.702 195.77 289.436 198.077 277.105 207.27C266.54 215.148 262.253 227.461 265.019 241.913C265.444 243.736 265.869 245.559 266.347 247.343Z" fill="#043873"/>
<path d="M371.254 239.04C372.644 244.225 372.047 249.432 369.477 254.352C360.548 271.402 337.271 285.872 317.585 286.61C298.086 287.221 281.065 267.82 278.831 242.495C277.933 231.239 282.431 221.597 291.503 215.342C301.775 208.256 316.703 206.398 332.461 210.23C350.465 214.659 363.95 223.46 369.436 234.378C370.223 235.901 370.834 237.471 371.254 239.04ZM317.85 283.352C335.724 282.693 357.739 268.942 365.919 253.343C368.827 247.797 368.792 241.765 365.824 235.881C360.776 225.891 347.766 217.447 331.013 213.32C316.541 209.806 303.002 211.42 293.818 217.73C285.864 223.2 281.94 231.797 282.751 241.903C284.783 265.295 300.544 283.886 317.85 283.352Z" fill="#043873"/>
<path d="M356.687 241.541C357.649 245.132 357.429 248.913 355.767 252.621C350.325 264.989 334.257 274.393 319.979 273.605C305.753 272.777 294.569 259.231 295.061 243.371C295.28 236.048 298.938 229.765 305.306 225.688C312.325 221.208 321.976 219.947 331.753 222.222C345.18 225.379 354.38 232.932 356.687 241.541ZM352.136 251.81C356.833 241.145 347.079 229.28 330.347 225.351C321.785 223.363 313.427 224.379 307.493 228.187C302.203 231.567 299.166 236.867 298.974 243.113C298.542 257.427 308.268 269.656 320.659 270.363C333.205 271.055 347.319 262.736 352.136 251.81Z" fill="#043873"/>
</g>
</svg>
