<svg width="226" height="451" viewBox="0 0 226 451" fill="none" xmlns="http://www.w3.org/2000/svg">
<g opacity="0.2">
<path d="M394.302 161.036C395.35 164.075 395.558 168.065 394.86 173.714C392.871 188.752 378.155 208.542 362.583 229.448C354.04 240.949 345.197 252.828 338.455 264.028C325.326 281.513 320.298 305.221 315.414 328.171C311.853 344.937 308.472 360.775 302.22 374.293L302.206 374.321C297.254 384.562 291.158 390.656 283.585 392.946C268.808 397.423 250.567 386.664 229.446 374.183L227.414 372.989C211.7 363.755 191.043 352.483 160.458 336.395L157.931 335.007C131.256 320.377 98.0548 302.156 71.6303 272.837C14.125 215.689 19.5461 146.46 41.3599 117.675C67.6838 86.4233 103.475 76.0048 178.216 77.8106C256.168 79.8103 329.251 118.56 357.047 135.13C366.86 142.45 374.697 146.458 380.418 149.369C387.654 153.082 392.391 155.489 394.302 161.036ZM299.557 373.203C305.674 359.982 309.012 344.297 312.558 327.695C317.492 304.476 322.599 280.445 336.027 262.583C342.762 251.362 351.654 239.421 360.234 227.884C375.57 207.265 390.059 187.782 391.967 173.478C393.669 159.406 389.966 157.511 378.971 151.876C373.158 148.905 365.179 144.832 355.302 137.466C327.818 121.108 255.28 82.6263 178.023 80.6382C104.36 78.8488 69.1864 88.9859 43.6097 119.364C22.458 147.305 17.3398 214.855 73.7563 270.917C99.9335 299.934 132.901 318.031 159.378 332.568L161.898 333.936C192.511 350.038 213.196 361.323 228.946 370.59L230.977 371.784C251.504 383.922 269.236 394.378 282.742 390.293C289.492 388.241 294.976 382.654 299.557 373.203Z" fill="#A7CEFC"/>
<path d="M376.436 171.826C377.884 176.028 378.011 180.958 377.629 187.936L377.628 188.073C375.523 201.942 363.885 216.358 351.579 231.598C343.159 242.007 334.483 252.778 327.718 264.465C316.129 281.649 309.058 300.674 302.217 319.051C297.634 331.401 293.295 343.073 287.767 353.855L287.645 354.056C270.235 378.129 256.106 370.038 230.446 355.378C227.657 353.784 224.719 352.104 221.597 350.373C216.084 346.751 210.012 342.956 203.571 338.924C174.935 321.023 135.718 296.478 96.8609 256.178C53.1986 205.599 54.5304 154.438 75.201 126.138C97.0075 97.4015 133.66 93.007 197.991 94.6809C263.664 98.1742 315.665 127.943 343.597 143.942L346.712 145.721C365.784 158.201 373.625 163.668 376.436 171.826ZM374.722 187.797C375.736 168.759 373.141 166.481 345.123 148.093L342.094 146.354C314.373 130.488 262.762 100.949 197.834 97.4733C134.58 95.8159 98.5808 100.031 77.5788 127.715C57.5704 155.101 56.4485 204.867 99.0861 254.27C137.654 294.282 176.708 318.701 205.209 336.557C211.65 340.589 217.722 344.384 223.2 347.972C226.237 349.664 229.174 351.344 231.985 352.931C257.674 367.603 269.424 374.324 285.225 352.563C290.646 341.955 294.929 330.394 299.482 318.168C306.36 299.619 313.502 280.455 325.233 263.063C332.055 251.265 340.817 240.395 349.301 229.896C361.323 215.005 372.689 200.91 374.722 187.797Z" fill="#A7CEFC"/>
<path d="M361.575 180.964C363.424 186.328 363.137 191.995 361.867 199.369C358.921 211.976 348.309 224.943 337.1 238.664C330.424 246.807 323.541 255.248 317.65 264.216C308.031 277.229 300.798 291.222 293.78 304.731C288.024 315.819 282.603 326.29 276.365 335.217L276.265 335.343C258.903 355.063 244.458 345.848 218.223 329.105L217.918 328.913L213.404 325.7C187.769 307.381 152.652 282.29 119.813 242.654C83.3747 195.063 89.8294 154.548 106.391 134.305C124.049 112.68 155.356 105.701 214.445 110.208C255.866 114.051 297.196 129.38 337.279 155.748C351.905 166.247 358.932 173.295 361.575 180.964ZM273.987 333.641C280.09 324.874 285.475 314.507 291.153 303.537C298.207 289.925 305.525 275.833 315.222 262.702C321.135 253.659 328.096 245.167 334.822 236.962C345.839 223.513 356.23 210.804 359.01 198.893C361.94 182.093 359.366 175.108 335.549 158.056C295.876 131.979 255.007 116.811 214.104 113.019C156.141 108.602 125.58 115.256 108.627 136.022C91.4457 157.026 88.9405 197.594 122.102 240.93C154.686 280.242 189.619 305.215 215.148 323.433L219.847 326.766C246.266 343.628 258.361 351.348 273.987 333.641Z" fill="#A7CEFC"/>
<path d="M347.583 187.931C349.65 193.927 349.439 200.298 347.388 208.033L347.381 208.081C343.87 219.878 333.765 231.895 323.09 244.611C318.137 250.493 313.041 256.585 308.356 262.9C301.303 271.606 295.142 280.689 289.208 289.466C281.915 300.24 275.02 310.443 267.565 318.123C251.255 332.667 237.268 324.435 216.119 309.179C195.547 293.04 165.367 267.548 140.528 232.114C119.516 197.347 116.296 166.99 131.412 146.56C147.689 124.521 182.785 116.51 227.71 124.576C279.645 131.343 317.66 157.239 328.06 165.018C338.77 173.421 344.982 180.384 347.583 187.931ZM344.575 207.405C348.384 192.949 346.612 183.246 326.21 167.253C315.972 159.6 278.453 134.036 227.17 127.363C183.365 119.505 149.333 127.081 133.776 148.165C119.379 167.639 122.673 196.898 143.029 230.591C167.621 265.653 197.574 290.972 217.976 306.965C239.734 322.672 251.536 328.713 265.586 316.182C272.77 308.754 279.586 298.669 286.816 287.986C292.799 279.146 298.968 270.015 306.078 261.267C310.756 254.931 315.915 248.817 320.883 242.907C331.323 230.41 341.222 218.623 344.575 207.405Z" fill="#A7CEFC"/>
<path d="M334.583 193.621C336.777 199.984 336.515 206.623 334.053 214.272L333.96 214.486C317.385 246.235 270.542 293.161 261.332 302.245L261.104 302.415C246.723 311.981 234.233 305.88 216.224 291.299C199.928 277.337 176.86 254.368 159.372 224.16C144.198 196.029 143.102 171.42 156.278 154.831C170.919 136.413 200.692 130.237 237.96 137.861C273.369 143.684 303.038 160.019 318.981 173.373C327.171 180.408 332.257 186.87 334.583 193.621ZM331.319 213.389C335.972 198.755 332.096 188.477 317.031 175.528C301.386 162.414 272.226 146.382 237.342 140.629C201.689 133.339 172.265 139.281 158.57 156.505C146.121 172.16 147.305 195.711 161.944 222.771C179.233 252.615 202.069 275.322 218.173 289.144C235.397 303.106 246.528 308.648 259.409 300.193C285.866 274.097 318.616 237.641 331.319 213.389Z" fill="#A7CEFC"/>
<path d="M322.633 198.972C324.981 205.784 324.649 212.493 321.61 218.538C309.688 242.635 277.959 274.381 256.915 287.772C251.922 290.497 246.305 290.995 240.197 289.312C221.372 284.117 197.57 257.705 176.528 218.635C166.116 196.096 166.651 176.425 178.029 163.194C190.923 148.208 215.579 143.498 245.645 150.273C283.88 159.389 312.115 176.333 321.226 195.578C321.782 196.709 322.247 197.85 322.633 198.972ZM175.672 208.753C176.642 211.568 177.796 214.433 179.156 217.341C199.802 255.68 222.961 281.607 241.064 286.572C246.434 288.053 251.271 287.641 255.462 285.352C276.073 272.225 307.296 241.018 319.004 217.336C322.136 211.077 321.994 203.961 318.591 196.782C309.833 178.283 282.292 161.899 244.914 152.989C216.399 146.57 192.227 151.021 180.25 164.938C171.085 175.604 169.535 190.948 175.672 208.753Z" fill="#A7CEFC"/>
<path d="M310.703 202.376C312.882 208.699 312.672 215.001 310.038 220.769C300.708 241.326 274.622 266.358 254.226 274.3L254.183 274.315C235.159 280.985 209.048 256.031 192.139 214.989C185.542 197.297 187.198 181.916 196.851 171.63C207.913 159.831 227.687 156.302 251.119 161.94C279.682 169.05 301.381 182.793 309.183 198.724C309.774 199.958 310.288 201.172 310.703 202.376ZM253.227 271.678C273.006 263.949 298.323 239.661 307.375 219.678C310.159 213.585 309.867 206.794 306.548 199.997C299.092 184.791 278.078 171.588 250.324 164.678C227.982 159.303 209.245 162.521 198.952 173.507C190.088 182.974 188.598 197.316 194.83 213.947C210.887 252.864 236.006 277.704 253.227 271.678Z" fill="#A7CEFC"/>
<path d="M299.292 205.282C301.196 210.809 301.13 216.354 299.03 221.527C291.728 239.675 270.619 258.062 252.916 261.722C235.831 264.963 215.396 243.551 206.39 213.066C202.637 199.619 204.956 187.958 212.886 180.205C221.975 171.322 237.2 168.699 254.638 173.049C275.08 178.235 291.144 188.831 297.616 201.387C298.3 202.68 298.842 203.976 299.292 205.282ZM210.69 216.901C219.87 243.538 237.656 261.756 252.414 258.951C268.939 255.538 289.465 237.602 296.338 220.561C298.596 214.945 298.139 208.782 295.016 202.693C288.897 190.814 273.498 180.765 253.835 175.767C237.439 171.674 223.257 174.006 214.915 182.153C207.767 189.134 205.736 199.829 209.18 212.242C209.671 213.807 210.163 215.371 210.69 216.901Z" fill="#A7CEFC"/>
<path d="M288.322 207.876C289.854 212.323 289.904 216.823 288.452 221.112C283.401 235.973 267.379 248.866 252.733 249.852C238.215 250.725 223.643 234.298 219.561 212.498C217.817 202.808 220.261 194.413 226.447 188.858C233.45 182.565 244.433 180.697 256.577 183.722C270.458 187.221 281.377 194.571 286.518 203.889C287.252 205.187 287.858 206.53 288.322 207.876ZM252.621 247.038C265.919 246.151 281.067 233.903 285.696 220.305C287.341 215.47 286.74 210.27 283.961 205.249C279.236 196.723 268.706 189.673 255.789 186.412C244.636 183.639 234.669 185.271 228.405 190.876C222.98 195.735 220.865 203.218 222.434 211.919C226.181 232.054 239.734 247.805 252.621 247.038Z" fill="#A7CEFC"/>
<path d="M277.67 210.292C278.731 213.372 278.927 216.636 278.038 219.863C275.148 230.625 264.032 239.02 253.284 238.594C242.571 238.133 232.919 226.65 231.776 212.965C231.242 206.646 233.379 201.163 237.751 197.534C242.571 193.546 249.665 192.287 257.191 194.075C267.529 196.559 275.125 202.908 277.67 210.292ZM275.246 219.228C277.742 209.947 269.32 199.889 256.438 196.799C249.848 195.236 243.697 196.261 239.624 199.65C235.991 202.659 234.226 207.284 234.677 212.673C235.718 225.024 244.153 235.397 253.484 235.787C262.928 236.16 272.686 228.735 275.246 219.228Z" fill="#A7CEFC"/>
</g>
</svg>
