<svg xmlns="http://www.w3.org/2000/svg" xmlns:xlink="http://www.w3.org/1999/xlink" width="500" zoomAndPan="magnify" viewBox="0 0 375 374.999991" height="500" preserveAspectRatio="xMidYMid meet" version="1.0"><defs><g/></defs><rect x="-37.5" width="450" fill="#ffffff" y="-37.499999" height="449.999989" fill-opacity="1"/><rect x="-37.5" width="450" fill="#043873" y="-37.499999" height="449.999989" fill-opacity="1"/><g fill="#e4e2dd" fill-opacity="1"><g transform="translate(5.103934, 207.749986)"><g><path d="M 43.640625 1.609375 C 35.304688 1.609375 28.085938 0.382812 21.984375 -2.0625 C 15.878906 -4.507812 11.160156 -7.988281 7.828125 -12.5 C 4.492188 -17.019531 2.828125 -22.425781 2.828125 -28.71875 C 2.828125 -34.894531 4.382812 -40.253906 7.5 -44.796875 C 10.613281 -49.347656 15.046875 -52.859375 20.796875 -55.328125 C 26.554688 -57.804688 33.335938 -59.046875 41.140625 -59.046875 C 46.941406 -59.046875 52.25 -58.222656 57.0625 -56.578125 C 61.875 -54.941406 65.929688 -52.617188 69.234375 -49.609375 C 72.546875 -46.597656 74.875 -43.019531 76.21875 -38.875 L 61.546875 -35.40625 C 60.359375 -39.0625 57.960938 -41.953125 54.359375 -44.078125 C 50.753906 -46.203125 46.476562 -47.265625 41.53125 -47.265625 C 36.96875 -47.265625 33.003906 -46.507812 29.640625 -45 C 26.273438 -43.5 23.664062 -41.363281 21.8125 -38.59375 C 19.957031 -35.820312 19.03125 -32.53125 19.03125 -28.71875 C 19.082031 -24.945312 20.128906 -21.675781 22.171875 -18.90625 C 24.222656 -16.144531 27.101562 -13.992188 30.8125 -12.453125 C 34.519531 -10.921875 38.898438 -10.15625 43.953125 -10.15625 C 49.867188 -10.15625 54.882812 -11.390625 59 -13.859375 C 63.113281 -16.335938 65.734375 -19.675781 66.859375 -23.875 L 81.859375 -20.96875 C 80.734375 -16.34375 78.410156 -12.335938 74.890625 -8.953125 C 71.367188 -5.566406 66.945312 -2.957031 61.625 -1.125 C 56.300781 0.695312 50.304688 1.609375 43.640625 1.609375 Z M 43.640625 1.609375 "/></g></g></g><g fill="#e4e2dd" fill-opacity="1"><g transform="translate(88.010496, 207.749986)"><g><path d="M 34.203125 1.453125 C 27.742188 1.453125 22.09375 0.539062 17.25 -1.28125 C 12.414062 -3.113281 8.664062 -5.695312 6 -9.03125 C 3.34375 -12.363281 2.015625 -16.234375 2.015625 -20.640625 C 2.015625 -25.109375 3.34375 -28.992188 6 -32.296875 C 8.664062 -35.609375 12.414062 -38.175781 17.25 -40 C 22.09375 -41.832031 27.742188 -42.75 34.203125 -42.75 C 40.703125 -42.75 46.367188 -41.832031 51.203125 -40 C 56.046875 -38.175781 59.796875 -35.609375 62.453125 -32.296875 C 65.117188 -28.992188 66.453125 -25.109375 66.453125 -20.640625 C 66.453125 -16.234375 65.117188 -12.363281 62.453125 -9.03125 C 59.796875 -5.695312 56.046875 -3.113281 51.203125 -1.28125 C 46.367188 0.539062 40.703125 1.453125 34.203125 1.453125 Z M 34.203125 -7.828125 C 39.523438 -7.828125 43.769531 -8.992188 46.9375 -11.328125 C 50.113281 -13.671875 51.703125 -16.773438 51.703125 -20.640625 C 51.703125 -24.515625 50.113281 -27.617188 46.9375 -29.953125 C 43.769531 -32.296875 39.523438 -33.46875 34.203125 -33.46875 C 28.929688 -33.46875 24.707031 -32.296875 21.53125 -29.953125 C 18.363281 -27.617188 16.78125 -24.515625 16.78125 -20.640625 C 16.78125 -16.773438 18.363281 -13.671875 21.53125 -11.328125 C 24.707031 -8.992188 28.929688 -7.828125 34.203125 -7.828125 Z M 34.203125 -7.828125 "/></g></g></g><g fill="#e4e2dd" fill-opacity="1"><g transform="translate(155.835796, 207.749986)"><g><path d="M 4.03125 18.546875 L 4.03125 -59.84375 L 7.09375 -59.84375 L 7.09375 18.546875 Z M 4.03125 18.546875 "/></g></g></g><g fill="#e4e2dd" fill-opacity="1"><g transform="translate(166.320025, 207.749986)"><g><path d="M 36.296875 1.453125 C 29.578125 1.453125 23.632812 0.523438 18.46875 -1.328125 C 13.3125 -3.179688 9.28125 -5.789062 6.375 -9.15625 C 3.46875 -12.519531 2.015625 -16.40625 2.015625 -20.8125 C 2.015625 -25.113281 3.34375 -28.90625 6 -32.1875 C 8.664062 -35.46875 12.363281 -38.046875 17.09375 -39.921875 C 21.832031 -41.804688 27.265625 -42.75 33.390625 -42.75 C 39.410156 -42.75 44.691406 -41.820312 49.234375 -39.96875 C 53.785156 -38.113281 57.335938 -35.546875 59.890625 -32.265625 C 62.441406 -28.984375 63.71875 -25.140625 63.71875 -20.734375 C 63.71875 -20.242188 63.691406 -19.632812 63.640625 -18.90625 C 63.585938 -18.1875 63.476562 -17.53125 63.3125 -16.9375 L 17.75 -16.9375 C 18.332031 -14.945312 19.578125 -13.265625 21.484375 -11.890625 C 23.398438 -10.523438 25.742188 -9.492188 28.515625 -8.796875 C 31.285156 -8.097656 34.253906 -7.75 37.421875 -7.75 C 40.429688 -7.75 43.347656 -7.988281 46.171875 -8.46875 C 48.992188 -8.945312 51.570312 -9.617188 53.90625 -10.484375 C 56.25 -11.347656 58.148438 -12.316406 59.609375 -13.390625 L 64.28125 -5.96875 C 62.394531 -4.519531 59.988281 -3.226562 57.0625 -2.09375 C 54.132812 -0.96875 50.894531 -0.0976562 47.34375 0.515625 C 43.789062 1.140625 40.109375 1.453125 36.296875 1.453125 Z M 17.421875 -24.109375 L 48.796875 -24.109375 C 48.640625 -26.097656 47.847656 -27.832031 46.421875 -29.3125 C 44.992188 -30.789062 43.132812 -31.929688 40.84375 -32.734375 C 38.5625 -33.546875 36 -33.953125 33.15625 -33.953125 C 30.351562 -33.953125 27.804688 -33.535156 25.515625 -32.703125 C 23.234375 -31.867188 21.378906 -30.710938 19.953125 -29.234375 C 18.535156 -27.753906 17.691406 -26.046875 17.421875 -24.109375 Z M 17.421875 -24.109375 "/></g></g></g><g fill="#e4e2dd" fill-opacity="1"><g transform="translate(232.854941, 207.749986)"><g><path d="M 28.0625 1.453125 C 22.851562 1.453125 18.296875 0.539062 14.390625 -1.28125 C 10.492188 -3.113281 7.457031 -5.695312 5.28125 -9.03125 C 3.101562 -12.363281 2.015625 -16.234375 2.015625 -20.640625 C 2.015625 -25.109375 3.085938 -28.992188 5.234375 -32.296875 C 7.390625 -35.609375 10.414062 -38.175781 14.3125 -40 C 18.21875 -41.832031 22.773438 -42.75 27.984375 -42.75 C 31.585938 -42.75 34.921875 -42.265625 37.984375 -41.296875 C 41.054688 -40.328125 43.734375 -38.96875 46.015625 -37.21875 C 48.296875 -35.46875 50.003906 -33.410156 51.140625 -31.046875 L 51.21875 -31.046875 L 51.21875 -59.84375 L 65.984375 -59.84375 L 65.984375 0 L 53.234375 0 L 51.375 -10.40625 L 51.296875 -10.40625 C 50.171875 -8.039062 48.460938 -5.957031 46.171875 -4.15625 C 43.890625 -2.351562 41.203125 -0.96875 38.109375 0 C 35.015625 0.96875 31.664062 1.453125 28.0625 1.453125 Z M 34.203125 -8.796875 C 39.472656 -8.796875 43.707031 -9.882812 46.90625 -12.0625 C 50.101562 -14.238281 51.703125 -17.097656 51.703125 -20.640625 C 51.703125 -24.191406 50.101562 -27.054688 46.90625 -29.234375 C 43.707031 -31.410156 39.472656 -32.5 34.203125 -32.5 C 28.984375 -32.5 24.773438 -31.410156 21.578125 -29.234375 C 18.378906 -27.054688 16.78125 -24.191406 16.78125 -20.640625 C 16.78125 -17.097656 18.378906 -14.238281 21.578125 -12.0625 C 24.773438 -9.882812 28.984375 -8.796875 34.203125 -8.796875 Z M 34.203125 -8.796875 "/></g></g></g><g fill="#e4e2dd" fill-opacity="1"><g transform="translate(301.406076, 207.749986)"><g><path d="M 34.203125 1.453125 C 27.742188 1.453125 22.09375 0.539062 17.25 -1.28125 C 12.414062 -3.113281 8.664062 -5.695312 6 -9.03125 C 3.34375 -12.363281 2.015625 -16.234375 2.015625 -20.640625 C 2.015625 -25.109375 3.34375 -28.992188 6 -32.296875 C 8.664062 -35.609375 12.414062 -38.175781 17.25 -40 C 22.09375 -41.832031 27.742188 -42.75 34.203125 -42.75 C 40.703125 -42.75 46.367188 -41.832031 51.203125 -40 C 56.046875 -38.175781 59.796875 -35.609375 62.453125 -32.296875 C 65.117188 -28.992188 66.453125 -25.109375 66.453125 -20.640625 C 66.453125 -16.234375 65.117188 -12.363281 62.453125 -9.03125 C 59.796875 -5.695312 56.046875 -3.113281 51.203125 -1.28125 C 46.367188 0.539062 40.703125 1.453125 34.203125 1.453125 Z M 34.203125 -7.828125 C 39.523438 -7.828125 43.769531 -8.992188 46.9375 -11.328125 C 50.113281 -13.671875 51.703125 -16.773438 51.703125 -20.640625 C 51.703125 -24.515625 50.113281 -27.617188 46.9375 -29.953125 C 43.769531 -32.296875 39.523438 -33.46875 34.203125 -33.46875 C 28.929688 -33.46875 24.707031 -32.296875 21.53125 -29.953125 C 18.363281 -27.617188 16.78125 -24.515625 16.78125 -20.640625 C 16.78125 -16.773438 18.363281 -13.671875 21.53125 -11.328125 C 24.707031 -8.992188 28.929688 -7.828125 34.203125 -7.828125 Z M 34.203125 -7.828125 "/></g></g></g></svg>