<svg width="339" height="35" viewBox="0 0 339 35" fill="none" xmlns="http://www.w3.org/2000/svg">
<path d="M316.336 18.5768C315.875 18.6056 315.409 18.6254 314.957 18.6686C314.664 18.6956 314.538 18.6165 314.342 18.5751C314.277 18.5607 314.207 18.5318 314.146 18.5354C313.69 18.5642 313.234 18.5966 312.777 18.629C312.637 18.6992 312.549 18.7928 312.335 18.827C312.125 18.8594 311.878 18.8594 311.645 18.8756C311.338 18.8954 311.03 18.9152 310.723 18.9332C310.569 18.9422 310.443 18.9764 310.392 19.0412C310.383 19.052 310.485 19.079 310.541 19.0952C310.728 19.1492 310.909 19.2104 311.114 19.2518C311.31 19.2914 311.552 19.2266 311.762 19.277C312.232 19.3904 312.237 19.3886 312.595 19.367C312.903 19.3472 313.21 19.3256 313.518 19.3112C313.578 19.3076 313.648 19.3346 313.713 19.349C313.909 19.3886 314.035 19.4786 314.324 19.4444C314.542 19.4174 314.785 19.412 315.013 19.3976C315.204 19.4498 315.381 19.5092 315.586 19.5506C315.777 19.5902 315.833 19.6208 315.73 19.673C315.637 19.7216 315.507 19.7414 315.334 19.745C315.181 19.7468 315.027 19.763 314.873 19.772C314.794 19.7774 314.719 19.781 314.645 19.7864C314.351 19.8062 314.351 19.8062 313.816 19.691C313.606 19.646 313.369 19.709 313.168 19.6658C313.033 19.637 312.917 19.5938 312.786 19.5632C312.73 19.5506 312.642 19.5488 312.572 19.5524C312.339 19.565 312.106 19.574 311.883 19.5974C311.724 19.6136 311.631 19.664 311.65 19.7144C311.655 19.7342 311.766 19.763 311.831 19.7648C311.981 19.7684 312.139 19.7432 312.283 19.7558C312.423 19.7684 312.567 19.8044 312.67 19.844C312.88 19.9268 313.117 19.853 313.317 19.8746C313.527 19.898 313.699 19.97 313.9 20.0132C313.951 20.024 314.049 20.006 314.128 20.0006C314.356 19.988 314.584 19.9772 314.813 19.9646C315.004 20.0168 315.209 20.0636 315.381 20.123C315.693 20.231 316.028 20.2724 316.434 20.2202C316.662 20.1914 316.885 20.2022 317.067 20.2724C317.253 20.3444 317.468 20.3372 317.705 20.3228C317.924 20.3084 318.148 20.2688 318.371 20.3192C318.856 20.4308 318.86 20.4362 319.433 20.393C319.606 20.3804 319.736 20.3768 319.867 20.4182C319.988 20.456 320.118 20.4884 320.244 20.5244C320.472 20.5118 320.705 20.4992 320.933 20.4848C321.227 20.465 321.39 20.4902 321.46 20.591C321.501 20.6522 321.52 20.708 321.623 20.7494C321.744 20.7998 321.874 20.798 322.051 20.7836C322.219 20.771 322.34 20.7512 322.41 20.6864C322.438 20.6594 322.494 20.6342 322.545 20.6126C322.587 20.5964 322.652 20.5712 322.689 20.5748C322.759 20.582 322.852 20.6018 322.876 20.6252C323.104 20.843 323.104 20.8448 323.337 20.9078C323.593 20.978 323.859 21.041 324.091 21.1202C324.301 21.1904 324.511 21.1598 324.739 21.1598C324.911 21.1598 325.023 21.2066 325.009 21.2534C325 21.2804 324.935 21.32 324.879 21.3235C324.422 21.3595 323.961 21.3902 323.5 21.4153C323.444 21.4189 323.374 21.3865 323.309 21.3703C323.178 21.338 323.062 21.2875 322.922 21.2768C322.783 21.2659 322.62 21.293 322.466 21.302C322.312 21.311 322.149 21.3344 322.009 21.32C321.87 21.3056 321.758 21.2534 321.627 21.2192C321.567 21.203 321.483 21.1796 321.432 21.185C321.092 21.2282 320.84 21.1688 320.598 21.0896C320.547 21.0734 320.458 21.0626 320.393 21.0662C319.853 21.0968 319.317 21.1328 318.777 21.167C318.558 21.1814 318.381 21.1184 318.334 21.0122C318.311 20.9528 318.264 20.8934 318.264 20.834C318.264 20.726 318.008 20.6666 317.822 20.6792C317.514 20.6972 317.202 20.7116 316.899 20.7386C316.653 20.7602 316.443 20.7386 316.275 20.6738C316.08 20.6 315.856 20.6144 315.633 20.6342C315.465 20.6486 315.418 20.708 315.427 20.8574C315.437 20.978 315.358 21.0158 315.055 21.0356C314.673 21.0608 314.286 21.086 313.9 21.1058C313.839 21.1094 313.769 21.0788 313.709 21.0626C313.578 21.0302 313.462 20.978 313.322 20.9672C313.182 20.9546 313.019 20.9816 312.866 20.9924C312.712 21.0014 312.549 21.0266 312.409 21.014C312.269 21.0014 312.153 20.9474 312.027 20.9132C311.967 20.897 311.892 20.8736 311.831 20.8772C311.524 20.8916 311.217 20.9132 310.909 20.933C310.565 20.9546 310.564 20.9546 310.075 20.843C309.852 20.7926 309.628 20.8322 309.409 20.8466C309.176 20.861 308.957 20.8682 308.776 20.7962C308.655 20.7494 308.52 20.7206 308.375 20.7296C307.989 20.7512 307.607 20.7782 307.22 20.7998C307.155 20.8034 307.066 20.7944 307.015 20.7782C306.768 20.7026 306.526 20.6432 306.181 20.681C305.883 20.7134 305.562 20.7152 305.264 20.7458C305.101 20.762 305.026 20.8196 305.059 20.8646C305.077 20.888 305.175 20.915 305.24 20.915C305.389 20.9168 305.552 20.8898 305.692 20.9006C305.981 20.9222 306.125 21.0734 306.503 21.032C306.726 21.0068 306.959 20.9978 307.192 20.9906C307.253 20.9888 307.318 21.023 307.383 21.041C307.569 21.0896 307.732 21.1526 308.003 21.1202C308.226 21.095 308.464 21.0878 308.692 21.0734C309.055 21.05 309.055 21.0518 309.526 21.1616C309.749 21.2138 309.973 21.1724 310.192 21.1598C310.355 21.1508 310.509 21.1328 310.639 21.158C310.839 21.1958 310.984 21.2822 311.231 21.2768C311.463 21.2713 311.692 21.2462 311.925 21.2372C312.069 21.2318 312.204 21.2606 312.321 21.3092C312.442 21.3578 312.572 21.3793 312.73 21.3685C312.959 21.3541 313.192 21.3362 313.424 21.3272C313.49 21.3254 313.564 21.3416 313.625 21.356C313.755 21.3884 313.881 21.4261 314.007 21.4603C314.235 21.4495 314.468 21.446 314.692 21.4244C314.864 21.4082 314.985 21.4154 315.125 21.4514C315.302 21.5 315.446 21.5864 315.735 21.545C315.879 21.5252 316.047 21.5306 316.191 21.5126C316.368 21.4892 316.49 21.4981 316.615 21.5521C316.853 21.6547 317.151 21.6565 317.458 21.6169C317.794 21.5737 318.045 21.6242 318.297 21.7034C318.562 21.7862 318.562 21.7843 318.767 21.9841C318.828 22.0417 319 22.0687 319.145 22.0579C319.387 22.0399 319.596 22.0489 319.773 22.1173C319.96 22.1911 320.183 22.1821 320.412 22.1623C320.714 22.1353 321.017 22.1119 321.264 22.2163C321.385 22.2667 321.516 22.2793 321.679 22.2667C322.14 22.2343 322.606 22.2145 323.057 22.1749C323.332 22.1497 323.49 22.2073 323.677 22.2559C323.928 22.3225 324.203 22.3819 324.203 22.5241C324.203 22.5475 324.268 22.5745 324.324 22.5925C324.445 22.6303 324.576 22.6627 324.702 22.6987C324.888 22.7527 325.07 22.7977 325.326 22.7689C325.549 22.7455 325.787 22.7383 326.015 22.7221C326.243 22.7059 326.453 22.6969 326.658 22.7653C326.896 22.8427 327.147 22.9165 327.417 22.9741C327.608 23.0155 327.86 22.9453 328.065 23.0011C328.19 23.0353 328.312 23.0749 328.447 23.1037C328.503 23.1163 328.591 23.1073 328.666 23.1037C328.819 23.0965 328.978 23.0911 329.127 23.0731C329.299 23.0533 329.43 23.0569 329.56 23.0983C329.681 23.1361 329.802 23.1883 329.942 23.1991C330.152 23.2153 330.384 23.1433 330.594 23.2261C330.701 23.2675 330.836 23.3071 330.976 23.3197C331.116 23.3323 331.279 23.3053 331.428 23.3071C331.493 23.3071 331.572 23.3359 331.609 23.3593C331.633 23.3719 331.6 23.4061 331.568 23.4241C331.526 23.4457 331.465 23.4745 331.405 23.4781C330.943 23.5105 330.482 23.5375 330.021 23.5681C329.746 23.5861 329.746 23.5861 329.192 23.4727C329.062 23.4457 328.917 23.4511 328.754 23.4637C328.535 23.4799 328.312 23.5105 328.083 23.4781C327.785 23.3557 327.417 23.3449 327.026 23.3917C326.863 23.4115 326.714 23.4115 326.593 23.3773C326.337 23.3089 326.066 23.2459 325.838 23.1649C325.661 23.1019 325.577 23.0965 325.503 23.1829C325.48 23.2099 325.456 23.2387 325.461 23.2639C325.489 23.3539 325.54 23.4421 325.568 23.5321C325.577 23.5573 325.54 23.5861 325.517 23.6131C325.442 23.6887 325.344 23.6833 325.181 23.6203C325.018 23.5573 324.823 23.5159 324.562 23.5447C324.338 23.5699 324.096 23.5663 323.873 23.5933C323.528 23.6329 323.286 23.5753 323.039 23.4979C322.987 23.4817 322.899 23.4727 322.834 23.4763C322.14 23.5177 321.45 23.5645 320.756 23.6059C320.607 23.6149 320.472 23.5879 320.356 23.5393C320.235 23.4907 320.099 23.4655 319.95 23.4745C319.336 23.5123 318.721 23.5465 318.106 23.5933C317.854 23.6131 317.654 23.5897 317.482 23.5267C317.351 23.4799 317.23 23.4655 317.067 23.4709C316.89 23.4763 316.764 23.4943 316.676 23.5465C316.592 23.5969 316.653 23.6275 316.839 23.6671C317.039 23.7103 317.225 23.7661 317.416 23.8165C317.57 23.8093 317.724 23.7949 317.873 23.7967C317.938 23.7967 317.999 23.8291 318.064 23.8471C318.25 23.8993 318.423 23.9515 318.688 23.9227C318.912 23.8975 319.149 23.8921 319.377 23.8759C319.694 23.8561 319.694 23.8561 320.207 23.9695C320.337 23.9983 320.477 23.9965 320.644 23.9803C320.789 23.9677 320.938 23.9929 321.04 24.0469C321.082 24.0685 321.068 24.1045 320.98 24.2233C320.98 24.3115 321.078 24.2719 321.11 24.2143C321.161 24.1315 321.064 24.1045 320.877 24.1495C320.747 24.1819 320.682 24.2287 320.714 24.2665C320.733 24.2863 320.822 24.3115 320.98 24.2233C321.39 24.1153 321.702 24.1027 322 24.0739C322.177 24.0577 322.289 24.0649 322.428 24.1117C322.596 24.1675 322.764 24.2269 323.039 24.1981C323.337 24.1657 323.654 24.1621 323.956 24.1351C324.236 24.1099 324.38 24.1891 324.557 24.2359C324.772 24.2917 325.009 24.2287 325.205 24.2611C325.41 24.2935 325.554 24.3727 325.792 24.3871C326.136 24.3385 326.355 24.4285 326.616 24.4879C326.821 24.5329 327.063 24.4932 327.282 24.4735C327.529 24.4519 327.734 24.4717 327.906 24.5365C328.102 24.6103 328.321 24.5941 328.545 24.5779C329.066 24.5419 329.085 24.5365 329.388 24.6355C329.606 24.7074 329.816 24.6751 330.035 24.6661C330.226 24.7147 330.412 24.7668 330.613 24.81C330.664 24.8208 330.762 24.8028 330.841 24.7974C331.069 24.7831 331.302 24.7687 331.53 24.7543C331.684 24.7453 331.847 24.7183 331.987 24.7291C332.126 24.7417 332.243 24.7939 332.369 24.8281C332.495 24.8623 332.625 24.8964 332.746 24.9324C332.932 24.9864 333.109 25.0314 333.37 25.0044C333.594 24.981 333.827 24.9738 334.06 24.9576C334.353 24.9378 334.344 24.9433 334.889 25.0512C335.182 25.1106 335.485 25.0387 335.783 25.0315C335.932 25.0279 336.077 25.0477 336.179 25.0998C336.221 25.1214 336.207 25.1574 336.221 25.188C335.452 25.2366 334.679 25.278 333.92 25.3374C333.626 25.3608 333.473 25.296 333.314 25.242C333.053 25.1556 332.709 25.2816 332.462 25.17C332.313 25.1034 332.099 25.0656 331.842 25.098C331.693 25.116 331.535 25.1142 331.381 25.1304C330.99 25.17 330.631 25.1718 330.319 25.0476C330.212 25.0044 330.058 24.9811 329.947 24.9397C329.816 24.8947 329.69 24.8694 329.537 24.8784C328.843 24.9216 328.153 24.9648 327.464 25.0116C327.403 25.0152 327.343 25.0422 327.291 25.062C327.161 25.1124 327.203 25.152 327.413 25.1844C327.482 25.1952 327.538 25.2186 327.604 25.2366C327.729 25.2708 327.846 25.3248 327.985 25.3374C328.125 25.35 328.288 25.3248 328.442 25.3158C328.596 25.3068 328.759 25.2798 328.899 25.2906C329.038 25.3032 329.155 25.3554 329.285 25.3878C329.346 25.404 329.42 25.431 329.481 25.4292C329.788 25.4184 330.091 25.3986 330.398 25.3824C330.589 25.431 330.752 25.5012 330.981 25.5174C331.125 25.5282 331.279 25.5084 331.428 25.512C331.493 25.5138 331.577 25.5408 331.609 25.5642C331.628 25.5786 331.568 25.6146 331.521 25.6326C331.344 25.701 331.102 25.6884 330.883 25.71C330.645 25.7334 330.431 25.7262 330.249 25.656C330.128 25.6092 329.993 25.584 329.844 25.593C329.457 25.6164 329.075 25.6434 328.689 25.6632C328.624 25.6668 328.544 25.6506 328.484 25.638C327.995 25.5282 327.995 25.5246 327.65 25.548C327.142 25.5822 327.142 25.5822 326.802 25.4868C326.737 25.4688 326.667 25.4346 326.611 25.4364C326.071 25.4652 325.535 25.494 325 25.5354C324.823 25.548 324.702 25.548 324.571 25.5012C324.459 25.4616 324.329 25.4166 324.189 25.4058C324.045 25.395 323.886 25.422 323.733 25.431C323.579 25.44 323.416 25.4634 323.281 25.449C323.141 25.4346 323.02 25.3842 322.899 25.3482C322.773 25.3104 322.638 25.3122 322.466 25.3266C321.935 25.368 321.93 25.3626 321.404 25.251C321.343 25.2384 321.264 25.224 321.199 25.2276C320.812 25.2492 320.43 25.2762 320.044 25.2978C319.895 25.3068 319.75 25.2834 319.648 25.2312C319.606 25.2096 319.62 25.1736 319.592 25.1034C319.559 25.0872 319.596 25.116 319.606 25.143C319.676 25.1394 319.759 25.143 319.811 25.1286C319.941 25.0944 320.006 25.0494 319.974 25.0116C319.955 24.9918 319.867 24.9666 319.811 24.9666C319.708 24.9666 319.62 25.0062 319.592 25.1034C319.298 25.1628 318.986 25.1754 318.683 25.2042C318.506 25.2222 318.395 25.2132 318.255 25.1664C318.087 25.1088 317.915 25.053 317.64 25.0818C317.342 25.1142 317.025 25.1196 316.718 25.1448C316.364 25.1736 316.21 25.0116 315.912 25.0152C315.604 25.0188 315.297 25.0494 314.99 25.071C314.719 25.089 314.719 25.089 314.16 24.972C313.956 24.9288 313.713 24.9918 313.513 24.9468C313.378 24.918 313.262 24.8748 313.131 24.8442C313.075 24.8316 312.987 24.8316 312.917 24.8352C312.53 24.8568 312.139 24.8712 311.766 24.9108C311.342 24.9576 311.021 24.9072 310.718 24.8011C310.336 24.8209 309.95 24.8316 309.572 24.8658C309.298 24.891 309.139 24.8317 308.953 24.7831C308.888 24.7669 308.832 24.7399 308.762 24.7327C308.692 24.7255 308.608 24.7398 308.534 24.7452C308.226 24.765 307.909 24.7741 307.611 24.8065C307.243 24.8479 307.104 24.7003 306.819 24.6823C306.628 24.7704 306.526 24.891 306.149 24.9C305.841 24.9072 305.534 24.936 305.226 24.9558C305.073 24.9648 304.919 24.9757 304.765 24.9847C304.518 25.0009 304.402 25.071 304.453 25.179C304.481 25.2384 304.504 25.2978 304.528 25.3572C304.574 25.4634 304.458 25.5534 304.262 25.566C303.722 25.6002 303.186 25.6362 302.646 25.6668C302.501 25.6758 302.362 25.6452 302.245 25.5966C302.124 25.548 301.989 25.5264 301.84 25.5354C301.3 25.5696 300.764 25.6056 300.224 25.6362C300.163 25.6398 300.084 25.6218 300.023 25.6074C299.893 25.575 299.767 25.5372 299.641 25.503C299.334 25.5192 299.031 25.53 298.729 25.5516C298.239 25.584 298.239 25.5858 297.881 25.4868C297.815 25.4688 297.75 25.4346 297.69 25.4364C297.457 25.4436 297.229 25.4616 296.996 25.4778C296.311 25.5246 296.311 25.5246 296.111 25.4706C295.929 25.4202 295.766 25.359 295.491 25.3878C295.193 25.4202 294.876 25.431 294.569 25.449C294.341 25.4616 294.112 25.476 293.884 25.4796C293.824 25.4814 293.758 25.4472 293.693 25.4292C293.507 25.3734 293.325 25.3284 293.069 25.359C292.92 25.377 292.762 25.3806 292.608 25.3896C292.207 25.4148 292.207 25.4148 291.55 25.3068C291.485 25.296 291.406 25.2834 291.341 25.2888C290.801 25.3212 290.265 25.3572 289.725 25.3878C289.659 25.3914 289.58 25.3806 289.515 25.3716C288.779 25.2672 288.779 25.2672 287.996 25.3176C287.698 25.3356 287.689 25.3428 287.377 25.2474C287.237 25.206 287.121 25.1862 286.958 25.1988C286.343 25.242 285.723 25.2708 285.113 25.3212C284.838 25.3428 284.68 25.2888 284.494 25.2402C284.428 25.224 284.359 25.188 284.303 25.1898C283.688 25.224 283.073 25.2654 282.458 25.2996C282.402 25.3032 282.332 25.2672 282.267 25.251C282.141 25.2186 282.02 25.17 281.88 25.1592C281.736 25.1484 281.578 25.1754 281.419 25.1844C281.033 25.2078 281.033 25.206 280.585 25.0998C280.525 25.0855 280.446 25.0656 280.385 25.0692C279.77 25.1052 279.151 25.1358 278.541 25.188C278.191 25.2168 277.954 25.1646 277.707 25.089C277.656 25.0728 277.567 25.0656 277.502 25.0692C276.808 25.1106 276.118 25.1574 275.424 25.1988C275.28 25.2078 275.14 25.1772 275.024 25.1304C274.837 25.0566 274.619 25.0656 274.386 25.0818C273.85 25.1196 273.845 25.1178 273.529 25.0315C273.463 25.0135 273.407 24.99 273.338 24.981C273.272 24.972 273.189 24.9774 273.119 24.981C272.811 24.999 272.504 25.0188 272.196 25.0386C271.889 25.0584 271.577 25.0693 271.274 25.0998C270.901 25.1376 270.724 25.0206 270.464 24.9666C270.082 24.99 269.69 25.0044 269.313 25.0422C269.024 25.071 268.889 24.9918 268.698 24.9504C268.633 24.936 268.563 24.9054 268.503 24.909C267.808 24.9486 267.114 24.9918 266.425 25.0404C266.257 25.0512 266.146 25.0368 266.006 24.9936C265.694 24.8964 265.68 24.9001 265.158 24.936C264.93 24.9522 264.711 24.9667 264.515 24.8929C264.343 24.8263 264.133 24.81 263.886 24.8316C263.584 24.8586 263.272 24.8731 262.964 24.8911C262.657 24.9109 262.349 24.9378 262.042 24.9468C261.795 24.9558 261.646 24.8713 261.45 24.8281C261.39 24.8155 261.306 24.8136 261.236 24.8172C260.929 24.8334 260.612 24.846 260.314 24.8766C259.95 24.9144 259.75 24.8155 259.494 24.7579C259.438 24.7453 259.345 24.7525 259.275 24.7579C258.735 24.7903 258.199 24.8262 257.659 24.8604C257.468 24.8118 257.272 24.7651 257.081 24.7165C256.774 24.7345 256.466 24.7542 256.159 24.7722C255.926 24.7866 255.688 24.792 255.469 24.819C255.185 24.855 255.045 24.7705 254.854 24.7291C254.789 24.7147 254.719 24.6841 254.659 24.6877C254.272 24.7075 253.886 24.7291 253.504 24.7597C253.14 24.7903 252.996 24.6282 252.698 24.63C252.39 24.6318 252.074 24.6553 251.776 24.6877C251.431 24.7255 251.189 24.6679 250.942 24.5905C250.891 24.5743 250.802 24.5653 250.737 24.5689C250.35 24.5905 249.968 24.6175 249.582 24.6391C249.516 24.6427 249.437 24.6337 249.372 24.6229C248.636 24.5167 248.636 24.5149 248.315 24.5365C248.086 24.5509 247.854 24.5689 247.621 24.5779C247.555 24.5815 247.476 24.5653 247.416 24.5509C246.931 24.4411 246.931 24.4393 246.582 24.4609C246.274 24.4807 245.967 24.5005 245.66 24.5203C245.469 24.4717 245.273 24.4249 245.082 24.3763C244.7 24.3997 244.309 24.4177 243.931 24.4501C243.754 24.4645 243.638 24.4591 243.503 24.4141C243.335 24.3601 243.168 24.2971 242.888 24.3277C242.59 24.3601 242.273 24.3637 241.97 24.3907C241.607 24.4231 241.458 24.2593 241.165 24.2611C240.857 24.2629 240.54 24.2863 240.242 24.3187C239.898 24.3565 239.655 24.2989 239.409 24.2215C239.357 24.2053 239.269 24.1963 239.204 24.1999C238.356 24.2521 237.513 24.3043 236.665 24.3601C236.143 24.3943 236.143 24.3961 235.151 24.2971C235.081 24.2899 235.007 24.2827 234.937 24.2863C234.629 24.3025 234.313 24.3151 234.014 24.3457C233.651 24.3835 233.451 24.2863 233.195 24.2269C233.139 24.2143 233.05 24.2215 232.976 24.2251C232.743 24.2377 232.515 24.2539 232.282 24.2683C231.974 24.2881 231.667 24.3079 231.359 24.3277C231.168 24.2809 230.973 24.2323 230.782 24.1855C230.4 24.2089 230.009 24.2215 229.631 24.2593C229.343 24.2881 229.207 24.2125 229.016 24.1693C228.951 24.1549 228.881 24.1243 228.821 24.1261C228.127 24.1657 227.433 24.2071 226.743 24.2575C226.459 24.2791 226.329 24.1981 226.138 24.1567C226.073 24.1441 225.998 24.1207 225.938 24.1243C225.476 24.1495 225.015 24.1801 224.554 24.2107C224.293 24.2287 224.293 24.2287 223.725 24.1171C223.66 24.1045 223.585 24.0919 223.52 24.0955C222.057 24.1855 220.599 24.2809 219.137 24.3709C218.988 24.3799 218.853 24.3529 218.736 24.3043C218.615 24.2557 218.48 24.2305 218.331 24.2395C217.716 24.2773 217.097 24.3115 216.486 24.3583C216.235 24.3781 216.035 24.3547 215.862 24.2917C215.732 24.2449 215.611 24.2269 215.448 24.2377C215.14 24.2593 214.833 24.2773 214.525 24.2971C214.218 24.3169 213.911 24.3367 213.603 24.3565C213.296 24.3763 212.984 24.3871 212.681 24.4177C212.308 24.4555 212.127 24.3439 211.87 24.2881C211.409 24.3151 210.948 24.3421 210.491 24.3709C209.877 24.4087 209.262 24.4501 208.647 24.4861C208.591 24.4897 208.521 24.4573 208.456 24.4411C208.265 24.3961 208.125 24.3331 207.841 24.3529C206.462 24.4483 205.074 24.5293 203.691 24.6229C203.402 24.6427 203.276 24.5653 203.081 24.5239C203.015 24.5113 202.941 24.4861 202.88 24.4897C202.112 24.5347 201.343 24.5851 200.575 24.6336C200.263 24.6534 200.263 24.6534 199.741 24.5418C199.68 24.5293 199.601 24.513 199.536 24.5166C198.534 24.5778 197.538 24.6427 196.536 24.7057C196.387 24.7147 196.252 24.6895 196.131 24.6409C196.014 24.5923 195.875 24.5653 195.73 24.5743C194.808 24.6319 193.881 24.6877 192.963 24.7507C192.716 24.7686 192.511 24.7525 192.334 24.6877C192.209 24.6409 192.083 24.621 191.925 24.6318C190.541 24.72 189.158 24.8047 187.774 24.8983C187.509 24.9163 187.322 24.882 187.155 24.8227C187.02 24.7759 186.903 24.7668 186.736 24.774C186.559 24.783 186.451 24.8028 186.354 24.8568C186.228 24.927 186.149 25.0152 185.851 25.0206C185.543 25.026 185.231 25.0477 184.928 25.0783C184.639 25.1089 184.504 25.0278 184.323 24.9792C184.188 24.945 184.062 24.9396 183.89 24.9558C183.731 24.9702 183.633 25.0008 183.54 25.0584C183.335 25.1808 183.317 25.1808 183.065 25.1034C182.93 25.062 182.809 25.0296 182.66 25.0368C182.045 25.0728 181.43 25.1124 180.815 25.1538C180.461 25.1772 180.457 25.1808 180.191 25.0908C180.061 25.0458 179.935 25.0242 179.781 25.035C178.09 25.143 176.399 25.2474 174.709 25.3608C174.448 25.3788 174.271 25.341 174.084 25.287C174.024 25.269 173.963 25.2438 173.893 25.2366C173.824 25.2294 173.744 25.2366 173.67 25.2402C172.44 25.3176 171.206 25.3914 169.981 25.4778C169.701 25.4976 169.552 25.44 169.361 25.3932C169.296 25.377 169.24 25.3518 169.17 25.3446C169.1 25.3392 169.016 25.3518 168.942 25.3572C167.712 25.4346 166.478 25.5084 165.253 25.5948C164.959 25.6146 164.834 25.539 164.643 25.4994C164.577 25.485 164.507 25.458 164.447 25.4616C164.06 25.4814 163.678 25.5084 163.292 25.5318C162.369 25.5912 161.447 25.647 160.525 25.7082C160.171 25.7316 160.017 25.5714 159.719 25.5786C159.332 25.5876 158.95 25.6236 158.564 25.6488C158.256 25.6686 157.949 25.6866 157.642 25.7082C157.339 25.728 157.339 25.728 156.584 25.6236C156.519 25.6146 156.44 25.602 156.375 25.6056C155.299 25.6722 154.218 25.7388 153.147 25.8108C152.9 25.827 152.695 25.818 152.518 25.7514C152.392 25.7046 152.262 25.6812 152.108 25.692C150.492 25.7946 148.88 25.8972 147.263 25.998C147.203 26.0016 147.124 25.9836 147.063 25.9692C146.933 25.9368 146.807 25.899 146.681 25.8648C146.588 25.9062 146.467 25.944 146.406 25.9908C146.323 26.0538 146.211 26.0718 146.034 26.0826C145.857 26.0934 145.745 26.0898 145.605 26.043C145.438 25.9854 145.265 25.9404 144.99 25.9584C143.299 26.0718 141.609 26.1744 139.918 26.286C139.638 26.304 139.508 26.2248 139.312 26.1834C139.247 26.1708 139.172 26.151 139.112 26.1546C138.418 26.196 137.728 26.241 137.034 26.2842C135.111 26.4066 133.187 26.5236 131.268 26.6532C130.918 26.6766 130.681 26.6316 130.434 26.5542C130.383 26.538 130.294 26.529 130.229 26.5326C127.537 26.7018 124.844 26.8728 122.157 27.0438C122.012 27.0528 121.873 27.024 121.756 26.9772C121.635 26.9286 121.5 26.9052 121.351 26.9142C120.121 26.9916 118.891 27.069 117.662 27.1482C117.354 27.168 117.35 27.1698 117.033 27.0834C116.968 27.0654 116.898 27.0312 116.847 27.0348C116.739 27.0438 116.637 27.0888 116.562 27.15C116.488 27.2148 116.371 27.2328 116.199 27.2454C116.022 27.258 115.906 27.2526 115.771 27.2094C115.598 27.1554 115.44 27.1032 115.16 27.1212C111.625 27.3516 108.089 27.573 104.554 27.8015C104.27 27.8195 104.139 27.744 103.944 27.7026C103.879 27.69 103.813 27.672 103.744 27.6684C103.669 27.6648 103.59 27.6756 103.515 27.681C97.7486 28.0464 91.9821 28.4135 86.2154 28.7789C85.8707 28.8005 85.8754 28.8005 85.4981 28.9661C85.4515 28.9859 85.3909 29.0129 85.3257 29.0165C83.5603 29.1317 81.7903 29.2433 80.0202 29.3549C79.2517 29.4035 78.4831 29.4539 77.7145 29.5007C77.4397 29.5169 77.4397 29.5169 76.7829 29.7113C76.727 29.7275 76.6618 29.7491 76.5965 29.7527C73.5222 29.9489 70.4479 30.1451 67.369 30.3377C67.1267 30.3521 66.9311 30.3845 66.8194 30.4709C66.7402 30.5321 66.6377 30.5681 66.484 30.5789C64.332 30.7157 62.18 30.8543 60.0234 30.9875C59.7672 31.0037 59.6134 31.0541 59.4876 31.1297C59.4457 31.1549 59.4084 31.1836 59.3479 31.2016C59.292 31.2178 59.2081 31.2232 59.1383 31.2286C57.2937 31.3456 55.4492 31.4662 53.5999 31.5778C53.3251 31.594 53.2133 31.6606 53.0782 31.7308C53.0316 31.7542 52.999 31.7866 52.9384 31.8028C52.8779 31.8172 52.7894 31.8172 52.7148 31.8208C51.1777 31.918 49.6406 32.017 48.1034 32.1142C47.8053 32.1052 47.7401 32.2096 47.5957 32.2726C47.5444 32.2942 47.5072 32.323 47.4467 32.3374C47.3815 32.3518 47.2975 32.35 47.2183 32.3536C45.9886 32.431 44.7589 32.5138 43.5246 32.5858C43.2404 32.602 43.1845 32.6938 43.0308 32.7568C42.9795 32.7766 42.9284 32.8072 42.8678 32.8126C42.0992 32.8648 41.3307 32.9134 40.5621 32.9602C40.3059 32.9764 40.3059 32.9746 39.8541 33.1528C39.8029 33.1726 39.7422 33.1942 39.677 33.1996C38.5265 33.2752 37.3713 33.3472 36.2161 33.421C36.0671 33.43 35.9646 33.4732 35.8901 33.5344C35.8156 33.5956 35.7085 33.6352 35.5594 33.6442C34.6371 33.7036 33.7147 33.7648 32.7925 33.8188C32.5363 33.8332 32.3686 33.8782 32.2568 33.9592C32.173 34.0204 32.0705 34.051 31.9075 34.0618C30.9852 34.1194 30.0629 34.1824 29.136 34.2328C28.8658 34.2472 28.726 34.3084 28.6142 34.384C28.5257 34.4451 28.4232 34.4668 28.2509 34.4776C26.56 34.5819 24.8645 34.6863 23.1783 34.8015C22.8942 34.8213 22.7498 34.7583 22.5634 34.7133C22.2979 34.6503 22.0511 34.5819 22.0511 34.4415C22.0511 34.4199 21.9719 34.3947 21.916 34.3767C21.5015 34.2417 21.5015 34.2418 21.4362 34.0978C21.399 34.0096 21.3571 33.9196 21.3245 33.8296C21.2639 33.682 21.1148 33.6442 20.6862 33.6712C20.5325 33.6802 20.3788 33.6928 20.2251 33.7C19.9969 33.7126 19.8245 33.6532 19.7826 33.5452C19.7593 33.4858 19.7314 33.4264 19.7081 33.367C19.941 33.3526 19.9363 33.3508 20.3462 33.133C20.5186 33.0412 20.5186 33.0412 20.1879 32.9494C20.0622 32.9152 19.941 32.8774 19.8059 32.845C19.7454 32.8306 19.6662 32.8216 19.601 32.8252C19.2144 32.8468 18.8324 32.872 18.4505 32.8972C17.8356 32.9368 17.8356 32.9368 17.2114 32.7532C17.1601 32.7388 17.081 32.7118 17.0903 32.6974C17.1415 32.6308 17.2673 32.602 17.4256 32.5948C17.6585 32.584 17.8868 32.566 18.115 32.5516C18.2687 32.5426 18.4224 32.5318 18.5761 32.5228C18.7205 32.4544 18.8697 32.3878 19.0048 32.3176C19.219 32.2096 19.219 32.206 18.9255 32.1304C18.7392 32.08 18.5389 32.035 18.3479 31.9882C18.1197 32.0026 17.8868 32.0188 17.6585 32.0314C17.3697 32.0476 17.2533 32.0134 17.1787 31.8964C17.1135 31.7938 17.1927 31.7056 17.4163 31.684C17.6446 31.6624 17.8589 31.648 17.9754 31.5562C18.0872 31.4681 18.2828 31.4338 18.525 31.4266C18.6787 31.4212 18.8324 31.4087 18.9861 31.3979C19.1864 31.3835 19.2936 31.2916 19.2517 31.1891C19.2284 31.1225 19.1818 31.0667 19.0001 31.0523C18.1943 30.9893 18.1849 30.9911 17.7843 30.8687C17.747 30.8579 17.7192 30.8255 17.7331 30.8093C17.7564 30.7823 17.8077 30.7427 17.8636 30.7373C18.3992 30.6977 18.9349 30.6617 19.4706 30.6347C19.6476 30.6257 19.778 30.6131 19.8386 30.5465C19.9224 30.4547 19.8852 30.3701 19.7221 30.3071C19.6709 30.2873 19.587 30.2621 19.5311 30.2639C18.9162 30.2963 18.306 30.3377 17.6912 30.3701C17.6353 30.3737 17.5328 30.3431 17.5096 30.3197C17.463 30.2765 17.5328 30.2189 17.6958 30.1991C17.9101 30.1721 18.129 30.1703 18.2734 30.0803C18.4737 29.9525 18.7206 29.8355 18.9442 29.7131C18.9814 29.6915 19.0421 29.6501 19.0281 29.6465C18.9116 29.6069 18.7765 29.5763 18.6554 29.5385C18.4505 29.4755 18.4504 29.3873 18.497 29.3027C18.5343 29.2343 18.674 29.2073 18.8464 29.2073C18.9209 29.2073 19.014 29.2073 19.0746 29.1911C19.233 29.1515 19.2842 29.1011 19.205 29.0633C19.1584 29.0417 19.0746 29.0111 19.0188 29.0147C18.0219 29.0741 17.0204 29.1317 16.0282 29.2055C15.7348 29.2271 15.5998 29.1587 15.4228 29.1101C15.2877 29.0723 15.1618 29.0579 14.9942 29.0849C14.8358 29.1101 14.6821 29.0957 14.5843 29.0363C14.5051 28.9877 14.6448 28.9463 15.0221 28.8995C15.092 28.8905 15.1712 28.8851 15.2224 28.8671C15.7627 28.6727 15.7627 28.6709 16.1353 28.6457C16.4987 28.6223 16.4988 28.6205 16.6897 28.5161C16.7782 28.4675 16.876 28.4189 16.9598 28.3685C16.9924 28.3487 17.0484 28.3127 17.0298 28.3019C16.9273 28.2461 16.7875 28.2335 16.6245 28.2461C16.2611 28.2767 15.8327 28.2515 15.6417 28.4225C15.5672 28.4873 15.4507 28.5053 15.283 28.5161C13.5968 28.6205 11.9105 28.7321 10.2197 28.8329C9.94486 28.8491 9.81916 28.9157 9.71203 28.9895C9.61887 29.0507 9.51637 29.0687 9.33936 29.0795C9.16236 29.0903 9.02255 29.0957 8.92007 29.0363C8.85952 29.0003 8.91077 28.9499 9.05051 28.8995C9.25081 28.8275 9.21352 28.7375 9.14831 28.6529C9.10173 28.5971 8.95734 28.5575 8.80362 28.5611C8.57538 28.5683 8.35651 28.5881 8.16553 28.5161C8.05374 28.4747 7.91397 28.4459 7.7882 28.4099C7.54599 28.3361 7.30376 28.2605 6.96373 28.3091C6.73082 28.2911 6.56779 28.2263 6.38147 28.1759C6.06938 28.0931 6.04144 28.0805 6.26502 27.9923C6.51655 27.8934 6.32088 27.7637 6.46062 27.6665C6.60968 27.5622 6.8147 27.4704 6.99636 27.3732C7.04294 27.348 7.08488 27.3246 7.13146 27.2994C7.02433 27.2634 6.92653 27.2184 6.80076 27.1932C6.63773 27.1608 6.55388 27.1212 6.5632 27.0096C6.53059 26.9934 6.54447 27.0348 6.58174 27.0456C6.62366 27.0564 6.72621 27.0474 6.77745 27.0348C6.90787 27.0006 6.97302 26.9556 6.94041 26.9178C6.92178 26.898 6.83335 26.8728 6.77745 26.8728C6.67497 26.8728 6.58648 26.9124 6.55854 27.0096C6.03684 27.0834 5.49642 27.1194 4.95609 27.1482C4.90019 27.1518 4.83036 27.1158 4.76515 27.0978C4.55088 27.0366 4.55085 27.0384 3.92202 27.0204C3.85681 27.0186 3.76835 26.9934 3.73575 26.9682C3.60066 26.8584 3.60536 26.7378 3.54014 26.6208C3.66125 26.5452 3.78227 26.4714 3.90803 26.3976C4.15957 26.2482 4.4857 26.1168 4.68134 25.953C4.63942 25.8648 4.58351 25.7766 4.78846 25.7046C5.37072 25.6146 5.3661 25.6146 5.52447 25.5282C5.9763 25.2834 6.42344 25.0368 6.8939 24.7956C7.01967 24.7327 7.01968 24.6985 6.7961 24.6715C6.72623 24.6643 6.6516 24.6625 6.57707 24.6661C6.34417 24.6787 6.11127 24.711 5.88303 24.7038C5.65479 24.6985 5.4871 24.6193 5.30078 24.5707C5.1098 24.5203 4.91883 24.4681 4.72785 24.4159C4.50892 24.4213 4.29004 24.4717 4.07111 24.3907C3.90342 24.3277 3.69382 24.2827 3.50284 24.2305C3.64724 24.0937 3.91745 23.9893 4.12706 23.8687C4.31804 23.7589 4.32259 23.7607 4.83498 23.6761C5.07719 23.6365 5.16104 23.4331 4.95609 23.3737C4.70921 23.3017 4.44842 23.2351 4.19689 23.1667C3.97796 23.1721 3.75442 23.2207 3.54481 23.1397C3.38178 23.0785 3.19542 23.0371 2.92525 23.0605C2.46877 23.1001 2.00298 23.1199 1.54183 23.1523C1.38346 23.1631 1.21106 23.1559 1.14119 23.0947C1.09461 23.0515 1.2297 22.9921 1.38342 22.9795C1.61632 22.9615 1.82591 22.9399 1.94236 22.8499C2.05415 22.7599 2.25908 22.7329 2.5013 22.7203C2.56651 22.7167 2.6411 22.6951 2.6737 22.6735C2.84139 22.5691 3.02773 22.4791 3.38639 22.4827C3.53545 22.4467 3.61459 22.4017 3.56801 22.3585C3.54006 22.3351 3.44229 22.3045 3.38639 22.3081C2.99978 22.3261 2.61317 22.3441 2.23587 22.3765C2.05887 22.3909 1.92371 22.3945 1.81192 22.3405C1.73274 22.3045 1.77465 22.2559 1.92371 22.2037C2.05413 22.1587 2.09144 22.1065 2.08212 22.0453C2.05883 21.9031 1.91907 21.8617 1.47189 21.8707C1.15049 21.8779 1.0713 21.8545 1.00143 21.7321C0.982798 21.7033 0.936299 21.6637 0.968906 21.6439C1.1692 21.5215 1.29963 21.3704 1.67693 21.3128C1.82599 21.2912 1.9843 21.2912 2.07746 21.2444C2.17062 21.1976 2.25451 21.1436 2.35233 21.0986C2.47343 21.0446 2.5572 20.9942 2.5013 20.96C2.40814 20.8988 2.25913 20.8934 2.08679 20.915C1.93773 20.933 1.77936 20.9348 1.62565 20.9456C1.35082 20.9654 1.12729 20.9186 1.09468 20.8394C1.00618 20.6306 0.912991 20.4236 0.833805 20.2148C0.824489 20.1896 0.847715 20.1572 0.884979 20.1356C1.0154 20.06 1.1552 19.988 1.29028 19.9142C1.44865 19.8296 1.70023 19.8458 1.9145 19.8296C2.21727 19.8062 2.21717 19.808 2.62241 19.6352C2.78079 19.5668 3.05562 19.5938 3.21865 19.5326C3.26989 19.5128 3.34908 19.4804 3.33511 19.4624C3.31647 19.439 3.22336 19.421 3.15349 19.4102C3.08828 19.3994 3.00911 19.394 2.93924 19.3994C2.09148 19.4516 1.2484 19.5074 0.40064 19.5578C0.256241 19.5668 0.097864 19.5272 0.0466257 19.4714C-0.00461254 19.4192 0.00931605 19.3562 0 19.2968C0.135083 19.223 0.288738 19.1546 0.405189 19.0754C0.493692 19.0142 0.596186 18.9872 0.773191 18.9836C1.00609 18.9782 1.23436 18.9566 1.49521 18.9404C1.97964 18.6776 2.45473 18.4023 2.97643 18.1395C3.18604 18.0333 3.13488 17.9253 3.17681 17.8119C3.21873 17.7075 3.5308 17.7237 3.74041 17.6931C3.9081 17.6679 3.96392 17.6103 3.89871 17.5707C3.86144 17.5473 3.77764 17.5203 3.71243 17.5203C3.55872 17.5203 3.40501 17.5365 3.25129 17.5455C3.09758 17.5545 2.92058 17.5491 2.79482 17.5797C2.67371 17.6085 2.59447 17.6697 2.51529 17.7219C2.42679 17.7795 2.31042 17.7993 2.13341 17.8029C1.90517 17.8065 1.67694 17.8227 1.4487 17.8353C1.19716 17.7651 0.936258 17.6967 0.694041 17.6229C0.647461 17.6085 0.638095 17.5671 0.642753 17.5401C0.652069 17.4699 0.582217 17.4267 0.428502 17.3925C0.298077 17.3637 0.190934 17.3223 0.0698249 17.2863C0.162985 17.2377 0.265498 17.1909 0.340027 17.1387C0.503058 17.0289 0.708034 16.9497 1.06204 16.9533C1.20178 16.8831 1.31354 16.7967 1.49521 16.7481C1.66755 16.7013 1.96102 16.7481 2.09145 16.6419C2.15666 16.5897 2.25453 16.5303 2.3803 16.5087C2.5806 16.4745 2.84144 16.4925 2.95789 16.3917C3.02776 16.3341 3.1302 16.2819 3.26528 16.2675C3.419 16.2513 3.57733 16.2477 3.68912 16.2135C3.74967 16.1955 3.8149 16.1667 3.8149 16.1415C3.8149 16.1253 3.72181 16.1001 3.6566 16.0893C3.59604 16.0767 3.51676 16.0677 3.44689 16.0713C3.21399 16.0821 2.98575 16.1019 2.75285 16.1127C2.68764 16.1163 2.61313 16.1037 2.54326 16.0929C2.33831 16.0641 2.35226 16.0281 2.51529 15.9633C2.67832 15.9003 2.79483 15.8193 2.92992 15.7455C3.07897 15.7329 3.26527 15.7383 3.36774 15.7041C3.54009 15.6483 3.66117 15.5673 3.80091 15.4971C3.95462 15.4863 4.11299 15.4827 4.25738 15.4629C4.31794 15.4557 4.34591 15.4161 4.39715 15.3927C4.49031 15.3477 4.56956 15.283 4.69533 15.2614C4.90028 15.229 5.15181 15.2415 5.27292 15.1425C5.34279 15.085 5.44988 15.0238 5.58031 15.0202C5.94363 15.013 6.09735 14.9139 6.28367 14.8204C6.42341 14.7502 6.72153 14.7862 6.87525 14.716C6.97773 14.671 7.0523 14.6152 7.15478 14.572C7.1967 14.554 7.28517 14.545 7.35504 14.5396C7.737 14.5126 8.1236 14.4928 8.50556 14.464C8.56611 14.4586 8.62206 14.4316 8.66864 14.41C8.76645 14.3632 8.82694 14.2984 8.94805 14.2678C9.06916 14.2372 9.24148 14.2372 9.39054 14.2282C9.87031 14.2012 9.90761 14.2084 10.1265 14.0554C10.3035 13.9312 10.7368 14.0194 10.8812 13.8826C10.965 13.8034 11.1187 13.7386 11.3935 13.7296C11.7801 13.717 12.1621 13.6828 12.5487 13.6594C12.8934 13.6378 12.8887 13.6378 13.2614 13.4704C13.4291 13.3948 13.676 13.4056 13.8949 13.3912C14.1278 13.3768 14.3421 13.3552 14.4539 13.2652C14.5657 13.177 14.7706 13.1482 15.0081 13.1356C15.2271 13.123 15.474 13.132 15.6463 13.06C16.0656 12.8872 16.0609 12.8854 16.3544 12.8674C16.8155 12.8386 17.2767 12.8098 17.7378 12.7792C18.0452 12.7594 18.3666 12.7558 18.6554 12.7162C18.865 12.6874 18.9582 12.5866 19.0932 12.5164C19.4752 12.4894 19.8571 12.4624 20.2391 12.4372C20.7748 12.4012 21.3151 12.3688 21.8554 12.3346C22.0883 12.2662 22.121 12.115 22.5123 12.1078C22.7452 12.1042 22.9734 12.0809 23.2063 12.0665C23.5929 12.0413 23.9749 12.0089 24.3615 11.9963C24.655 11.9873 24.7061 11.89 24.8598 11.8288C24.9111 11.8072 24.9577 11.7767 25.0182 11.7713C25.6238 11.7209 26.2479 11.7101 26.8395 11.6363C26.9 11.6291 26.9559 11.5913 26.9699 11.5643C26.9792 11.5499 26.9 11.5229 26.8488 11.5103C26.7883 11.4959 26.7091 11.4815 26.6439 11.4851C24.7201 11.6057 22.7964 11.7281 20.8726 11.8487C20.6025 11.8667 20.6025 11.8649 19.9457 12.0628C19.8898 12.079 19.8245 12.097 19.7546 12.1024C19.4472 12.124 19.1351 12.1367 18.8324 12.1637C18.5855 12.1853 18.3806 12.1636 18.2036 12.0988C18.0778 12.052 17.9473 12.0377 17.789 12.0413C17.612 12.0466 17.4956 12.0665 17.3931 12.1151C17.258 12.1817 17.1881 12.268 16.904 12.286C15.5951 12.3634 14.2861 12.4498 12.9819 12.5326C12.8002 12.5074 12.7117 12.4696 12.7583 12.4246C12.7862 12.3976 12.8421 12.3616 12.898 12.358C13.4337 12.3202 13.974 12.2879 14.5097 12.2519C14.5842 12.2465 14.6867 12.25 14.7286 12.232C14.9336 12.151 15.0082 12.0196 15.3948 12.0106C15.6184 12.0052 15.8466 11.9783 16.0609 11.9531C16.1214 11.9459 16.1773 11.9081 16.1913 11.8811C16.196 11.8667 16.1214 11.8396 16.0655 11.827C15.8606 11.7748 15.6231 11.8379 15.4181 11.8019C15.3482 11.7893 15.2504 11.7713 15.2364 11.7497C15.2271 11.7299 15.3063 11.6975 15.3622 11.6777C15.4134 11.6597 15.4832 11.6435 15.5531 11.6381C16.168 11.5967 16.7829 11.5535 17.3978 11.5211C17.6493 11.5085 17.8263 11.4635 17.9381 11.3807C18.0219 11.3195 18.1244 11.2871 18.2827 11.2781C19.3588 11.2115 20.4347 11.1377 21.5154 11.0765C21.7856 11.0621 21.9254 11.0027 22.0371 10.9253C22.1256 10.8641 22.2281 10.8425 22.4005 10.8317C23.9423 10.7381 25.4747 10.6337 27.0165 10.5437C27.3007 10.5275 27.3846 10.4501 27.529 10.3835C27.5802 10.3601 27.6127 10.3313 27.6779 10.3169C27.7432 10.3025 27.827 10.3043 27.9062 10.3007C29.1359 10.2233 30.3657 10.1405 31.6001 10.0685C31.8889 10.0523 31.9447 9.96231 32.0938 9.89931C32.145 9.87951 32.1916 9.84713 32.2522 9.84173C33.1744 9.78053 34.0967 9.72293 35.019 9.66353C35.6339 9.62393 36.2487 9.58433 36.8636 9.54653C37.1663 9.52853 37.1663 9.52672 37.5763 9.35573C37.6228 9.33593 37.6881 9.31252 37.7487 9.30713C39.5187 9.19193 41.284 9.08215 43.0541 8.96876C43.2032 8.95976 43.3103 8.91834 43.3848 8.85714C43.4593 8.79594 43.5666 8.75454 43.7109 8.74554C45.0944 8.65555 46.4778 8.56736 47.8659 8.48276C48.1174 8.46836 48.2944 8.42516 48.4062 8.34416C48.49 8.28296 48.5925 8.25057 48.7509 8.24157C50.1343 8.15518 51.5178 8.06337 52.9059 7.98057C53.1714 7.96437 53.3018 7.90318 53.4322 7.83118C53.4788 7.80598 53.5161 7.76458 53.572 7.76098C54.2613 7.71058 54.946 7.65838 55.6401 7.62418C55.9289 7.60978 56.0267 7.53418 56.1432 7.46218C56.2364 7.40458 56.3435 7.38479 56.5205 7.37759C56.9071 7.36139 57.2891 7.3308 57.6664 7.30021C57.7223 7.29481 57.7922 7.2552 57.7968 7.23001C57.8061 7.18321 57.699 7.1508 57.5219 7.1346C55.6774 7.2516 53.8282 7.36859 51.9836 7.48558C51.6808 7.50538 51.6808 7.50539 51.2709 7.67639C51.2243 7.69619 51.1591 7.71959 51.0939 7.72499C49.3238 7.83839 47.5585 7.94998 45.7884 8.06338C45.6394 8.07238 45.5322 8.11378 45.4577 8.17498C45.3832 8.23617 45.276 8.27757 45.1316 8.28657C43.4407 8.39457 41.7499 8.50437 40.0544 8.60697C39.8028 8.62137 39.6259 8.66275 39.5141 8.74554C39.4302 8.80674 39.3277 8.83915 39.1694 8.84815C37.553 8.94895 35.9413 9.05514 34.3203 9.15233C34.1573 9.16133 34.0362 9.10913 34.0455 9.06053C34.0502 9.03533 34.12 8.99396 34.1759 8.99036C35.019 8.93096 35.8575 8.86975 36.7053 8.82475C36.9894 8.81035 37.0732 8.73115 37.2176 8.66456C37.2642 8.64116 37.3014 8.61056 37.362 8.59796C37.4272 8.58356 37.5111 8.58536 37.5902 8.58177C39.5885 8.45397 41.5869 8.32438 43.5898 8.20378C43.8786 8.18578 43.9344 8.09757 44.0835 8.03457C44.1347 8.01298 44.1814 7.98059 44.2419 7.97699C44.8568 7.93379 45.4716 7.89598 46.0865 7.85818C47.1625 7.78979 48.2385 7.72139 49.3191 7.65299C49.6312 7.63319 49.6312 7.63318 50.0318 7.46398C50.0784 7.44419 50.1437 7.419 50.2042 7.4154C53.0503 7.23361 55.8964 7.05181 58.7424 6.87182C58.8915 6.86282 58.9986 6.82142 59.0731 6.76022C59.1476 6.70082 59.2547 6.65763 59.3991 6.64683C63.2467 6.40203 67.0896 6.15723 70.9371 5.91604C71.1886 5.89984 71.3656 5.86204 71.4774 5.77744C71.5566 5.71624 71.6637 5.68385 71.8221 5.67305C76.0516 5.40486 80.281 5.13667 84.5152 4.86668C87.3612 4.68668 90.2073 4.50309 93.0534 4.3267C93.3142 4.3105 93.4539 4.25469 93.5843 4.18089C93.6263 4.15569 93.6682 4.11429 93.7241 4.11069C94.3343 4.06569 94.9445 4.0243 95.5547 3.9829C95.7457 4.0315 95.9366 4.07831 96.1276 4.1269C96.272 4.05851 96.4118 3.9883 96.5562 3.91991C97.4785 3.86771 98.3868 3.78671 99.3184 3.76151C99.379 3.75971 99.4441 3.79391 99.5093 3.81191C99.9425 3.92531 100.189 3.91631 100.464 3.76511C100.562 3.71112 100.646 3.66252 100.795 3.65352C101.256 3.62112 101.722 3.59952 102.178 3.56172C102.425 3.54192 102.63 3.55992 102.807 3.62471C102.933 3.67151 103.064 3.69132 103.217 3.68052C104.065 3.62652 104.908 3.57432 105.756 3.51672C105.816 3.51312 105.872 3.48251 105.919 3.46091C106.017 3.41411 106.1 3.36373 106.194 3.31513C106.319 3.34573 106.459 3.36913 106.562 3.40873C106.692 3.45553 106.813 3.45552 106.99 3.44292C110.372 3.22512 113.758 3.01273 117.14 2.79314C117.429 2.77514 117.555 2.85075 117.75 2.89034C117.815 2.90474 117.881 2.92273 117.951 2.92633C118.025 2.92993 118.104 2.91914 118.179 2.91374C120.717 2.75175 123.256 2.59154 125.795 2.42955C126.13 2.40795 126.13 2.40795 126.628 2.51955C126.689 2.53394 126.768 2.55015 126.833 2.54475C127.989 2.47455 129.144 2.39896 130.294 2.32696C130.443 2.31796 130.569 2.34675 130.704 2.38815C130.97 2.46915 130.988 2.46916 131.184 2.35036C131.277 2.29456 131.375 2.26035 131.529 2.24415C131.696 2.22615 131.831 2.23157 131.962 2.26397C132.148 2.30897 132.283 2.38455 132.567 2.36475C133.797 2.28016 135.031 2.20996 136.257 2.12357C136.536 2.10377 136.685 2.16496 136.871 2.20996C136.937 2.22616 136.997 2.25136 137.067 2.25676C137.137 2.26216 137.221 2.24955 137.295 2.24415C138.832 2.14695 140.374 2.05157 141.907 1.94718C142.195 1.92738 142.321 2.00476 142.517 2.04436C142.582 2.05876 142.657 2.08397 142.717 2.08037C143.639 2.02457 144.567 1.96516 145.489 1.90576C145.82 1.88416 145.819 1.88596 146.322 1.99576C146.383 2.01015 146.462 2.02456 146.528 2.02096C147.604 1.95436 148.684 1.88596 149.76 1.81756C150.091 1.79596 150.091 1.79597 151.046 1.88956C151.116 1.89676 151.19 1.90758 151.26 1.90398C152.49 1.82658 153.724 1.75097 154.954 1.66818C155.201 1.65198 155.406 1.66637 155.583 1.73117C155.708 1.77797 155.839 1.79778 155.993 1.78698C157.376 1.69878 158.764 1.61419 160.143 1.52059C160.408 1.50259 160.581 1.54217 160.767 1.59437C160.828 1.61237 160.888 1.63758 160.958 1.64478C161.028 1.65198 161.107 1.64477 161.182 1.63937C162.565 1.55117 163.953 1.46838 165.332 1.37298C165.611 1.35318 165.76 1.41438 165.947 1.45938C166.012 1.47558 166.082 1.50798 166.138 1.50618C166.678 1.47558 167.218 1.44859 167.754 1.40359C168.043 1.37839 168.169 1.46117 168.364 1.50077C168.43 1.51337 168.504 1.54038 168.565 1.53678C169.72 1.46659 170.875 1.39279 172.026 1.3172C172.189 1.3064 172.31 1.32258 172.44 1.36938C172.612 1.43238 172.813 1.45758 173.064 1.43778C173.6 1.39638 174.14 1.36759 174.681 1.33339C174.997 1.31359 174.997 1.3136 175.966 1.40719C176.036 1.41439 176.111 1.42518 176.18 1.42158C177.103 1.36399 178.03 1.30819 178.947 1.24519C179.194 1.22719 179.399 1.24339 179.576 1.30819C179.702 1.35499 179.828 1.3748 179.986 1.364C180.834 1.31 181.677 1.25599 182.525 1.202C182.832 1.1822 183.14 1.14799 183.447 1.14799C183.671 1.14979 183.834 1.23618 184.034 1.27938C184.09 1.29198 184.183 1.2776 184.258 1.274C185.334 1.2056 186.414 1.1426 187.486 1.0652C187.765 1.0454 187.914 1.10659 188.1 1.15159C188.166 1.16779 188.235 1.20019 188.291 1.19839C188.678 1.17859 189.06 1.15159 189.447 1.12819C189.908 1.09939 190.373 1.07779 190.83 1.0382C191.203 1.0058 191.342 1.16239 191.64 1.16779C191.869 1.17319 192.102 1.14259 192.33 1.12819C192.791 1.09939 193.252 1.067 193.713 1.0418C193.876 1.0328 194.002 1.00399 194.053 0.939189C194.063 0.92659 193.984 0.899602 193.932 0.883403C193.313 0.699808 193.313 0.6998 192.688 0.739398C192.302 0.764597 191.92 0.789801 191.533 0.8114C191.468 0.815 191.394 0.800602 191.328 0.789802C191.142 0.759203 191.161 0.723208 191.319 0.65841C191.477 0.593612 191.598 0.514421 191.734 0.440623C191.925 0.487422 192.111 0.534204 192.302 0.581002C192.456 0.572003 192.609 0.561219 192.763 0.552219C193.532 0.505421 194.3 0.456819 195.069 0.41362C195.125 0.41002 195.195 0.446024 195.26 0.464024C195.446 0.516222 195.614 0.561208 195.884 0.541409C196.573 0.489211 197.267 0.451412 197.957 0.406413C198.26 0.386614 198.26 0.386615 198.791 0.498212C198.851 0.510812 198.93 0.525212 198.995 0.521612C199.69 0.480213 200.379 0.43522 201.073 0.392021C201.222 0.383022 201.366 0.40642 201.474 0.458618C201.516 0.480218 201.506 0.51621 201.683 0.8114C202.233 1.05079 202.61 1.02561 202.992 1.00401C203.155 0.995007 203.299 0.985998 203.407 0.95C203.463 0.9302 203.532 0.901397 203.532 0.877997C203.532 0.859998 203.43 0.831194 203.365 0.827594C202.904 0.791595 202.466 0.867203 202.014 0.883403C201.804 0.890602 201.623 0.827603 201.585 0.725007C201.576 0.696208 201.562 0.66561 201.548 0.636811C201.534 0.608012 201.525 0.577415 201.511 0.548616C201.329 0.539616 201.222 0.57201 201.143 0.633208C201.078 0.683606 200.984 0.741204 200.859 0.768204C200.733 0.797003 200.561 0.791612 200.407 0.800612C200.258 0.809612 200.095 0.833009 199.955 0.820409C199.815 0.806009 199.703 0.753802 199.573 0.721403C199.513 0.705204 199.438 0.681813 199.377 0.685413C198.842 0.716012 198.311 0.7466 197.78 0.786199C197.5 0.807798 197.361 0.732212 197.184 0.685413C197.044 0.649414 196.904 0.658403 196.881 0.7412C196.82 0.939194 197.034 1.02199 197.51 0.984188C197.901 0.951789 198.255 0.946406 198.562 1.0688C198.604 1.085 198.702 1.0922 198.763 1.0886C199.145 1.067 199.522 1.04 199.904 1.0184C199.974 1.0148 200.048 1.02199 200.113 1.02919C201.064 1.12638 201.064 1.12819 201.385 1.10659C201.539 1.09579 201.688 1.08679 201.674 0.813202C201.967 0.519811 202.433 0.500015 202.885 0.456817C203.178 0.429818 203.304 0.509019 203.495 0.550417C203.56 0.564817 203.63 0.593611 203.691 0.590011C204.692 0.530613 205.689 0.467606 206.686 0.401008C206.854 0.390208 206.975 0.40101 207.105 0.447808C207.273 0.507206 207.459 0.545013 207.725 0.523414C208.256 0.480215 208.796 0.453222 209.336 0.417223C209.611 0.399224 209.611 0.399205 210.165 0.510802C210.226 0.523402 210.305 0.537802 210.37 0.534202C210.911 0.503603 211.446 0.465816 211.982 0.433417C212.131 0.424417 212.266 0.449614 212.383 0.498212C212.499 0.54681 212.639 0.572007 212.783 0.563007C213.324 0.530608 213.859 0.494621 214.395 0.462222C214.46 0.458622 214.539 0.471221 214.6 0.48382C215.168 0.595417 215.168 0.595398 215.429 0.577399C215.811 0.5504 216.202 0.537814 216.58 0.501815C216.948 0.465817 217.138 0.570204 217.39 0.627803C218.079 0.586404 218.773 0.552214 219.458 0.501815C219.738 0.480216 219.887 0.539609 220.073 0.586407C220.138 0.602607 220.203 0.636809 220.264 0.635009C220.497 0.62781 220.725 0.608014 220.953 0.593614C221.182 0.579215 221.415 0.564817 221.643 0.550417C221.904 0.602616 222.076 0.72501 222.449 0.683611C222.672 0.658412 222.91 0.653012 223.138 0.638613C223.366 0.624213 223.599 0.609816 223.827 0.595416C223.981 0.586416 224.14 0.581009 224.289 0.564809C224.563 0.53781 224.699 0.626018 224.894 0.665616C224.959 0.678216 225.034 0.699801 225.094 0.696201C225.556 0.671002 226.021 0.649405 226.473 0.608006C226.823 0.575607 227.06 0.629612 227.307 0.70521C227.358 0.721409 227.447 0.730408 227.512 0.726808C228.052 0.696209 228.588 0.6584 229.124 0.626001C229.268 0.617001 229.408 0.645799 229.524 0.692598C229.645 0.741196 229.78 0.764613 229.929 0.755614C230.465 0.723215 231.005 0.687205 231.541 0.654806C231.606 0.651206 231.686 0.665608 231.746 0.680008C232.268 0.791605 232.268 0.793406 232.575 0.771807C232.65 0.766407 232.729 0.762793 232.803 0.757393C233.185 0.732194 233.581 0.723207 233.954 0.680008C234.383 0.63141 234.695 0.69261 234.997 0.795207C235.379 0.773608 235.771 0.761005 236.143 0.725007C236.423 0.698007 236.572 0.766402 236.758 0.8114C236.823 0.8276 236.893 0.859999 236.949 0.856399C237.489 0.8258 238.03 0.79881 238.561 0.753812C238.85 0.728613 238.975 0.809595 239.171 0.850994C239.236 0.865393 239.306 0.890606 239.367 0.887006C239.674 0.872606 239.982 0.850997 240.289 0.831197C240.648 0.807798 240.648 0.809596 241.123 0.919393C241.346 0.971591 241.57 0.930191 241.789 0.917591C242.022 0.903191 242.241 0.892395 242.427 0.966193C242.543 1.01299 242.683 1.04179 242.828 1.03459C243.135 1.01839 243.447 1.0022 243.75 0.975201C243.992 0.953602 244.202 0.967994 244.379 1.03459C244.504 1.08139 244.635 1.1048 244.789 1.094C245.478 1.05081 246.172 1.00579 246.861 0.964391C246.922 0.960791 247.006 0.976997 247.062 0.993196C247.192 1.0256 247.318 1.06159 247.444 1.09759C247.746 1.08139 248.058 1.0742 248.357 1.04901C248.673 1.02381 248.962 1.0148 249.209 1.1138C249.26 1.1354 249.335 1.16598 249.395 1.16418C249.628 1.15698 249.856 1.13899 250.085 1.12459C250.313 1.11019 250.546 1.09579 250.774 1.08139C251.04 1.12639 251.207 1.25598 251.58 1.21459C251.804 1.18939 252.041 1.18399 252.269 1.16959C252.498 1.15519 252.73 1.13899 252.959 1.12639C253.033 1.12279 253.117 1.11379 253.182 1.12099C253.252 1.12819 253.313 1.15339 253.373 1.17139C253.56 1.22359 253.732 1.27579 253.997 1.24519C254.221 1.21999 254.459 1.21459 254.687 1.19839C254.999 1.17859 254.999 1.1786 255.516 1.29199C255.726 1.33879 255.963 1.2776 256.163 1.3172C256.298 1.34419 256.415 1.38918 256.545 1.41978C256.601 1.43238 256.69 1.43777 256.755 1.43417C257.062 1.41797 257.375 1.40178 257.677 1.37478C257.924 1.35318 258.129 1.37478 258.301 1.43958C258.427 1.48638 258.553 1.50619 258.711 1.49539C259.48 1.44499 260.249 1.40178 261.012 1.34598C261.273 1.32618 261.483 1.35679 261.627 1.42158C261.874 1.53318 262.224 1.40179 262.48 1.49178C262.638 1.54758 262.796 1.61238 263.085 1.58538C263.616 1.53859 264.157 1.51337 264.692 1.48097C264.883 1.52957 265.074 1.57818 265.27 1.62678C265.577 1.60698 265.885 1.58717 266.192 1.56917C266.42 1.55477 266.653 1.53857 266.882 1.52597C266.956 1.52237 267.035 1.51517 267.105 1.52417C267.175 1.53317 267.231 1.55658 267.296 1.57457C267.618 1.66277 267.617 1.66458 268.148 1.62858C268.377 1.61238 268.596 1.60158 268.787 1.67358C268.964 1.74018 269.173 1.75277 269.415 1.73297C269.872 1.69697 270.333 1.66997 270.799 1.64478C270.943 1.63578 271.078 1.66638 271.2 1.71317C271.381 1.78697 271.605 1.77977 271.833 1.75997C272.136 1.73478 272.434 1.70958 272.69 1.81038C272.741 1.83198 272.821 1.86256 272.876 1.86076C273.258 1.84636 273.645 1.83557 274.018 1.80137C274.39 1.76717 274.572 1.87876 274.828 1.93276C275.21 1.90936 275.597 1.88596 275.979 1.86256C276.053 1.85716 276.142 1.84097 276.207 1.84997C276.482 1.88777 276.64 2.02276 277.017 1.98136C277.236 1.95796 277.474 1.95077 277.702 1.94537C277.763 1.94357 277.842 1.97416 277.884 1.99756C277.907 2.01016 277.884 2.04435 277.856 2.06235C277.772 2.11275 277.67 2.15956 277.595 2.21176C277.586 2.21896 277.674 2.25135 277.725 2.26575C277.851 2.29815 277.996 2.29276 278.163 2.27836C278.308 2.26576 278.457 2.29096 278.559 2.34496C278.601 2.36656 278.587 2.40255 278.499 2.52135C278.499 2.60954 278.596 2.56994 278.629 2.51234C278.68 2.42954 278.582 2.40254 278.396 2.44754C278.266 2.47994 278.201 2.52674 278.233 2.56454C278.252 2.58434 278.34 2.60954 278.499 2.52135C278.909 2.41335 279.216 2.39356 279.523 2.37376C279.603 2.36836 279.696 2.35035 279.752 2.36115C279.952 2.40435 280.138 2.45656 280.334 2.50515C280.558 2.49435 280.767 2.46734 280.986 2.53754C281.293 2.63654 281.307 2.62754 281.606 2.60774C281.759 2.59694 281.913 2.58796 282.067 2.57896C282.22 2.56996 282.342 2.59695 282.477 2.63835C282.751 2.72294 282.775 2.72294 282.956 2.60774C283.064 2.53754 283.138 2.51415 283.273 2.54655C283.72 2.65635 283.725 2.66354 284.107 2.63114C284.424 2.60414 284.722 2.59694 284.955 2.69954C285.113 2.77154 285.164 2.75534 285.29 2.67974C285.625 2.47995 285.779 2.48354 286.408 2.62754C286.701 2.69594 287.004 2.62215 287.302 2.61315C287.554 2.60595 287.731 2.64914 287.75 2.76253C287.763 2.83273 287.805 2.88314 287.973 2.90654C288.038 2.91554 288.117 2.92813 288.183 2.92453C288.569 2.90293 288.951 2.87773 289.338 2.85253C289.533 2.83993 289.641 2.75535 289.603 2.64375C289.561 2.52496 289.636 2.48174 289.915 2.44754C290.083 2.42774 290.218 2.43136 290.353 2.46376C290.502 2.49976 290.461 2.53215 290.33 2.59695C290.018 2.75535 290.055 2.85253 290.456 2.96232C290.596 3.00012 290.707 3.03434 290.74 3.09014C290.759 3.11893 290.74 3.15673 290.782 3.17833C291.01 3.29893 291.327 3.37633 291.681 3.43393C292.021 3.38533 292.254 3.46631 292.515 3.53111C292.72 3.58151 292.962 3.53832 293.181 3.52032C293.428 3.50052 293.633 3.51492 293.81 3.58152C293.935 3.62831 294.066 3.64991 294.219 3.64091C294.527 3.62111 294.839 3.60851 295.142 3.57971C295.403 3.55452 295.598 3.59052 295.761 3.65172C295.966 3.72911 296.195 3.67691 296.409 3.68771C296.698 3.70031 296.842 3.8605 297.219 3.8173C297.443 3.7921 297.676 3.7831 297.909 3.7759C297.969 3.7741 298.044 3.80471 298.095 3.82631C298.342 3.9253 298.631 3.9199 298.947 3.8911C299.166 3.8713 299.381 3.85331 299.595 3.92171C299.949 4.0369 300.34 4.13771 300.713 4.24391C300.764 4.3267 300.727 4.42388 300.992 4.47248C301.132 4.49768 301.262 4.53549 301.37 4.57689C301.5 4.62549 301.621 4.63809 301.789 4.62549C302.092 4.60029 302.408 4.59488 302.706 4.56248C302.981 4.53368 303.154 4.59309 303.321 4.64889C303.456 4.69389 303.582 4.71548 303.745 4.68308C303.913 4.65248 304.034 4.67227 304.169 4.72087C304.36 4.78747 304.374 4.78028 305.008 4.80008C305.073 4.80188 305.152 4.82887 305.189 4.85226C305.208 4.86486 305.166 4.90088 305.133 4.91888C305.091 4.94048 305.026 4.96567 304.966 4.97107C304.276 5.01787 303.582 5.05926 302.893 5.10606C302.823 5.11146 302.748 5.12408 302.697 5.14208C302.641 5.16187 302.571 5.18886 302.571 5.21406C302.571 5.23205 302.664 5.25366 302.73 5.26626C302.935 5.30766 303.177 5.24466 303.377 5.29146C303.512 5.32206 303.624 5.36525 303.759 5.39405C303.815 5.40665 303.904 5.40486 303.973 5.40126C304.206 5.38866 304.435 5.37066 304.667 5.35986C304.733 5.35806 304.807 5.37607 304.868 5.39047C305.315 5.49847 305.315 5.49846 305.702 5.47506C305.855 5.46606 306.018 5.43906 306.163 5.44986C306.302 5.46066 306.424 5.50926 306.549 5.53986C306.81 5.60465 307.057 5.66765 307.076 5.80805C307.085 5.86204 307.239 5.90883 307.392 5.91243C307.541 5.91603 307.7 5.89625 307.854 5.88545C308.217 5.86385 308.217 5.86385 308.687 5.97365C308.818 6.00425 308.957 6.00784 309.125 5.98984C309.19 5.98264 309.27 5.98985 309.34 5.99885C309.568 6.02585 309.568 6.06004 309.419 6.12484C309.209 6.22023 309.228 6.22924 309.815 6.31024C310.038 6.34084 310.21 6.39844 310.397 6.44884C310.7 6.52983 310.695 6.52982 310.495 6.63602C310.448 6.65941 310.406 6.68462 310.36 6.70982C310.224 6.78002 310.117 6.85561 309.838 6.86281C309.53 6.87001 309.223 6.89882 308.916 6.91862C308.617 6.93842 308.538 6.9816 308.566 7.104C308.599 7.25159 308.659 7.2678 309.195 7.266C309.349 7.266 309.484 7.28039 309.6 7.32899C309.544 7.38659 309.442 7.43159 309.293 7.44239C308.911 7.46939 308.524 7.49279 308.142 7.51619C307.835 7.53599 307.527 7.55578 307.22 7.57558C307.029 7.58818 306.908 7.68179 306.959 7.78618C306.987 7.84558 307.01 7.90498 307.034 7.96437C307.085 8.08317 307.183 8.11378 307.495 8.10838C307.574 8.10658 307.649 8.09217 307.723 8.09577C308.026 8.10837 308.17 8.25776 308.534 8.22716C308.836 8.20196 309.153 8.19656 309.451 8.16417C309.726 8.13537 309.88 8.20018 310.071 8.24878C310.136 8.26498 310.206 8.29916 310.262 8.29736C310.648 8.27756 311.035 8.25778 311.412 8.22358C311.589 8.20918 311.696 8.21997 311.836 8.26317C312.172 8.36757 312.181 8.36217 312.679 8.32977C313.043 8.30457 313.047 8.30817 313.513 8.41796C313.643 8.44856 313.783 8.44856 313.951 8.43416C314.17 8.41616 314.398 8.38736 314.626 8.41436C314.696 8.42156 314.785 8.44317 314.808 8.46657C314.822 8.48277 314.757 8.52236 314.701 8.53496C314.291 8.62856 313.811 8.61236 313.364 8.65016C313.224 8.66096 313.084 8.62676 312.968 8.57816C312.847 8.52956 312.717 8.50977 312.558 8.51877C312.251 8.53857 311.939 8.55116 311.636 8.57996C311.375 8.60516 311.193 8.56376 311.012 8.50796C310.951 8.48996 310.881 8.45576 310.821 8.45756C310.131 8.49356 309.437 8.52956 308.753 8.57996C308.478 8.60156 308.319 8.54397 308.133 8.49537C308.068 8.47917 308.003 8.44497 307.942 8.44677C307.709 8.45397 307.481 8.47376 307.248 8.48816C306.4 8.54216 305.557 8.59616 304.709 8.64656C304.653 8.65016 304.584 8.61236 304.518 8.59616C304.393 8.56376 304.262 8.53315 304.132 8.50256C303.899 8.51696 303.671 8.53495 303.438 8.54575C303.27 8.55295 303.121 8.57816 303.098 8.64656C303.084 8.69156 303.237 8.73295 303.401 8.72935C303.559 8.72575 303.717 8.70415 303.848 8.72755C304.495 8.84274 304.495 8.84455 304.9 8.82115C305.254 8.79955 305.217 8.78154 305.529 8.88054C305.664 8.92374 305.785 8.94895 305.939 8.93815C306.321 8.91295 306.708 8.88775 307.094 8.86615C307.155 8.86255 307.234 8.88055 307.295 8.89495C307.751 9.00295 307.751 9.00654 308.128 8.97955C308.622 8.94715 308.641 8.93815 308.971 9.04794C309.2 9.12354 309.409 9.07134 309.628 9.06774C309.88 9.13794 310.155 9.20095 310.383 9.28014C310.653 9.37374 310.937 9.35752 311.245 9.33053C311.473 9.31073 311.696 9.30353 311.883 9.37733C312.06 9.44572 312.274 9.45294 312.516 9.43494C312.735 9.41874 312.959 9.38453 313.187 9.42413C313.248 9.43493 313.341 9.46193 313.336 9.47813C313.331 9.50333 313.271 9.53934 313.21 9.55014C312.782 9.62393 312.311 9.62213 311.859 9.65633C311.799 9.66173 311.72 9.64192 311.659 9.62752C311.529 9.59512 311.403 9.55733 311.277 9.52313C311.049 9.53393 310.816 9.53752 310.592 9.55912C310.42 9.57532 310.29 9.57354 310.164 9.53034C310.047 9.49074 309.922 9.44213 309.782 9.42953C309.642 9.41693 309.479 9.44393 309.326 9.45473C309.172 9.46553 308.995 9.46012 308.874 9.48892C308.753 9.51772 308.678 9.58073 308.599 9.63112C308.51 9.68692 308.389 9.70493 308.212 9.71033C308.049 9.71573 307.919 9.70853 307.798 9.65813C307.746 9.63653 307.676 9.62032 307.607 9.60592C307.541 9.59332 307.467 9.57352 307.406 9.57712C306.712 9.61852 306.023 9.66353 305.329 9.70673C304.984 9.72833 304.989 9.72831 304.272 9.62212C304.206 9.61312 304.127 9.60052 304.062 9.60412C303.675 9.62572 303.293 9.65092 302.907 9.67612C302.515 9.70132 302.52 9.69772 301.854 9.58432C301.733 9.56272 301.556 9.59153 301.412 9.58793C301.109 9.57893 300.96 9.42774 300.606 9.45653C300.303 9.48173 299.986 9.48713 299.683 9.51953C299.408 9.54833 299.25 9.48534 299.064 9.43674C298.999 9.42054 298.929 9.38454 298.873 9.38814C298.179 9.42773 297.489 9.47273 296.567 9.47813C296.339 9.47813 296.441 9.51594 296.59 9.52854C296.805 9.54834 296.875 9.51054 296.758 9.43854C296.674 9.38814 296.553 9.36292 296.455 9.37552C296.404 9.38272 296.339 9.41693 296.567 9.47813C296.809 9.54653 296.795 9.58432 296.837 9.60592C296.94 9.65812 297.084 9.67972 297.233 9.67252C297.466 9.65992 297.694 9.64192 297.927 9.63112C297.993 9.62752 298.072 9.64012 298.132 9.65452C298.645 9.76612 298.649 9.77333 299.194 9.73013C299.367 9.71753 299.492 9.71753 299.627 9.75173C299.814 9.79853 299.949 9.87771 300.233 9.85251C300.61 9.81831 300.997 9.79853 301.384 9.77873C301.444 9.77513 301.509 9.80753 301.579 9.82193C301.77 9.86513 301.91 9.94613 302.194 9.91193C302.413 9.88493 302.651 9.87771 302.883 9.87231C302.944 9.87051 303.037 9.89931 303.065 9.92271C303.121 9.96411 303.051 10.0127 302.893 10.0469C302.828 10.0613 302.739 10.0577 302.665 10.0631C302.357 10.0829 302.05 10.1045 301.742 10.1207C301.579 10.1297 301.426 10.1567 301.407 10.2233C301.393 10.2683 301.561 10.3079 301.719 10.3043C301.952 10.2989 302.185 10.2845 302.408 10.2611C302.804 10.2215 303.149 10.2323 303.47 10.3457C303.699 10.4249 303.685 10.3961 303.927 10.6301C303.987 10.6895 304.169 10.6949 304.327 10.6913C304.709 10.6823 304.886 10.7093 304.854 10.7651C304.812 10.8335 304.677 10.8551 304.504 10.8641C304.197 10.8785 303.89 10.9019 303.582 10.9217C303.508 10.9271 303.424 10.9379 303.354 10.9343C303.284 10.9307 303.219 10.9091 303.158 10.8929C303.028 10.8587 302.916 10.8065 302.776 10.7939C302.637 10.7813 302.474 10.8083 302.32 10.8191C302.166 10.8281 302.003 10.8551 301.863 10.8425C301.724 10.8299 301.607 10.7759 301.481 10.7435C301.421 10.7273 301.346 10.7021 301.286 10.7039C300.978 10.7183 300.671 10.7417 300.363 10.7597C299.986 10.7831 299.986 10.7831 299.53 10.6715C299.399 10.6391 299.264 10.6409 299.092 10.6553C298.719 10.6841 298.715 10.6787 298.034 10.5743C297.969 10.5635 297.89 10.5509 297.825 10.5563C297.131 10.5977 296.441 10.6427 295.752 10.6859C295.16 10.7237 295.16 10.7237 294.834 10.9037C294.592 11.0369 294.587 11.0369 294.825 11.0981C295.016 11.1485 295.188 11.2223 295.398 11.2493C295.594 11.2745 295.836 11.1935 296.05 11.2763C296.157 11.3177 296.297 11.3627 296.432 11.3699C296.646 11.3789 296.875 11.3267 297.08 11.4059C297.182 11.4455 297.336 11.4869 297.466 11.4887C297.694 11.4923 297.927 11.4635 298.156 11.4509C298.225 11.4473 298.305 11.4473 298.37 11.4563C298.44 11.4671 298.5 11.4887 298.561 11.5067C298.747 11.5679 298.947 11.5967 299.19 11.5661C299.586 11.5157 299.94 11.5409 300.247 11.6561C300.289 11.6723 300.391 11.6741 300.457 11.6669C300.624 11.6489 300.769 11.6471 300.894 11.6813C300.946 11.6957 301.02 11.7208 301.011 11.737C300.997 11.764 300.941 11.8001 300.88 11.8091C300.443 11.8702 299.972 11.8775 299.52 11.9099C299.46 11.9135 299.385 11.89 299.325 11.8738C299.194 11.8414 299.082 11.7875 298.943 11.7749C298.803 11.7623 298.64 11.7857 298.486 11.7947C298.333 11.8037 298.17 11.8307 298.03 11.8199C297.89 11.8073 297.76 11.7623 297.648 11.7227C297.517 11.6777 297.392 11.6723 297.219 11.6903C296.996 11.7137 296.763 11.7173 296.535 11.7299C296.409 11.6957 296.283 11.6579 296.153 11.6255C296.092 11.6093 296.018 11.5895 295.952 11.5913C295.645 11.6057 295.337 11.6273 295.03 11.6471C294.723 11.6669 294.723 11.6669 294.201 11.5553C294.14 11.5427 294.061 11.5283 293.996 11.5319C293.609 11.5535 293.227 11.5805 292.841 11.6021C292.692 11.6111 292.557 11.5859 292.436 11.5373C292.319 11.4887 292.179 11.4617 292.035 11.4707C291.42 11.5085 290.805 11.5445 290.19 11.5895C289.943 11.6075 289.734 11.5913 289.566 11.5265C289.37 11.4527 289.152 11.4707 288.923 11.4851C288.406 11.5211 288.402 11.5193 288.071 11.4275C288.006 11.4095 287.94 11.3753 287.88 11.3771C287.344 11.4041 286.804 11.4293 286.273 11.4725C285.993 11.4959 285.844 11.4329 285.658 11.3861C285.593 11.3699 285.523 11.3357 285.467 11.3393C285.081 11.3591 284.694 11.3771 284.316 11.4131C283.939 11.4491 283.795 11.2817 283.511 11.2835C283.124 11.2853 282.742 11.3267 282.36 11.3519C282.053 11.3717 281.745 11.3915 281.438 11.4113C281.13 11.4311 280.823 11.4473 280.516 11.4707C280.353 11.4833 280.231 11.4671 280.096 11.4221C279.924 11.3627 279.719 11.3159 279.533 11.2619C279.249 11.1845 279.249 11.1845 278.904 11.2061C278.829 11.2115 278.75 11.2151 278.676 11.2205C278.112 11.2601 278.112 11.2565 277.395 11.1431C277.362 11.1377 277.278 11.1575 277.246 11.1719C277.148 11.2187 277.059 11.2691 276.971 11.3177C276.845 11.2889 276.691 11.2727 276.608 11.2313C276.37 11.1143 275.997 11.2745 275.755 11.1593C275.667 11.1161 275.513 11.0783 275.373 11.0675C275.229 11.0567 275.066 11.0819 274.917 11.0927C274.53 11.1197 274.53 11.1179 274.199 11.2781C274.032 11.3573 273.789 11.3429 273.57 11.3609C273.342 11.3807 273.123 11.3915 272.932 11.3177C272.76 11.2511 272.55 11.2349 272.304 11.2565C272.001 11.2835 271.689 11.2997 271.381 11.3159C271.316 11.3195 271.237 11.3105 271.172 11.2997C270.459 11.1935 270.459 11.1917 270.114 11.2151C269.96 11.2259 269.802 11.2295 269.653 11.2457C269.401 11.2745 269.211 11.2367 269.029 11.1791C268.968 11.1611 268.898 11.1269 268.838 11.1287C268.53 11.1377 268.228 11.1539 267.925 11.1701C267.692 11.1827 267.459 11.1899 267.236 11.2151C266.863 11.2565 266.681 11.1395 266.425 11.0855C266.043 11.1089 265.656 11.1251 265.275 11.1575C265.098 11.1719 264.981 11.1665 264.846 11.1233C264.674 11.0693 264.515 11.0081 264.236 11.0351C263.863 11.0711 263.472 11.0837 263.09 11.1053C262.834 11.0495 262.647 10.9361 262.279 10.9775C262.056 11.0027 261.818 11.0081 261.59 11.0225C261.283 11.0423 260.975 11.0603 260.668 11.0819C260.337 11.1035 260.342 11.0981 259.834 10.9919C259.541 10.9289 259.238 10.9991 258.94 11.0099C258.707 11.0189 258.59 11.1017 258.646 11.2079C258.702 11.3141 258.576 11.3969 258.362 11.4113C257.826 11.4455 257.286 11.4815 256.75 11.5121C256.685 11.5157 256.606 11.5031 256.545 11.4905C255.972 11.3771 255.972 11.3789 255.716 11.3951C255.334 11.4221 254.943 11.4365 254.566 11.4707C254.305 11.4941 254.114 11.4563 253.946 11.3951C253.816 11.3483 253.695 11.3375 253.527 11.3483C251.682 11.4689 249.838 11.5805 247.998 11.7047C247.723 11.7227 247.565 11.6705 247.378 11.6219C247.313 11.6057 247.253 11.5715 247.187 11.5715C247.034 11.5715 246.88 11.5877 246.726 11.5985C246.037 11.6417 245.347 11.6939 244.653 11.7263C244.36 11.7407 244.281 11.8235 244.155 11.8919C244.057 11.9441 243.945 11.9657 243.773 11.9729C243.605 11.9801 243.484 11.971 243.354 11.9242C243.186 11.8631 242.995 11.8252 242.734 11.8504C242.432 11.8792 242.124 11.8919 241.812 11.9117C241.654 11.9207 241.533 11.9531 241.481 12.0178C241.472 12.0287 241.57 12.0557 241.626 12.0719C241.812 12.1259 241.989 12.1889 242.199 12.2267C242.413 12.2644 242.646 12.2212 242.869 12.2104C242.949 12.2068 243.023 12.196 243.098 12.1978C243.167 12.1996 243.251 12.2086 243.303 12.2248C243.545 12.3058 243.801 12.3616 244.136 12.313C244.425 12.3364 244.574 12.4858 244.942 12.4462C245.166 12.4228 245.399 12.412 245.632 12.403C245.692 12.4012 245.757 12.4336 245.823 12.4498C246.009 12.4948 246.158 12.5668 246.438 12.5362C246.736 12.5038 247.052 12.4984 247.355 12.4732C247.523 12.4588 247.644 12.4714 247.774 12.5182C247.942 12.5776 248.133 12.6226 248.394 12.5938C248.617 12.5686 248.855 12.5632 249.083 12.547C249.381 12.5272 249.381 12.529 249.912 12.6406C249.973 12.6532 250.052 12.6676 250.117 12.664C250.504 12.6424 250.886 12.6154 251.272 12.5938C251.422 12.5848 251.566 12.6082 251.668 12.6604C251.71 12.682 251.696 12.718 251.71 12.7486C250.942 12.7972 250.173 12.8386 249.409 12.898C249.12 12.9214 248.99 12.8476 248.799 12.8062C248.734 12.7918 248.664 12.7612 248.603 12.7648C248.063 12.7954 247.527 12.8278 246.992 12.8674C246.824 12.88 246.698 12.8728 246.573 12.8206C246.251 12.682 245.86 12.7576 245.497 12.7774C245.217 12.7918 245.129 12.8476 245.161 12.9664C245.203 13.1068 245.371 13.15 245.799 13.1248C245.953 13.1158 246.107 13.1032 246.26 13.096C246.41 13.0888 246.545 13.1122 246.666 13.1608C246.782 13.2094 246.922 13.2346 247.066 13.2274C247.374 13.2112 247.686 13.195 247.984 13.168C248.231 13.1464 248.436 13.1644 248.608 13.231C248.799 13.3048 249.023 13.2886 249.246 13.2724C249.768 13.2364 249.773 13.2382 250.099 13.3282C250.164 13.3462 250.229 13.3804 250.29 13.3786C250.825 13.3516 251.366 13.3282 251.892 13.285C252.167 13.2634 252.325 13.321 252.507 13.3678C252.572 13.384 252.637 13.42 252.698 13.4164C253.084 13.3966 253.471 13.3768 253.848 13.3426C254.025 13.3264 254.132 13.3372 254.277 13.3804C254.622 13.4866 254.631 13.483 255.12 13.4488C255.269 13.438 255.432 13.4182 255.572 13.4326C255.712 13.447 255.823 13.4992 255.954 13.5316C256.014 13.546 256.089 13.5658 256.154 13.5622C256.462 13.5478 256.769 13.5262 257.076 13.5064C257.365 13.4866 257.365 13.4884 257.906 13.6C258.124 13.6468 258.353 13.6072 258.572 13.5928C258.809 13.5766 259.023 13.5766 259.205 13.6468C259.387 13.717 259.606 13.7134 259.839 13.699C260.058 13.6846 260.281 13.645 260.505 13.6936C261.017 13.8052 261.017 13.807 261.334 13.7854C261.795 13.7548 262.251 13.726 262.717 13.699C262.778 13.6954 262.857 13.717 262.918 13.7314C263.048 13.7638 263.16 13.8178 263.3 13.8304C263.439 13.8448 263.602 13.8232 263.751 13.8124C264.231 13.7782 264.264 13.7656 264.585 13.8844C264.855 13.9816 265.191 13.8412 265.442 13.9528C265.587 14.0158 265.782 14.0662 266.052 14.0356C266.276 14.0104 266.509 14.0032 266.742 13.9888C267.11 13.9654 267.11 13.9672 267.576 14.0752C267.636 14.0896 267.715 14.1076 267.776 14.104C268.083 14.0896 268.395 14.077 268.694 14.0446C269.043 14.0068 269.266 14.0752 269.527 14.1418C269.732 14.194 269.975 14.1508 270.193 14.1328C270.431 14.1148 270.645 14.1202 270.822 14.1904C271.009 14.2624 271.228 14.2534 271.46 14.239C271.679 14.2264 271.903 14.185 272.126 14.2354C272.606 14.347 272.606 14.347 272.956 14.3254C273.263 14.3056 273.57 14.284 273.878 14.2696C273.938 14.266 274.013 14.2894 274.073 14.3056C274.204 14.338 274.316 14.392 274.455 14.4046C274.595 14.4172 274.758 14.3938 274.912 14.3848C275.066 14.3758 275.229 14.3488 275.368 14.3596C275.508 14.3704 275.639 14.4154 275.75 14.455C275.881 14.5018 276.002 14.5072 276.179 14.4892C276.403 14.4658 276.635 14.4604 276.864 14.4478C276.989 14.482 277.12 14.5162 277.241 14.554C277.367 14.5936 277.502 14.59 277.674 14.5774C278.247 14.5342 278.252 14.5396 278.732 14.6512C278.95 14.7016 279.179 14.6602 279.398 14.6476C279.631 14.6332 279.849 14.626 280.031 14.698C280.208 14.7664 280.427 14.7754 280.66 14.7538C280.809 14.7394 280.967 14.7304 281.121 14.725C281.191 14.7232 281.275 14.7304 281.326 14.7448C281.573 14.8204 281.815 14.8888 282.155 14.8402C282.453 14.8546 282.602 15.0022 282.961 14.9734C283.264 14.9482 283.581 14.9427 283.879 14.9103C284.153 14.8816 284.349 14.932 284.489 14.995C284.74 15.1066 285.094 14.9554 285.346 15.0652C285.49 15.1282 285.677 15.1786 285.956 15.1516C286.264 15.1228 286.361 15.1605 286.45 15.2739C286.501 15.3387 286.492 15.3909 286.399 15.4413C286.306 15.4935 286.203 15.4846 286.054 15.4252C285.882 15.3586 285.677 15.3459 285.43 15.3603C285.188 15.3747 285.039 15.2812 284.838 15.2452C284.638 15.2074 284.4 15.2704 284.191 15.2218C283.697 15.1084 283.697 15.1084 283.362 15.13C283.133 15.1444 282.896 15.1516 282.672 15.1768C282.407 15.2074 282.234 15.1516 282.053 15.1012C281.988 15.0832 281.922 15.049 281.866 15.0508C281.331 15.0778 280.79 15.103 280.259 15.148C279.98 15.1714 279.831 15.1066 279.645 15.0616C279.579 15.0454 279.509 15.013 279.454 15.0166C278.992 15.0418 278.536 15.0742 278.075 15.1048C277.986 15.1534 277.888 15.2001 277.805 15.2523C277.716 15.3063 277.595 15.3297 277.418 15.3279C277.125 15.3279 276.836 15.4035 276.542 15.3082C276.24 15.211 276.216 15.2164 275.923 15.2398C275.55 15.2704 275.154 15.2632 274.805 15.3334C274.744 15.346 274.679 15.3801 274.679 15.4053C274.674 15.4215 274.772 15.4449 274.833 15.4593C275.038 15.5025 275.275 15.4395 275.48 15.4845C275.615 15.5133 275.727 15.5565 275.862 15.5871C275.918 15.5997 276.002 15.5979 276.076 15.5961C276.156 15.5943 276.23 15.5817 276.305 15.5835C276.375 15.5853 276.449 15.5961 276.505 15.6123C276.761 15.6807 277.031 15.7437 277.26 15.8247C277.483 15.9039 277.693 15.8499 277.916 15.8463C278.811 15.9723 278.811 15.9741 279.412 15.9345C279.561 15.9255 279.714 15.9147 279.868 15.9165C279.933 15.9165 279.994 15.9489 280.059 15.9669C280.245 16.0209 280.422 16.0695 280.683 16.0407C280.907 16.0155 281.144 16.0101 281.373 15.9939C281.68 15.9741 281.68 15.9741 282.202 16.0875C282.332 16.1163 282.472 16.1127 282.64 16.0983C282.784 16.0857 282.933 16.1127 283.036 16.1649C283.077 16.1865 283.064 16.2225 283.077 16.2531C282.616 16.2819 282.151 16.3017 281.703 16.3449C281.415 16.3719 281.284 16.2945 281.093 16.2531C281.028 16.2387 280.958 16.2081 280.898 16.2117C280.441 16.2387 279.985 16.2693 279.528 16.3053C279.472 16.3089 279.402 16.3503 279.398 16.3755C279.388 16.4223 279.505 16.4673 279.672 16.4655C279.896 16.4637 280.115 16.4331 280.315 16.5069C280.483 16.5717 280.693 16.6005 280.939 16.5717C281.088 16.5555 281.247 16.5555 281.396 16.5411C281.792 16.4979 282.151 16.5069 282.449 16.6293C282.677 16.6617 282.901 16.6311 283.119 16.6149C283.283 16.6023 283.441 16.5897 283.557 16.6239C283.804 16.6959 284.046 16.7679 284.386 16.7193C284.754 16.7697 285.034 16.8759 285.341 16.9623C285.486 17.0037 285.598 17.0271 285.765 17.0001C285.835 16.9893 285.919 16.9893 285.993 16.9839C286.147 16.9749 286.31 16.9479 286.45 16.9587C286.59 16.9713 286.706 17.0235 286.832 17.0559C286.892 17.0721 286.962 17.0991 287.023 17.0973C287.256 17.0883 287.484 17.0703 287.712 17.0559C287.94 17.0433 288.169 17.0307 288.397 17.0181C288.588 17.0649 288.784 17.1117 288.975 17.1585C289.282 17.1387 289.589 17.1189 289.892 17.1009C290.232 17.0793 290.232 17.0811 290.721 17.1927C290.94 17.2431 291.173 17.2107 291.383 17.1873C291.732 17.1495 291.965 17.2179 292.212 17.2899C292.263 17.3043 292.356 17.3133 292.417 17.3061C292.659 17.2809 292.869 17.3007 293.046 17.3673C293.171 17.4141 293.297 17.4357 293.451 17.4267C293.987 17.3925 294.522 17.3565 295.058 17.3259C295.123 17.3223 295.198 17.3385 295.258 17.3529C295.733 17.4627 295.738 17.4681 296.087 17.4393C296.399 17.4141 296.688 17.4033 296.935 17.5023C296.986 17.5239 297.065 17.5545 297.121 17.5527C297.503 17.5347 297.89 17.5149 298.267 17.4843C298.44 17.4699 298.561 17.4753 298.696 17.5167C298.868 17.5689 299.022 17.6319 299.306 17.6085C300.093 17.5419 300.098 17.5527 301.03 17.6769C301.095 17.6859 301.183 17.6715 301.258 17.6643C301.416 17.6463 301.533 17.6715 301.672 17.7129C301.984 17.8065 301.994 17.8011 302.292 17.7813C302.52 17.7651 302.758 17.7615 302.981 17.7345C303.326 17.6949 303.554 17.7651 303.81 17.8317C304.015 17.8839 304.253 17.8407 304.472 17.8245C304.709 17.8065 304.924 17.8119 305.101 17.8803C305.222 17.9271 305.352 17.9523 305.506 17.9433C306.042 17.9109 306.577 17.8749 307.113 17.8425C307.178 17.8389 307.257 17.8533 307.318 17.8659C307.849 17.9775 307.849 17.9829 308.375 17.9415C308.543 17.9289 308.683 17.9253 308.808 17.9631C308.93 17.9991 309.06 18.0333 309.186 18.0675C309.414 18.0549 309.647 18.0513 309.87 18.0297C310.043 18.0135 310.164 18.0207 310.299 18.0585C310.476 18.1071 310.625 18.1916 310.905 18.1502C311.049 18.1304 311.217 18.1359 311.361 18.1179C311.533 18.0945 311.65 18.1089 311.785 18.1557C311.953 18.2115 312.125 18.269 312.395 18.2402C312.693 18.2078 313.01 18.2025 313.313 18.1773C313.48 18.1629 313.597 18.1773 313.732 18.2241C313.9 18.2835 314.091 18.3213 314.352 18.2979C314.883 18.2529 314.887 18.2618 315.404 18.3752C315.535 18.404 315.674 18.4005 315.842 18.3861C315.986 18.3735 316.135 18.4004 316.238 18.4526C316.336 18.5102 316.326 18.5462 316.336 18.5768ZM274.828 2.34315C274.674 2.35215 274.521 2.36295 274.297 2.20636C274.283 2.17936 274.292 2.14697 274.26 2.12357C274.185 2.07497 274.069 2.04077 273.929 2.03537C273.678 2.02817 273.375 2.08936 273.379 2.13616C273.384 2.17576 273.463 2.20995 273.617 2.24235C273.682 2.25495 273.734 2.27655 273.794 2.29095C273.971 2.33235 274.111 2.41336 274.367 2.37196C274.32 2.26036 274.344 2.31616 274.367 2.37196C274.344 2.44036 274.414 2.48896 274.581 2.50876C274.628 2.51416 274.698 2.51055 274.735 2.49975C274.879 2.46015 274.903 2.40616 274.796 2.26397C274.777 2.28737 274.791 2.32875 274.833 2.33955C274.875 2.35035 274.977 2.34136 275.028 2.32876C275.159 2.29456 275.224 2.24956 275.191 2.21176C275.173 2.19196 275.084 2.16676 275.028 2.16676C274.931 2.16676 274.842 2.20636 274.828 2.34315ZM312.493 23.2171C312.153 23.2513 311.762 23.2387 311.422 23.3089C311.361 23.3215 311.301 23.3539 311.296 23.3791C311.291 23.3953 311.384 23.4187 311.44 23.4313C311.566 23.4601 311.706 23.4511 311.869 23.4421C312.116 23.4295 312.26 23.5123 312.451 23.5537C312.512 23.5663 312.591 23.5753 312.656 23.5717C313.033 23.5501 313.406 23.5267 313.783 23.5015C313.848 23.4961 313.918 23.4835 313.974 23.4673C314.161 23.4151 314.142 23.3809 313.96 23.3413C313.76 23.2981 313.602 23.2261 313.397 23.1919C313.103 23.1433 312.805 23.2081 312.493 23.2171ZM286.04 24.5311C285.812 24.5455 285.588 24.5599 285.36 24.5743C285.285 24.5797 285.206 24.5815 285.136 24.5886C284.992 24.6012 284.885 24.639 284.815 24.6984C284.922 24.7452 285.053 24.7722 285.197 24.7668C285.425 24.756 285.649 24.7326 285.877 24.7272C286.124 24.72 286.268 24.8011 286.459 24.8424C286.52 24.855 286.594 24.8568 286.664 24.8586C287.009 24.8658 287.218 24.7723 287.153 24.6409C287.107 24.5383 286.93 24.4771 286.715 24.4897C286.492 24.5023 286.264 24.5167 286.04 24.5311ZM314.086 20.5568C314.142 20.5262 314.202 20.5046 314.23 20.4776C314.314 20.3858 314.282 20.3174 314.128 20.2454C313.942 20.1572 313.713 20.2166 313.504 20.2256C313.453 20.2274 313.397 20.2652 313.369 20.2886C313.35 20.3048 313.35 20.339 313.378 20.348C313.606 20.42 313.848 20.4866 314.086 20.5568ZM273.678 15.2398C273.454 15.2542 273.226 15.265 273.002 15.2848C272.946 15.2902 272.895 15.3243 272.862 15.3477C272.802 15.3909 272.867 15.4503 273.058 15.4557C273.277 15.4629 273.505 15.4323 273.733 15.4179C274.022 15.3999 274.195 15.3333 274.087 15.2757C273.985 15.2199 273.845 15.2092 273.678 15.2398ZM28.4838 11.3933C28.6328 11.3843 28.7865 11.3771 28.9356 11.3645C29.0753 11.3519 29.1826 11.3123 29.2524 11.2529C29.136 11.2061 29.0055 11.1809 28.8611 11.1863C28.6329 11.1971 28.4093 11.2115 28.1857 11.2295C28.046 11.2403 27.9109 11.2799 27.8783 11.3411C27.8457 11.3879 28.1577 11.4149 28.4838 11.3933ZM253.979 11.1161C254.039 11.1323 254.1 11.1647 254.16 11.1647C254.309 11.1647 254.463 11.1539 254.603 11.1359C254.664 11.1287 254.71 11.0963 254.738 11.0711C254.757 11.0549 254.752 11.0261 254.724 11.0117C254.589 10.9253 254.049 10.9559 253.96 11.0549C253.951 11.0729 253.974 11.0963 253.979 11.1161ZM239.283 1.25958C239.297 1.28838 239.301 1.31718 239.32 1.34598C239.357 1.39998 239.46 1.43958 239.609 1.46658C239.725 1.42158 239.786 1.37119 239.781 1.3172C239.777 1.2884 239.762 1.25958 239.744 1.23078C239.707 1.17678 239.604 1.1372 239.455 1.1102C239.339 1.1534 239.283 1.20379 239.283 1.25958ZM324.851 24.8442C324.809 24.8676 324.767 24.8911 324.72 24.9126C324.846 24.9648 324.962 24.981 325.051 24.9522C325.107 24.9342 325.14 24.9072 325.181 24.8838C325.056 24.8316 324.944 24.8173 324.851 24.8442ZM321.953 25.089C322.014 25.1052 322.07 25.1268 322.135 25.1376C322.242 25.1556 322.34 25.125 322.414 25.0602C322.354 25.044 322.298 25.0224 322.233 25.0116C322.126 24.9936 322.028 25.0242 321.953 25.089ZM323.789 24.7597C323.756 24.8029 323.821 24.8389 323.994 24.8695C324.036 24.8461 324.091 24.8245 324.119 24.7993C324.166 24.7579 324.087 24.7201 323.919 24.6913C323.872 24.7129 323.831 24.7363 323.789 24.7597ZM313.956 22.8193C313.923 22.8625 313.988 22.8985 314.16 22.9291C314.202 22.9057 314.258 22.8841 314.286 22.8589C314.333 22.8175 314.254 22.7797 314.086 22.7509C314.039 22.7725 313.997 22.7959 313.956 22.8193ZM300.559 10.0829C300.517 10.1063 300.475 10.1297 300.429 10.1513C300.554 10.2035 300.671 10.2197 300.759 10.1909C300.815 10.1729 300.848 10.1459 300.89 10.1225C300.764 10.0703 300.652 10.0559 300.559 10.0829ZM287.726 3.32592C287.838 3.33852 287.931 3.31333 288.01 3.24673C287.95 3.23053 287.894 3.20893 287.829 3.19813C287.722 3.18013 287.624 3.21074 287.549 3.27553C287.61 3.29353 287.67 3.30972 287.726 3.32592ZM280.912 2.90293C280.87 2.92633 280.828 2.94973 280.781 2.97133C280.907 3.02353 281.023 3.03973 281.112 3.01093C281.168 2.99293 281.2 2.96593 281.242 2.94253C281.116 2.89033 281.005 2.87773 280.912 2.90293ZM234.699 1.25778C234.657 1.28118 234.615 1.30458 234.569 1.32618C234.695 1.37838 234.811 1.39457 234.9 1.36578C234.955 1.34778 234.988 1.32078 235.03 1.29738C234.904 1.24518 234.792 1.23258 234.699 1.25778ZM4.59741 15.9021C4.53686 15.8859 4.47636 15.8697 4.42046 15.8517C4.28538 15.9003 4.24347 15.9453 4.318 15.9795C4.36458 16.0011 4.43439 16.0137 4.49495 16.0299C4.63469 15.9813 4.66728 15.9381 4.59741 15.9021Z" fill="#4F9CF9"/>
<path d="M31.6149 9.54662C31.0792 9.58082 30.5482 9.62401 30.0125 9.64561C29.7284 9.65641 29.626 9.73381 29.5095 9.80581C29.4164 9.8634 29.3092 9.8814 29.1369 9.8922C27.6836 9.9804 26.2349 10.074 24.7862 10.1658C24.6046 10.1424 24.5161 10.1046 24.558 10.0596C24.5813 10.0326 24.6372 9.9948 24.6931 9.9912C25.6853 9.92461 26.6727 9.8562 27.6695 9.804C27.9537 9.7896 28.0329 9.71041 28.1773 9.64561C28.2239 9.62401 28.2612 9.59161 28.3217 9.57901C28.3823 9.56461 28.4708 9.56642 28.55 9.56282C30.1523 9.46022 31.7547 9.35943 33.3571 9.25684C33.5387 9.28024 33.6272 9.31803 33.5853 9.36303C33.562 9.39003 33.5061 9.42783 33.4502 9.43143C32.8353 9.46922 32.2251 9.50703 31.6149 9.54662Z" fill="#4F9CF9"/>
<path d="M324.912 19.1312C324.67 19.1528 324.362 19.1834 324.111 19.079C323.99 19.0286 323.859 19.0124 323.701 19.0232C323.473 19.0412 323.24 19.0556 323.007 19.0664C322.946 19.0682 322.867 19.0484 322.806 19.0322C322.676 18.9998 322.564 18.9458 322.424 18.9314C322.285 18.917 322.117 18.9566 321.973 18.9476C321.782 18.935 321.703 18.8864 321.754 18.8414C321.782 18.8162 321.838 18.7802 321.898 18.7748C322.76 18.7082 322.765 18.7082 323.007 18.773C323.193 18.8234 323.365 18.8792 323.631 18.8486C323.855 18.8234 324.092 18.818 324.32 18.8018C324.637 18.7802 324.637 18.782 325.149 18.8954C325.28 18.9242 325.42 18.9224 325.587 18.9062C325.732 18.8936 325.872 18.9224 325.988 18.971C325.913 19.0322 325.806 19.0718 325.662 19.0826C325.429 19.1006 325.201 19.1132 324.912 19.1312Z" fill="#4F9CF9"/>
<path d="M316.334 18.5768C316.921 18.539 317.513 18.5066 318.1 18.4634C318.342 18.4454 318.533 18.4652 318.701 18.5264C318.882 18.593 319.087 18.5876 319.311 18.575C319.451 18.5678 319.586 18.5966 319.679 18.647C319.716 18.6668 319.707 18.7028 319.721 18.7316C319.208 18.764 318.692 18.7982 318.174 18.827C318.114 18.8306 318.039 18.8126 317.983 18.7982C317.858 18.7676 317.751 18.7136 317.615 18.7028C317.327 18.6776 317.038 18.7262 316.744 18.7352C316.605 18.7388 316.47 18.7118 316.376 18.6632C316.339 18.6398 316.348 18.6056 316.334 18.5768Z" fill="#4F9CF9"/>
<path d="M104.232 3.10087C104.842 3.06127 105.452 3.02349 106.063 2.98389C106.244 3.00909 106.328 3.04508 106.291 3.09008C106.268 3.11708 106.212 3.15488 106.156 3.15848C104.935 3.23947 103.715 3.31686 102.499 3.39426C102.318 3.36906 102.234 3.33307 102.271 3.28807C102.294 3.26107 102.35 3.22327 102.406 3.21967C103.012 3.17827 103.622 3.14046 104.232 3.10087Z" fill="#4F9CF9"/>
<path d="M10.2043 13.103C9.92948 13.1066 9.64074 13.1732 9.33331 13.1228C9.27275 13.1138 9.18889 13.085 9.19355 13.0688C9.20286 13.0418 9.25877 13.0076 9.31932 12.9968C9.58483 12.9518 9.91558 12.9464 10.0507 12.8204C10.1159 12.7556 10.237 12.734 10.4 12.7214C10.5724 12.7071 10.6934 12.7124 10.8285 12.7502C11.0055 12.7988 11.1546 12.8888 11.4341 12.842C11.4481 12.8708 11.4806 12.9032 11.4666 12.9302C11.4526 12.9572 11.3922 12.9824 11.3363 13.0022C11.285 13.0202 11.2151 13.0364 11.1499 13.0418C10.8425 13.0634 10.535 13.0814 10.2043 13.103Z" fill="#4F9CF9"/>
<path d="M252.461 12.7412C252.689 12.7268 252.926 12.7196 253.15 12.6944C253.327 12.6746 253.439 12.6872 253.578 12.7304C253.816 12.806 253.83 12.7988 254.412 12.8096C254.477 12.8114 254.557 12.8384 254.594 12.8618C254.617 12.8744 254.585 12.9086 254.557 12.9266C254.515 12.95 254.454 12.9806 254.398 12.9806C254.03 12.986 253.658 13.0922 253.299 12.9698C253.117 12.9086 252.917 12.8798 252.67 12.9068C252.521 12.923 252.363 12.9302 252.209 12.9374C252.06 12.9446 251.906 12.9248 251.813 12.8708C251.678 12.7916 251.757 12.761 251.999 12.7664C252.153 12.77 252.307 12.7502 252.461 12.7412Z" fill="#4F9CF9"/>
<path d="M336.882 25.1487C337.176 25.1307 337.469 25.1091 337.767 25.0947C337.828 25.0911 337.902 25.1109 337.958 25.1235C338.182 25.1775 338.149 25.2692 338.159 25.3502C338.163 25.4348 337.646 25.5032 337.427 25.4456C337.185 25.3809 336.966 25.3071 336.631 25.3467C336.5 25.3611 336.347 25.3287 336.263 25.2765C336.137 25.2009 336.207 25.1703 336.444 25.1757C336.584 25.1793 336.733 25.1595 336.882 25.1487Z" fill="#4F9CF9"/>
<path d="M189 0.649635C189.302 0.629836 189.605 0.599252 189.908 0.597452C190.085 0.595652 190.173 0.655039 190.131 0.698237C190.108 0.725237 190.052 0.763036 189.996 0.766636C189.391 0.809835 188.785 0.84584 188.18 0.885439C188.003 0.860239 187.914 0.822447 187.956 0.779248C187.98 0.752249 188.035 0.716249 188.091 0.710849C188.394 0.68565 188.697 0.669435 189 0.649635Z" fill="#4F9CF9"/>
<path d="M331.075 19.2893C331.368 19.2713 331.666 19.2443 331.96 19.2353C332.113 19.2317 332.235 19.2731 332.253 19.3199C332.263 19.3415 332.188 19.3793 332.127 19.3883C331.708 19.4495 331.256 19.4567 330.819 19.4873C330.679 19.4963 330.53 19.4675 330.446 19.4171C330.32 19.3397 330.39 19.3109 330.628 19.3163C330.777 19.3181 330.926 19.2983 331.075 19.2893Z" fill="#4F9CF9"/>
<path d="M260.156 12.9846C260.305 12.9756 260.458 12.9522 260.603 12.9594C260.756 12.9684 260.854 13.0206 260.901 13.0728C260.952 13.1322 260.947 13.188 260.901 13.2384C260.826 13.3248 260.752 13.3212 260.579 13.2636C260.314 13.1736 260.295 13.1844 259.769 13.188C259.708 13.188 259.634 13.161 259.587 13.1376C259.517 13.1016 259.555 13.0458 259.718 13.0134C259.839 12.99 260.006 12.9936 260.156 12.9846Z" fill="#4F9CF9"/>
<path d="M320.162 18.699C320.38 18.6846 320.599 18.6612 320.818 18.6612C320.972 18.6594 321.093 18.7008 321.107 18.7458C321.112 18.7674 321.042 18.8034 320.986 18.8142C320.721 18.8628 320.422 18.8664 320.134 18.8826C319.998 18.8898 319.849 18.861 319.766 18.8106C319.64 18.735 319.714 18.7008 319.943 18.7116C320.013 18.7152 320.087 18.7044 320.162 18.699Z" fill="#4F9CF9"/>
<path d="M285.705 16.4922C285.379 16.5139 285.072 16.4867 285.095 16.4396C285.128 16.3781 285.263 16.3382 285.403 16.3273C285.626 16.3092 285.85 16.2947 286.078 16.2839C286.222 16.2766 286.353 16.3038 286.469 16.3509C286.399 16.4088 286.292 16.4505 286.153 16.4632C286.008 16.4758 285.855 16.4831 285.705 16.4922Z" fill="#4F9CF9"/>
<path d="M283.565 16.2605C283.784 16.2461 284.003 16.2227 284.222 16.2227C284.376 16.2209 284.497 16.2623 284.511 16.3073C284.516 16.3289 284.446 16.3649 284.39 16.3757C284.124 16.4243 283.826 16.4279 283.538 16.4441C283.402 16.4513 283.253 16.4225 283.17 16.3721C283.044 16.2965 283.118 16.2623 283.347 16.2731C283.416 16.2767 283.491 16.2659 283.565 16.2605Z" fill="#4F9CF9"/>
<path d="M257.516 12.9701C257.735 12.9557 257.954 12.9323 258.172 12.9305C258.326 12.9287 258.447 12.9701 258.461 13.0151C258.466 13.0367 258.396 13.0709 258.34 13.0835C258.075 13.1321 257.777 13.1357 257.488 13.1519C257.353 13.1591 257.204 13.1303 257.12 13.0799C256.994 13.0043 257.068 12.9701 257.297 12.9809C257.367 12.9845 257.441 12.9737 257.516 12.9701Z" fill="#4F9CF9"/>
<path d="M256.289 12.864C256.522 12.8496 256.597 12.8406 256.671 12.8406C256.811 12.8406 256.955 12.8622 257.039 12.9144C257.165 12.99 257.09 13.0116 256.862 13.0152C256.569 13.0188 256.28 13.0566 255.986 13.0638C255.833 13.0674 255.711 13.0242 255.702 12.9792C255.697 12.9576 255.767 12.9198 255.823 12.9126C256.019 12.8856 256.233 12.8694 256.289 12.864Z" fill="#4F9CF9"/>
<path d="M281.67 2.27462C281.52 2.28362 281.362 2.30883 281.222 2.29983C281.036 2.28723 280.962 2.23863 281.008 2.19364C281.036 2.16844 281.087 2.13244 281.143 2.12704C281.441 2.10184 281.744 2.08563 282.042 2.06763C282.219 2.09463 282.298 2.13242 282.252 2.17742C282.224 2.20262 282.173 2.23682 282.117 2.24402C281.972 2.26202 281.819 2.26563 281.67 2.27462Z" fill="#4F9CF9"/>
<path d="M100.893 3.31333C101.038 3.31152 101.168 3.33506 101.28 3.38034C101.21 3.43829 101.108 3.47632 100.968 3.49262C100.898 3.49987 100.819 3.50529 100.744 3.5071C100.6 3.51072 100.469 3.48537 100.358 3.44009C100.427 3.38214 100.535 3.34411 100.67 3.32781C100.739 3.32057 100.819 3.31876 100.893 3.31333Z" fill="#4F9CF9"/>
<path d="M329.482 19.2829C329.478 19.2304 329.762 19.1706 330.018 19.1724C330.153 19.1742 330.293 19.1996 330.372 19.2485C330.493 19.3227 330.423 19.3517 330.195 19.3463C330.055 19.3426 329.906 19.3734 329.766 19.368C329.608 19.3662 329.515 19.3263 329.482 19.2829Z" fill="#4F9CF9"/>
<path d="M261.507 13.2033C261.502 13.1834 261.479 13.1599 261.493 13.1418C261.581 13.0422 262.117 13.0114 262.257 13.0983C262.28 13.1146 262.29 13.1418 262.271 13.1581C262.243 13.1834 262.192 13.216 262.136 13.2233C261.991 13.2414 261.842 13.2504 261.693 13.2522C261.628 13.2522 261.567 13.2215 261.507 13.2033Z" fill="#4F9CF9"/>
<path d="M11.8644 12.8166C11.3147 12.8546 11.3054 12.851 11.4032 12.7604C11.4917 12.6789 11.6548 12.6301 11.8923 12.6301C11.9622 12.6301 12.0367 12.6264 12.0973 12.6337C12.1625 12.6427 12.2557 12.6608 12.2697 12.6826C12.2976 12.7242 12.2184 12.7695 12.0786 12.8003C12.0181 12.8148 11.9389 12.8112 11.8644 12.8166Z" fill="#4F9CF9"/>
<path d="M107.772 3.06091C107.609 3.09169 107.469 3.08083 107.367 3.02288C107.264 2.96493 107.428 2.8961 107.712 2.8798C107.786 2.87618 107.865 2.8617 107.935 2.86894C108.005 2.87438 108.075 2.89609 108.117 2.91782C108.191 2.95405 108.145 3.00296 107.996 3.04461C107.935 3.06091 107.847 3.05728 107.772 3.06091Z" fill="#4F9CF9"/>
<path d="M328.511 19.1477C328.553 19.1241 328.595 19.1006 328.642 19.0789C328.814 19.1096 328.889 19.1459 328.842 19.1875C328.814 19.2129 328.758 19.2346 328.716 19.2582C328.544 19.2274 328.474 19.1893 328.511 19.1477Z" fill="#4F9CF9"/>
<path d="M19.2424 33.3061C19.2424 33.2844 19.3076 33.25 19.3589 33.2427C19.4567 33.2301 19.5778 33.2554 19.6616 33.3061C19.7781 33.3786 19.7083 33.4166 19.494 33.3967C19.3449 33.3822 19.2424 33.346 19.2424 33.3061Z" fill="#4F9CF9"/>
<path d="M263.404 11.5266C263.464 11.5429 263.525 11.5592 263.581 11.5773C263.501 11.6443 263.404 11.6733 263.301 11.6552C263.236 11.6443 263.18 11.6226 263.119 11.6063C263.199 11.5393 263.292 11.5139 263.404 11.5266Z" fill="#4F9CF9"/>
<path d="M261.791 11.4458C261.885 11.4186 261.996 11.4331 262.127 11.4856C262.085 11.5092 262.048 11.5364 261.996 11.5545C261.908 11.5834 261.791 11.5689 261.666 11.5146C261.703 11.4929 261.745 11.4693 261.791 11.4458Z" fill="#4F9CF9"/>
<path d="M260.557 11.525C260.617 11.5413 260.678 11.5576 260.734 11.5757C260.654 11.6428 260.561 11.6717 260.454 11.6536C260.389 11.6427 260.333 11.621 260.272 11.6047C260.352 11.5377 260.445 11.5105 260.557 11.525Z" fill="#4F9CF9"/>
<path d="M259.647 11.4296C259.717 11.4658 259.68 11.5093 259.545 11.5582C259.484 11.5419 259.414 11.5292 259.368 11.5075C259.293 11.4731 259.331 11.4278 259.47 11.3789C259.526 11.397 259.587 11.4133 259.647 11.4296Z" fill="#4F9CF9"/>
</svg>
