<svg width="459" height="29" viewBox="0 0 459 29" fill="none" xmlns="http://www.w3.org/2000/svg">
<path d="M428.652 14.8903C428.028 14.9141 427.397 14.931 426.786 14.9659C426.389 14.9877 426.218 14.9269 425.952 14.8955C425.863 14.8846 425.768 14.8625 425.686 14.8655C425.069 14.8893 424.451 14.9159 423.833 14.9424C423.645 14.9972 423.527 15.0699 423.237 15.097C422.954 15.1228 422.619 15.1236 422.304 15.1369C421.888 15.1532 421.472 15.1696 421.056 15.1845C420.848 15.192 420.678 15.2188 420.61 15.2691C420.597 15.2775 420.736 15.2981 420.812 15.3104C421.065 15.3516 421.312 15.3983 421.59 15.4297C421.856 15.4597 422.183 15.4087 422.468 15.447C423.106 15.5332 423.113 15.5318 423.598 15.5139C424.014 15.4976 424.43 15.4799 424.846 15.4677C424.928 15.4647 425.023 15.4854 425.112 15.4963C425.377 15.5263 425.549 15.5955 425.939 15.5681C426.236 15.5465 426.563 15.5415 426.872 15.5297C427.132 15.5694 427.372 15.6148 427.65 15.6461C427.91 15.6761 427.986 15.6996 427.848 15.7403C427.722 15.7782 427.546 15.794 427.313 15.7973C427.104 15.7992 426.897 15.8123 426.689 15.8197C426.581 15.8242 426.48 15.8272 426.38 15.8316C425.983 15.8479 425.982 15.8479 425.255 15.7606C424.971 15.7264 424.65 15.7759 424.378 15.7432C424.195 15.7214 424.037 15.6883 423.86 15.6651C423.784 15.6555 423.664 15.6544 423.569 15.6574C423.254 15.6679 422.939 15.6757 422.636 15.6945C422.422 15.7076 422.297 15.7468 422.323 15.7858C422.329 15.8011 422.481 15.823 422.569 15.8242C422.771 15.8265 422.985 15.8064 423.181 15.8157C423.37 15.825 423.567 15.8524 423.706 15.8827C423.991 15.946 424.312 15.8882 424.583 15.9042C424.867 15.9216 425.102 15.9768 425.374 16.0095C425.443 16.0177 425.575 16.0035 425.683 15.999C425.991 15.9885 426.3 15.9794 426.609 15.9689C426.869 16.0087 427.147 16.0442 427.381 16.0896C427.805 16.1721 428.26 16.203 428.808 16.1613C429.117 16.1383 429.42 16.1459 429.667 16.1996C429.92 16.2547 430.21 16.2484 430.532 16.2365C430.828 16.2247 431.13 16.1933 431.434 16.2315C432.091 16.3163 432.098 16.3204 432.873 16.2851C433.106 16.2748 433.283 16.2716 433.46 16.3032C433.625 16.3321 433.802 16.3567 433.973 16.3841C434.281 16.3736 434.597 16.3631 434.906 16.3512C435.303 16.3349 435.524 16.3539 435.62 16.4316C435.677 16.4789 435.704 16.522 435.843 16.5536C436.008 16.5922 436.184 16.5904 436.424 16.5787C436.651 16.5684 436.814 16.5527 436.908 16.5023C436.945 16.4814 437.021 16.4617 437.09 16.4448C437.146 16.4321 437.234 16.4124 437.285 16.4151C437.38 16.4204 437.506 16.4354 437.538 16.4534C437.85 16.6212 437.85 16.6226 438.167 16.6705C438.514 16.724 438.875 16.7719 439.192 16.8324C439.476 16.886 439.76 16.8616 440.069 16.8609C440.302 16.8603 440.454 16.8962 440.436 16.9324C440.424 16.9533 440.336 16.9842 440.261 16.9871C439.643 17.0165 439.019 17.0417 438.395 17.0627C438.319 17.0656 438.224 17.0408 438.136 17.0285C437.958 17.0039 437.8 16.9652 437.611 16.9574C437.421 16.9495 437.201 16.9709 436.993 16.9783C436.785 16.9858 436.564 17.0045 436.375 16.9938C436.185 16.9831 436.033 16.9431 435.856 16.9171C435.774 16.9047 435.66 16.8869 435.591 16.8913C435.131 16.9258 434.789 16.8807 434.46 16.8202C434.391 16.8078 434.271 16.7998 434.182 16.8028C433.451 16.8282 432.726 16.8578 431.995 16.886C431.699 16.8979 431.458 16.8497 431.393 16.7677C431.361 16.7219 431.297 16.6761 431.296 16.6301C431.295 16.5466 430.947 16.5015 430.695 16.5118C430.279 16.5268 429.856 16.5389 429.447 16.5608C429.113 16.5783 428.828 16.5623 428.6 16.5127C428.334 16.4563 428.032 16.4682 427.729 16.4842C427.502 16.4959 427.44 16.542 427.455 16.6576C427.469 16.7508 427.363 16.7803 426.953 16.7966C426.436 16.8174 425.913 16.8381 425.39 16.8547C425.308 16.8577 425.213 16.8343 425.13 16.8219C424.953 16.7973 424.795 16.7573 424.605 16.7494C424.416 16.7401 424.196 16.7615 423.988 16.7704C423.779 16.7779 423.559 16.7979 423.37 16.7886C423.18 16.7793 423.022 16.7379 422.851 16.7119C422.769 16.6996 422.667 16.6817 422.586 16.6847C422.169 16.6968 421.753 16.7146 421.337 16.7309C420.871 16.7487 420.871 16.7487 420.207 16.664C419.903 16.6258 419.601 16.6571 419.305 16.669C418.99 16.6809 418.693 16.6872 418.446 16.6321C418.282 16.5963 418.098 16.5744 417.903 16.5819C417.38 16.5999 416.863 16.622 416.34 16.64C416.251 16.643 416.131 16.6363 416.062 16.6239C415.726 16.5663 415.397 16.5211 414.931 16.5515C414.528 16.5775 414.093 16.58 413.689 16.6046C413.469 16.6177 413.369 16.6625 413.414 16.6972C413.439 16.7152 413.572 16.7358 413.66 16.7356C413.862 16.7365 414.083 16.7151 414.272 16.723C414.663 16.7387 414.861 16.8552 415.372 16.8219C415.674 16.8017 415.989 16.794 416.304 16.7877C416.386 16.7861 416.475 16.8123 416.564 16.826C416.817 16.863 417.039 16.9112 417.404 16.8852C417.706 16.865 418.028 16.8587 418.337 16.8468C418.829 16.8275 418.829 16.8289 419.467 16.9123C419.771 16.9519 420.073 16.9192 420.369 16.9087C420.59 16.9012 420.798 16.8868 420.975 16.9058C421.247 16.9344 421.443 17.0008 421.778 16.9958C422.093 16.9908 422.402 16.9706 422.717 16.9629C422.912 16.9582 423.096 16.9801 423.254 17.0173C423.419 17.0545 423.596 17.0707 423.81 17.0619C424.119 17.05 424.434 17.0353 424.749 17.0276C424.838 17.026 424.939 17.0382 425.021 17.0492C425.198 17.0738 425.369 17.1026 425.54 17.1287C425.849 17.1196 426.164 17.116 426.467 17.0986C426.7 17.0855 426.864 17.0907 427.054 17.1181C427.294 17.1551 427.491 17.2214 427.881 17.1885C428.077 17.1727 428.304 17.1763 428.499 17.1619C428.738 17.1432 428.903 17.1498 429.074 17.1911C429.397 17.2697 429.801 17.2701 430.216 17.2385C430.67 17.204 431.011 17.2421 431.353 17.3026C431.714 17.3658 431.714 17.3644 431.994 17.5182C432.077 17.5626 432.311 17.5829 432.506 17.5741C432.834 17.5594 433.118 17.5656 433.359 17.618C433.612 17.6744 433.915 17.6668 434.223 17.6507C434.633 17.6288 435.043 17.6097 435.379 17.6897C435.543 17.7283 435.72 17.7376 435.941 17.7273C436.565 17.7007 437.195 17.6839 437.807 17.6517C438.178 17.6313 438.394 17.6754 438.647 17.7124C438.988 17.7631 439.361 17.8081 439.363 17.9181C439.364 17.9362 439.452 17.9569 439.528 17.9706C439.693 17.9995 439.87 18.0241 440.041 18.0515C440.294 18.0927 440.541 18.1269 440.887 18.1038C441.19 18.0849 441.511 18.0786 441.82 18.0653C442.129 18.052 442.413 18.0444 442.691 18.0966C443.014 18.1557 443.356 18.212 443.722 18.2556C443.982 18.287 444.321 18.2319 444.6 18.2744C444.77 18.3005 444.935 18.3307 445.118 18.3525C445.194 18.3621 445.314 18.3548 445.415 18.3518C445.623 18.3457 445.837 18.341 446.039 18.3266C446.272 18.3107 446.449 18.3131 446.626 18.3447C446.79 18.3735 446.955 18.4135 447.145 18.4214C447.429 18.4332 447.743 18.3768 448.028 18.4402C448.174 18.4718 448.357 18.502 448.547 18.5113C448.736 18.5206 448.957 18.4992 449.158 18.5001C449.247 18.4998 449.354 18.5219 449.405 18.5399C449.437 18.5495 449.393 18.5761 449.349 18.5901C449.293 18.607 449.211 18.6294 449.129 18.6324C448.505 18.659 447.881 18.6814 447.257 18.7066C446.885 18.7214 446.885 18.7214 446.133 18.6355C445.956 18.6151 445.761 18.6197 445.54 18.63C445.244 18.6432 444.941 18.6677 444.632 18.6433C444.226 18.5496 443.728 18.5425 443.199 18.58C442.978 18.5958 442.776 18.5963 442.612 18.5703C442.264 18.5182 441.897 18.4704 441.587 18.4084C441.346 18.3603 441.233 18.3564 441.133 18.4235C441.102 18.4444 441.071 18.4668 441.077 18.4863C441.116 18.5558 441.187 18.6238 441.226 18.6934C441.239 18.7128 441.189 18.7353 441.158 18.7562C441.058 18.8149 440.926 18.8111 440.704 18.7629C440.482 18.7147 440.217 18.6833 439.864 18.7064C439.562 18.7267 439.234 18.7247 438.931 18.7463C438.465 18.7781 438.136 18.7343 437.801 18.6752C437.731 18.6629 437.611 18.6562 437.523 18.6592C436.584 18.6935 435.651 18.732 434.711 18.7663C434.51 18.7737 434.326 18.7533 434.168 18.7161C434.003 18.6789 433.82 18.6598 433.618 18.6673C432.786 18.6986 431.954 18.727 431.122 18.7653C430.782 18.7814 430.51 18.7639 430.276 18.7158C430.098 18.68 429.934 18.6693 429.713 18.674C429.474 18.6787 429.304 18.6931 429.185 18.7338C429.072 18.773 429.154 18.7965 429.407 18.8265C429.679 18.8593 429.932 18.9018 430.192 18.9402C430.4 18.9341 430.608 18.9225 430.809 18.9234C430.898 18.9231 430.98 18.948 431.069 18.9617C431.322 19.0015 431.556 19.0413 431.915 19.0182C432.218 18.9979 432.539 18.993 432.848 18.9797C433.277 18.9633 433.277 18.9633 433.972 19.0494C434.149 19.0712 434.338 19.0694 434.565 19.0563C434.761 19.0461 434.963 19.0651 435.103 19.1065C435.16 19.1231 435.141 19.151 435.023 19.2432C435.024 19.3114 435.156 19.2804 435.2 19.2358C435.268 19.1715 435.135 19.151 434.883 19.1864C434.707 19.2119 434.619 19.2483 434.664 19.2775C434.69 19.2927 434.81 19.3119 435.023 19.2432C435.577 19.1583 435.999 19.1475 436.402 19.1242C436.642 19.1111 436.793 19.1163 436.983 19.1521C437.211 19.1947 437.439 19.2401 437.811 19.2169C438.214 19.1909 438.643 19.187 439.053 19.1651C439.431 19.1447 439.627 19.2055 439.868 19.2411C440.159 19.2836 440.479 19.2341 440.745 19.2585C441.023 19.2829 441.22 19.3437 441.542 19.354C442.008 19.3153 442.305 19.3842 442.66 19.4293C442.938 19.4635 443.265 19.432 443.561 19.416C443.895 19.3985 444.173 19.4131 444.408 19.4627C444.674 19.5191 444.97 19.5059 445.272 19.4926C445.978 19.463 446.003 19.4588 446.415 19.5344C446.712 19.5894 446.996 19.5636 447.292 19.5559C447.552 19.5929 447.805 19.6327 448.076 19.6654C448.146 19.6736 448.278 19.6594 448.385 19.6549C448.694 19.643 449.009 19.6311 449.318 19.6192C449.526 19.6118 449.747 19.5904 449.936 19.5983C450.126 19.6075 450.284 19.6475 450.455 19.6736C450.626 19.6996 450.803 19.7257 450.967 19.7531C451.22 19.7943 451.461 19.8285 451.814 19.8068C452.116 19.7879 452.431 19.7816 452.746 19.7683C453.144 19.752 453.131 19.7562 453.871 19.838C454.269 19.883 454.678 19.8263 455.081 19.8197C455.283 19.8164 455.479 19.8313 455.619 19.8713C455.676 19.8879 455.657 19.9158 455.677 19.9394C454.637 19.9795 453.59 20.0141 452.563 20.0625C452.166 20.0816 451.957 20.032 451.741 19.9907C451.387 19.9248 450.922 20.0234 450.586 19.9378C450.383 19.8868 450.092 19.8583 449.746 19.8842C449.544 19.8986 449.33 19.8977 449.122 19.9108C448.593 19.9427 448.107 19.9452 447.682 19.8502C447.537 19.8171 447.328 19.7995 447.176 19.7679C446.999 19.7335 446.828 19.7144 446.62 19.7219C445.681 19.7576 444.748 19.7933 443.815 19.8317C443.733 19.8347 443.652 19.8558 443.582 19.8713C443.407 19.9107 443.464 19.9412 443.748 19.9656C443.843 19.9737 443.919 19.9916 444.008 20.0053C444.179 20.0314 444.337 20.0728 444.526 20.082C444.716 20.0913 444.936 20.0713 445.144 20.0638C445.352 20.0564 445.573 20.0349 445.762 20.0428C445.952 20.0521 446.11 20.0921 446.287 20.1168C446.369 20.1291 446.471 20.1497 446.553 20.1481C446.969 20.1388 447.379 20.1225 447.795 20.1089C448.054 20.1459 448.276 20.1997 448.585 20.2114C448.781 20.2193 448.989 20.2035 449.191 20.2058C449.279 20.207 449.393 20.2276 449.437 20.2456C449.463 20.2567 449.381 20.2847 449.318 20.2988C449.08 20.3523 448.752 20.3433 448.455 20.3608C448.134 20.3796 447.844 20.3748 447.597 20.3211C447.432 20.2853 447.249 20.2662 447.047 20.2737C446.524 20.293 446.007 20.3152 445.484 20.3318C445.395 20.3348 445.288 20.3225 445.206 20.313C444.542 20.2296 444.542 20.2268 444.075 20.2461C443.388 20.2742 443.388 20.2742 442.926 20.2015C442.838 20.1878 442.743 20.1616 442.667 20.1632C441.936 20.1872 441.211 20.2112 440.486 20.245C440.246 20.2554 440.082 20.2558 439.905 20.22C439.753 20.1897 439.576 20.1553 439.386 20.1474C439.191 20.1396 438.977 20.161 438.769 20.1684C438.561 20.1759 438.34 20.1945 438.157 20.1838C437.968 20.1732 437.803 20.1346 437.638 20.1071C437.467 20.0783 437.285 20.0801 437.051 20.0918C436.333 20.1256 436.327 20.1214 435.612 20.0368C435.53 20.0273 435.422 20.0164 435.334 20.0194C434.811 20.0374 434.294 20.0595 433.771 20.0775C433.569 20.085 433.373 20.0673 433.234 20.0273C433.177 20.0107 433.195 19.9828 433.156 19.9286C433.112 19.9162 433.163 19.9384 433.176 19.9592C433.27 19.9562 433.384 19.9587 433.453 19.9474C433.629 19.9205 433.717 19.8855 433.672 19.8563C433.647 19.8411 433.526 19.8219 433.451 19.8221C433.312 19.8224 433.193 19.8533 433.156 19.9286C432.76 19.9755 432.337 19.9863 431.928 20.0096C431.688 20.0241 431.537 20.0175 431.347 19.9818C431.119 19.9377 430.885 19.8951 430.513 19.9183C430.11 19.9444 429.681 19.9496 429.265 19.9701C428.786 19.9935 428.575 19.8687 428.172 19.8725C427.755 19.8763 427.339 19.901 426.923 19.9187C426.558 19.9335 426.558 19.9335 425.799 19.8448C425.521 19.8121 425.194 19.8616 424.922 19.8274C424.739 19.8056 424.58 19.7726 424.403 19.7493C424.327 19.7398 424.208 19.7401 424.113 19.7431C423.59 19.7611 423.06 19.7735 422.556 19.8053C421.983 19.8429 421.547 19.805 421.135 19.7239C420.618 19.7404 420.095 19.7501 419.584 19.7777C419.213 19.7981 418.997 19.7527 418.744 19.7157C418.656 19.7034 418.58 19.6827 418.485 19.6774C418.39 19.672 418.277 19.6834 418.176 19.6879C417.76 19.7042 417.331 19.7122 416.928 19.7382C416.43 19.7715 416.239 19.6578 415.854 19.6448C415.596 19.7136 415.459 19.8072 414.948 19.8154C414.532 19.822 414.116 19.8453 413.7 19.8617C413.492 19.8691 413.284 19.878 413.076 19.8855C412.742 19.8988 412.586 19.9535 412.657 20.0369C412.695 20.0827 412.728 20.1286 412.76 20.1745C412.825 20.2565 412.668 20.3265 412.403 20.3369C411.672 20.3651 410.947 20.3947 410.216 20.4201C410.021 20.4276 409.831 20.4044 409.673 20.3671C409.508 20.33 409.325 20.3137 409.123 20.3211C408.392 20.3494 407.667 20.379 406.936 20.4044C406.854 20.4074 406.746 20.3938 406.664 20.3828C406.487 20.3582 406.316 20.3294 406.145 20.3033C405.729 20.3169 405.319 20.3262 404.909 20.3439C404.248 20.3706 404.248 20.372 403.76 20.2966C403.672 20.2828 403.583 20.2566 403.501 20.2582C403.186 20.2645 402.877 20.2792 402.562 20.2925C401.635 20.331 401.635 20.331 401.363 20.2898C401.116 20.2515 400.895 20.2047 400.523 20.2278C400.12 20.2539 399.691 20.2633 399.275 20.2782C398.966 20.2887 398.657 20.3006 398.348 20.3041C398.266 20.3057 398.177 20.2795 398.089 20.2658C397.836 20.2232 397.589 20.189 397.242 20.2135C397.041 20.2279 396.826 20.2312 396.618 20.2387C396.076 20.2595 396.076 20.2595 395.185 20.1781C395.097 20.17 394.989 20.1605 394.901 20.1649C394.17 20.1917 393.445 20.2213 392.714 20.2468C392.626 20.2498 392.518 20.2417 392.43 20.2349C391.432 20.1566 391.432 20.1566 390.373 20.1982C389.969 20.2131 389.957 20.2187 389.533 20.1459C389.343 20.1143 389.185 20.0994 388.964 20.1097C388.132 20.1451 387.294 20.1694 386.468 20.2104C386.096 20.228 385.881 20.1868 385.628 20.1498C385.539 20.1375 385.444 20.1099 385.369 20.1114C384.536 20.1399 383.704 20.174 382.872 20.2024C382.796 20.2054 382.701 20.1778 382.613 20.1655C382.442 20.1408 382.277 20.1036 382.088 20.0957C381.892 20.0879 381.678 20.1093 381.464 20.1167C380.941 20.1361 380.94 20.1347 380.333 20.054C380.251 20.0431 380.144 20.028 380.062 20.031C379.23 20.0609 378.391 20.0866 377.566 20.129C377.093 20.1524 376.77 20.1128 376.435 20.0551C376.365 20.0428 376.245 20.0375 376.157 20.0405C375.218 20.0748 374.285 20.1133 373.346 20.1476C373.15 20.155 372.961 20.1318 372.802 20.096C372.549 20.0395 372.253 20.0472 371.937 20.0605C371.212 20.0915 371.206 20.0901 370.776 20.0243C370.687 20.0106 370.611 19.9927 370.517 19.986C370.428 19.9792 370.315 19.9837 370.22 19.9867C369.804 20.0016 369.388 20.0179 368.972 20.0343C368.556 20.0506 368.133 20.06 367.724 20.0846C367.22 20.1151 366.978 20.0252 366.624 19.9843C366.107 20.0036 365.578 20.016 365.067 20.0465C364.677 20.0698 364.493 20.0089 364.233 19.9775C364.145 19.9666 364.05 19.9432 363.968 19.9461C363.029 19.9791 362.089 20.0148 361.156 20.0546C360.93 20.0635 360.778 20.0528 360.588 20.0198C360.164 19.9456 360.145 19.9485 359.439 19.978C359.13 19.9913 358.834 20.0032 358.568 19.9467C358.334 19.8958 358.05 19.8839 357.716 19.9014C357.306 19.9233 356.884 19.9355 356.468 19.9504C356.051 19.9668 355.636 19.9886 355.219 19.9966C354.885 20.0044 354.682 19.9394 354.417 19.9067C354.334 19.8971 354.221 19.896 354.126 19.899C353.71 19.9126 353.281 19.9233 352.878 19.948C352.387 19.9784 352.114 19.9025 351.766 19.8588C351.69 19.8492 351.564 19.8551 351.47 19.8595C350.738 19.8864 350.013 19.916 349.282 19.9442C349.023 19.9072 348.757 19.8717 348.498 19.8347C348.082 19.8496 347.666 19.866 347.25 19.8809C346.935 19.8928 346.613 19.8978 346.317 19.9194C345.933 19.9481 345.742 19.8832 345.483 19.8518C345.394 19.8408 345.299 19.8174 345.217 19.8204C344.694 19.837 344.171 19.855 343.654 19.8799C343.163 19.9047 342.965 19.7799 342.561 19.7823C342.145 19.7847 341.716 19.8038 341.313 19.8299C340.847 19.8602 340.518 19.8165 340.182 19.7574C340.113 19.745 339.993 19.7384 339.904 19.7414C339.381 19.7593 338.864 19.7815 338.341 19.7995C338.253 19.8025 338.146 19.7958 338.057 19.7876C337.059 19.7079 337.059 19.7065 336.624 19.7243C336.315 19.7362 336 19.7508 335.685 19.7586C335.596 19.7616 335.489 19.7493 335.407 19.7384C334.749 19.655 334.749 19.6536 334.276 19.6715C333.86 19.6878 333.444 19.7041 333.028 19.7205C332.769 19.6835 332.503 19.6479 332.244 19.611C331.727 19.6303 331.197 19.6455 330.687 19.6718C330.447 19.6835 330.29 19.6798 330.106 19.6454C329.878 19.6042 329.65 19.556 329.272 19.5806C328.869 19.6066 328.44 19.6104 328.03 19.6323C327.539 19.6586 327.335 19.5324 326.937 19.5347C326.521 19.5371 326.092 19.5563 325.689 19.5823C325.223 19.6127 324.894 19.5689 324.558 19.5099C324.489 19.4975 324.369 19.4908 324.281 19.4938C323.133 19.537 321.992 19.5801 320.845 19.6261C320.139 19.6543 320.139 19.6557 318.794 19.5823C318.699 19.577 318.598 19.5717 318.504 19.5747C318.088 19.5882 317.659 19.599 317.256 19.6237C316.764 19.6541 316.492 19.5796 316.144 19.5345C316.068 19.5249 315.948 19.5308 315.847 19.5338C315.532 19.5443 315.223 19.5576 314.908 19.5695C314.492 19.5858 314.076 19.6021 313.66 19.6185C313.401 19.5829 313.135 19.5459 312.876 19.5104C312.359 19.5297 311.829 19.5408 311.319 19.5712C310.928 19.5945 310.744 19.5364 310.485 19.5036C310.396 19.4927 310.301 19.4693 310.219 19.4709C309.28 19.5038 308.341 19.5381 307.408 19.5793C307.023 19.597 306.845 19.5347 306.586 19.5033C306.498 19.4938 306.397 19.476 306.315 19.4789C305.69 19.5 305.066 19.5251 304.442 19.5503C304.089 19.5651 304.089 19.5651 303.318 19.4806C303.23 19.4711 303.129 19.4616 303.04 19.4646C301.061 19.539 299.088 19.6176 297.109 19.6921C296.907 19.6995 296.724 19.6791 296.565 19.6419C296.4 19.6047 296.217 19.5856 296.015 19.5931C295.183 19.6243 294.345 19.6528 293.519 19.691C293.179 19.7072 292.907 19.6897 292.673 19.6415C292.496 19.6058 292.331 19.5923 292.111 19.6011C291.695 19.6189 291.279 19.6338 290.863 19.6501C290.447 19.6665 290.031 19.6828 289.615 19.6991C289.199 19.7154 288.776 19.7248 288.366 19.7495C287.862 19.78 287.615 19.6942 287.267 19.6519C286.643 19.6743 286.019 19.6967 285.401 19.7205C284.569 19.7517 283.737 19.7858 282.905 19.8157C282.829 19.8186 282.734 19.7938 282.645 19.7815C282.386 19.7473 282.196 19.699 281.811 19.7153C279.946 19.7936 278.067 19.8608 276.195 19.9378C275.804 19.954 275.633 19.8946 275.367 19.8632C275.279 19.8537 275.178 19.8344 275.096 19.8374C274.055 19.8747 273.015 19.9162 271.975 19.9564C271.553 19.9727 271.553 19.9727 270.845 19.8881C270.763 19.8785 270.655 19.8663 270.567 19.8693C269.211 19.9199 267.863 19.9733 266.507 20.0253C266.306 20.0328 266.122 20.0137 265.958 19.9765C265.799 19.9393 265.61 19.9189 265.414 19.9263C264.166 19.9739 262.912 20.0201 261.67 20.0719C261.336 20.0866 261.058 20.0748 260.817 20.0252C260.646 19.9894 260.476 19.9745 260.261 19.9834C258.389 20.0562 256.517 20.1262 254.645 20.2031C254.286 20.2179 254.033 20.1921 253.805 20.1467C253.621 20.1109 253.463 20.1043 253.236 20.1105C252.997 20.118 252.852 20.1337 252.72 20.1758C252.551 20.2305 252.445 20.299 252.041 20.3041C251.625 20.3093 251.203 20.3271 250.793 20.3517C250.403 20.3763 250.219 20.3141 249.972 20.2771C249.788 20.2511 249.618 20.2474 249.385 20.2604C249.171 20.2721 249.039 20.2961 248.913 20.341C248.638 20.4363 248.612 20.4364 248.271 20.3773C248.087 20.3457 247.922 20.3211 247.721 20.3271C246.889 20.357 246.057 20.3897 245.225 20.4237C244.745 20.443 244.739 20.4458 244.378 20.377C244.201 20.3427 244.03 20.3264 243.822 20.3352C241.534 20.4243 239.246 20.5106 236.958 20.6039C236.605 20.6187 236.365 20.59 236.112 20.5489C236.029 20.5352 235.947 20.5159 235.852 20.5105C235.757 20.5052 235.65 20.511 235.549 20.514C233.885 20.578 232.215 20.6391 230.557 20.71C230.179 20.7262 229.976 20.6821 229.717 20.6466C229.628 20.6342 229.552 20.6149 229.457 20.6096C229.363 20.6056 229.249 20.6157 229.149 20.6201C227.484 20.684 225.814 20.7452 224.156 20.816C223.759 20.8323 223.588 20.7742 223.328 20.7442C223.24 20.7333 223.145 20.7126 223.063 20.7156C222.54 20.7322 222.023 20.7543 221.5 20.7737C220.252 20.8227 219.003 20.8689 217.755 20.9193C217.276 20.9386 217.066 20.8151 216.662 20.8217C216.139 20.8299 215.622 20.859 215.099 20.8798C214.683 20.8961 214.267 20.911 213.851 20.9288C213.441 20.9451 213.441 20.9451 212.417 20.8668C212.329 20.86 212.222 20.8505 212.133 20.8535C210.677 20.9086 209.215 20.9637 207.765 21.0229C207.431 21.0362 207.153 21.03 206.913 20.979C206.742 20.9432 206.565 20.9255 206.357 20.9344C204.169 21.0191 201.988 21.1038 199.801 21.1871C199.719 21.19 199.611 21.1764 199.529 21.1654C199.352 21.1408 199.181 21.112 199.01 21.0859C198.885 21.1183 198.721 21.1479 198.64 21.1843C198.527 21.2333 198.376 21.2476 198.137 21.2565C197.897 21.2655 197.746 21.2631 197.556 21.2273C197.328 21.1833 197.094 21.149 196.722 21.1639C194.434 21.2572 192.145 21.3421 189.857 21.434C189.479 21.4488 189.301 21.388 189.036 21.3566C188.947 21.3471 188.846 21.332 188.764 21.335C187.825 21.3693 186.892 21.4064 185.953 21.4421C183.349 21.5431 180.746 21.6399 178.149 21.7465C177.676 21.7657 177.354 21.7317 177.018 21.6726C176.949 21.6603 176.829 21.6536 176.741 21.6566C173.097 21.7963 169.453 21.9374 165.816 22.0786C165.621 22.086 165.431 22.0642 165.273 22.0284C165.108 21.9912 164.925 21.9735 164.723 21.981C163.059 22.0449 161.395 22.1088 159.731 22.1741C159.315 22.1904 159.308 22.1918 158.878 22.126C158.79 22.1123 158.694 22.0861 158.625 22.0891C158.48 22.0964 158.342 22.1315 158.242 22.1791C158.142 22.2295 157.985 22.2438 157.751 22.2541C157.512 22.2644 157.354 22.2606 157.171 22.2277C156.936 22.1865 156.721 22.1466 156.343 22.1614C151.558 22.3513 146.774 22.5342 141.99 22.7226C141.605 22.7375 141.427 22.6794 141.162 22.6481C141.073 22.6385 140.985 22.6248 140.89 22.6223C140.789 22.6197 140.682 22.6283 140.581 22.6328C132.777 22.9344 124.973 23.2374 117.17 23.539C116.703 23.5568 116.709 23.5568 116.201 23.6862C116.138 23.7016 116.056 23.7227 115.968 23.7257C113.579 23.8206 111.184 23.9128 108.788 24.0049C107.748 24.0451 106.708 24.0866 105.668 24.1253C105.296 24.1387 105.296 24.1387 104.41 24.2913C104.334 24.304 104.246 24.3209 104.158 24.3239C99.9974 24.4858 95.837 24.6477 91.6703 24.8068C91.3425 24.8187 91.078 24.8444 90.9279 24.9116C90.8216 24.9592 90.6833 24.9874 90.4753 24.9963C87.563 25.1092 84.6509 25.2235 81.7323 25.3336C81.3855 25.347 81.178 25.3865 81.0088 25.4454C80.9524 25.465 80.9023 25.4874 80.8206 25.5015C80.7451 25.5142 80.6317 25.5187 80.5372 25.5231C78.0409 25.6197 75.5448 25.719 73.0422 25.8114C72.6703 25.8249 72.5198 25.8768 72.3379 25.9315C72.2751 25.9498 72.2314 25.9749 72.1496 25.9877C72.0678 25.999 71.948 25.9993 71.8471 26.0023C69.7669 26.0826 67.6868 26.1642 65.6066 26.2444C65.2028 26.2385 65.1159 26.3194 64.9213 26.3686C64.8522 26.3855 64.8023 26.4079 64.7205 26.4193C64.6324 26.4306 64.5187 26.4295 64.4115 26.4325C62.7473 26.4965 61.0833 26.5646 59.4127 26.6243C59.0282 26.6378 58.9538 26.709 58.7465 26.7582C58.6774 26.7737 58.6086 26.7975 58.5267 26.8019C57.4866 26.8448 56.4466 26.8849 55.4064 26.9237C55.0597 26.937 55.0597 26.9357 54.4504 27.075C54.3813 27.0905 54.2995 27.1074 54.2113 27.1118C52.6544 27.174 51.0911 27.2335 49.5278 27.2944C49.3261 27.3019 49.188 27.3356 49.0879 27.3832C48.9879 27.4308 48.8434 27.4618 48.6417 27.4692C47.3936 27.5182 46.1454 27.5686 44.8972 27.6134C44.5505 27.6254 44.3241 27.6607 44.1739 27.7238C44.0612 27.7714 43.9229 27.7954 43.7023 27.8043C42.4542 27.8519 41.2061 27.9036 39.9516 27.9457C39.5859 27.9577 39.3975 28.0055 39.2472 28.0644C39.1283 28.112 38.9898 28.129 38.7566 28.138C36.4683 28.2243 34.1738 28.3106 31.892 28.4053C31.5075 28.4215 31.311 28.3733 31.058 28.3391C30.6976 28.2912 30.3623 28.2391 30.3603 28.1305C30.36 28.1138 30.2523 28.0945 30.1764 28.0808C29.613 27.9777 29.613 27.9777 29.5226 27.8666C29.4708 27.7984 29.4128 27.729 29.3673 27.6595C29.2831 27.5455 29.0807 27.5167 28.5007 27.539C28.2927 27.5465 28.0847 27.5567 27.8767 27.5628C27.5678 27.5733 27.3335 27.5279 27.2752 27.4445C27.2428 27.3986 27.2041 27.3528 27.1717 27.3069C27.4869 27.295 27.4805 27.2936 28.0324 27.1238C28.2645 27.0522 28.2646 27.0522 27.8154 26.9823C27.6446 26.9562 27.48 26.9274 27.2965 26.9028C27.2143 26.8918 27.107 26.8851 27.0187 26.8881C26.4955 26.9061 25.9786 26.9269 25.4618 26.9476C24.6297 26.9803 24.6296 26.9803 23.7816 26.8403C23.712 26.8293 23.6044 26.8087 23.6168 26.7975C23.6852 26.7458 23.8551 26.7231 24.0695 26.717C24.3847 26.7079 24.6935 26.6932 25.0024 26.6814C25.2104 26.6739 25.4184 26.665 25.6265 26.6576C25.821 26.6042 26.022 26.5522 26.2039 26.4974C26.4925 26.4132 26.4923 26.4104 26.0938 26.3529C25.8408 26.3145 25.5689 26.2803 25.3096 26.2448C25.0007 26.2567 24.6856 26.2699 24.3767 26.2804C23.9858 26.2939 23.8276 26.2679 23.725 26.1776C23.6352 26.0984 23.7411 26.03 24.0436 26.0125C24.3524 25.995 24.6424 25.9832 24.7988 25.9118C24.9489 25.8432 25.2133 25.8161 25.5412 25.8097C25.7493 25.8051 25.9573 25.7948 26.1653 25.786C26.4363 25.7742 26.5801 25.7028 26.5218 25.6236C26.4893 25.5721 26.4254 25.5291 26.1792 25.5186C25.087 25.4725 25.0743 25.4739 24.53 25.3805C24.4794 25.3723 24.4412 25.3473 24.4599 25.3347C24.491 25.3138 24.5599 25.283 24.6355 25.2786C25.3603 25.2462 26.0852 25.2166 26.8102 25.194C27.0498 25.1864 27.2262 25.1762 27.3072 25.1245C27.4195 25.0532 27.3678 24.9879 27.1461 24.9397C27.0764 24.9246 26.9624 24.9054 26.8867 24.9069C26.0545 24.934 25.2288 24.968 24.3967 24.9951C24.321 24.9981 24.1819 24.9748 24.15 24.9567C24.0863 24.9235 24.18 24.8787 24.4005 24.8628C24.6902 24.8412 24.9867 24.8391 25.1809 24.769C25.4503 24.6695 25.7829 24.5782 26.0839 24.4828C26.134 24.4659 26.2155 24.4337 26.1966 24.431C26.0383 24.4007 25.8549 24.3775 25.6903 24.3486C25.4119 24.3006 25.4105 24.2324 25.4724 24.1668C25.5218 24.1137 25.7107 24.0924 25.9441 24.0918C26.045 24.0916 26.1711 24.0913 26.2529 24.0785C26.4668 24.0474 26.5355 24.0082 26.4277 23.9792C26.3643 23.9627 26.2504 23.9393 26.1747 23.9423C24.8257 23.9915 23.4702 24.0393 22.1277 24.0997C21.7306 24.1174 21.5468 24.0649 21.3064 24.0279C21.1229 23.9991 20.9523 23.9883 20.7256 24.0098C20.5115 24.0298 20.3032 24.0192 20.1699 23.9736C20.0619 23.9362 20.2505 23.9037 20.7608 23.8663C20.8553 23.8591 20.9624 23.8547 21.0315 23.8406C21.7604 23.6884 21.7603 23.687 22.2646 23.6663C22.7563 23.647 22.7564 23.6456 23.0135 23.5642C23.1326 23.5263 23.2643 23.4884 23.3771 23.4491C23.421 23.4337 23.4962 23.4057 23.4708 23.3974C23.3312 23.3546 23.1417 23.3453 22.9212 23.3556C22.4296 23.3804 21.849 23.3623 21.5928 23.4953C21.4929 23.5456 21.3354 23.5599 21.1085 23.5688C18.8265 23.6551 16.5446 23.747 14.2563 23.8306C13.8844 23.844 13.7151 23.8959 13.5711 23.9534C13.4458 24.001 13.3073 24.0153 13.0678 24.0242C12.8282 24.0331 12.639 24.0378 12.4993 23.9922C12.4168 23.9645 12.4855 23.9254 12.674 23.8859C12.9442 23.8296 12.8924 23.7601 12.8028 23.6948C12.7389 23.6518 12.5428 23.6217 12.3347 23.6249C12.0257 23.6313 11.7296 23.6473 11.4699 23.5922C11.3179 23.5606 11.1282 23.5387 10.9574 23.5113C10.6283 23.455 10.2992 23.3973 9.83942 23.4361C9.52376 23.4229 9.30204 23.3733 9.04899 23.3349C8.62515 23.2719 8.58712 23.2622 8.88861 23.1933C9.2278 23.1159 8.96093 23.0162 9.14875 22.9406C9.34908 22.8593 9.62539 22.7877 9.86998 22.7119C9.93269 22.6922 9.98915 22.674 10.0519 22.6543C9.90625 22.6268 9.77315 22.5924 9.60247 22.5733C9.38122 22.5488 9.2671 22.5184 9.27808 22.432C9.23369 22.4196 9.25309 22.4516 9.30371 22.4598C9.36064 22.468 9.49939 22.4607 9.56859 22.4508C9.74472 22.4239 9.83228 22.3889 9.78757 22.3598C9.76205 22.3445 9.64193 22.3253 9.56623 22.3255C9.42746 22.3258 9.3082 22.3568 9.27177 22.432C8.56636 22.4909 7.83504 22.5205 7.10374 22.5445C7.0281 22.5475 6.93301 22.5199 6.84444 22.5062C6.55338 22.4595 6.55337 22.4609 5.70154 22.4491C5.6132 22.4479 5.49304 22.4287 5.44852 22.4093C5.26399 22.3248 5.26859 22.2315 5.17857 22.1412C5.34148 22.0823 5.50428 22.0248 5.67352 21.9673C6.01197 21.8509 6.45171 21.7482 6.71426 21.6209C6.6562 21.5528 6.57921 21.4847 6.85571 21.4284C7.64289 21.3568 7.63663 21.3568 7.84984 21.2895C8.45814 21.0986 9.06007 20.9064 9.69366 20.7182C9.86305 20.6691 9.86258 20.6427 9.55941 20.6225C9.46468 20.6172 9.36359 20.616 9.26272 20.619C8.94751 20.6295 8.63259 20.6554 8.32339 20.6506C8.01423 20.6471 7.78599 20.5864 7.53296 20.5494C7.2736 20.5111 7.01423 20.4713 6.75484 20.4316C6.45845 20.4365 6.16276 20.4762 5.86511 20.4142C5.63711 20.366 5.35261 20.3319 5.09323 20.2922C5.28678 20.1859 5.65117 20.1042 5.93327 20.0102C6.1903 19.9247 6.19649 19.9261 6.88913 19.8589C7.21656 19.8275 7.32715 19.6699 7.04873 19.6246C6.71336 19.5697 6.35922 19.519 6.0176 19.467C5.7212 19.4718 5.41919 19.5102 5.13416 19.4482C4.91249 19.4014 4.65952 19.37 4.294 19.389C3.6764 19.4211 3.04591 19.438 2.4219 19.4645C2.20758 19.4734 1.97402 19.4684 1.87851 19.4213C1.8148 19.388 1.99687 19.3416 2.20485 19.3314C2.51999 19.3167 2.8035 19.2993 2.95989 19.2293C3.10996 19.1593 3.38709 19.1377 3.71492 19.1272C3.80318 19.1242 3.90386 19.1072 3.9477 19.0904C4.17327 19.0091 4.42429 18.9389 4.91006 18.9405C5.11138 18.9122 5.2179 18.8771 5.15419 18.8438C5.116 18.8258 4.98315 18.8025 4.90751 18.8054C4.38421 18.8206 3.86094 18.8358 3.35047 18.8621C3.11097 18.8739 2.928 18.8771 2.77582 18.8357C2.66806 18.8081 2.72412 18.7703 2.92521 18.7295C3.10118 18.6942 3.15094 18.6537 3.13743 18.6064C3.10382 18.4965 2.91394 18.4649 2.30851 18.4734C1.87336 18.48 1.76578 18.4621 1.66938 18.3677C1.64373 18.3455 1.58018 18.315 1.62405 18.2996C1.89351 18.2042 2.06794 18.0868 2.57804 18.041C2.77958 18.0238 2.99396 18.0233 3.11944 17.9868C3.24492 17.9503 3.35773 17.9082 3.48954 17.8731C3.65276 17.8309 3.76546 17.7917 3.68926 17.7654C3.56221 17.7184 3.36035 17.7147 3.12727 17.732C2.92568 17.7464 2.71124 17.7483 2.50323 17.7571C2.13135 17.7734 1.82796 17.7379 1.78265 17.6767C1.65976 17.5155 1.53054 17.3557 1.42027 17.1944C1.40728 17.175 1.43826 17.1498 1.48841 17.133C1.66393 17.0741 1.8522 17.0179 2.03405 16.9604C2.24729 16.8944 2.58821 16.9061 2.87814 16.8929C3.28781 16.8738 3.2877 16.8752 3.83397 16.7402C4.04744 16.6867 4.42002 16.7067 4.63991 16.6589C4.70901 16.6434 4.81577 16.618 4.79658 16.6042C4.77101 16.5861 4.64466 16.5725 4.54988 16.5644C4.46141 16.5562 4.35412 16.5523 4.25958 16.5567C3.1123 16.5999 1.97141 16.6458 0.824096 16.6876C0.628682 16.695 0.413629 16.6649 0.343428 16.6219C0.27328 16.5817 0.291224 16.5329 0.277742 16.487C0.459597 16.4295 0.666682 16.3761 0.823226 16.3144C0.942185 16.2668 1.08059 16.2456 1.32024 16.2422C1.63556 16.2372 1.94436 16.2198 2.29737 16.2064C2.94957 16.0015 3.58892 15.7869 4.29158 15.5819C4.57389 15.4991 4.50304 15.4157 4.55816 15.3278C4.61341 15.2469 5.03625 15.2584 5.31966 15.2341C5.54638 15.214 5.62114 15.1693 5.53225 15.1389C5.48144 15.1209 5.36757 15.1003 5.27926 15.1005C5.0711 15.101 4.86318 15.114 4.65515 15.1215C4.44711 15.129 4.20735 15.1254 4.03748 15.1495C3.87389 15.1721 3.76749 15.2197 3.66101 15.2604C3.542 15.3052 3.3847 15.3209 3.14505 15.3243C2.83602 15.3278 2.52718 15.3411 2.21828 15.3516C1.87663 15.2981 1.52231 15.2461 1.19322 15.1898C1.12993 15.1788 1.11665 15.1468 1.12256 15.1259C1.13415 15.0716 1.03893 15.0384 0.830269 15.0124C0.653228 14.9906 0.507529 14.9589 0.342998 14.9314C0.468449 14.8935 0.606591 14.857 0.706757 14.8164C0.925934 14.7309 1.20236 14.669 1.68182 14.6706C1.87003 14.6158 2.02012 14.5486 2.26542 14.5104C2.49813 14.4737 2.89623 14.5089 3.07131 14.4263C3.15886 14.3857 3.29053 14.3394 3.46053 14.3223C3.73127 14.2952 4.08478 14.3083 4.241 14.2299C4.33478 14.1851 4.47274 14.1444 4.65546 14.1328C4.86339 14.1198 5.07775 14.1165 5.22864 14.0897C5.31038 14.0755 5.39829 14.053 5.39792 14.0336C5.39768 14.021 5.27126 14.0018 5.18279 13.9937C5.1006 13.9841 4.99311 13.9774 4.89855 13.9805C4.58331 13.9896 4.27451 14.0056 3.95927 14.0148C3.87101 14.0178 3.76993 14.0083 3.67516 14.0001C3.39719 13.9785 3.41555 13.9506 3.63538 13.9C3.85524 13.8507 4.01185 13.7876 4.1937 13.7301C4.39537 13.7199 4.64773 13.7234 4.78601 13.6967C5.01859 13.6529 5.18137 13.5899 5.36959 13.5351C5.57759 13.5262 5.792 13.5229 5.98725 13.5071C6.06915 13.5014 6.10645 13.4707 6.1755 13.4524C6.301 13.4173 6.40738 13.3669 6.57738 13.3498C6.85446 13.324 7.19526 13.3329 7.35782 13.256C7.4516 13.2112 7.59574 13.1635 7.77231 13.1603C8.26422 13.1535 8.47095 13.0764 8.7219 13.0034C8.91012 12.9486 9.31436 12.9755 9.5215 12.9207C9.65962 12.8855 9.75979 12.8421 9.89794 12.8084C9.95445 12.7943 10.0741 12.7871 10.1687 12.7826C10.6855 12.7605 11.2088 12.7439 11.7256 12.7204C11.8075 12.716 11.8829 12.6949 11.9457 12.6781C12.0774 12.6416 12.1584 12.5912 12.322 12.5672C12.4855 12.5431 12.7189 12.5425 12.9206 12.5351C13.5699 12.5126 13.6206 12.518 13.9148 12.399C14.1527 12.3023 14.7407 12.3691 14.9342 12.2628C15.0466 12.2013 15.2538 12.1506 15.6258 12.1428C16.1492 12.1318 16.6659 12.104 17.1891 12.0847C17.6556 12.0668 17.6493 12.0668 18.1515 11.9361C18.3775 11.8771 18.712 11.8846 19.0083 11.8728C19.3235 11.8609 19.6133 11.8435 19.7634 11.7735C19.9135 11.7049 20.1906 11.6819 20.5121 11.6714C20.8084 11.6609 21.1429 11.6671 21.3753 11.6108C21.9405 11.4758 21.9341 11.4744 22.3313 11.4595C22.9553 11.4357 23.5794 11.4119 24.2034 11.3867C24.6195 11.3704 25.0546 11.3666 25.4452 11.335C25.7286 11.312 25.8532 11.2337 26.0351 11.179C26.552 11.1568 27.0688 11.1347 27.5857 11.1139C28.3106 11.0843 29.0418 11.0575 29.7731 11.0293C30.0875 10.9756 30.1295 10.8585 30.6593 10.8517C30.9746 10.8481 31.2834 10.8293 31.5985 10.8173C32.1217 10.7966 32.6385 10.7703 33.1619 10.7592C33.5591 10.7513 33.627 10.676 33.8343 10.6281C33.9034 10.6112 33.966 10.5874 34.048 10.583C34.8673 10.5421 35.7123 10.5316 36.5123 10.4726C36.5942 10.4668 36.6694 10.4374 36.6879 10.4165C36.7003 10.4053 36.5927 10.3847 36.5231 10.3751C36.4409 10.3642 36.3335 10.3533 36.2453 10.3563C33.6418 10.4559 31.0385 10.5569 28.4351 10.6565C28.0695 10.6714 28.0695 10.67 27.1829 10.8253C27.1075 10.838 27.0193 10.8521 26.9248 10.8565C26.5088 10.8743 26.0863 10.885 25.6767 10.9069C25.3427 10.9244 25.0649 10.9084 24.8243 10.8588C24.6533 10.8231 24.4764 10.8124 24.262 10.8157C24.0223 10.8204 23.865 10.8361 23.727 10.8741C23.545 10.926 23.4516 10.9931 23.0671 11.0079C21.2957 11.0721 19.5243 11.1432 17.7593 11.2116C17.5129 11.1927 17.3925 11.1637 17.455 11.1288C17.4924 11.1078 17.5676 11.0798 17.6433 11.0768C18.3681 11.0458 19.0993 11.019 19.8242 10.9894C19.9251 10.9849 20.0639 10.9874 20.1204 10.9733C20.3968 10.91 20.4959 10.8081 21.0193 10.7998C21.322 10.7949 21.6307 10.7733 21.9205 10.7531C22.0024 10.7473 22.0775 10.7179 22.0961 10.697C22.1022 10.6858 22.0008 10.6652 21.9249 10.6556C21.6466 10.6159 21.3259 10.6654 21.0478 10.6383C20.953 10.6287 20.8202 10.6151 20.801 10.5985C20.7881 10.5832 20.8949 10.5579 20.9703 10.5424C21.0394 10.5283 21.1337 10.5155 21.2283 10.5111C22.0603 10.4771 22.8924 10.4416 23.7246 10.4145C24.0651 10.404 24.3041 10.3686 24.4542 10.3041C24.5669 10.2565 24.7052 10.2311 24.9195 10.2236C26.3757 10.1686 27.8317 10.108 29.2943 10.0571C29.6599 10.045 29.8484 9.99863 29.9986 9.93839C30.1176 9.89076 30.2561 9.87371 30.4893 9.86479C32.5759 9.78732 34.6496 9.70152 36.7362 9.62683C37.1208 9.61337 37.2332 9.55321 37.4278 9.50122C37.4968 9.48295 37.5405 9.46056 37.6286 9.44921C37.7167 9.43786 37.8302 9.43896 37.9374 9.43592C39.6016 9.372 41.2658 9.30392 42.9363 9.24416C43.3272 9.23068 43.4015 9.16087 43.6024 9.11164C43.6715 9.09616 43.7342 9.07095 43.8161 9.06657C45.0642 9.0162 46.3123 8.96861 47.5604 8.91963C48.3924 8.88697 49.2245 8.85432 50.0566 8.82305C50.4663 8.80813 50.4663 8.80673 51.0189 8.67311C51.0817 8.65764 51.1698 8.63932 51.2517 8.63494C53.647 8.54001 56.0361 8.44928 58.4314 8.35574C58.6332 8.34829 58.7776 8.3159 58.8776 8.26831C58.9777 8.22072 59.1223 8.18834 59.3177 8.18091C61.1898 8.10674 63.062 8.03397 64.9405 7.96396C65.2809 7.95199 65.5199 7.91799 65.6701 7.85496C65.7828 7.80735 65.9211 7.78195 66.1354 7.77447C68.0076 7.70309 69.8798 7.62752 71.7584 7.5589C72.1177 7.5455 72.2934 7.49773 72.4689 7.44161C72.5317 7.42196 72.5816 7.38981 72.6572 7.38684C73.59 7.34559 74.5165 7.30295 75.4559 7.27422C75.8468 7.26213 75.9782 7.20332 76.1348 7.14724C76.2602 7.10238 76.405 7.08671 76.6446 7.08056C77.1679 7.06676 77.6847 7.04184 78.1952 7.01693C78.2708 7.01257 78.3649 6.9817 78.3708 6.96219C78.3827 6.92596 78.2371 6.90124 77.9972 6.88929C75.5009 6.98586 72.9985 7.08244 70.5022 7.17901C70.0925 7.19532 70.0925 7.19533 69.5399 7.32896C69.4771 7.34443 69.389 7.36275 69.3008 7.36714C66.9054 7.46068 64.5164 7.55282 62.1211 7.64636C61.9193 7.65381 61.7749 7.68619 61.6749 7.73377C61.5748 7.78136 61.4302 7.81374 61.2348 7.82118C58.9466 7.91028 56.6585 8.00078 54.3639 8.08572C54.0235 8.09769 53.7844 8.13028 53.6342 8.1947C53.5216 8.24232 53.3833 8.26773 53.169 8.27521C50.9816 8.3585 48.8005 8.44594 46.6067 8.52646C46.3861 8.53396 46.2214 8.49398 46.2333 8.45635C46.2393 8.43684 46.3331 8.4046 46.4088 8.40163C47.5497 8.35291 48.6843 8.3028 49.8317 8.26521C50.2163 8.25313 50.3286 8.19159 50.5231 8.13959C50.5859 8.12134 50.6359 8.09755 50.7177 8.0876C50.8058 8.07625 50.9194 8.07737 51.0266 8.07432C53.7308 7.96889 56.4351 7.86207 59.1458 7.7622C59.5366 7.74732 59.6109 7.6789 59.8118 7.62968C59.8809 7.6128 59.9436 7.58759 60.0255 7.58461C60.8575 7.54917 61.6896 7.5179 62.5217 7.48664C63.9779 7.43019 65.434 7.37374 66.8964 7.31727C67.3187 7.30093 67.3188 7.30092 67.8588 7.16872C67.9216 7.15325 68.0096 7.13356 68.0915 7.13057C71.943 6.98058 75.7946 6.83059 79.6461 6.68199C79.8478 6.67454 79.9923 6.64216 80.0923 6.59457C80.1924 6.54838 80.3368 6.51461 80.5322 6.50578C85.739 6.30376 90.9395 6.10175 96.1463 5.90252C96.4867 5.88916 96.7258 5.85934 96.876 5.79353C96.9823 5.74592 97.1269 5.72051 97.3412 5.71164C103.065 5.49026 108.789 5.26889 114.519 5.04611C118.37 4.89751 122.222 4.74613 126.073 4.60032C126.426 4.58693 126.615 4.5433 126.79 4.48578C126.847 4.46615 126.903 4.43398 126.978 4.43101C127.804 4.3942 128.63 4.36017 129.455 4.32614C129.715 4.36311 129.974 4.39869 130.233 4.43566C130.428 4.38227 130.616 4.3275 130.811 4.27412C132.059 4.2307 133.288 4.16506 134.549 4.1425C134.631 4.14091 134.72 4.16716 134.808 4.18087C135.397 4.26717 135.731 4.25939 136.101 4.14152C136.233 4.09943 136.345 4.06156 136.547 4.05411C137.171 4.02753 137.802 4.00929 138.419 3.97854C138.753 3.96242 139.031 3.97566 139.272 4.02521C139.443 4.061 139.62 4.0759 139.828 4.06704C140.975 4.02248 142.116 3.97932 143.263 3.93198C143.345 3.92899 143.42 3.90513 143.483 3.88827C143.615 3.85174 143.728 3.81249 143.853 3.77458C144.024 3.79784 144.213 3.81549 144.353 3.84578C144.53 3.88156 144.694 3.88115 144.934 3.87082C149.51 3.69122 154.093 3.51579 158.669 3.3348C159.06 3.31992 159.231 3.378 159.497 3.40799C159.585 3.41891 159.674 3.43262 159.769 3.43517C159.87 3.43771 159.977 3.42911 160.078 3.42468C163.513 3.29102 166.949 3.15874 170.384 3.02508C170.838 3.00727 170.838 3.00727 171.515 3.09196C171.597 3.1029 171.704 3.11517 171.792 3.11078C173.356 3.05268 174.919 2.99041 176.476 2.93093C176.678 2.92348 176.849 2.94534 177.032 2.97692C177.393 3.03871 177.418 3.03865 177.681 2.94611C177.806 2.90264 177.938 2.87585 178.146 2.86281C178.373 2.84833 178.556 2.85208 178.733 2.87672C178.986 2.91091 179.17 2.96894 179.555 2.95269C181.219 2.88321 182.889 2.82485 184.547 2.75399C184.925 2.73775 185.128 2.7846 185.381 2.8188C185.47 2.83112 185.552 2.85041 185.647 2.85436C185.741 2.85831 185.855 2.84828 185.956 2.84386C188.036 2.76361 190.122 2.68476 192.196 2.59896C192.587 2.5827 192.758 2.64215 193.024 2.67214C193.112 2.68306 193.214 2.70232 193.296 2.69934C194.544 2.65314 195.798 2.60413 197.046 2.55515C197.494 2.53735 197.494 2.53874 198.177 2.62203C198.259 2.63297 198.366 2.64385 198.455 2.64085C199.911 2.5858 201.373 2.52933 202.829 2.47288C203.277 2.45509 203.277 2.45509 204.571 2.52436C204.666 2.5297 204.767 2.53782 204.862 2.5348C206.526 2.47089 208.196 2.40834 209.861 2.34025C210.195 2.3269 210.472 2.33736 210.713 2.38691C210.884 2.4227 211.061 2.4376 211.269 2.42874C213.141 2.35596 215.02 2.28596 216.886 2.20902C217.245 2.19422 217.479 2.22428 217.732 2.26405C217.814 2.27777 217.897 2.29707 217.991 2.30241C218.086 2.30775 218.193 2.30192 218.294 2.29749C220.166 2.22472 222.045 2.15611 223.91 2.07778C224.289 2.06154 224.491 2.10839 224.744 2.14259C224.833 2.15491 224.928 2.17974 225.004 2.17817C225.735 2.15272 226.466 2.13006 227.191 2.09349C227.582 2.07305 227.753 2.13668 228.019 2.16667C228.107 2.1762 228.208 2.19685 228.29 2.19387C229.854 2.13577 231.417 2.07488 232.974 2.01262C233.195 2.00373 233.359 2.01585 233.536 2.05163C233.771 2.09979 234.042 2.11863 234.383 2.10249C235.107 2.0687 235.839 2.04465 236.57 2.01642C236.999 2.00006 236.999 2.00007 238.312 2.06929C238.407 2.07463 238.508 2.08273 238.602 2.07972C239.85 2.03213 241.105 1.98592 242.347 1.93417C242.681 1.91943 242.958 1.93129 243.199 1.98083C243.37 2.01662 243.541 2.03153 243.755 2.02266C244.902 1.9781 246.043 1.93355 247.191 1.88899C247.607 1.87267 248.022 1.84519 248.439 1.84418C248.742 1.84484 248.964 1.91114 249.235 1.9439C249.311 1.95346 249.437 1.94203 249.538 1.939C250.994 1.88255 252.457 1.83026 253.906 1.76686C254.285 1.75063 254.487 1.79748 254.74 1.83168C254.829 1.84399 254.924 1.86883 255 1.86725C255.523 1.85067 256.04 1.82852 256.563 1.80915C257.187 1.78535 257.818 1.76711 258.435 1.73498C258.939 1.70869 259.131 1.82937 259.535 1.83257C259.844 1.836 260.159 1.81156 260.468 1.79967C261.092 1.77588 261.716 1.7493 262.34 1.72829C262.56 1.72079 262.73 1.69809 262.799 1.6478C262.811 1.63802 262.704 1.6174 262.634 1.60504C261.792 1.46505 261.792 1.46504 260.948 1.49772C260.424 1.51849 259.908 1.53924 259.384 1.55722C259.296 1.56022 259.195 1.54933 259.106 1.54119C258.854 1.51813 258.878 1.49022 259.092 1.43957C259.305 1.38892 259.468 1.32726 259.65 1.26973C259.909 1.30531 260.163 1.34088 260.422 1.37646C260.63 1.36899 260.838 1.36014 261.046 1.35268C262.086 1.31395 263.126 1.27382 264.166 1.23788C264.242 1.23491 264.337 1.26253 264.426 1.27624C264.679 1.31601 264.906 1.35026 265.272 1.33406C266.205 1.29141 267.144 1.25989 268.077 1.22281C268.487 1.2065 268.487 1.2065 269.208 1.29109C269.29 1.30063 269.397 1.31151 269.485 1.30852C270.425 1.27421 271.358 1.23714 272.297 1.20144C272.499 1.19398 272.695 1.21161 272.84 1.25164C272.897 1.26821 272.885 1.29608 273.129 1.52386C273.877 1.70725 274.388 1.68652 274.905 1.66856C275.125 1.66106 275.321 1.65362 275.465 1.62542C275.541 1.60992 275.635 1.5874 275.635 1.5693C275.634 1.55538 275.495 1.53343 275.407 1.53086C274.782 1.50453 274.19 1.56446 273.578 1.57848C273.294 1.58473 273.048 1.5366 272.996 1.45735C272.983 1.4351 272.963 1.41148 272.944 1.38924C272.924 1.36701 272.912 1.34337 272.892 1.32114C272.646 1.31477 272.501 1.34018 272.395 1.38779C272.307 1.42699 272.182 1.47185 272.012 1.49315C271.842 1.51585 271.609 1.51224 271.401 1.51971C271.199 1.52716 270.979 1.5458 270.789 1.53651C270.6 1.52583 270.448 1.48581 270.271 1.46118C270.188 1.44884 270.087 1.43099 270.005 1.43398C269.28 1.45941 268.562 1.48482 267.843 1.51719C267.465 1.53482 267.274 1.47681 267.034 1.44119C266.844 1.4138 266.655 1.42121 266.625 1.48534C266.546 1.63871 266.837 1.70205 267.48 1.67125C268.009 1.6449 268.489 1.63957 268.907 1.73324C268.964 1.74564 269.096 1.75088 269.178 1.7479C269.695 1.72994 270.206 1.70781 270.723 1.68984C270.817 1.68683 270.918 1.69214 271.007 1.6975C272.295 1.76957 272.295 1.77097 272.73 1.7532C272.938 1.74434 273.14 1.73689 273.117 1.52529C273.51 1.29736 274.14 1.28051 274.752 1.24561C275.149 1.22376 275.32 1.28461 275.579 1.31601C275.668 1.32694 275.763 1.34898 275.845 1.346C277.2 1.29675 278.549 1.24474 279.898 1.18994C280.125 1.18103 280.289 1.18899 280.466 1.22477C280.694 1.27017 280.947 1.2988 281.307 1.28122C282.025 1.24606 282.756 1.2234 283.487 1.19377C283.859 1.17895 283.859 1.17893 284.612 1.26344C284.694 1.27299 284.801 1.28387 284.89 1.28087C285.621 1.25542 286.346 1.22443 287.071 1.1976C287.272 1.19015 287.456 1.2092 287.614 1.24641C287.772 1.28363 287.962 1.30266 288.158 1.29522C288.889 1.26838 289.614 1.23878 290.339 1.21196C290.427 1.20896 290.534 1.21845 290.616 1.22799C291.388 1.31246 291.388 1.31244 291.741 1.29766C292.258 1.27552 292.787 1.2645 293.298 1.23541C293.795 1.20635 294.056 1.28648 294.397 1.33021C295.33 1.29592 296.269 1.26719 297.196 1.22595C297.574 1.20832 297.777 1.25378 298.03 1.28937C298.118 1.30168 298.207 1.32793 298.289 1.32634C298.604 1.32 298.913 1.30394 299.222 1.29205C299.531 1.28016 299.846 1.26825 300.155 1.25636C300.509 1.29589 300.744 1.39001 301.248 1.35675C301.551 1.33653 301.872 1.33157 302.181 1.31968C302.49 1.30779 302.805 1.29589 303.114 1.284C303.322 1.27653 303.537 1.27182 303.738 1.2588C304.11 1.23701 304.294 1.30481 304.56 1.3348C304.648 1.34433 304.749 1.36078 304.831 1.3578C305.455 1.33679 306.086 1.31855 306.697 1.28504C307.17 1.25883 307.492 1.29983 307.828 1.3575C307.897 1.36986 308.017 1.37653 308.106 1.37353C308.837 1.34808 309.562 1.31707 310.287 1.29025C310.482 1.28281 310.672 1.30463 310.83 1.34045C310.995 1.37765 311.178 1.39532 311.38 1.38787C312.105 1.36104 312.836 1.33141 313.561 1.30459C313.649 1.30159 313.757 1.31247 313.839 1.32341C314.547 1.40803 314.547 1.40942 314.963 1.3917C315.064 1.38728 315.171 1.38422 315.272 1.3798C315.789 1.35905 316.325 1.3508 316.829 1.31615C317.408 1.27715 317.832 1.32347 318.243 1.40184C318.76 1.38388 319.29 1.37284 319.794 1.34377C320.172 1.32196 320.375 1.37438 320.628 1.40858C320.717 1.4209 320.812 1.44573 320.887 1.44277C321.619 1.41732 322.35 1.39466 323.068 1.35811C323.459 1.33766 323.631 1.3999 323.896 1.43128C323.985 1.44221 324.08 1.46148 324.162 1.4585C324.578 1.44635 324.994 1.42862 325.41 1.41229C325.895 1.39301 325.895 1.3944 326.54 1.47778C326.844 1.51743 327.146 1.48466 327.442 1.4742C327.757 1.46229 328.054 1.45322 328.307 1.5097C328.465 1.54552 328.655 1.56734 328.851 1.56129C329.267 1.54775 329.689 1.5342 330.099 1.51232C330.426 1.49481 330.71 1.50526 330.951 1.5562C331.122 1.59199 331.299 1.60967 331.507 1.60081C332.44 1.56513 333.379 1.52802 334.312 1.49373C334.394 1.49075 334.508 1.50301 334.584 1.51535C334.761 1.53999 334.932 1.56742 335.103 1.59485C335.512 1.58133 335.935 1.57475 336.338 1.55427C336.767 1.53374 337.158 1.52582 337.494 1.6016C337.563 1.61814 337.665 1.64155 337.747 1.63996C338.062 1.63362 338.371 1.61895 338.68 1.60706C338.988 1.59517 339.304 1.58327 339.613 1.57138C339.973 1.60532 340.202 1.70502 340.706 1.67177C341.008 1.65154 341.33 1.64658 341.639 1.63469C341.948 1.6228 342.263 1.60951 342.572 1.59901C342.673 1.59598 342.786 1.58874 342.874 1.5941C342.969 1.59944 343.051 1.61873 343.134 1.63246C343.387 1.67223 343.621 1.71205 343.98 1.6875C344.283 1.66727 344.604 1.66231 344.913 1.64903C345.335 1.63269 345.335 1.63269 346.037 1.71872C346.322 1.75423 346.642 1.70611 346.914 1.73608C347.098 1.75653 347.256 1.79095 347.433 1.81419C347.509 1.82375 347.629 1.82763 347.717 1.82464C348.133 1.81109 348.556 1.79754 348.965 1.77566C349.299 1.75814 349.577 1.77417 349.811 1.82373C349.982 1.85952 350.153 1.87444 350.367 1.86556C351.407 1.82405 352.448 1.78809 353.481 1.74241C353.834 1.72624 354.119 1.74923 354.315 1.79888C354.651 1.8844 355.122 1.78161 355.47 1.85039C355.686 1.89303 355.901 1.94264 356.292 1.92081C357.01 1.88286 357.742 1.86158 358.467 1.83475C358.726 1.87172 358.985 1.9087 359.251 1.94565C359.667 1.92932 360.083 1.91299 360.499 1.89805C360.808 1.88616 361.123 1.87287 361.432 1.86237C361.533 1.85934 361.64 1.85351 361.735 1.86024C361.829 1.86697 361.906 1.88489 361.994 1.8986C362.431 1.96578 362.431 1.96718 363.149 1.93758C363.458 1.9243 363.754 1.91523 364.014 1.9703C364.255 2.02123 364.539 2.03029 364.866 2.01417C365.484 1.98482 366.108 1.96242 366.739 1.9414C366.934 1.93396 367.117 1.95719 367.282 1.99299C367.529 2.04949 367.832 2.04318 368.141 2.02712C368.55 2.00663 368.954 1.98616 369.302 2.06329C369.372 2.07983 369.48 2.10323 369.555 2.10166C370.072 2.08926 370.596 2.07964 371.1 2.05196C371.604 2.02428 371.851 2.11001 372.199 2.15094C372.716 2.13158 373.239 2.11221 373.756 2.09285C373.857 2.08843 373.977 2.07562 374.065 2.08236C374.438 2.1107 374.654 2.21461 375.165 2.18134C375.461 2.16252 375.782 2.15618 376.091 2.15125C376.173 2.14966 376.281 2.17306 376.338 2.19102C376.37 2.20069 376.339 2.22723 376.301 2.24124C376.188 2.28051 376.05 2.31706 375.95 2.35768C375.938 2.36328 376.058 2.38804 376.128 2.39902C376.298 2.42367 376.494 2.41902 376.721 2.40733C376.916 2.39711 377.118 2.41612 377.258 2.45755C377.315 2.47412 377.296 2.50201 377.178 2.59421C377.18 2.66244 377.312 2.63147 377.355 2.58681C377.423 2.52259 377.29 2.50203 377.039 2.53745C376.862 2.56294 376.775 2.59936 376.82 2.6285C376.845 2.64375 376.965 2.66296 377.178 2.59421C377.732 2.50931 378.148 2.49299 378.564 2.47667C378.671 2.47223 378.797 2.45799 378.873 2.46616C379.145 2.49892 379.398 2.53869 379.664 2.57565C379.966 2.56656 380.25 2.54497 380.547 2.59856C380.965 2.67413 380.984 2.66713 381.387 2.65083C381.595 2.64197 381.803 2.63451 382.011 2.62705C382.219 2.61958 382.384 2.64006 382.567 2.67164C382.94 2.73618 382.972 2.7361 383.216 2.64639C383.36 2.59173 383.461 2.57339 383.644 2.59801C384.252 2.68148 384.258 2.68703 384.775 2.66071C385.203 2.63878 385.607 2.63223 385.924 2.71084C386.139 2.76601 386.208 2.75332 386.378 2.69442C386.829 2.53876 387.037 2.54103 387.891 2.65036C388.289 2.70231 388.698 2.64423 389.102 2.63629C389.442 2.62989 389.683 2.66272 389.71 2.75038C389.729 2.80464 389.787 2.8435 390.014 2.86105C390.103 2.8678 390.21 2.87728 390.298 2.87428C390.822 2.8563 391.339 2.83555 391.862 2.81478C392.127 2.80439 392.27 2.73861 392.218 2.6524C392.16 2.56064 392.26 2.52696 392.638 2.49959C392.865 2.48372 393.048 2.48607 393.231 2.51069C393.434 2.53805 393.377 2.56325 393.202 2.61381C392.781 2.73737 392.833 2.81242 393.377 2.89605C393.567 2.92483 393.719 2.95093 393.764 2.99399C393.79 3.0162 393.765 3.04551 393.822 3.06208C394.133 3.15462 394.563 3.21346 395.043 3.25685C395.503 3.21814 395.82 3.28002 396.174 3.32929C396.452 3.36761 396.779 3.3334 397.076 3.31876C397.41 3.30263 397.687 3.31309 397.928 3.36403C398.099 3.39982 398.276 3.41609 398.484 3.40863C398.9 3.3923 399.322 3.38153 399.732 3.35826C400.085 3.33791 400.35 3.36511 400.572 3.41192C400.851 3.47112 401.159 3.42999 401.45 3.43764C401.841 3.44643 402.039 3.56988 402.549 3.53522C402.851 3.51499 403.167 3.50727 403.482 3.50093C403.564 3.49934 403.665 3.52277 403.735 3.53931C404.071 3.61509 404.462 3.60996 404.89 3.58664C405.186 3.5706 405.476 3.55598 405.767 3.60819C406.249 3.69614 406.78 3.77283 407.286 3.85376C407.357 3.91765 407.308 3.99295 407.668 4.02967C407.857 4.0487 408.035 4.07753 408.18 4.1092C408.358 4.14637 408.522 4.15572 408.749 4.14542C409.158 4.12493 409.587 4.1197 409.991 4.09366C410.362 4.07048 410.596 4.11587 410.824 4.15849C411.008 4.19286 411.179 4.20914 411.399 4.18354C411.626 4.15932 411.79 4.17423 411.974 4.21139C412.233 4.26228 412.252 4.25667 413.11 4.26991C413.198 4.27108 413.306 4.2917 413.357 4.30968C413.382 4.31936 413.326 4.34737 413.282 4.3614C413.226 4.37824 413.138 4.39794 413.056 4.40232C412.123 4.44079 411.184 4.47509 410.251 4.51356C410.156 4.51797 410.056 4.52797 409.986 4.54206C409.911 4.55757 409.817 4.57867 409.817 4.59816C409.817 4.61209 409.944 4.6285 410.032 4.63803C410.31 4.66938 410.638 4.61985 410.91 4.6554C411.093 4.67862 411.245 4.71167 411.428 4.7335C411.504 4.74307 411.624 4.74139 411.719 4.73837C412.034 4.72786 412.343 4.71319 412.658 4.70407C412.746 4.70246 412.847 4.71615 412.929 4.72709C413.537 4.80916 413.537 4.80916 414.06 4.78979C414.268 4.78232 414.488 4.7609 414.684 4.76878C414.873 4.77667 415.038 4.81387 415.209 4.83713C415.563 4.8864 415.898 4.93432 415.926 5.04287C415.939 5.08461 416.148 5.1203 416.356 5.12258C416.558 5.12488 416.772 5.10905 416.98 5.10019C417.472 5.08229 417.472 5.08229 418.11 5.16568C418.288 5.18892 418.477 5.19124 418.704 5.17677C418.792 5.17098 418.899 5.1763 418.994 5.18303C419.304 5.20317 419.304 5.22962 419.103 5.28024C418.821 5.35472 418.846 5.36163 419.642 5.42236C419.945 5.4453 420.179 5.48929 420.432 5.52767C420.844 5.58933 420.837 5.58933 420.568 5.67215C420.505 5.6904 420.448 5.71004 420.386 5.72969C420.204 5.78443 420.06 5.84327 419.681 5.84975C419.265 5.85633 418.849 5.87963 418.433 5.89596C418.03 5.91225 417.923 5.94592 417.963 6.04051C418.009 6.15459 418.092 6.16692 418.817 6.16377C419.025 6.16326 419.208 6.17396 419.367 6.21117C419.292 6.25591 419.154 6.29106 418.952 6.2999C418.435 6.32205 417.912 6.34142 417.395 6.36078C416.979 6.37711 416.563 6.39343 416.147 6.40976C415.888 6.42013 415.726 6.49294 415.797 6.57353C415.835 6.61939 415.868 6.66526 415.9 6.71114C415.971 6.80287 416.104 6.82623 416.527 6.82102C416.634 6.81937 416.735 6.80798 416.836 6.81052C417.246 6.81927 417.444 6.93436 417.935 6.9095C418.345 6.88901 418.774 6.88379 419.177 6.85775C419.549 6.83457 419.758 6.8842 420.017 6.92117C420.106 6.93349 420.201 6.9597 420.276 6.95813C420.8 6.94154 421.323 6.92496 421.833 6.89727C422.073 6.88555 422.218 6.89354 422.408 6.9265C422.864 7.00616 422.876 7.00195 423.551 6.97525C424.042 6.95456 424.049 6.95733 424.681 7.04074C424.858 7.06398 425.047 7.06352 425.274 7.05183C425.571 7.03718 425.879 7.01416 426.189 7.03429C426.283 7.03963 426.404 7.05606 426.435 7.07408C426.455 7.08657 426.367 7.11742 426.291 7.12735C425.738 7.2011 425.088 7.19015 424.483 7.22086C424.294 7.22967 424.104 7.20367 423.945 7.16646C423.781 7.12926 423.604 7.11438 423.389 7.12186C422.973 7.13819 422.551 7.14896 422.141 7.17223C421.789 7.19258 421.542 7.16115 421.295 7.11858C421.213 7.10486 421.118 7.07863 421.036 7.08022C420.103 7.11033 419.163 7.14047 418.237 7.18171C417.865 7.19932 417.65 7.15529 417.397 7.1183C417.308 7.10599 417.219 7.07974 417.137 7.08133C416.822 7.08767 416.513 7.10373 416.198 7.11564C415.051 7.1602 413.91 7.20474 412.762 7.24652C412.687 7.24948 412.592 7.22047 412.503 7.20815C412.332 7.1835 412.155 7.16026 411.978 7.13701C411.663 7.14892 411.354 7.16359 411.039 7.17271C410.812 7.17883 410.61 7.19882 410.58 7.25181C410.562 7.28667 410.77 7.31818 410.991 7.31486C411.206 7.31156 411.42 7.29433 411.597 7.312C412.475 7.39899 412.475 7.40038 413.024 7.38095C413.503 7.36308 413.452 7.34927 413.876 7.42483C414.06 7.4578 414.224 7.47691 414.432 7.46805C414.949 7.4473 415.472 7.42653 415.995 7.40855C416.077 7.40557 416.185 7.41923 416.267 7.43018C416.887 7.51222 416.887 7.515 417.397 7.49288C418.066 7.46619 418.091 7.45917 418.54 7.54302C418.85 7.60075 419.133 7.55968 419.43 7.55617C419.771 7.60965 420.145 7.65749 420.455 7.71801C420.822 7.78953 421.206 7.77605 421.622 7.75415C421.931 7.73808 422.234 7.73178 422.487 7.78826C422.728 7.84059 423.018 7.84546 423.346 7.83074C423.642 7.81749 423.945 7.79029 424.254 7.82018C424.336 7.82833 424.463 7.84892 424.457 7.86147C424.451 7.88098 424.369 7.90903 424.288 7.91758C423.708 7.97608 423.071 7.97623 422.46 8.00417C422.378 8.00854 422.27 7.99348 422.188 7.98254C422.011 7.95791 421.84 7.92909 421.669 7.90304C421.36 7.91215 421.045 7.91569 420.743 7.93314C420.51 7.94623 420.333 7.94528 420.162 7.91228C420.004 7.88203 419.833 7.84484 419.643 7.83555C419.454 7.82626 419.233 7.84769 419.025 7.85654C418.817 7.8654 418.578 7.8618 418.414 7.88448C418.251 7.90715 418.15 7.95614 418.044 7.99539C417.925 8.03885 417.761 8.05318 417.521 8.05794C417.301 8.06265 417.124 8.0575 416.959 8.01891C416.89 8.00237 416.795 7.99006 416.7 7.97915C416.611 7.96962 416.51 7.95454 416.428 7.95753C415.489 7.99184 414.556 8.02893 413.617 8.06462C413.15 8.08247 413.157 8.08244 412.184 8.00264C412.095 7.99589 411.988 7.98641 411.9 7.98941C411.376 8.00739 410.86 8.02814 410.336 8.04891C409.807 8.06969 409.813 8.06689 408.909 7.98135C408.745 7.96504 408.506 7.9879 408.31 7.98559C407.9 7.97963 407.696 7.86316 407.217 7.8866C406.807 7.90709 406.378 7.9123 405.969 7.93836C405.597 7.96154 405.382 7.91333 405.129 7.87635C405.04 7.86403 404.945 7.83641 404.869 7.83938C403.93 7.87229 402.997 7.90937 401.748 7.91658C401.439 7.91733 401.579 7.94624 401.781 7.9555C402.071 7.97011 402.165 7.94064 402.006 7.88532C401.892 7.84661 401.728 7.8275 401.595 7.83757C401.526 7.84331 401.438 7.86999 401.748 7.91658C402.077 7.9687 402.059 7.99798 402.116 8.01455C402.256 8.05459 402.451 8.07083 402.653 8.06477C402.968 8.05425 403.277 8.03958 403.593 8.03046C403.681 8.02746 403.788 8.03695 403.87 8.04789C404.566 8.13254 404.572 8.1381 405.31 8.10289C405.543 8.09258 405.713 8.09216 405.897 8.11817C406.15 8.15377 406.334 8.21458 406.718 8.19415C407.229 8.16646 407.752 8.14988 408.275 8.13329C408.357 8.13031 408.446 8.15516 408.541 8.16607C408.8 8.19886 408.99 8.26106 409.375 8.23367C409.671 8.21206 409.992 8.2057 410.308 8.20076C410.39 8.19916 410.516 8.22114 410.554 8.23915C410.631 8.27099 410.537 8.30883 410.323 8.3358C410.235 8.34716 410.115 8.34466 410.014 8.34908C409.598 8.36541 409.182 8.38312 408.766 8.39666C408.545 8.40416 408.337 8.42556 408.313 8.47714C408.295 8.512 408.522 8.54208 408.737 8.53877C409.052 8.53383 409.367 8.52192 409.67 8.50309C410.205 8.47115 410.672 8.47837 411.109 8.56504C411.42 8.62555 411.4 8.60333 411.732 8.78355C411.814 8.8293 412.061 8.83288 412.275 8.82957C412.792 8.82136 413.032 8.84167 412.989 8.88494C412.933 8.93799 412.75 8.95513 412.517 8.96266C412.101 8.97481 411.685 8.99393 411.269 9.01026C411.168 9.01468 411.055 9.0233 410.96 9.02075C410.866 9.01819 410.777 9.0017 410.695 8.98937C410.518 8.96334 410.365 8.92332 410.176 8.91403C409.987 8.90474 409.766 8.92617 409.558 8.93503C409.35 8.9425 409.13 8.96392 408.94 8.95463C408.751 8.94534 408.592 8.90396 408.422 8.87931C408.339 8.86698 408.238 8.84772 408.156 8.84931C407.74 8.86146 407.324 8.88058 406.908 8.89551C406.397 8.91486 406.397 8.91486 405.778 8.83003C405.6 8.80539 405.418 8.80723 405.184 8.81894C404.68 8.84244 404.674 8.83827 403.751 8.75974C403.663 8.7516 403.555 8.74212 403.467 8.74651C402.528 8.78082 401.595 8.81789 400.662 8.85358C399.861 8.88476 399.861 8.88477 399.423 9.02509C399.096 9.12892 399.09 9.12893 399.413 9.1755C399.672 9.21386 399.907 9.27037 400.191 9.29057C400.456 9.30942 400.783 9.24597 401.074 9.30932C401.22 9.34099 401.41 9.37535 401.593 9.38047C401.883 9.38673 402.192 9.34559 402.47 9.40619C402.61 9.43648 402.818 9.46802 402.995 9.46898C403.304 9.47101 403.619 9.44796 403.928 9.43746C404.023 9.43445 404.13 9.43419 404.218 9.44094C404.313 9.44906 404.395 9.46558 404.478 9.4793C404.731 9.52603 405.003 9.54765 405.33 9.52318C405.866 9.48289 406.345 9.50122 406.763 9.58933C406.82 9.60172 406.959 9.60278 407.047 9.597C407.274 9.58252 407.47 9.58065 407.64 9.60669C407.71 9.61767 407.811 9.63691 407.799 9.64947C407.78 9.6704 407.705 9.69844 407.623 9.7056C407.031 9.75438 406.394 9.7615 405.783 9.78805C405.701 9.79104 405.6 9.77317 405.518 9.76084C405.34 9.7362 405.188 9.69481 404.999 9.68552C404.809 9.67623 404.589 9.69487 404.381 9.70233C404.173 9.7098 403.953 9.73123 403.763 9.72333C403.574 9.71404 403.396 9.67965 403.244 9.64939C403.067 9.61501 402.897 9.61125 402.664 9.62574C402.361 9.64458 402.046 9.64813 401.737 9.65862C401.566 9.63258 401.395 9.60374 401.218 9.57911C401.136 9.56677 401.035 9.55171 400.947 9.55332C400.53 9.56547 400.114 9.58318 399.698 9.5995C399.282 9.61583 399.282 9.61585 398.574 9.53123C398.492 9.52168 398.384 9.5108 398.296 9.5138C397.773 9.53178 397.256 9.55391 396.733 9.57189C396.531 9.57934 396.348 9.56029 396.183 9.52309C396.025 9.48588 395.835 9.46546 395.64 9.47289C394.808 9.50415 393.975 9.53403 393.144 9.57086C392.809 9.5856 392.525 9.57376 392.297 9.52418C392.031 9.46773 391.735 9.48238 391.426 9.49427C390.727 9.52382 390.72 9.52243 390.271 9.4525C390.182 9.43879 390.094 9.41255 390.012 9.41414C389.287 9.43679 388.555 9.45806 387.837 9.49322C387.459 9.51224 387.256 9.464 387.003 9.42841C386.914 9.41609 386.819 9.38986 386.744 9.39283C386.22 9.40942 385.697 9.42462 385.187 9.45371C384.676 9.4828 384.478 9.35378 384.093 9.35611C383.57 9.35877 383.053 9.39205 382.536 9.4128C382.12 9.42913 381.704 9.44545 381.288 9.46178C380.872 9.4781 380.456 9.49164 380.04 9.51075C379.82 9.52104 379.655 9.5089 379.472 9.47453C379.238 9.42915 378.959 9.39363 378.706 9.35247C378.32 9.29353 378.32 9.29352 377.854 9.31137C377.753 9.31579 377.646 9.31883 377.545 9.32325C376.782 9.35574 376.782 9.35296 375.809 9.26759C375.765 9.26352 375.652 9.27912 375.608 9.29037C375.476 9.32689 375.357 9.36616 375.238 9.40405C375.067 9.38218 374.859 9.37016 374.744 9.33841C374.421 9.24868 373.919 9.37383 373.589 9.28551C373.468 9.25238 373.26 9.22365 373.07 9.21575C372.875 9.20787 372.654 9.2279 372.453 9.23675C371.929 9.2589 371.929 9.25752 371.484 9.38253C371.258 9.44435 370.93 9.434 370.634 9.44864C370.325 9.46471 370.028 9.47378 369.769 9.41732C369.534 9.36637 369.25 9.35453 368.916 9.37205C368.507 9.39393 368.084 9.40748 367.668 9.42103C367.58 9.42403 367.472 9.41733 367.384 9.40919C366.417 9.32938 366.417 9.32799 365.951 9.34722C365.743 9.35608 365.528 9.35938 365.327 9.3724C364.987 9.39551 364.727 9.36689 364.481 9.32293C364.398 9.30921 364.303 9.28299 364.221 9.28458C363.805 9.29256 363.395 9.30608 362.985 9.31961C362.67 9.33012 362.355 9.33646 362.053 9.35669C361.548 9.38994 361.301 9.30001 360.953 9.25908C360.436 9.27844 359.913 9.29224 359.396 9.31856C359.157 9.33028 358.999 9.3265 358.815 9.29352C358.581 9.25232 358.366 9.2055 357.988 9.2273C357.484 9.25637 356.954 9.26741 356.437 9.28537C356.089 9.24305 355.835 9.15593 355.337 9.18916C355.035 9.20939 354.713 9.21435 354.405 9.22624C353.989 9.24257 353.572 9.25751 353.156 9.27523C352.709 9.29303 352.715 9.28884 352.026 9.20835C351.628 9.16058 351.219 9.21588 350.815 9.22521C350.5 9.23294 350.343 9.29737 350.421 9.37934C350.498 9.46131 350.329 9.52578 350.039 9.53762C349.314 9.56584 348.583 9.59545 347.858 9.62088C347.769 9.62388 347.662 9.6144 347.58 9.60485C346.802 9.51901 346.802 9.52041 346.456 9.53379C345.939 9.55593 345.409 9.56834 344.899 9.59604C344.546 9.615 344.287 9.5864 344.059 9.53961C343.881 9.50383 343.717 9.49587 343.49 9.50478C340.994 9.60413 338.498 9.69653 336.008 9.79865C335.636 9.81348 335.421 9.77362 335.168 9.73664C335.079 9.72432 334.997 9.69806 334.908 9.69828C334.7 9.69878 334.492 9.71182 334.284 9.72068C333.351 9.75637 332.419 9.79901 331.479 9.82635C331.082 9.83846 330.976 9.90277 330.807 9.9561C330.675 9.9968 330.524 10.0139 330.291 10.02C330.064 10.0261 329.899 10.0196 329.722 9.98379C329.494 9.93699 329.235 9.90838 328.882 9.92873C328.473 9.952 328.056 9.96277 327.634 9.97911C327.42 9.9866 327.256 10.0121 327.188 10.0624C327.175 10.0707 327.308 10.0913 327.384 10.1037C327.637 10.1448 327.878 10.193 328.162 10.2215C328.453 10.2501 328.768 10.2159 329.07 10.2068C329.177 10.2037 329.278 10.1951 329.379 10.1963C329.474 10.1974 329.588 10.2041 329.657 10.2165C329.986 10.2784 330.334 10.3207 330.787 10.282C331.179 10.2991 331.383 10.4142 331.881 10.3824C332.183 10.3635 332.498 10.3544 332.814 10.3467C332.896 10.3451 332.984 10.37 333.073 10.3823C333.326 10.4165 333.529 10.4717 333.907 10.4471C334.31 10.421 334.739 10.4158 335.149 10.3953C335.376 10.3836 335.54 10.393 335.717 10.4288C335.945 10.4742 336.204 10.5083 336.557 10.4852C336.859 10.465 337.181 10.46 337.49 10.4467C337.893 10.4304 337.893 10.4318 338.614 10.5164C338.696 10.526 338.804 10.5368 338.892 10.5338C339.415 10.5159 339.932 10.4937 340.455 10.4757C340.657 10.4683 340.853 10.4859 340.993 10.526C341.05 10.5425 341.031 10.5704 341.05 10.5941C340.01 10.6342 338.97 10.6687 337.937 10.7172C337.546 10.7362 337.368 10.6796 337.109 10.6482C337.02 10.6373 336.925 10.6138 336.843 10.6168C336.112 10.6423 335.387 10.6691 334.662 10.7015C334.435 10.7118 334.265 10.7066 334.094 10.6666C333.657 10.5605 333.128 10.6202 332.636 10.6368C332.258 10.6488 332.139 10.6923 332.185 10.7841C332.244 10.8925 332.471 10.9254 333.051 10.9045C333.259 10.897 333.467 10.8868 333.675 10.8807C333.877 10.8746 334.06 10.8923 334.225 10.9295C334.383 10.9667 334.573 10.9857 334.768 10.9797C335.185 10.9662 335.607 10.9526 336.01 10.9307C336.344 10.9132 336.622 10.9265 336.856 10.9774C337.116 11.0339 337.419 11.0206 337.721 11.0074C338.427 10.9778 338.434 10.9792 338.876 11.0477C338.965 11.0614 339.054 11.0877 339.136 11.0861C339.861 11.0634 340.592 11.0436 341.304 11.0084C341.676 10.9908 341.892 11.0348 342.138 11.0704C342.227 11.0828 342.316 11.1104 342.398 11.1074C342.921 11.0908 343.444 11.0742 343.955 11.0465C344.194 11.0334 344.339 11.0414 344.535 11.0744C345.004 11.1554 345.016 11.1526 345.678 11.1245C345.88 11.1157 346.1 11.0998 346.29 11.1105C346.479 11.1212 346.631 11.1612 346.808 11.1858C346.891 11.1968 346.992 11.2118 347.08 11.2088C347.496 11.1967 347.912 11.179 348.328 11.1626C348.719 11.1464 348.719 11.1478 349.452 11.2323C349.75 11.2678 350.058 11.2364 350.355 11.2246C350.676 11.2112 350.966 11.2105 351.213 11.2643C351.46 11.318 351.757 11.3144 352.072 11.3025C352.368 11.2907 352.67 11.2593 352.974 11.2962C353.669 11.3808 353.669 11.3822 354.098 11.3645C354.722 11.3393 355.34 11.3155 355.97 11.2931C356.052 11.2901 356.16 11.3066 356.242 11.3175C356.419 11.3421 356.571 11.3835 356.76 11.3928C356.95 11.4035 357.17 11.3863 357.372 11.3774C358.021 11.3494 358.065 11.3395 358.502 11.4304C358.87 11.5047 359.322 11.395 359.664 11.4805C359.86 11.5287 360.126 11.5671 360.491 11.5425C360.794 11.5223 361.109 11.5159 361.424 11.504C361.922 11.4847 361.922 11.4861 362.555 11.5681C362.637 11.5791 362.744 11.5927 362.826 11.5898C363.242 11.5776 363.665 11.5668 364.068 11.5408C364.541 11.5104 364.844 11.5626 365.199 11.6133C365.477 11.653 365.804 11.6187 366.101 11.6041C366.422 11.5894 366.712 11.5929 366.953 11.6466C367.206 11.7017 367.503 11.694 367.818 11.6821C368.114 11.6716 368.416 11.6388 368.72 11.6771C369.371 11.7619 369.371 11.7619 369.844 11.744C370.26 11.7277 370.676 11.71 371.092 11.6978C371.174 11.6948 371.275 11.7127 371.358 11.725C371.535 11.7496 371.687 11.7911 371.876 11.8003C372.066 11.8096 372.286 11.791 372.494 11.7835C372.702 11.7761 372.923 11.7546 373.112 11.7625C373.301 11.7704 373.479 11.8048 373.631 11.8351C373.808 11.8709 373.972 11.8746 374.211 11.8601C374.514 11.8413 374.829 11.8363 375.138 11.8258C375.309 11.8519 375.486 11.8779 375.651 11.9068C375.822 11.937 376.004 11.9337 376.238 11.9234C377.013 11.8881 377.019 11.8923 377.671 11.9771C377.968 12.0153 378.276 11.9825 378.573 11.9721C378.888 11.9602 379.184 11.9539 379.431 12.009C379.672 12.0613 379.969 12.0675 380.284 12.0501C380.485 12.0384 380.7 12.031 380.908 12.0263C381.002 12.0247 381.116 12.03 381.185 12.0409C381.521 12.0986 381.85 12.1507 382.31 12.112C382.714 12.1222 382.918 12.2359 383.403 12.2124C383.813 12.1919 384.241 12.1867 384.645 12.1606C385.016 12.1375 385.282 12.1758 385.472 12.2241C385.814 12.3096 386.292 12.1915 386.634 12.2756C386.83 12.3238 387.083 12.3622 387.461 12.3404C387.877 12.3171 388.01 12.346 388.132 12.4335C388.202 12.4834 388.19 12.5238 388.065 12.5631C387.94 12.6038 387.801 12.5972 387.598 12.5517C387.364 12.5008 387.086 12.4917 386.752 12.5036C386.424 12.5156 386.221 12.4437 385.949 12.4165C385.677 12.3879 385.356 12.4374 385.072 12.4005C384.402 12.3144 384.402 12.3144 383.948 12.3322C383.639 12.3441 383.317 12.3505 383.015 12.3707C382.656 12.3952 382.421 12.3526 382.175 12.3142C382.086 12.3005 381.997 12.2743 381.922 12.2759C381.197 12.2985 380.465 12.3198 379.747 12.3563C379.369 12.3754 379.166 12.3257 378.913 12.2915C378.824 12.2792 378.729 12.2544 378.654 12.2573C378.03 12.2784 377.412 12.3049 376.788 12.3301C376.669 12.368 376.537 12.4045 376.424 12.4452C376.305 12.4872 376.141 12.5057 375.902 12.5049C375.504 12.5059 375.114 12.5653 374.715 12.4925C374.304 12.4183 374.273 12.4225 373.876 12.4416C373.371 12.4665 372.835 12.4622 372.363 12.5177C372.281 12.5276 372.193 12.5543 372.194 12.5738C372.188 12.5863 372.32 12.6041 372.403 12.6151C372.681 12.6478 373.002 12.5983 373.28 12.6324C373.463 12.6543 373.615 12.6873 373.799 12.7105C373.874 12.7201 373.988 12.7184 374.089 12.7168C374.196 12.7152 374.297 12.7052 374.398 12.7063C374.492 12.7075 374.594 12.7156 374.669 12.7279C375.017 12.78 375.384 12.8278 375.694 12.8898C375.998 12.9503 376.281 12.9078 376.584 12.9043C377.797 12.9988 377.797 13.0002 378.61 12.9676C378.812 12.9602 379.02 12.9513 379.228 12.9522C379.317 12.952 379.399 12.9768 379.488 12.9905C379.741 13.0317 379.981 13.0687 380.334 13.0456C380.636 13.0254 380.958 13.0204 381.267 13.0071C381.683 12.9908 381.683 12.9908 382.391 13.0768C382.568 13.0987 382.757 13.0954 382.984 13.0837C383.179 13.0735 383.382 13.0939 383.521 13.1339C383.578 13.1505 383.56 13.1784 383.579 13.202C382.955 13.2258 382.325 13.2427 381.72 13.2776C381.329 13.2994 381.151 13.24 380.892 13.2086C380.804 13.1976 380.709 13.1742 380.627 13.1772C380.009 13.1996 379.391 13.2247 378.773 13.2541C378.698 13.257 378.604 13.2893 378.598 13.3088C378.586 13.345 378.744 13.3795 378.971 13.3775C379.274 13.3754 379.57 13.351 379.842 13.4074C380.07 13.457 380.355 13.4786 380.688 13.4555C380.89 13.4425 381.105 13.442 381.306 13.4303C381.842 13.3956 382.328 13.4014 382.733 13.4951C383.043 13.5194 383.345 13.495 383.641 13.4818C383.862 13.4715 384.076 13.4612 384.234 13.4873C384.57 13.5422 384.899 13.5971 385.359 13.5584C385.858 13.5961 386.238 13.6774 386.655 13.7432C386.851 13.7748 387.003 13.7925 387.23 13.7711C387.324 13.7625 387.438 13.7622 387.539 13.7578C387.747 13.7503 387.967 13.7289 388.156 13.7368C388.346 13.7461 388.504 13.7861 388.675 13.8107C388.757 13.8231 388.852 13.8437 388.934 13.8421C389.25 13.8344 389.558 13.8197 389.867 13.8078C390.176 13.7973 390.485 13.7868 390.794 13.7763C391.053 13.8119 391.319 13.8475 391.578 13.8831C391.994 13.8667 392.41 13.8504 392.82 13.8355C393.28 13.8176 393.28 13.819 393.944 13.9038C394.241 13.942 394.556 13.9162 394.84 13.8974C395.312 13.867 395.629 13.9192 395.964 13.9741C396.034 13.985 396.16 13.9917 396.242 13.9859C396.57 13.9656 396.854 13.9802 397.094 14.0312C397.265 14.067 397.436 14.0833 397.644 14.0758C398.369 14.0476 399.094 14.018 399.819 13.9925C399.907 13.9895 400.008 14.0018 400.09 14.0128C400.735 14.0962 400.742 14.1003 401.215 14.0769C401.637 14.0564 402.028 14.0471 402.364 14.1228C402.433 14.1394 402.541 14.1628 402.617 14.1612C403.134 14.146 403.657 14.1294 404.167 14.1045C404.401 14.0928 404.565 14.0966 404.748 14.1282C404.982 14.168 405.191 14.2162 405.576 14.1972C406.641 14.1431 406.647 14.1514 407.911 14.2444C407.999 14.2512 408.119 14.2398 408.22 14.2339C408.434 14.2195 408.592 14.2386 408.782 14.2702C409.206 14.3416 409.218 14.3374 409.622 14.3211C409.931 14.3078 410.252 14.3042 410.555 14.2826C411.021 14.2508 411.331 14.3044 411.679 14.3551C411.957 14.3948 412.278 14.3606 412.574 14.3473C412.896 14.3326 413.186 14.3361 413.427 14.3884C413.592 14.4242 413.768 14.4433 413.977 14.4358C414.701 14.409 415.426 14.3794 416.151 14.3526C416.24 14.3496 416.347 14.3604 416.429 14.37C417.15 14.4546 417.15 14.4588 417.862 14.425C418.089 14.4147 418.278 14.4115 418.449 14.4403C418.614 14.4677 418.791 14.4938 418.962 14.5198C419.271 14.5093 419.586 14.5058 419.888 14.4883C420.122 14.4752 420.286 14.4804 420.469 14.5092C420.71 14.5462 420.913 14.6111 421.29 14.5782C421.486 14.5624 421.713 14.566 421.908 14.5516C422.141 14.533 422.299 14.5437 422.483 14.5795C422.711 14.6221 422.945 14.6661 423.31 14.6429C423.714 14.6169 424.142 14.6117 424.552 14.5912C424.779 14.5795 424.937 14.5902 425.121 14.626C425.348 14.6714 425.608 14.7 425.961 14.6811C426.679 14.6445 426.685 14.6514 427.387 14.7375C427.564 14.7593 427.754 14.7561 427.98 14.7444C428.176 14.7342 428.378 14.7546 428.517 14.7946C428.651 14.8388 428.639 14.8667 428.652 14.8903ZM372.205 2.46842C371.997 2.47589 371.789 2.48475 371.484 2.36434C371.465 2.3435 371.477 2.31841 371.432 2.30042C371.331 2.26306 371.173 2.23699 370.983 2.23327C370.643 2.22853 370.233 2.27686 370.24 2.31305C370.247 2.34367 370.355 2.36986 370.564 2.39442C370.652 2.40395 370.722 2.42049 370.804 2.43143C371.044 2.46288 371.235 2.52509 371.581 2.49222C371.549 2.44913 371.516 2.40604 371.581 2.49222C371.551 2.54521 371.646 2.58258 371.873 2.59734C371.936 2.60137 372.031 2.59834 372.081 2.58987C372.276 2.55876 372.307 2.51692 372.16 2.40727C372.135 2.42543 372.155 2.4574 372.211 2.46562C372.268 2.47383 372.407 2.46654 372.476 2.45663C372.652 2.42974 372.74 2.39472 372.695 2.36558C372.67 2.35033 372.55 2.33112 372.474 2.33131C372.341 2.33163 372.222 2.36255 372.205 2.46842ZM423.515 18.4927C423.055 18.5202 422.525 18.5118 422.066 18.5672C421.984 18.5772 421.903 18.6024 421.897 18.6219C421.891 18.6345 422.017 18.6523 422.093 18.6618C422.264 18.6837 422.453 18.6763 422.673 18.6688C423.008 18.6582 423.204 18.7218 423.464 18.7532C423.546 18.7627 423.653 18.7694 423.741 18.7664C424.252 18.7485 424.756 18.7292 425.267 18.7085C425.355 18.7041 425.45 18.6941 425.525 18.6814C425.777 18.6404 425.751 18.614 425.504 18.5839C425.232 18.5512 425.017 18.496 424.739 18.4702C424.341 18.4336 423.938 18.4847 423.515 18.4927ZM387.712 19.5961C387.403 19.608 387.1 19.6199 386.791 19.6318C386.69 19.6362 386.583 19.6378 386.489 19.6436C386.293 19.6538 386.149 19.6834 386.055 19.7296C386.201 19.7655 386.378 19.7859 386.573 19.7813C386.882 19.7722 387.185 19.7533 387.494 19.7484C387.828 19.742 388.025 19.8042 388.284 19.8356C388.366 19.8452 388.467 19.8463 388.562 19.8475C389.029 19.8519 389.311 19.7788 389.221 19.6774C389.156 19.5982 388.916 19.5514 388.626 19.5619C388.323 19.5723 388.014 19.5842 387.712 19.5961ZM425.634 16.4294C425.709 16.4056 425.791 16.3887 425.828 16.3677C425.941 16.2964 425.895 16.2436 425.686 16.1884C425.432 16.1208 425.124 16.1675 424.841 16.1751C424.771 16.1767 424.696 16.2061 424.659 16.2243C424.634 16.2369 424.634 16.2634 424.672 16.2702C424.982 16.3252 425.311 16.3759 425.634 16.4294ZM370.835 12.449C370.533 12.4609 370.224 12.47 369.921 12.486C369.846 12.4904 369.777 12.517 369.733 12.5352C369.651 12.5688 369.741 12.6146 369.999 12.6181C370.296 12.623 370.604 12.5985 370.913 12.5867C371.304 12.5718 371.537 12.5197 371.391 12.4755C371.251 12.4327 371.062 12.4248 370.835 12.449ZM38.7355 10.2792C38.9372 10.2718 39.1453 10.2657 39.347 10.2555C39.536 10.2453 39.6806 10.2143 39.7744 10.1681C39.616 10.1323 39.439 10.1132 39.2435 10.1179C38.9346 10.127 38.632 10.1388 38.3295 10.1535C38.1404 10.1623 37.9581 10.1934 37.9149 10.2408C37.8714 10.2771 38.2943 10.297 38.7355 10.2792ZM344.099 9.32366C344.181 9.336 344.263 9.36087 344.345 9.36067C344.547 9.36018 344.755 9.35131 344.944 9.33693C345.026 9.33116 345.089 9.30594 345.126 9.28636C345.151 9.27377 345.145 9.25151 345.107 9.24046C344.922 9.17407 344.191 9.19951 344.073 9.27639C344.06 9.29034 344.092 9.30836 344.099 9.32366ZM324.054 1.747C324.073 1.76923 324.08 1.79149 324.105 1.81371C324.157 1.85536 324.296 1.88566 324.498 1.90606C324.655 1.87087 324.736 1.83169 324.729 1.78993C324.723 1.76766 324.703 1.74542 324.678 1.7232C324.626 1.68155 324.487 1.65126 324.285 1.63087C324.128 1.66467 324.053 1.70383 324.054 1.747ZM440.274 19.7108C440.218 19.7291 440.161 19.7473 440.098 19.7642C440.269 19.8041 440.427 19.8163 440.547 19.7937C440.622 19.7796 440.666 19.7586 440.723 19.7404C440.551 19.7004 440.4 19.6896 440.274 19.7108ZM436.354 19.9097C436.436 19.922 436.512 19.9386 436.601 19.9467C436.746 19.9603 436.878 19.9363 436.978 19.8859C436.896 19.8736 436.82 19.8571 436.731 19.8489C436.586 19.8353 436.454 19.8593 436.354 19.9097ZM438.835 19.6489C438.791 19.6824 438.88 19.71 439.114 19.7331C439.17 19.7149 439.246 19.698 439.283 19.6784C439.346 19.6462 439.238 19.6173 439.01 19.5955C438.947 19.6124 438.891 19.6306 438.835 19.6489ZM425.49 18.1801C425.447 18.2137 425.536 18.2413 425.769 18.2644C425.826 18.2462 425.901 18.2293 425.939 18.2097C426.001 18.1775 425.893 18.1485 425.666 18.1268C425.603 18.1437 425.547 18.1619 425.49 18.1801ZM407.163 8.37132C407.107 8.38955 407.05 8.40779 406.987 8.42466C407.158 8.46462 407.316 8.47677 407.436 8.4542C407.511 8.44009 407.555 8.4191 407.611 8.40086C407.44 8.36089 407.289 8.35012 407.163 8.37132ZM389.686 3.18629C389.838 3.19567 389.964 3.17588 390.07 3.1241C389.988 3.11177 389.912 3.09524 389.823 3.0871C389.678 3.07353 389.546 3.09753 389.446 3.1479C389.528 3.16162 389.61 3.17394 389.686 3.18629ZM380.452 2.88147C380.395 2.89971 380.339 2.91795 380.276 2.93481C380.447 2.97478 380.605 2.98693 380.724 2.96436C380.8 2.95025 380.844 2.92925 380.9 2.91101C380.729 2.87105 380.577 2.86167 380.452 2.88147ZM317.847 1.76067C317.79 1.77891 317.734 1.79715 317.671 1.81401C317.842 1.85398 318 1.86612 318.119 1.84355C318.195 1.82945 318.239 1.80845 318.295 1.79021C318.124 1.75024 317.972 1.74087 317.847 1.76067ZM6.45412 13.8458C6.37188 13.8334 6.28972 13.8211 6.21376 13.8074C6.03154 13.8454 5.97544 13.8804 6.07687 13.9066C6.14026 13.9231 6.23499 13.9327 6.31723 13.945C6.50576 13.9069 6.54926 13.8734 6.45412 13.8458Z" fill="#4F9CF9"/>
<path d="M42.9057 8.70531C42.1808 8.73352 41.4624 8.76867 40.7374 8.78713C40.3527 8.79642 40.2152 8.85662 40.0586 8.91269C39.9332 8.95754 39.7884 8.97181 39.5552 8.98073C37.5884 9.05372 35.628 9.13088 33.6676 9.20663C33.4213 9.18913 33.3009 9.16019 33.357 9.12525C33.3882 9.10429 33.4633 9.07487 33.539 9.07191C34.8816 9.01714 36.2177 8.96099 37.5668 8.91734C37.9514 8.90527 38.0575 8.84375 38.2521 8.79316C38.3149 8.7763 38.3649 8.75112 38.4467 8.74118C38.5285 8.72984 38.6484 8.73095 38.7556 8.72791C40.924 8.64329 43.0924 8.56007 45.2608 8.47546C45.5071 8.49296 45.6275 8.5219 45.5714 8.55684C45.5402 8.5778 45.4651 8.60722 45.3894 8.61018C44.5574 8.64144 43.7315 8.67268 42.9057 8.70531Z" fill="#4F9CF9"/>
<path d="M440.355 15.397C440.027 15.4146 439.611 15.4392 439.269 15.3593C439.104 15.3207 438.927 15.3086 438.713 15.3175C438.404 15.3322 438.089 15.3441 437.774 15.3532C437.692 15.3548 437.584 15.3397 437.502 15.3274C437.325 15.3028 437.173 15.2614 436.983 15.2507C436.794 15.24 436.567 15.2712 436.372 15.2647C436.113 15.2556 436.005 15.2183 436.074 15.1833C436.111 15.1637 436.186 15.1357 436.268 15.1313C437.434 15.077 437.44 15.0769 437.769 15.1263C438.022 15.1646 438.257 15.2072 438.616 15.1827C438.918 15.1625 439.24 15.1575 439.549 15.1442C439.977 15.1265 439.977 15.1279 440.673 15.2139C440.85 15.2357 441.039 15.2339 441.266 15.2208C441.461 15.2106 441.651 15.2324 441.809 15.2696C441.709 15.3172 441.565 15.3482 441.369 15.357C441.054 15.3717 440.745 15.3822 440.355 15.397Z" fill="#4F9CF9"/>
<path d="M428.738 14.9899C429.532 14.9587 430.332 14.9317 431.126 14.8963C431.454 14.8816 431.713 14.8963 431.941 14.9431C432.188 14.9941 432.466 14.9892 432.768 14.9787C432.957 14.9727 433.141 14.9945 433.268 15.0332C433.318 15.0484 433.306 15.0763 433.325 15.0986C432.632 15.1253 431.933 15.1535 431.233 15.1775C431.151 15.1804 431.05 15.1668 430.974 15.1558C430.803 15.1325 430.657 15.0911 430.474 15.0832C430.083 15.0646 429.692 15.1032 429.295 15.1111C429.106 15.1144 428.923 15.0939 428.796 15.0566C428.745 15.0386 428.757 15.0121 428.738 14.9899Z" fill="#4F9CF9"/>
<path d="M141.244 3.48684C142.07 3.45421 142.896 3.42298 143.721 3.39034C143.968 3.40924 144.082 3.4368 144.032 3.47173C144.001 3.49269 143.926 3.52212 143.85 3.52508C142.199 3.59174 140.547 3.65561 138.902 3.71947C138.656 3.70058 138.542 3.67302 138.591 3.63809C138.623 3.61713 138.698 3.5877 138.773 3.58474C139.593 3.55072 140.418 3.51948 141.244 3.48684Z" fill="#4F9CF9"/>
<path d="M13.9348 11.5363C13.5628 11.54 13.173 11.5926 12.7561 11.5545C12.674 11.5477 12.56 11.5257 12.5661 11.5131C12.5783 11.4921 12.6535 11.4654 12.7353 11.4568C13.094 11.421 13.5417 11.4157 13.7227 11.3175C13.81 11.2669 13.9736 11.2498 14.1941 11.2395C14.4272 11.2277 14.5912 11.2315 14.7746 11.2604C15.0149 11.2975 15.218 11.3669 15.5956 11.3296C15.615 11.3519 15.6595 11.3769 15.6409 11.3979C15.6224 11.4189 15.541 11.4387 15.4656 11.4543C15.3965 11.4684 15.3021 11.4812 15.2139 11.4856C14.798 11.5034 14.3821 11.5184 13.9348 11.5363Z" fill="#4F9CF9"/>
<path d="M342.148 10.6098C342.456 10.5979 342.778 10.5915 343.08 10.5713C343.32 10.5554 343.471 10.5648 343.661 10.5977C343.984 10.6555 344.003 10.6499 344.791 10.6563C344.88 10.6575 344.987 10.6781 345.038 10.6961C345.07 10.7058 345.026 10.7324 344.988 10.7464C344.932 10.7647 344.85 10.7886 344.775 10.7888C344.277 10.7942 343.774 10.8776 343.286 10.784C343.039 10.7373 342.768 10.7156 342.434 10.7373C342.232 10.7504 342.018 10.7565 341.81 10.7625C341.608 10.7686 341.4 10.7538 341.273 10.7123C341.089 10.6514 341.195 10.6275 341.523 10.6308C341.732 10.6331 341.94 10.6173 342.148 10.6098Z" fill="#4F9CF9"/>
<path d="M456.624 20.0583C457.021 20.0433 457.417 20.0256 457.821 20.0134C457.903 20.0104 458.004 20.0256 458.08 20.0351C458.383 20.0763 458.34 20.1477 458.354 20.2105C458.362 20.2761 457.663 20.3309 457.366 20.287C457.037 20.2375 456.739 20.1809 456.286 20.2128C456.11 20.2244 455.901 20.1998 455.787 20.1595C455.615 20.1013 455.71 20.0773 456.031 20.0807C456.221 20.083 456.422 20.0672 456.624 20.0583Z" fill="#4F9CF9"/>
<path d="M256.062 1.34996C256.472 1.33362 256.881 1.30893 257.291 1.30653C257.531 1.30455 257.651 1.35027 257.595 1.38387C257.564 1.40487 257.489 1.43433 257.413 1.43731C256.594 1.47278 255.775 1.50267 254.955 1.53535C254.715 1.51642 254.595 1.48743 254.651 1.45383C254.682 1.43283 254.758 1.40476 254.833 1.40039C255.243 1.37987 255.652 1.3663 256.062 1.34996Z" fill="#4F9CF9"/>
<path d="M448.713 15.5053C449.11 15.4904 449.514 15.4685 449.911 15.4605C450.119 15.4572 450.284 15.4889 450.309 15.5251C450.322 15.5418 450.222 15.5713 450.14 15.5785C449.573 15.6273 448.962 15.6344 448.369 15.6596C448.18 15.667 447.978 15.6452 447.864 15.6064C447.692 15.5469 447.787 15.5243 448.108 15.5277C448.31 15.5286 448.512 15.5128 448.713 15.5053Z" fill="#4F9CF9"/>
<path d="M352.579 10.7781C352.781 10.7707 352.989 10.752 353.184 10.7571C353.392 10.7635 353.526 10.8038 353.589 10.8442C353.66 10.8901 353.654 10.9335 353.592 10.9728C353.492 11.0402 353.391 11.0377 353.157 10.9935C352.796 10.9245 352.771 10.9329 352.059 10.9375C351.977 10.9377 351.876 10.9169 351.813 10.8989C351.718 10.8712 351.767 10.8277 351.987 10.802C352.151 10.7834 352.378 10.7856 352.579 10.7781Z" fill="#4F9CF9"/>
<path d="M433.919 15.0745C434.215 15.0626 434.511 15.0437 434.808 15.043C435.016 15.0411 435.181 15.0728 435.2 15.1076C435.207 15.1244 435.113 15.1525 435.037 15.1611C434.678 15.1996 434.275 15.2034 433.884 15.2169C433.701 15.223 433.499 15.2011 433.385 15.1623C433.213 15.1041 433.314 15.0773 433.623 15.085C433.718 15.0875 433.818 15.0789 433.919 15.0745Z" fill="#4F9CF9"/>
<path d="M387.218 13.4436C386.777 13.4614 386.361 13.4415 386.392 13.4051C386.435 13.3576 386.617 13.3264 386.806 13.3175C387.108 13.3028 387.411 13.2909 387.72 13.2818C387.915 13.2757 388.092 13.2962 388.251 13.3322C388.157 13.377 388.012 13.4095 387.823 13.4197C387.628 13.43 387.42 13.4361 387.218 13.4436Z" fill="#4F9CF9"/>
<path d="M384.319 13.2703C384.615 13.2584 384.911 13.2395 385.208 13.2388C385.416 13.2369 385.581 13.2686 385.6 13.3034C385.607 13.3202 385.513 13.3483 385.437 13.3569C385.078 13.3954 384.675 13.3992 384.284 13.4127C384.101 13.4188 383.899 13.3969 383.785 13.3581C383.613 13.2999 383.714 13.2732 384.023 13.2808C384.118 13.2833 384.218 13.2747 384.319 13.2703Z" fill="#4F9CF9"/>
<path d="M348.993 10.7744C349.29 10.7625 349.586 10.7436 349.882 10.7415C350.09 10.7396 350.255 10.7713 350.274 10.8061C350.281 10.8229 350.187 10.8496 350.111 10.8596C349.753 10.8981 349.349 10.9019 348.958 10.9154C348.775 10.9215 348.573 10.8996 348.459 10.8608C348.288 10.8026 348.388 10.7758 348.697 10.7835C348.792 10.786 348.893 10.7774 348.993 10.7744Z" fill="#4F9CF9"/>
<path d="M347.334 10.6952C347.649 10.6832 347.75 10.676 347.85 10.6757C348.04 10.6753 348.235 10.6915 348.35 10.7318C348.521 10.79 348.42 10.807 348.111 10.8105C347.714 10.8143 347.324 10.8446 346.927 10.8511C346.719 10.8544 346.554 10.8213 346.541 10.7864C346.534 10.7697 346.628 10.7402 346.704 10.7344C346.968 10.7128 347.258 10.6995 347.334 10.6952Z" fill="#4F9CF9"/>
<path d="M381.64 2.36957C381.438 2.37705 381.224 2.39713 381.035 2.39061C380.783 2.38146 380.681 2.344 380.743 2.30892C380.781 2.28927 380.85 2.26117 380.925 2.25679C381.328 2.23624 381.738 2.22265 382.141 2.20769C382.381 2.22806 382.489 2.25712 382.427 2.2922C382.389 2.31185 382.32 2.33856 382.245 2.34433C382.05 2.35878 381.842 2.36209 381.64 2.36957Z" fill="#4F9CF9"/>
<path d="M136.719 3.66113C136.914 3.65925 137.091 3.67698 137.243 3.71155C137.149 3.7565 137.011 3.78619 136.822 3.79923C136.728 3.80506 136.621 3.80951 136.52 3.81115C136.324 3.81443 136.147 3.7953 135.995 3.76074C136.089 3.71578 136.234 3.68608 136.416 3.67305C136.511 3.66723 136.618 3.66557 136.719 3.66113Z" fill="#4F9CF9"/>
<path d="M446.551 15.5037C446.544 15.4632 446.928 15.4162 447.275 15.4167C447.458 15.4176 447.647 15.4368 447.755 15.4742C447.92 15.5311 447.826 15.5537 447.517 15.5503C447.328 15.5479 447.126 15.5722 446.937 15.5685C446.723 15.5676 446.596 15.5372 446.551 15.5037Z" fill="#4F9CF9"/>
<path d="M354.406 10.9439C354.399 10.9285 354.367 10.9104 354.386 10.8964C354.504 10.8192 355.229 10.7936 355.419 10.8603C355.451 10.8728 355.464 10.8937 355.439 10.9064C355.402 10.926 355.333 10.9514 355.257 10.9572C355.062 10.9716 354.86 10.9791 354.659 10.981C354.571 10.9812 354.488 10.9577 354.406 10.9439Z" fill="#4F9CF9"/>
<path d="M16.1768 11.3066C15.4335 11.3378 15.4209 11.335 15.5519 11.2648C15.6705 11.2016 15.8905 11.1633 16.212 11.1625C16.3065 11.1622 16.4073 11.1592 16.4894 11.1646C16.5778 11.1714 16.7042 11.185 16.7234 11.2017C16.7618 11.2338 16.6552 11.269 16.4666 11.2933C16.3848 11.3046 16.2776 11.3021 16.1768 11.3066Z" fill="#4F9CF9"/>
<path d="M146.038 3.4452C145.818 3.46952 145.629 3.4616 145.489 3.41719C145.35 3.37278 145.57 3.31908 145.954 3.30555C146.055 3.3025 146.162 3.29106 146.256 3.29642C146.351 3.30038 146.446 3.31691 146.503 3.33356C146.604 3.36128 146.542 3.3992 146.341 3.43187C146.259 3.44466 146.139 3.44215 146.038 3.4452Z" fill="#4F9CF9"/>
<path d="M445.237 15.4016C445.293 15.3832 445.349 15.3649 445.412 15.3479C445.645 15.3712 445.746 15.3989 445.683 15.4313C445.646 15.451 445.571 15.468 445.515 15.4863C445.282 15.4631 445.187 15.4339 445.237 15.4016Z" fill="#4F9CF9"/>
<path d="M26.3462 27.2636C26.3459 27.2468 26.4334 27.22 26.5024 27.2143C26.6343 27.2041 26.7981 27.2233 26.912 27.2622C27.0702 27.3178 26.9766 27.3475 26.687 27.3328C26.4856 27.3221 26.3468 27.2944 26.3462 27.2636Z" fill="#4F9CF9"/>
<path d="M356.956 9.63332C357.038 9.64571 357.12 9.6581 357.196 9.67191C357.09 9.72394 356.958 9.74664 356.82 9.73299C356.731 9.72482 356.655 9.70821 356.573 9.69582C356.679 9.64379 356.805 9.6239 356.956 9.63332Z" fill="#4F9CF9"/>
<path d="M354.775 9.57415C354.9 9.55285 355.051 9.56368 355.228 9.60382C355.172 9.62215 355.122 9.64326 355.053 9.65742C354.934 9.6801 354.777 9.66929 354.606 9.62773C354.656 9.61082 354.712 9.59249 354.775 9.57415Z" fill="#4F9CF9"/>
<path d="M353.102 9.63894C353.184 9.65133 353.266 9.66372 353.342 9.67753C353.236 9.72956 353.11 9.75225 352.966 9.73861C352.877 9.73044 352.802 9.71383 352.72 9.70144C352.826 9.64941 352.951 9.62812 353.102 9.63894Z" fill="#4F9CF9"/>
<path d="M351.867 8.65657C351.961 8.68435 351.912 8.71809 351.73 8.75636C351.648 8.74396 351.554 8.7344 351.491 8.71775C351.39 8.69138 351.439 8.65623 351.627 8.61794C351.703 8.63176 351.785 8.64417 351.867 8.65657Z" fill="#4F9CF9"/>
</svg>
