<svg width="211" height="416" viewBox="0 0 211 416" fill="none" xmlns="http://www.w3.org/2000/svg">
<g opacity="0.2">
<path d="M205.757 206.209C205.667 209.877 204.064 214.221 200.534 219.972C190.967 235.231 162.985 250.433 133.393 266.483C117.142 275.322 100.334 284.443 86.5168 293.686C61.633 307.068 44.143 330.359 27.1907 352.899C14.8154 369.37 3.10394 384.921 -11.176 396.837L-11.2072 396.861C-22.299 405.801 -32.9048 409.853 -43.6108 409.246C-64.5043 408.071 -82.6754 389.229 -103.706 367.386L-105.731 365.292C-121.402 349.098 -142.407 328.733 -173.787 299.224L-176.353 296.723C-203.442 270.348 -237.154 237.507 -257.051 195.545C-303.466 111.336 -264.176 39.5895 -222.956 17.6417C-174.844 -5.12284 -124.436 -1.82275 -30.1989 30.2315C68.0336 63.7871 142.876 134.627 170.483 163.527C179.542 175.299 187.638 182.738 193.553 188.153C201.021 195.035 205.92 199.514 205.757 206.209ZM-14.0535 394.599C-0.0854623 382.946 11.5003 367.54 23.7798 351.24C40.922 328.433 58.6639 304.828 84.1043 291.164C97.9225 281.897 114.823 272.729 131.136 263.866C160.295 248.028 187.844 233.061 196.964 218.555C205.714 204.213 201.89 200.696 190.539 190.247C184.535 184.731 176.289 177.165 167.171 165.318C139.86 136.77 65.5865 66.4366 -31.7674 33.1733C-124.641 1.57112 -174.131 -1.7805 -220.884 20.3523C-260.867 41.6653 -298.986 111.741 -253.448 194.352C-233.724 235.891 -200.251 268.505 -173.371 294.702L-170.805 297.179C-139.395 326.713 -118.36 347.103 -102.66 363.348L-100.634 365.442C-80.2003 386.679 -62.5353 404.991 -43.4416 406.073C-33.8945 406.602 -24.3038 402.846 -14.0535 394.599Z" fill="#043873"/>
<path d="M177.979 210.53C177.855 215.601 175.709 220.918 171.958 228.215L171.893 228.361C162.725 242.324 141.175 253.029 118.388 264.343C102.805 272.066 86.7273 280.072 72.6528 289.826C49.8694 303.505 31.9718 320.974 14.6693 337.841C3.06071 349.182 -7.92175 359.899 -19.9994 369.185L-20.2478 369.351C-53.6607 388.041 -67.8491 373.705 -93.6341 347.707C-96.4361 344.88 -99.3872 341.902 -102.549 338.795C-107.867 332.705 -113.817 326.205 -120.124 319.303C-148.177 288.643 -186.582 246.624 -217.158 187.924C-249.037 116.311 -223.403 62.2103 -183.865 40.32C-142.676 18.4206 -93.9921 28.5011 -12.9351 56.2188C68.9775 86.4203 121.201 139.171 149.25 167.515L152.38 170.67C170.804 191.686 178.22 200.685 177.979 210.53ZM168.325 226.895C178.524 206.973 176.288 203.494 149.249 172.564L146.209 169.485C118.368 141.368 66.5316 89.0205 -14.4419 59.1375C-94.1356 31.8718 -141.905 21.863 -181.577 42.9619C-219.846 64.1444 -244.56 116.839 -213.435 186.783C-183.093 245.059 -144.836 286.878 -116.932 317.435C-110.626 324.337 -104.676 330.837 -99.3866 336.877C-96.3147 339.908 -93.3636 342.886 -90.531 345.714C-64.7161 371.738 -52.912 383.651 -22.6285 366.781C-10.7681 357.637 0.089859 347.016 11.6039 335.796C29.0327 318.759 47.0858 301.171 70.1483 287.326C84.3472 277.477 100.58 269.401 116.286 261.607C138.547 250.551 159.603 240.08 168.325 226.895Z" fill="#043873"/>
<path d="M154.797 214.299C154.639 220.773 151.623 226.709 146.556 234.072C136.91 246.348 117.342 255.919 96.6613 266.054C84.3583 272.059 71.6525 278.3 59.9618 285.501C41.6354 295.521 25.8866 307.55 10.6371 319.147C-1.87392 328.669 -13.6696 337.666 -25.7835 344.685L-25.9691 344.779C-57.2836 358.841 -71.348 343.178 -96.8897 314.723L-97.1872 314.395L-101.427 309.144C-125.467 279.248 -158.4 238.298 -181.631 182.733C-205.717 117.221 -178.548 76.5566 -148.007 61.6137C-115.424 45.6369 -72.3309 50.8026 0.732043 79.4334C51.6285 100.232 97.0338 133.261 135.688 177.578C149.381 194.685 155.023 205.044 154.797 214.299ZM-28.0709 342.043C-16.2042 335.141 -4.50244 326.24 7.85354 316.813C23.1971 305.12 39.1002 293.021 57.5817 282.906C69.3353 275.632 82.1638 269.37 94.5595 263.318C114.869 253.396 134.035 244.012 143.145 232.413C154.734 215.652 154.727 207.155 132.408 179.345C94.1385 135.506 49.2436 102.834 -1.0178 82.2969C-72.6892 54.2174 -114.681 49.0047 -145.966 64.3482C-177.652 79.8543 -199.821 122.168 -177.912 181.814C-154.855 236.931 -122.099 277.68 -98.147 307.426L-93.7292 312.879C-68.0092 341.535 -56.2345 354.655 -28.0709 342.043Z" fill="#043873"/>
<path d="M133.737 216.099C133.561 223.336 130.312 230.055 124.082 237.488L124.051 237.537C114.065 248.721 95.5859 257.481 76.0559 266.757C67.002 271.043 57.6692 275.495 48.7541 280.351C35.7071 286.805 23.6189 294.022 11.9641 301.003C-2.35621 309.569 -15.9019 317.686 -28.9793 322.883C-56.5344 331.84 -70.4762 317.412 -90.2425 292.595C-108.861 267.068 -135.327 227.679 -150.346 179.827C-160.808 134.228 -150.7 100.511 -121.91 84.7867C-90.8911 67.8112 -42.4942 73.402 10.8843 100.123C73.7877 128.284 110.031 171.261 119.622 183.761C129.316 197.051 133.96 206.992 133.737 216.099ZM120.797 235.684C132.407 221.781 134.694 210.704 116.222 185.402C106.779 173.103 71.0109 130.679 8.8927 102.883C-43.1583 76.8339 -89.9966 71.2073 -119.654 87.4525C-147.082 102.447 -156.582 135.021 -146.452 179.208C-131.574 226.564 -105.315 265.676 -86.8432 290.979C-66.5144 316.523 -54.3265 327.732 -30.589 320.012C-17.9738 314.975 -4.58304 306.953 9.61332 298.458C21.3609 291.43 33.4808 284.165 46.62 277.688C55.5357 272.807 64.9601 268.358 74.0451 264.048C93.1747 254.91 111.283 246.313 120.797 235.684Z" fill="#043873"/>
<path d="M114.537 216.936C114.35 224.616 110.911 231.6 104.199 238.776L103.981 238.968C68.0384 266.192 -13.5117 297.425 -29.4795 303.414L-29.8482 303.504C-52.6193 307.923 -65.6541 296.373 -81.7426 273.543C-95.9398 252.064 -114.539 218.237 -122.65 178.927C-128.792 142.769 -118.671 116.047 -94.1471 103.642C-66.9021 89.8742 -26.1365 95.2786 17.7078 118.442C60.0291 138.933 90.1291 168.337 104.162 189.024C111.29 199.838 114.736 208.789 114.537 216.936ZM101.134 236.731C113.901 222.979 113.78 210.44 100.674 190.539C86.9064 170.229 57.3127 141.354 15.6258 121.15C-26.3189 98.9932 -66.532 93.4792 -92.0142 106.354C-115.177 118.053 -124.691 143.682 -118.73 178.481C-110.699 217.321 -92.2737 250.774 -78.2542 272.027C-62.8749 293.88 -51.3087 304.285 -30.9647 300.447C14.9041 283.243 73.6261 257.511 101.134 236.731Z" fill="#043873"/>
<path d="M96.8308 217.834C96.63 226.055 93.0679 233.086 86.3733 238.316C59.9308 259.246 4.7119 280.359 -28.3254 286.177C-35.9527 287.075 -43.3324 285.343 -50.3144 281.084C-71.8321 267.948 -89.754 230.147 -98.2405 179.942C-100.94 151.675 -91.0556 130.883 -70.389 121.339C-46.9731 110.533 -13.4037 115.441 21.676 134.795C66.0522 159.942 94.043 189.417 96.6278 213.642C96.8066 215.074 96.8638 216.48 96.8308 217.834ZM-94.7061 169.044C-94.7891 172.441 -94.6614 175.966 -94.2925 179.62C-85.9663 228.885 -68.6363 265.908 -47.9302 278.506C-41.7908 282.252 -35.4442 283.762 -29.0422 283.007C3.32061 277.295 57.6447 256.554 83.6203 235.983C90.5334 230.561 93.6832 222.904 92.7127 213.866C90.2272 190.58 62.8563 161.982 19.4743 137.401C-13.7974 119.052 -46.6318 114.063 -68.3794 124.098C-85.0303 131.794 -94.1812 147.555 -94.7061 169.044Z" fill="#043873"/>
<path d="M80.0609 216.66C79.8745 224.291 76.6578 230.936 70.6079 236.034C49.1191 254.228 4.22128 270.446 -25.4427 270.706L-25.5037 270.705C-52.8268 270.16 -74.3681 232.986 -76.6741 182.341C-76.789 160.787 -67.4854 145.03 -50.3911 137.935C-30.7972 129.794 -3.99109 133.995 23.1813 149.461C56.1901 168.567 77.3648 191.99 79.8351 212.148C80.0109 213.703 80.0964 215.208 80.0609 216.66ZM-25.4866 267.503C3.29212 267.221 46.8648 251.488 67.7304 233.797C74.1234 228.411 76.9301 221.042 75.8878 212.445C73.5173 193.201 52.9631 170.631 20.8879 152.065C-5.01918 137.319 -30.3612 133.203 -48.5976 140.787C-64.3039 147.324 -72.91 162.039 -72.7638 182.313C-70.5468 230.345 -50.2144 266.998 -25.4866 267.503Z" fill="#043873"/>
<path d="M64.1834 215.164C64.0204 221.835 61.3413 227.729 56.2485 232.408C38.4678 248.845 3.01001 259.973 -21.2237 256.746C-44.4752 253.321 -60.4532 222.218 -57.6451 186.032C-56.1272 170.158 -47.7213 158.64 -34.0054 153.556C-18.286 147.734 2.31037 151.069 22.4587 162.743C46.0377 176.52 61.5162 194.312 63.8739 210.329C64.1388 211.986 64.2218 213.589 64.1834 215.164ZM-53.9695 191.86C-54.7548 224.007 -40.6526 250.631 -20.5661 253.585C2.05393 256.6 36.5588 245.719 53.2764 230.291C58.7763 225.204 61.0796 218.438 59.9558 210.677C57.7297 195.524 42.8413 178.585 20.1661 165.322C1.22248 154.343 -17.9105 151.117 -32.3352 156.454C-44.6948 161.029 -52.2842 171.631 -53.7109 186.276C-53.8177 188.145 -53.9244 190.014 -53.9695 191.86Z" fill="#043873"/>
<path d="M49.014 213.513C48.8829 218.879 46.8409 223.706 42.9865 227.7C29.6065 241.535 3.19115 248.846 -15.9021 243.995C-34.78 239.076 -45.6312 215.659 -40.6241 190.734C-38.3078 179.682 -31.2711 171.702 -20.8023 168.263C-8.94795 164.366 5.89782 166.797 19.9326 174.923C35.9537 184.255 46.4057 196.505 48.586 208.528C48.9115 210.21 49.0537 211.889 49.014 213.513ZM-14.7281 240.945C2.60438 245.358 27.6065 238.383 39.8581 225.727C44.2135 221.228 45.8823 215.432 44.6967 208.95C42.6749 197.94 32.5777 186.167 17.671 177.478C4.78059 170.021 -8.66402 167.747 -19.2555 171.207C-28.4307 174.21 -34.6222 181.349 -36.6972 191.273C-41.3521 214.286 -31.4812 236.571 -14.7281 240.945Z" fill="#043873"/>
<path d="M34.333 211.799C34.2422 215.516 32.964 219.081 30.3229 222.169C21.6101 232.497 3.54102 236.982 -9.93385 232.195C-23.3471 227.385 -30.2523 211.232 -25.3026 196.156C-23.025 189.192 -17.7412 184.198 -10.4814 182.085C-2.4835 179.768 7.13119 181.284 15.868 186.226C27.8577 193.046 34.5507 202.889 34.333 211.799ZM27.0683 220.365C34.5856 211.461 28.5779 197.324 13.6358 188.832C5.98343 184.507 -2.32108 183.122 -9.08893 185.099C-15.1182 186.849 -19.528 191.076 -21.4751 197.013C-25.9309 210.623 -20.0537 225.101 -8.36595 229.278C3.47379 233.483 19.3623 229.487 27.0683 220.365Z" fill="#043873"/>
<path d="M19.9221 210.314C19.8728 212.333 19.2446 214.288 17.9797 216.055C13.6475 222.106 3.97134 224.358 -3.61412 221.044C-11.1092 217.783 -14.5354 209.251 -11.2445 202.066C-9.6634 198.607 -6.60939 196.12 -2.61407 195.109C1.59674 194.03 6.4669 194.715 10.7174 197.011C16.7156 200.286 20.0417 205.416 19.9221 210.314ZM-8.54038 207.649C-8.6492 212.104 -6.09629 216.378 -1.74455 218.282C3.96758 220.762 11.2782 219.068 14.5366 214.468C17.8248 209.894 15.116 203.252 8.51395 199.691C5.22819 197.912 1.72864 197.383 -1.40657 198.193C-4.23413 198.912 -6.41597 200.706 -7.5774 203.239C-8.19286 204.677 -8.5043 206.172 -8.54038 207.649Z" fill="#043873"/>
</g>
</svg>
