<svg width="1440" height="416" viewBox="0 0 1440 416" fill="none" xmlns="http://www.w3.org/2000/svg">
<g opacity="0.3">
<path d="M486.505 415.813C479.402 415.813 472.488 415.473 465.843 414.795C451.908 413.373 439.033 410.454 427.577 406.118C415.263 401.459 404.463 395.11 395.474 387.249C377.409 371.448 368.371 352.526 359.629 334.226C357.912 330.633 356.136 326.917 354.334 323.312C342.034 298.74 326.441 277.216 306.669 257.511C267.227 218.202 211.758 184.655 146.257 160.497C70.5048 132.559 -10.9409 118.642 -83.0791 121.31C-125.478 122.879 -181.499 137.8 -206.536 163.282C-221.395 178.405 -222.593 195.188 -209.999 211.813L-210.249 211.884C-216.853 203.164 -219.73 194.423 -218.798 185.903C-217.944 178.087 -213.898 170.447 -206.773 163.195C-195.44 151.66 -176.751 141.437 -152.725 133.63C-130.524 126.416 -105.797 121.981 -83.0956 121.141C-45.3433 119.746 -5.19203 122.843 36.2426 130.347C73.8025 137.151 110.865 147.245 146.4 160.351C211.94 184.523 267.441 218.089 306.906 257.421C326.689 277.139 342.289 298.675 354.598 323.26C356.403 326.865 358.178 330.582 359.893 334.176C368.626 352.462 377.659 371.371 395.7 387.149C413.147 402.409 436.763 411.654 465.89 414.625C506.225 418.74 555.206 410.133 596.909 391.599C657.009 364.891 698.718 326.015 739.056 288.421C746.127 281.832 753.437 275.018 760.675 268.438C779.466 251.353 804.915 229.213 835.16 209.49C866.075 189.329 897.49 174.517 931.203 164.206C951.838 157.894 973.706 153.641 996.202 151.567C1016.98 149.649 1038.97 149.531 1061.57 151.21C1100.33 154.093 1142.09 162.235 1189.23 176.1C1282.06 203.404 1374.79 236.544 1464.84 274.603C1550.44 310.777 1634.38 351.71 1714.35 396.261L1714.16 396.385C1548.4 304.031 1371.75 229.968 1189.11 176.251C1085.93 145.902 1004.02 142.121 931.327 164.354C857.375 186.972 805.715 227.79 760.903 268.53C753.667 275.108 746.358 281.922 739.287 288.512C698.938 326.119 657.215 365.006 597.074 391.733C577.64 400.37 555.777 407.107 533.851 411.214C522.268 413.383 510.754 414.802 499.624 415.431C495.189 415.687 490.811 415.813 486.505 415.813Z" fill="#FFE492"/>
<path d="M493.451 406.442C475.336 406.442 458.556 404.343 443.56 400.199C426.839 395.578 412.409 388.418 400.669 378.919C399.63 378.078 398.6 377.208 397.605 376.331C379.732 360.599 370.293 341.923 361.166 323.86C359.32 320.21 357.413 316.434 355.478 312.77C343.956 290.955 330.081 271.729 313.057 253.994C310.96 251.811 308.789 249.623 306.599 247.491C266.577 208.521 210.658 175.399 144.887 151.705C68.5878 124.244 -13.0887 110.903 -85.0978 114.14C-127.189 116.052 -182.952 131.217 -208.096 156.503C-223.153 171.645 -224.856 188.461 -213.029 205.135L-213.282 205.202C-219.481 196.462 -222.029 187.705 -220.85 179.174C-219.767 171.34 -215.557 163.683 -208.333 156.416C-196.884 144.901 -178.25 134.666 -154.449 126.819C-132.452 119.565 -107.832 115.003 -85.1225 113.972C-47.4169 112.278 -7.22171 115.078 34.3448 122.295C71.9954 128.833 109.234 138.68 145.024 151.561C210.833 175.268 266.783 208.41 306.83 247.403C309.02 249.536 311.194 251.726 313.291 253.91C330.326 271.657 344.208 290.894 355.736 312.72C357.674 316.384 359.581 320.16 361.427 323.812C370.551 341.862 379.982 360.526 397.831 376.236C398.823 377.109 399.853 377.979 400.889 378.819C425.149 398.454 458.482 406.442 493.536 406.442C493.728 406.442 493.918 406.442 494.11 406.442C493.89 406.44 493.67 406.442 493.451 406.442ZM500.928 406.325C533.517 405.306 567.144 397.683 595.993 386.342C658.222 361.779 702.946 323.84 746.199 287.151C747.98 285.639 749.761 284.13 751.542 282.621C755.452 279.309 760.088 275.387 764.82 271.434C786.048 253.706 811.74 233.079 841.327 214.513C872.809 194.758 904.26 180.098 937.475 169.694C957.885 163.308 979.454 158.81 1001.58 156.324C1022.09 154.02 1043.75 153.37 1065.98 154.388C1104.37 156.15 1145.65 162.828 1192.18 174.806C1237.54 186.467 1274.84 197.443 1309.53 209.349C1358.69 226.232 1405.51 245.685 1444.84 262.486C1536.25 301.659 1625.95 346.14 1711.43 394.695L1711.25 394.817C1625.77 346.269 1536.08 301.791 1444.68 262.623C1405.36 245.823 1358.55 226.374 1309.4 209.496C1274.71 197.593 1237.43 186.621 1192.08 174.964C1090.72 148.869 1009.85 147.242 937.602 169.845C862.614 193.329 809.211 234.648 765.042 271.535C760.308 275.488 755.674 279.407 751.764 282.721C749.983 284.229 748.203 285.739 746.422 287.252C703.154 323.952 658.414 361.904 596.141 386.486C580.7 392.555 564.27 397.377 547.303 400.814C531.51 404.011 515.943 405.86 500.928 406.325Z" fill="#FFE492"/>
<path d="M501.109 397.286C498.93 397.286 496.764 397.258 494.615 397.199C476.517 396.713 459.768 394.185 444.835 389.683C428.504 384.76 414.354 377.467 402.782 368.007C401.754 367.164 400.729 366.292 399.74 365.416C382.068 349.761 372.235 331.333 362.73 313.515C360.748 309.801 358.698 305.96 356.621 302.233C344.53 280.492 330.289 261.419 313.081 243.923C310.952 241.76 308.748 239.59 306.525 237.476C265.923 198.845 209.553 166.148 143.512 142.919C66.6695 115.935 -15.2379 103.167 -87.1205 106.973C-127.593 109.15 -183.194 123.45 -209.63 149.701C-224.903 164.868 -227.126 181.729 -216.06 198.462L-216.316 198.524C-222.114 189.758 -224.326 180.98 -222.897 172.435C-221.584 164.575 -217.198 156.898 -209.863 149.614C-198.294 138.126 -179.72 127.888 -156.148 120.004C-134.356 112.715 -109.849 108.029 -87.1453 106.808C-49.4837 104.815 -9.24448 107.318 32.4512 114.247C70.1952 120.521 107.607 130.118 143.65 142.775C209.728 166.019 266.129 198.734 306.755 237.387C308.979 239.504 311.185 241.673 313.315 243.84C330.531 261.345 344.78 280.43 356.877 302.183C358.954 305.912 361.004 309.753 362.985 313.467C372.488 331.275 382.312 349.689 399.963 365.325C400.952 366.202 401.971 367.072 402.999 367.912C450.021 406.352 533.351 402.225 595.075 381.084C659.9 358.686 708.076 321.458 754.666 285.457L755.144 285.087C759.656 281.597 764.322 277.991 768.966 274.429C817.972 236.855 871.836 198.241 943.751 175.18C963.941 168.719 985.213 163.975 1006.97 161.079C1027.21 158.385 1048.55 157.203 1070.39 157.564C1108.48 158.193 1149.28 163.409 1195.13 173.51C1243.32 184.088 1279.59 193.811 1312.72 205.038C1359.92 221.066 1405.64 241.32 1445.98 259.19C1535.8 299.192 1624.13 344.253 1708.52 393.121L1708.33 393.241C1623.95 344.379 1535.63 299.322 1445.82 259.324C1405.49 241.457 1359.77 221.207 1312.58 205.184C1279.47 193.96 1243.21 184.24 1195.04 173.666C1095.65 151.771 1015.84 152.298 943.878 175.325C872.009 198.371 818.167 236.969 769.181 274.529C764.537 278.091 759.87 281.7 755.358 285.188L754.88 285.557C731.662 303.498 707.655 322.049 681.731 338.619C652.596 357.24 624.294 371.177 595.207 381.226C564.775 391.649 531.626 397.286 501.109 397.286Z" fill="#FFE492"/>
<path d="M1705.42 391.664C1622.13 342.486 1535.18 296.851 1446.97 256.025C1443.23 254.309 1439.49 252.584 1435.73 250.854C1397.53 233.252 1358.02 215.05 1315.77 200.871C1274.78 187.153 1233.24 178.765 1198.01 172.369C1100.77 154.606 1022.01 157.288 950.162 180.806C876.403 205.019 819.249 245.221 773.327 277.525C770.571 279.464 767.82 281.407 765.064 283.35C763.03 284.786 760.994 286.221 758.958 287.655C732.81 306.067 709.026 322.529 682.747 337.55C652.725 354.709 623.788 367.276 594.277 375.97C566.621 384.119 537.077 388.43 509.597 388.431C504.59 388.431 499.658 388.289 494.81 388C477.113 386.944 460.729 383.978 446.115 379.184C430.169 373.952 416.299 366.521 404.887 357.096C403.867 356.251 402.851 355.378 401.867 354.5C384.403 338.926 374.189 320.759 364.312 303.19C362.185 299.405 359.984 295.491 357.758 291.692C345.09 270.019 330.482 251.098 313.103 233.847C310.94 231.701 308.701 229.551 306.447 227.455C265.263 189.163 208.445 156.891 142.138 134.126C64.7511 107.619 -17.3844 95.4281 -89.1406 99.7978C-138.195 102.844 -188.358 120.554 -211.128 142.862C-226.64 158.061 -229.391 174.975 -219.089 191.778L-219.347 191.837C-224.741 183.039 -226.621 174.234 -224.934 165.667C-223.381 157.78 -218.814 150.077 -211.361 142.773C-199.671 131.319 -181.158 121.081 -157.822 113.168C-136.239 105.849 -111.858 101.041 -89.1681 99.6322C-51.5505 97.3403 -11.27 99.5469 30.5548 106.188C68.3895 112.197 105.98 121.547 142.275 133.979C208.624 156.757 265.472 189.048 306.681 227.363C308.937 229.461 311.177 231.612 313.339 233.758C330.729 251.02 345.343 269.95 358.019 291.633C360.245 295.434 362.446 299.347 364.573 303.133C374.444 320.692 384.653 338.848 402.095 354.403C403.079 355.279 404.093 356.151 405.109 356.994C454.197 397.536 537.63 392.472 594.159 375.818C661.604 355.947 713.214 319.608 758.752 287.544C760.788 286.109 762.822 284.674 764.858 283.24C767.611 281.296 770.365 279.354 773.121 277.415C799.335 258.976 825.221 241.057 853.679 224.546C886.405 205.556 917.925 191.201 950.036 180.658C970.014 174.119 990.984 169.129 1012.37 165.828C1032.35 162.741 1053.36 161.028 1074.82 160.734C1112.66 160.215 1152.98 163.969 1198.1 172.208C1233.34 178.607 1274.9 186.999 1315.9 200.725C1358.17 214.91 1397.69 233.116 1435.9 250.722C1439.66 252.452 1443.4 254.176 1447.14 255.893C1535.36 296.722 1622.32 342.363 1705.61 391.545L1705.42 391.664Z" fill="#FFE492"/>
<path d="M1702.51 390.088C1618.75 339.656 1533.16 293.44 1448.12 252.726C1443.03 250.29 1437.82 247.779 1432.79 245.352C1396.73 227.967 1359.45 209.99 1318.95 196.558C1278.52 183.193 1236.63 176.173 1200.98 171.071C1106.11 157.358 1028.4 162.193 956.444 186.286C887.81 209.351 834.039 244.034 782.039 277.574L776.328 281.256C771.819 284.165 767.155 287.171 762.558 290.121C710.505 323.469 658.397 354.724 593.349 370.71C577.564 374.59 561.356 377.278 545.171 378.705C527.789 380.236 510.906 380.258 494.986 378.769C477.696 377.151 461.683 373.753 447.393 368.669C431.842 363.137 418.251 355.57 407 346.182C405.986 345.332 404.978 344.457 404.002 343.581C386.753 328.099 376.17 310.199 365.937 292.888C363.653 289.025 361.29 285.03 358.905 281.151C345.648 259.545 330.677 240.776 313.134 223.773C310.941 221.648 308.668 219.515 306.379 217.436C264.615 179.484 207.349 147.637 140.77 125.335C62.8359 99.3075 -19.5304 87.6908 -91.163 92.6276C-139.77 96.0487 -189.704 113.882 -212.59 135.996C-228.36 151.233 -231.655 168.213 -222.12 185.102L-222.381 185.157C-227.371 176.32 -228.913 167.482 -226.964 158.89C-225.167 150.969 -220.41 143.237 -212.826 135.909C-201.009 124.493 -182.562 114.265 -159.473 106.329C-138.105 98.983 -113.856 94.0596 -91.1959 92.4636C-53.6223 89.874 -13.3006 91.7828 28.6561 98.1365C66.5842 103.881 104.347 112.982 140.899 125.189C207.516 147.503 264.815 179.37 306.604 217.344C308.893 219.425 311.169 221.56 313.362 223.684C330.916 240.696 345.895 259.475 359.157 281.092C361.543 284.972 363.906 288.968 366.19 292.831C376.418 310.132 386.995 328.024 404.225 343.487C405.198 344.36 406.206 345.233 407.217 346.083C455.124 386.061 534.723 384.939 593.242 370.556C658.238 354.583 710.324 323.34 762.355 290.007C766.952 287.058 771.615 284.051 776.125 281.142L781.835 277.46C807.362 260.997 833.754 243.972 862.418 228.134C894.883 210.197 925.595 196.461 956.307 186.139C976.082 179.517 996.755 174.281 1017.75 170.577C1037.49 167.094 1058.17 164.849 1079.23 163.904C1116.9 162.213 1156.75 164.505 1201.05 170.907C1236.71 176.013 1278.62 183.034 1319.08 196.411C1359.6 209.847 1396.89 227.83 1432.96 245.22C1437.99 247.647 1443.2 250.156 1448.28 252.594C1533.34 293.311 1618.93 339.531 1702.7 389.967L1702.51 390.088Z" fill="#FFE492"/>
<path d="M1699.59 388.513C1616.56 337.521 1532.33 290.726 1449.26 249.43C1443.02 246.327 1436.62 243.1 1430.43 239.98C1396.32 222.782 1361.05 204.999 1322.14 192.249C1281.89 179.114 1239.81 173.518 1203.96 169.777C1111.71 160.006 1035.05 166.995 962.724 191.771C899.602 213.484 847.777 244.256 797.656 274.013C792.382 277.145 786.927 280.382 781.613 283.519C775.372 287.203 770.604 290.002 766.155 292.591C742.327 306.453 713.957 322.414 684.185 335.691C652.635 349.758 622.618 359.495 592.417 365.457C576.536 368.592 560.397 370.569 544.445 371.332C527.317 372.152 510.732 371.55 495.157 369.54C478.281 367.364 462.642 363.535 448.668 358.16C433.516 352.331 420.207 344.629 409.111 335.271C408.111 334.423 407.107 333.546 406.135 332.666C389.113 317.288 378.176 299.664 367.596 282.621C365.143 278.667 362.606 274.581 360.048 270.611C346.195 249.065 330.858 230.451 313.158 213.7C310.932 211.593 308.627 209.481 306.305 207.418C263.961 169.806 206.244 138.383 139.396 116.545C60.9205 90.996 -21.6766 79.9565 -93.1828 85.457C-133.87 88.6556 -187.011 103.391 -214.013 129.097C-230.067 144.381 -233.92 161.438 -225.151 178.423L-225.412 178.473C-229.998 169.591 -231.196 160.715 -228.976 152.089C-226.926 144.128 -221.971 136.362 -214.244 129.006C-202.301 117.637 -183.922 107.426 -161.089 99.4727C-139.935 92.1052 -115.832 87.0697 -93.2157 85.2914C-55.6861 82.4039 -15.3204 84.0149 26.7627 90.081C64.7815 95.5614 102.721 104.415 139.525 116.398C206.412 138.248 264.161 169.689 306.53 207.323C308.852 209.385 311.16 211.501 313.386 213.609C331.095 230.369 346.439 248.993 360.3 270.549C362.862 274.52 365.398 278.607 367.852 282.56C378.424 299.596 389.358 317.21 406.36 332.571C407.333 333.449 408.333 334.324 409.333 335.17C449.188 368.786 517.6 380.048 592.332 365.295C660.01 351.935 715.218 321.991 765.966 292.467C770.415 289.878 775.18 287.079 781.42 283.395C786.735 280.258 792.19 277.021 797.463 273.89C822.138 259.24 847.65 244.092 874.864 229.907C905.636 213.865 934.334 201.342 962.592 191.622C982.177 184.914 1002.55 179.432 1023.14 175.33C1042.65 171.443 1063.01 168.668 1083.65 167.077C1121.23 164.183 1160.6 165.011 1204 169.608C1239.88 173.352 1281.99 178.95 1322.27 192.097C1361.2 204.855 1396.48 222.643 1430.6 239.846C1436.79 242.966 1443.19 246.193 1449.44 249.296C1532.51 290.597 1616.74 337.395 1699.79 388.391L1699.59 388.513Z" fill="#FFE492"/>
<path d="M1696.68 386.938C1614.36 335.382 1531.5 288.006 1450.4 246.131C1443.5 242.57 1436.42 238.831 1429.57 235.216C1396.92 217.995 1363.17 200.188 1325.32 187.937C1285.04 174.959 1242.87 170.818 1206.93 168.48C1118.86 162.596 1041.03 172.008 969.002 197.252C911.648 217.444 862.483 244.457 814.937 270.581C805.333 275.858 795.404 281.315 785.75 286.516C779.845 289.699 774.613 292.495 769.749 295.061C747.13 306.982 717.042 322.268 684.89 334.759C652.584 347.31 622.029 355.632 591.479 360.201C558.16 365.185 524.906 365.222 495.315 360.31C478.863 357.578 463.595 353.319 449.934 347.649C435.186 341.528 422.16 333.692 411.215 324.362C410.223 323.512 409.228 322.634 408.261 321.754C391.481 306.494 380.203 289.159 369.299 272.396C366.661 268.341 363.935 264.149 361.185 260.075C346.724 238.587 331.022 220.123 313.179 203.631C310.921 201.543 308.582 199.449 306.227 197.404C263.303 160.132 205.138 129.133 138.021 107.761C59.0043 82.6923 -23.8236 72.2282 -95.2061 78.2925C-143.582 82.4915 -191.884 100.124 -215.396 122.166C-231.758 137.505 -236.179 154.651 -228.183 171.75L-228.446 171.795C-232.626 162.86 -233.478 153.937 -230.98 145.275C-228.672 137.268 -223.505 129.462 -215.627 122.074C-203.558 110.759 -185.25 100.571 -162.684 92.611C-141.752 85.2284 -117.8 80.0825 -95.2446 78.1252C-57.7589 74.94 -17.3493 76.2549 24.863 82.0315C62.9752 87.2477 101.09 95.8532 138.147 107.61C205.303 128.995 263.501 160.011 306.452 197.307C308.807 199.352 311.146 201.448 313.407 203.537C331.259 220.039 346.969 238.511 361.437 260.01C364.188 264.084 366.914 268.278 369.552 272.333C380.451 289.087 391.723 306.413 408.486 321.659C409.453 322.539 410.445 323.414 411.438 324.263C450.608 357.662 517.887 371.035 591.413 360.039C658.443 350.013 716.651 322.823 769.567 294.936C774.428 292.369 779.663 289.576 785.566 286.392C795.217 281.191 805.149 275.735 814.75 270.459C862.307 244.33 911.48 217.31 968.862 197.11C988.274 190.306 1008.35 184.58 1028.53 180.086C1047.83 175.79 1067.86 172.483 1088.06 170.256C1125.63 166.116 1164.52 165.482 1206.95 168.316C1242.92 170.656 1285.13 174.798 1325.44 187.792C1363.32 200.051 1397.09 217.864 1429.75 235.092C1436.6 238.707 1443.68 242.444 1450.58 246.006C1531.69 287.884 1614.55 335.263 1696.87 386.822L1696.68 386.938Z" fill="#FFE492"/>
<path d="M1693.76 385.36C1612.18 333.235 1530.69 285.283 1451.55 242.832C1444.28 238.931 1436.8 234.801 1429.56 230.806C1398.11 213.439 1365.59 195.48 1328.5 183.625C1288.06 170.756 1245.85 168.091 1209.89 167.181C1125.16 164.879 1048.41 176.508 975.282 202.733C923.995 221.212 878.277 244.599 834.061 267.215C818.859 274.993 804.498 282.338 789.892 289.51C783.951 292.43 778.54 295.053 773.346 297.527C739.834 313.478 711.953 325.011 685.599 333.821C652.538 344.874 621.447 351.783 590.548 354.942C578.561 356.166 566.618 356.777 554.893 356.777C534.107 356.777 513.994 354.863 495.478 351.072C461.969 344.211 434.329 331.552 413.326 313.446C412.337 312.588 411.35 311.71 410.394 310.833C393.87 295.705 382.276 278.678 371.064 262.21C368.223 258.038 365.288 253.725 362.328 249.531C347.25 228.092 331.179 209.782 313.207 193.553C310.915 191.484 308.544 189.408 306.156 187.382C262.652 150.449 204.037 119.875 136.65 98.9664C57.0921 74.3795 -25.964 64.4892 -97.2228 71.1173C-145.8 75.7296 -192.708 93.0275 -216.723 115.187C-233.417 130.59 -238.424 147.837 -231.208 165.067L-231.474 165.109C-235.242 156.112 -235.742 147.135 -232.958 138.427C-230.381 130.367 -224.997 122.518 -216.951 115.095C-204.756 103.841 -186.528 93.6867 -164.236 85.7269C-143.53 78.3326 -119.746 73.0864 -97.2641 70.9517C-59.8223 67.4687 -19.3688 68.4858 22.9699 73.9747C61.1756 78.9282 99.4637 87.2861 136.776 98.8159C204.202 119.737 262.85 150.328 306.381 187.283C308.769 189.311 311.141 191.387 313.435 193.458C331.418 209.695 347.497 228.015 362.581 249.462C365.541 253.656 368.478 257.971 371.317 262.143C382.523 278.603 394.112 295.623 410.622 310.738C411.578 311.613 412.562 312.491 413.551 313.348C452.771 347.161 517.267 362.261 590.502 354.774C660.216 347.648 721.964 321.769 773.176 297.393C778.367 294.919 783.778 292.297 789.719 289.378C804.322 282.206 818.683 274.862 833.885 267.085C878.106 244.464 923.836 221.073 975.141 202.587C994.408 195.678 1014.18 189.706 1033.92 184.834C1053.03 180.116 1072.74 176.277 1092.48 173.425C1130.13 167.986 1168.54 165.888 1209.9 167.012C1245.89 167.922 1288.14 170.591 1328.63 183.474C1365.74 195.338 1398.28 213.305 1429.75 230.679C1436.98 234.674 1444.46 238.804 1451.73 242.704C1530.87 285.157 1612.37 333.115 1693.96 385.243L1693.76 385.36Z" fill="#FFE492"/>
<path d="M1690.85 383.785C1608.86 330.345 1530.96 283.16 1452.7 239.534C1445.23 235.372 1437.88 231.121 1430.09 226.621C1399.66 209.028 1368.2 190.839 1331.68 179.314C1290.73 166.451 1246.67 165.38 1212.86 165.885C1131.98 166.936 1056.32 180.783 981.561 208.217C936.705 224.757 895.29 244.62 855.237 263.83C834.187 273.926 814.306 283.46 794.031 292.509C788.013 295.197 782.42 297.646 776.941 299.997C742.973 314.544 714.173 324.993 686.303 332.883C652.475 342.459 620.848 347.954 589.614 349.684C573.565 350.572 557.627 350.405 542.241 349.187C525.951 347.897 510.27 345.423 495.637 341.835C463.202 333.88 436.22 320.659 415.436 302.536C414.455 301.676 413.477 300.796 412.526 299.92C396.28 284.947 384.395 268.245 372.9 252.093C369.833 247.783 366.662 243.327 363.471 238.994C347.761 217.602 331.328 199.444 313.232 183.483C310.905 181.432 308.5 179.374 306.085 177.367C262.001 140.773 202.938 110.624 135.282 90.1792C72.8356 71.3873 8.43857 61.5823 -50.6136 61.5823C-67.3078 61.5823 -83.5623 62.3652 -99.2397 63.9495C-147.231 68.8946 -193.846 86.2545 -218.001 108.176C-235.049 123.651 -240.664 141.016 -234.236 158.392L-234.505 158.429C-237.861 149.362 -238.001 140.323 -234.923 131.566C-232.071 123.447 -226.454 115.546 -218.232 108.083C-205.91 96.8993 -187.767 86.7865 -165.761 78.8351C-144.989 71.3287 -122.002 66.1243 -99.2892 63.7855C-61.8914 60.0047 -21.3939 60.7258 21.074 65.9252C59.3703 70.6127 97.8371 78.7213 135.402 90.0269C203.097 110.483 262.196 140.649 306.307 177.265C308.725 179.272 311.133 181.332 313.46 183.384C331.564 199.354 348.006 217.52 363.724 238.922C366.915 243.255 370.089 247.711 373.155 252.022C384.645 268.168 396.525 284.863 412.757 299.824C413.708 300.699 414.686 301.579 415.664 302.438C454.53 336.326 517.921 353.483 589.592 349.515C662.115 345.498 727.727 320.866 776.787 299.856C782.266 297.506 787.856 295.057 793.874 292.37C814.146 283.324 834.025 273.789 855.072 263.694C895.13 244.483 936.551 224.615 981.423 208.07C1019.91 193.945 1057.69 183.652 1096.9 176.599C1134.72 169.797 1172.65 166.237 1212.86 165.715C1235.8 165.372 1254.52 165.967 1271.77 167.587C1294.04 169.678 1313.68 173.464 1331.81 179.162C1368.36 190.697 1399.84 208.896 1430.29 226.497C1438.07 230.997 1445.42 235.246 1452.89 239.409C1531.16 283.037 1609.06 330.225 1691.05 383.668L1690.85 383.785Z" fill="#FFE492"/>
<path d="M1687.94 382.207C1606.7 328.182 1530.13 280.435 1453.84 236.233C1446.29 231.86 1438.85 227.355 1430.97 222.586C1401.46 204.715 1370.93 186.235 1334.87 174.999C1293.58 162.197 1249.56 162.708 1215.84 164.584C1139.51 168.681 1064.93 184.746 987.84 213.694C949.857 228.026 913.693 244.427 878.719 260.29C851.072 272.828 824.96 284.673 798.172 295.498C792.118 297.947 786.183 300.289 780.535 302.457C746.501 315.513 715.908 325.154 687.007 331.933C652.401 340.05 620.238 344.135 588.68 344.419C572.623 344.563 556.748 343.68 541.505 341.791C525.525 339.81 510.147 336.714 495.797 332.585C464.475 323.573 438.146 309.79 417.544 291.617C416.577 290.759 415.604 289.877 414.656 288.995C398.715 274.205 386.571 257.856 374.826 242.045C371.504 237.572 368.066 232.944 364.612 228.446C348.259 207.094 331.46 189.09 313.257 173.402C310.897 171.369 308.459 169.33 306.011 167.341C261.347 131.087 201.833 101.362 133.908 81.3811C53.2701 57.7595 -30.2504 49.0202 -101.262 56.7725C-148.632 62.0338 -194.936 79.4389 -219.226 101.112C-236.659 116.668 -242.897 134.163 -237.27 151.709L-237.539 151.741C-240.474 142.595 -240.248 133.486 -236.866 124.668C-233.725 116.482 -227.869 108.524 -219.454 101.016C-207.011 89.913 -188.959 79.8504 -167.25 71.9158C-146.717 64.411 -123.917 59.1179 -101.311 56.6069C-63.9548 52.53 -23.4161 52.9515 19.1782 57.8632C57.5679 62.2898 96.2078 70.1508 134.026 81.2289C201.993 101.22 261.54 130.963 306.228 167.239C308.679 169.228 311.119 171.269 313.48 173.303C331.694 189 348.498 207.012 364.859 228.372C368.316 232.871 371.751 237.498 375.077 241.973C386.816 257.777 398.954 274.12 414.884 288.9C415.832 289.78 416.805 290.662 417.77 291.518C457.044 326.161 517.74 344.891 588.674 344.249C646.232 343.73 707.15 330.404 780.387 302.312C786.031 300.144 791.964 297.803 798.018 295.354C824.798 284.53 850.909 272.689 878.552 260.151C913.531 244.287 949.701 227.882 987.695 213.547C1026.56 198.951 1063.73 187.903 1101.31 179.767C1139.39 171.526 1176.84 166.503 1215.81 164.411C1249.58 162.533 1293.64 162.023 1334.99 174.845C1371.1 186.094 1401.64 204.583 1431.17 222.462C1439.05 227.231 1446.49 231.735 1454.03 236.106C1530.32 280.31 1606.9 328.06 1688.14 382.088L1687.94 382.207Z" fill="#FFE492"/>
<path d="M1685.02 380.63C1604.54 326.018 1529.3 277.706 1454.99 232.935C1447.45 228.39 1440 223.667 1432.11 218.667C1403.43 200.477 1373.77 181.669 1338.05 170.688C1296.37 157.932 1252.43 160.031 1218.81 163.285C1146.99 170.102 1075.6 187.862 994.121 219.175C963.564 230.973 933.701 243.915 904.822 256.43C869.746 271.63 836.616 285.988 802.313 298.493C796.132 300.749 790.015 302.913 784.132 304.924C749.487 316.758 717.948 325.284 687.712 330.985C670.776 334.178 654.057 336.492 638.02 337.862C620.913 339.323 603.999 339.759 587.747 339.16C554.774 337.944 523.892 332.621 495.961 323.34C465.796 313.316 440.124 298.972 419.659 280.704C418.698 279.839 417.733 278.955 416.79 278.079C401.19 263.506 388.829 247.545 376.878 232.11C373.259 227.438 369.519 222.607 365.757 217.906C348.744 196.589 331.58 178.738 313.284 163.328C310.89 161.313 308.417 159.292 305.938 157.323C260.695 121.407 200.733 92.1072 132.538 72.5926C51.362 49.4545 -32.3866 41.2907 -103.28 49.6034C-179.188 58.6422 -253.157 97.6964 -240.296 145.032L-240.568 145.058C-243.786 133.218 -241.901 121.552 -234.968 110.384C-228.636 100.184 -218.246 90.5849 -204.085 81.8556C-190.92 73.7386 -175.124 66.7307 -157.141 61.0261C-140.037 55.6008 -121.431 51.5925 -103.335 49.4378C-66.0223 45.0631 -25.4396 45.1886 17.2838 49.8125C55.767 53.9764 94.5828 61.5899 132.654 72.4421C200.887 91.9701 260.884 121.286 306.155 157.222C308.637 159.193 311.11 161.214 313.506 163.231C331.811 178.647 348.983 196.509 366.004 217.834C369.766 222.535 373.507 227.366 377.126 232.04C389.074 247.469 401.429 263.424 417.021 277.989C417.961 278.865 418.923 279.748 419.885 280.612C459.217 315.72 518.838 336.452 587.764 338.995C646.115 341.145 710.303 329.954 783.997 304.78C789.878 302.769 795.992 300.606 802.172 298.351C836.468 285.85 869.592 271.493 904.662 256.294C933.544 243.777 963.41 230.834 993.973 219.035C1075.48 187.708 1146.91 169.941 1218.76 163.119C1241.36 160.933 1260.06 160.233 1277.64 160.921C1300.1 161.799 1319.9 164.944 1338.17 170.537C1373.93 181.53 1403.61 200.35 1432.31 218.55C1440.19 223.548 1447.64 228.271 1455.18 232.815C1529.5 277.589 1604.74 325.903 1685.22 380.518L1685.02 380.63Z" fill="#FFE492"/>
<path d="M1682.11 379.058C1602.4 323.85 1528.48 274.976 1456.14 229.64C1448.65 224.949 1441.25 220.035 1433.42 214.831C1405.51 196.293 1376.66 177.123 1341.24 166.378C1298.65 153.515 1252.66 157.712 1221.78 161.988C1137.95 173.451 1062.83 200.101 1000.4 224.661C977.967 233.524 955.587 242.912 933.941 251.991C890.519 270.204 849.508 287.407 806.457 301.493C800.126 303.566 793.827 305.552 787.732 307.397C752.412 318.068 719.928 325.476 688.424 330.04C652.711 335.214 618.529 336.516 586.819 333.906C554.244 331.224 523.73 324.559 496.129 314.095C467.179 303.121 442.164 288.217 421.773 269.796C420.823 268.931 419.864 268.046 418.927 267.166C403.714 252.861 391.199 237.338 379.094 222.326C375.129 217.405 371.026 212.32 366.904 207.37C348.973 185.786 331.944 168.593 313.315 153.259C310.888 151.262 308.385 149.261 305.87 147.309C260.042 111.734 199.629 82.8593 131.165 63.8065C49.4502 41.1535 -34.5292 33.5634 -105.302 42.4366C-181.482 52.1144 -253.939 90.6384 -243.326 138.358L-243.598 138.38C-246.231 126.541 -243.953 114.887 -236.83 103.744C-230.301 93.5342 -219.85 83.925 -205.764 75.1857C-192.628 67.0352 -176.915 59.9755 -159.058 54.1989C-142.056 48.6983 -123.485 44.5746 -105.357 42.271C-68.0853 37.5985 -27.4613 37.4279 15.3885 41.7624C53.9651 45.6637 92.9568 53.0295 131.281 63.6542C199.786 82.7171 260.231 111.608 306.082 147.205C308.596 149.159 311.103 151.161 313.532 153.159C332.172 168.499 349.207 185.702 367.146 207.294C371.268 212.245 375.37 217.332 379.336 222.252C391.438 237.26 403.95 252.778 419.152 267.076C420.089 267.956 421.045 268.839 421.996 269.704C461.633 305.511 520.18 328.253 586.852 333.74C646.649 338.662 712.316 329.995 787.609 307.246C793.701 305.403 800 303.419 806.326 301.346C849.365 287.263 890.371 270.064 933.784 251.853C955.43 242.774 977.813 233.384 1000.25 224.519C1042.23 208.005 1077.15 195.805 1110.15 186.124C1148.99 174.728 1185.48 166.78 1221.72 161.824C1243.8 158.766 1263.06 157.381 1280.58 157.592C1303.13 157.863 1323.01 160.687 1341.36 166.228C1376.82 176.986 1405.7 196.168 1433.62 214.717C1441.45 219.92 1448.85 224.833 1456.33 229.521C1528.68 274.859 1602.6 323.736 1682.32 378.946L1682.11 379.058Z" fill="#FFE492"/>
<path d="M1679.2 377.48C1600.25 321.674 1527.66 272.236 1457.28 226.338C1449.9 221.525 1442.6 216.441 1434.86 211.058C1407.69 192.147 1379.6 172.592 1344.42 162.064C1301.37 149.231 1255.51 155.132 1224.75 160.688C1148.8 174.29 1081.06 200.19 1006.69 230.141C993.273 235.562 979.706 241.158 966.584 246.572C916.12 267.39 863.94 288.915 810.598 304.487C804.119 306.38 797.633 308.189 791.327 309.862C755.767 319.284 721.384 325.751 689.131 329.085C652.593 332.863 617.858 332.714 585.882 328.645C553.763 324.558 523.62 316.55 496.289 304.843C468.63 292.995 444.266 277.533 423.876 258.885C422.933 258.018 421.982 257.131 421.051 256.251C406.297 242.281 393.702 227.263 381.523 212.741C377.135 207.508 372.598 202.097 368.039 196.833C349.407 175.27 332.023 158.225 313.331 143.189C310.877 141.215 308.338 139.231 305.788 137.293C259.387 102.053 198.53 73.6038 129.791 55.016C47.5401 32.8481 -36.6674 25.8336 -107.324 35.2655C-181.087 45.2193 -254.882 82.3916 -246.36 131.679L-246.632 131.696C-248.68 119.857 -246.009 108.216 -238.696 97.0983C-231.972 86.8767 -221.458 77.2591 -207.448 68.5097C-181.601 52.3694 -145.129 40.1922 -107.385 35.0999C-70.1574 30.1313 -29.4895 29.6629 13.4894 33.708C52.1595 37.3483 91.3243 44.4649 129.901 54.8621C198.678 73.4599 259.572 101.928 306.002 137.185C308.555 139.124 311.094 141.108 313.551 143.083C332.251 158.128 349.643 175.18 368.28 196.751C372.839 202.017 377.379 207.427 381.768 212.66C393.944 227.179 406.536 242.194 421.281 256.158C422.21 257.038 423.161 257.923 424.104 258.789C464.898 296.099 520.859 320.197 585.934 328.48C646.193 336.148 715.256 329.833 791.211 309.708C797.515 308.035 803.995 306.228 810.472 304.336C863.795 288.77 915.968 267.248 966.422 246.433C979.544 241.02 993.111 235.424 1006.53 230.002C1039.08 216.891 1076.96 201.853 1114.56 189.298C1153.89 176.165 1189.9 166.755 1224.67 160.529C1246.55 156.576 1265.8 154.525 1283.51 154.26C1305.84 153.926 1326.37 156.502 1344.53 161.916C1360.29 166.631 1376.15 173.669 1393.02 183.433C1407.92 192.053 1421.72 201.659 1435.06 210.947C1442.79 216.329 1450.1 221.413 1457.48 226.224C1527.86 272.124 1600.45 321.564 1679.4 377.371L1679.2 377.48Z" fill="#FFE492"/>
<path d="M1676.28 375.904C1598.11 319.496 1526.85 269.494 1458.42 223.041C1451.18 218.122 1444 212.884 1436.4 207.34C1409.94 188.036 1382.58 168.075 1347.6 157.755C1314.91 148.141 1275.7 148.676 1227.72 159.391C1160.64 174.288 1100.67 199.206 1037.18 225.59C1029.27 228.876 1021.1 232.272 1012.96 235.626C1009.78 236.943 1006.59 238.262 1003.41 239.581C942.912 264.623 880.359 290.518 814.739 307.484C808.106 309.201 801.439 310.832 794.923 312.331C758.584 320.684 723.23 326 689.847 328.132C652.466 330.517 617.173 328.921 584.956 323.387C553.337 317.955 523.565 308.604 496.467 295.592C470.201 282.98 446.491 266.96 425.994 247.974C425.06 247.105 424.117 246.217 423.191 245.336C408.997 231.803 396.444 217.391 384.301 203.454C379.385 197.81 374.298 191.973 369.19 186.292C349.838 164.744 332.102 147.846 313.366 133.114C310.877 131.157 308.307 129.193 305.724 127.274C258.736 92.3755 197.428 64.3491 128.419 46.2264C45.6353 24.5453 -38.8057 18.1046 -109.345 28.0953C-181.752 38.4356 -255.443 75.9123 -249.389 125.002L-249.664 125.016C-251.123 113.175 -248.062 101.548 -240.56 90.4584C-233.637 80.2251 -223.063 70.5958 -209.128 61.8397C-183.39 45.6659 -147.045 33.3081 -109.408 27.933C-72.2216 22.6666 -31.5125 21.9005 11.5929 25.6578C50.3564 29.0338 89.6998 35.9028 128.529 46.0725C197.576 64.2069 258.923 92.2484 305.93 127.166C308.513 129.084 311.088 131.052 313.578 133.009C332.322 147.749 350.069 164.652 369.426 186.208C374.537 191.889 379.621 197.728 384.54 203.372C396.678 217.306 409.231 231.715 423.419 245.242C424.345 246.123 425.285 247.01 426.219 247.878C467.898 286.483 522.812 312.535 585.027 323.222C646.443 333.771 717.028 330.052 794.824 312.17C801.335 310.671 807.998 309.042 814.629 307.327C880.227 290.367 942.77 264.477 1003.25 239.439C1006.44 238.119 1009.62 236.8 1012.81 235.484C1020.94 232.13 1029.11 228.733 1037.02 225.45C1100.52 199.061 1160.51 174.136 1227.62 159.232C1249.3 154.391 1268.54 151.675 1286.45 150.928C1308.87 149.993 1329.48 152.239 1347.72 157.603C1363.39 162.225 1379.05 169.295 1395.61 179.217C1410.21 187.971 1423.63 197.763 1436.61 207.231C1444.21 212.774 1451.39 218.01 1458.63 222.927C1527.06 269.382 1598.32 319.386 1676.49 375.795L1676.28 375.904Z" fill="#FFE492"/>
<path d="M1673.37 374.327C1602.02 321.763 1530.09 269.752 1459.57 219.74C1452.39 214.678 1445.28 209.24 1437.74 203.483C1413.24 184.756 1385.48 163.532 1350.78 153.443C1317.71 143.845 1278.43 145.366 1230.69 158.09C1173.92 173.17 1123.68 195.343 1070.49 218.817C1053.84 226.168 1036.61 233.771 1019.24 241.105C988.917 253.935 956.114 267.511 921.728 279.875C884.902 293.118 851.258 303.127 818.873 310.478C812.069 312.022 805.221 313.476 798.513 314.796C761.404 322.095 725.088 326.249 690.576 327.142C652.37 328.129 616.52 325.098 584.016 318.125C523.994 305.089 471.534 277.816 428.096 237.06C427.17 236.19 426.236 235.3 425.315 234.419C411.842 221.484 399.509 207.838 387.583 194.64C381.968 188.428 376.164 182.004 370.325 175.753C350.237 154.211 332.144 137.461 313.386 123.042C310.861 121.102 308.258 119.156 305.645 117.257C258.085 82.6949 196.326 55.0951 127.048 37.4357C43.7285 16.2398 -40.9406 10.3762 -111.364 20.924C-184.211 31.8967 -256.055 68.8766 -252.42 118.325L-252.695 118.331C-253.566 106.487 -250.109 94.8737 -242.422 83.8124C-235.3 73.5658 -224.665 63.9264 -210.809 55.1637C-197.756 46.9078 -182.285 39.6891 -164.827 33.7068C-147.877 27.9001 -129.913 23.5438 -111.433 20.7601C-74.2878 15.1976 -33.5347 14.1336 9.69711 17.6016C48.5541 20.7182 88.0706 27.338 127.153 37.2801C196.472 54.9495 258.266 82.5661 305.854 117.145C308.467 119.046 311.075 120.993 313.6 122.934C332.367 137.361 350.468 154.117 370.564 175.666C376.404 181.919 382.207 188.343 387.822 194.556C399.748 207.752 412.078 221.397 425.546 234.327C426.464 235.21 427.401 236.098 428.325 236.968C471.73 277.692 524.142 304.944 584.107 317.966C645.874 331.215 719.985 330.064 798.427 314.635C805.13 313.315 811.978 311.863 818.777 310.321C891.184 293.888 957.433 267.049 1019.08 240.966C1036.46 233.632 1053.68 226.031 1070.33 218.68C1123.53 195.2 1173.78 173.022 1230.58 157.936C1278.39 145.192 1317.75 143.671 1350.9 153.29C1366.44 157.809 1381.86 164.892 1398.06 174.941C1412.35 183.803 1425.37 193.755 1437.96 203.378C1445.49 209.134 1452.6 214.571 1459.78 219.63C1530.3 269.644 1602.23 321.655 1673.58 374.22L1673.37 374.327Z" fill="#FFE492"/>
<path d="M1670.46 372.752C1600.2 319.898 1529.63 267.308 1460.72 216.443C1453.76 211.326 1446.86 205.792 1439.55 199.933C1415.66 180.77 1388.57 159.049 1353.97 149.13C1320.5 139.549 1281.15 142.055 1233.66 156.788C1183.9 172.203 1138.18 193.967 1093.97 215.018C1071.8 225.572 1048.88 236.486 1025.52 246.586C988.653 262.542 957.633 274.714 927.897 284.894C891.23 297.446 856.921 306.794 823.013 313.472C816.053 314.844 809.018 316.119 802.107 317.262C766.097 323.212 730.735 326.223 696.907 326.225C695.027 326.225 693.159 326.215 691.29 326.197C652.18 325.809 615.775 321.322 583.084 312.863C567.305 308.758 551.853 303.547 537.159 297.374C523.348 291.572 509.775 284.738 496.818 277.063C473.507 263.255 451.715 246.599 430.204 226.148C429.28 225.268 428.36 224.386 427.445 223.501C414.963 211.434 403.155 198.821 391.737 186.622C385.145 179.58 378.329 172.298 371.465 165.21C350.33 143.372 332.427 127.258 313.408 112.966C310.849 111.044 308.214 109.117 305.567 107.237C257.43 73.017 195.224 45.8421 125.677 28.6462C41.8238 7.93712 -43.0762 2.64902 -113.384 13.7539C-184.866 25.0762 -256.616 62.3371 -255.448 111.646L-255.723 111.648C-256.267 88.6806 -241.315 66.8406 -212.486 48.4903C-199.455 40.196 -184.066 32.9255 -166.742 26.8762C-149.886 20.9909 -131.958 16.5209 -113.453 13.5899C-76.352 7.72967 -35.5549 6.36959 7.80331 9.54814C46.7537 12.4038 86.446 18.776 125.778 28.4889C195.369 45.6966 257.612 72.8882 305.779 107.128C308.425 109.01 311.066 110.939 313.625 112.861C332.652 127.161 350.563 143.28 371.704 165.126C378.569 172.216 385.386 179.498 391.976 186.54C403.394 198.737 415.2 211.349 427.678 223.412C428.593 224.297 429.511 225.179 430.435 226.057C476.145 269.516 526.112 297.861 583.191 312.71C662.249 333.166 745.836 326.389 802.035 317.101C808.941 315.958 815.97 314.685 822.928 313.313C900.914 297.953 972.077 269.511 1025.36 246.45C1048.72 236.354 1071.64 225.44 1093.8 214.887C1138.02 193.834 1183.75 172.062 1233.53 156.641C1254.78 150.048 1274.02 146 1292.33 144.267C1314.91 142.129 1335.69 143.715 1354.08 148.981C1369.58 153.423 1384.86 160.563 1400.79 170.808C1414.83 179.835 1427.51 190.001 1439.77 199.834C1447.08 205.691 1453.97 211.224 1460.93 216.338C1529.84 267.203 1600.41 319.793 1670.67 372.647L1670.46 372.752Z" fill="#FFE492"/>
<path d="M1667.54 371.175L1461.86 213.144C1455.15 207.983 1448.47 202.368 1441.41 196.424C1418.1 176.807 1391.69 154.574 1357.15 144.819C1323.75 135.387 1283.2 138.977 1236.63 155.491C1191.85 171.365 1151.01 192.476 1111.52 212.892C1085.77 226.2 1059.15 239.96 1031.8 252.07C949.595 288.469 877.751 309.968 805.707 319.729C775.819 323.778 746.336 325.816 717.742 325.816C709.075 325.816 700.496 325.628 692.007 325.253C651.974 323.487 615.013 317.548 582.155 307.604C551.702 298.386 523.842 285.374 496.994 267.822C475.554 253.806 455.002 237.097 432.317 215.237C420.344 203.701 408.75 191.714 397.538 180.123C372.163 153.891 345.925 126.767 313.44 102.894C263.613 66.2789 198.211 37.5649 124.303 19.8553C39.9193 -0.365226 -45.2115 -5.07951 -115.404 6.58241C-183.363 17.8729 -257.122 53.476 -258.48 104.968L-258.754 104.965C-258.147 81.9491 -242.728 60.1125 -214.165 41.8158C-188.339 25.2723 -153.291 12.7019 -115.476 6.42014C-78.4158 0.263792 -37.5748 -1.39407 5.9071 1.49506C44.951 4.08809 84.8192 10.2143 124.404 19.6998C160.975 28.4625 195.707 39.9973 227.639 53.9846C259.838 68.089 288.777 84.507 313.649 102.784C346.147 126.665 372.394 153.796 397.774 180.034C408.986 191.624 420.58 203.609 432.55 215.144C465.648 247.039 512.578 286.355 582.279 307.45C662.213 331.642 747.866 327.39 805.646 319.562C877.655 309.807 949.466 288.317 1031.64 251.931C1058.98 239.826 1085.6 226.066 1111.34 212.761C1150.84 192.342 1191.69 171.226 1236.49 155.343C1283.14 138.802 1323.78 135.208 1357.27 144.665C1372.73 149.033 1387.87 156.235 1403.55 166.686C1417.35 175.885 1429.7 186.276 1441.63 196.323C1448.7 202.267 1455.37 207.88 1462.08 213.039L1667.76 371.07L1667.54 371.175Z" fill="#FFE492"/>
<path d="M1665.89 359.026C1613.51 315.024 1568.57 279.319 1524.47 246.662C1503.06 230.798 1481.19 215.183 1459.48 200.251C1452.91 195.734 1446.4 190.929 1439.51 185.842C1422.2 173.056 1404.3 159.834 1383.69 150.023C1372.63 144.745 1361.98 140.966 1351.14 138.47C1317.85 130.732 1278.8 135.848 1235.07 153.676C1212.43 162.889 1191.82 173.373 1174.64 182.414C1156.46 191.985 1138.52 202.539 1121.18 212.746C1096.24 227.417 1070.46 242.587 1042.74 255.616C1025.88 263.567 1008.79 270.672 991.932 276.735C958.213 288.863 922.022 298.857 884.363 306.439C861.096 311.071 837.716 314.573 814.877 316.845C795.193 318.795 775.473 319.921 756.262 320.19C727.509 320.595 699.496 319.051 672.999 315.597C644.827 311.923 618.165 306.059 593.758 298.166C571.993 291.128 551.435 282.267 530.91 271.074C492.664 250.232 462.158 226.134 439.855 207.467C428.899 198.255 418.201 188.86 407.854 179.774C378.063 153.608 349.923 128.894 314.71 106.88C285.991 89.0432 253.223 73.6507 217.31 61.1272C189.711 51.5029 159.695 43.6319 128.095 37.7315C120.568 36.3279 112.899 35.0197 105.306 33.847C72.6154 28.8064 35.814 25.5242 -4.0735 24.0905C-44.288 22.6116 -79.0806 23.8914 -110.433 28.0068C-128.157 30.3154 -145.33 33.9373 -161.48 38.7704C-218.496 55.8341 -255.108 84.4795 -259.417 115.398L-259.76 115.38C-258.611 107.138 -255.239 99.0189 -249.741 91.2465C-244.517 83.8639 -237.342 76.7439 -228.416 70.0841C-211.552 57.5037 -188.457 46.6097 -161.631 38.5813C-145.456 33.7399 -128.256 30.113 -110.504 27.801C-79.1191 23.6823 -44.299 22.4008 -4.05153 23.8814C35.8579 25.3151 72.6786 28.6007 105.391 33.6445C112.992 34.8189 120.664 36.1271 128.197 37.5324C159.821 43.4361 189.862 51.3139 217.483 60.9466C253.421 73.4784 286.216 88.8843 314.949 106.733C350.184 128.76 378.33 153.481 408.132 179.654C418.475 188.739 429.173 198.133 440.127 207.344C462.419 226.002 492.911 250.088 531.136 270.916C551.639 282.098 572.175 290.951 593.914 297.981C641.683 313.427 696.3 320.83 756.251 319.981C775.445 319.712 795.151 318.586 814.819 316.637C837.641 314.365 861.005 310.867 884.253 306.238C921.89 298.662 958.059 288.674 991.756 276.552C1008.6 270.495 1025.68 263.393 1042.53 255.448C1070.23 242.426 1096.01 227.26 1120.93 212.593C1138.29 202.385 1156.22 191.827 1174.42 182.253C1191.6 173.208 1212.22 162.72 1234.87 153.501C1254.35 145.563 1273.2 140.079 1290.92 137.2C1312.68 133.663 1332.98 134.025 1351.26 138.274C1362.14 140.778 1372.82 144.567 1383.91 149.857C1404.54 159.684 1422.45 172.913 1439.78 185.708C1446.67 190.794 1453.17 195.598 1459.73 200.112C1481.46 215.046 1503.32 230.663 1524.74 246.53C1568.84 279.191 1613.79 314.899 1666.17 358.903L1665.89 359.026Z" fill="#FFE492"/>
<path d="M1664.23 346.876C1615.67 302.13 1570.09 264.687 1524.9 232.408C1502.85 216.641 1480.04 201.484 1457.09 187.359C1451 183.612 1444.99 179.718 1438.63 175.596C1419.57 163.251 1399.86 150.487 1377.79 141.655C1366.64 137.177 1355.96 134.059 1345.13 132.121C1303.66 124.7 1261.54 138.76 1233.5 151.86C1213.64 161.115 1195.5 171.579 1177.12 182.381C1161.04 191.836 1145.9 202.008 1129.88 212.774C1106.1 228.758 1081.51 245.284 1053.69 259.161C1037.18 267.44 1019.94 274.599 1002.47 280.437C969.917 291.315 934.273 299.761 893.498 306.262C870.678 309.899 847.309 312.49 824.039 313.961C804.404 315.187 784.805 315.626 765.784 315.259C737.485 314.72 709.823 312.298 683.563 308.061C655.984 303.609 629.669 297.105 605.352 288.728C584.046 281.391 563.475 272.287 542.461 260.898C504.296 240.242 471.603 217.343 447.387 199.701C438.423 193.17 429.602 186.598 421.07 180.241C387.09 154.927 354.996 131.014 315.98 110.869C286.821 95.8123 254.084 83.0814 218.684 73.0305C191.899 65.4254 163.509 59.7275 131.896 55.6104C124.6 54.6619 117.177 53.807 109.837 53.0692C77.5977 49.8455 43.1898 48.626 1.56003 47.3646C-28.4483 46.4094 -67.7312 45.7803 -105.47 49.4306C-123.343 51.127 -140.62 54.073 -156.825 58.1834C-213.879 72.6591 -252.582 97.947 -260.359 125.831L-260.766 125.789C-258.705 118.395 -254.528 111.143 -248.358 104.232C-242.478 97.6475 -234.75 91.3339 -225.393 85.462C-207.611 74.307 -183.956 64.7931 -156.984 57.9508C-140.749 53.8321 -123.439 50.8811 -105.536 49.1814C-67.7615 45.5261 -28.4483 46.1567 1.57925 47.112C43.2227 48.3734 77.6417 49.5929 109.903 52.8183C117.249 53.5577 124.677 54.4126 131.981 55.3611C163.624 59.4832 192.042 65.1862 218.857 72.7997C254.292 82.8606 287.057 95.6015 316.247 110.673C355.29 130.833 387.398 154.753 421.388 180.077C429.918 186.433 438.739 193.004 447.703 199.533C471.913 217.169 504.593 240.06 542.735 260.705C563.725 272.083 584.274 281.177 605.555 288.506C653.37 304.976 707.287 313.891 765.797 315.005C784.803 315.37 804.382 314.933 823.998 313.707C847.246 312.238 870.596 309.65 893.393 306.015C934.135 299.52 969.75 291.08 1002.27 280.213C1019.73 274.381 1036.94 267.233 1053.43 258.962C1081.23 245.097 1105.81 228.577 1129.58 212.602C1145.61 201.83 1160.74 191.657 1176.84 182.197C1195.22 171.388 1213.37 160.921 1233.26 151.656C1251.43 143.163 1269.36 137.053 1286.54 133.493C1307.38 129.177 1327.13 128.633 1345.25 131.875C1356.12 133.821 1366.84 136.949 1378.02 141.441C1400.13 150.289 1419.86 163.065 1438.93 175.42C1445.29 179.54 1451.31 183.433 1457.39 187.179C1480.35 201.308 1503.16 216.47 1525.21 232.242C1570.42 264.53 1616.01 301.98 1664.57 346.735L1664.23 346.876Z" fill="#FFE492"/>
<path d="M1662.57 334.721C1617.12 288.624 1572.23 250.493 1525.32 218.15C1502.65 202.48 1478.89 187.783 1454.71 174.465C1449.55 171.618 1444.23 168.597 1439.08 165.676C1417.84 153.607 1395.87 141.129 1371.88 133.285C1360.63 129.578 1349.91 127.118 1339.13 125.768C1297.75 120.584 1258 136.105 1231.95 150.037C1214.28 159.443 1198.14 170.102 1182.53 180.413L1179.6 182.343C1165.43 191.696 1152.13 201.955 1138.05 212.817C1115.63 230.113 1092.44 247.997 1064.63 262.702C1048.45 271.321 1031.08 278.533 1013 284.137C981.484 293.908 946.408 300.881 902.624 306.081C879.983 308.769 856.625 310.449 833.195 311.071C813.61 311.571 794.132 311.32 775.297 310.322C718.276 307.312 664.998 296.87 616.94 279.285C596.165 271.684 575.58 262.34 554.011 250.717C517.509 231.089 485.044 210.913 454.923 191.931C450.883 189.386 446.887 186.858 442.922 184.351C401.782 158.338 362.925 133.768 317.258 114.858C287.445 102.511 254.741 92.4438 220.058 84.9323C194.595 79.4184 166.999 75.6744 135.699 73.4862C128.645 72.9961 121.47 72.5929 114.372 72.2884C96.5153 71.5356 77.576 71.4135 57.5237 71.2847C41.4175 71.1809 24.7646 71.0739 7.19098 70.6372C-26.7498 69.7222 -65.2165 68.6866 -100.512 70.8547C-118.723 71.9739 -136.104 74.2424 -152.175 77.5983C-209.207 89.5094 -250.004 111.443 -261.307 136.271L-261.771 136.192C-258.792 129.646 -253.813 123.261 -246.973 117.213C-240.433 111.43 -232.156 105.919 -222.373 100.835C-203.662 91.1121 -179.441 82.9817 -152.334 77.3206C-136.228 73.9563 -118.811 71.6828 -100.564 70.562C-65.233 68.3922 -26.747 69.4294 7.20746 70.3445C24.7701 70.7794 41.423 70.8882 57.5237 70.9919C77.5842 71.1207 96.529 71.2428 114.402 71.9973C121.506 72.3035 128.689 72.7066 135.749 73.1968C167.087 75.3867 194.716 79.1357 220.215 84.658C254.938 92.1778 287.678 102.257 317.525 114.617C363.232 133.544 402.109 158.126 443.266 184.15C447.231 186.658 451.229 189.184 455.266 191.73C485.382 210.709 517.836 230.88 554.327 250.501C575.874 262.111 596.437 271.446 617.188 279.038C665.182 296.6 718.391 307.028 775.339 310.034C794.152 311.031 813.61 311.282 833.173 310.782C856.578 310.159 879.914 308.481 902.531 305.796C946.271 300.602 981.305 293.637 1012.78 283.879C1030.82 278.287 1048.16 271.088 1064.31 262.484C1092.09 247.798 1115.26 229.924 1137.66 212.638C1151.75 201.771 1165.06 191.507 1179.24 182.147L1182.17 180.217C1197.79 169.902 1213.94 159.235 1231.62 149.82C1257.76 135.843 1297.65 120.276 1339.22 125.484C1350.05 126.841 1360.81 129.308 1372.11 133.03C1396.15 140.892 1418.14 153.383 1439.41 165.465C1444.55 168.386 1449.87 171.407 1455.03 174.253C1479.22 187.578 1502.99 202.283 1525.68 217.961C1572.6 250.317 1617.51 288.461 1662.97 334.574L1662.57 334.721Z" fill="#FFE492"/>
<path d="M1660.91 322.566C1619.18 275.773 1573.71 235.845 1525.76 203.896C1502.44 188.324 1477.74 174.086 1452.34 161.576C1448.67 159.769 1444.91 157.894 1441.28 156.08C1417.27 144.101 1392.44 131.711 1365.99 124.919C1354.64 121.973 1343.9 120.175 1333.14 119.418C1291.88 116.521 1254.49 133.479 1230.39 148.216C1215.43 157.32 1201.92 167.445 1188.86 177.236C1186.6 178.931 1184.35 180.622 1182.08 182.307C1169.66 191.561 1158.04 201.9 1145.75 212.844C1124.84 231.45 1103.22 250.689 1075.58 266.247C1059.34 275.383 1042.32 282.446 1023.53 287.843C984.243 299.13 944.977 303.307 911.75 305.907C889.277 307.663 865.93 308.433 842.352 308.189C822.827 307.963 803.467 307.021 784.814 305.392C729.504 300.572 676.924 288.614 628.534 269.849C608.399 262.043 587.803 252.457 565.563 240.544C543.098 228.539 522.164 216.988 501.916 205.816C488.157 198.223 475.159 191.051 462.466 184.17C414.486 158.16 370.536 135.291 318.547 118.853C288.093 109.225 255.422 101.818 221.44 96.8373C197.084 93.2673 171.05 91.5292 139.511 91.3635C132.707 91.3334 125.776 91.3819 118.914 91.5091C108.491 91.7148 97.7078 92.1448 86.2953 92.6015C64.3936 93.4764 39.5652 94.4685 12.8216 93.9131C2.63739 93.7006 -7.75285 93.4011 -17.8024 93.1101C-43.6502 92.3623 -70.3774 91.5894 -95.5575 92.2803C-114.049 92.7889 -131.537 94.3815 -147.531 97.0147C-204.467 106.391 -247.355 124.972 -262.26 146.719L-262.769 146.59C-258.867 140.895 -253.085 135.378 -245.585 130.19C-238.383 125.208 -229.556 120.502 -219.356 116.205C-199.699 107.924 -174.915 101.177 -147.679 96.6918C-131.647 94.0519 -114.12 92.4543 -95.5877 91.9457C-70.3802 91.2531 -43.642 92.0277 -17.7804 92.7755C-7.73361 93.0666 2.65665 93.366 12.838 93.5785C39.557 94.1339 64.3661 93.1435 86.2568 92.2686C97.6748 91.8119 108.461 91.3819 118.895 91.1762C125.765 91.049 132.701 91.0005 139.513 91.0306C171.096 91.1946 197.17 92.9378 221.566 96.5128C255.59 101.5 288.305 108.916 318.797 118.557C342.281 125.981 366.079 135.388 391.551 147.313C414.354 157.987 436.536 169.668 462.829 183.921C475.522 190.803 488.52 197.975 502.282 205.569C522.527 216.739 543.461 228.29 565.92 240.293C588.138 252.195 608.713 261.77 628.823 269.568C677.146 288.308 729.653 300.249 784.885 305.062C803.517 306.69 822.852 307.63 842.355 307.856C865.905 308.1 889.228 307.332 911.673 305.576C944.858 302.981 984.072 298.809 1023.29 287.542C1042.03 282.16 1059.01 275.115 1075.2 266.003C1102.8 250.471 1124.4 231.248 1145.29 212.657C1157.59 201.706 1169.21 191.362 1181.65 182.098C1183.91 180.413 1186.17 178.722 1188.43 177.029C1201.5 167.23 1215.01 157.099 1230 147.983C1245.67 138.396 1261.76 131.02 1277.8 126.062C1296.8 120.188 1315.44 117.842 1333.19 119.09C1344 119.85 1354.8 121.657 1366.2 124.614C1392.71 131.425 1417.57 143.83 1441.61 155.824C1445.25 157.638 1449 159.513 1452.67 161.318C1478.09 173.838 1502.81 188.09 1526.15 203.673C1551.61 220.638 1576.55 239.967 1600.26 261.123C1621.23 279.821 1641.79 300.441 1661.38 322.409L1660.91 322.566Z" fill="#FFE492"/>
<path d="M1659.25 310.411C1620.63 262.276 1575.86 221.644 1526.19 189.643C1502.24 174.17 1476.59 160.392 1449.97 148.688C1448.7 148.131 1447.43 147.574 1446.16 147.015C1418.48 134.83 1389.85 122.229 1360.11 116.556C1348.59 114.358 1337.81 113.219 1327.16 113.072C1286.06 112.506 1251.01 130.882 1228.85 146.395C1215.81 155.47 1204.23 165.417 1193.03 175.037C1190.27 177.415 1187.4 179.875 1184.58 182.27C1173.81 191.394 1163.81 201.768 1153.22 212.753C1133.95 232.732 1114.03 253.391 1086.53 269.792C1070.62 279.281 1053.46 286.398 1034.07 291.55C995.878 301.7 957.095 304.365 920.876 305.733C898.543 306.576 875.204 306.433 851.508 305.307C832.047 304.353 812.81 302.722 794.33 300.46C740.903 293.936 689.021 280.462 640.131 260.412C620.551 252.384 600.529 242.838 577.124 230.372C532.642 206.743 499.611 190.101 470.026 176.412C411.182 149.185 366.271 133.167 319.86 122.852C288.788 115.946 256.15 111.2 222.847 108.744C199.742 107.041 175.221 107.193 143.344 109.242C136.812 109.667 130.129 110.168 123.479 110.731C117.197 111.272 110.816 111.891 104.058 112.545C79.1092 114.962 50.8293 117.702 18.4632 117.19C1.4035 116.921 -16.0217 116.183 -32.8725 115.471C-52.0235 114.661 -71.8257 113.823 -90.6001 113.709C-109.424 113.595 -127.02 114.512 -142.884 116.436C-199.63 123.313 -244.615 138.545 -263.217 157.18L-263.744 156.984C-258.913 152.143 -252.329 147.494 -244.176 143.166C-236.305 138.987 -226.935 135.087 -216.322 131.572C-195.706 124.744 -170.353 119.38 -143.005 116.066C-127.097 114.139 -109.463 113.219 -90.5946 113.333C-71.8037 113.446 -51.9905 114.285 -32.8313 115.096C-15.986 115.809 1.43094 116.546 18.4769 116.816C50.7853 117.326 79.035 114.589 103.957 112.175C110.717 111.519 117.103 110.902 123.388 110.36C130.046 109.796 136.735 109.296 143.273 108.869C175.199 106.818 199.761 106.664 222.916 108.372C256.266 110.832 288.95 115.584 320.066 122.5C366.541 132.829 411.498 148.864 470.394 176.114C499.99 189.808 533.032 206.456 577.525 230.091C600.914 242.547 620.914 252.083 640.471 260.103C689.295 280.124 741.101 293.58 794.448 300.094C812.904 302.352 832.118 303.98 851.552 304.934C875.221 306.058 898.529 306.202 920.835 305.36C956.999 303.994 995.716 301.335 1033.82 291.209C1053.14 286.077 1070.24 278.983 1086.09 269.528C1113.53 253.162 1133.44 232.525 1152.68 212.567C1163.28 201.576 1173.29 191.194 1184.07 182.056C1186.9 179.662 1189.76 177.203 1192.53 174.824C1203.73 165.196 1215.32 155.243 1228.38 146.152C1242.84 136.027 1258.01 128.019 1273.45 122.348C1291.53 115.705 1309.61 112.461 1327.17 112.7C1337.89 112.848 1348.72 113.993 1360.3 116.202C1390.13 121.895 1418.8 134.512 1446.52 146.716C1447.79 147.275 1449.06 147.833 1450.33 148.389C1476.98 160.106 1502.66 173.901 1526.64 189.39C1576.35 221.42 1621.16 262.084 1659.8 310.252L1659.25 310.411Z" fill="#FFE492"/>
<path d="M934.55 305.559C933.009 305.559 931.489 305.558 929.994 305.553C907.776 305.496 884.446 304.442 860.656 302.418C841.266 300.736 822.151 298.416 803.841 295.524C777.68 291.398 751.425 285.469 725.8 277.903C701.054 270.595 676.132 261.535 651.724 250.97C627.809 240.62 605.47 229.087 588.68 220.195C549.394 199.448 512.015 182.106 477.583 168.651C421.814 146.86 372.116 133.575 321.177 126.845C290.445 122.785 257.475 120.643 225.73 120.643C225.238 120.643 224.749 120.643 224.257 120.645C196.985 120.702 171.094 123.787 147.18 127.112C140.956 127.984 134.517 128.936 128.043 129.945C124.495 130.503 120.942 131.079 117.183 131.688C90.6674 135.989 60.6123 140.862 24.0994 140.462C1.86243 140.218 -20.8499 138.816 -42.8148 137.459C-56.9974 136.583 -71.6608 135.678 -85.6482 135.131C-104.876 134.38 -122.571 134.621 -138.245 135.85C-194.689 140.273 -241.771 152.158 -264.192 167.642L-264.709 167.366C-253.209 159.425 -235.91 152.549 -213.294 146.928C-191.694 141.561 -165.772 137.587 -138.333 135.437C-122.617 134.206 -104.876 133.961 -85.6042 134.716C-71.6031 135.263 -56.9314 136.17 -42.7434 137.046C-20.7922 138.403 1.90637 139.805 24.1131 140.047C60.5326 140.447 90.5354 135.581 117.007 131.288C120.769 130.677 124.322 130.102 127.873 129.543C134.353 128.534 140.797 127.581 147.026 126.709C170.981 123.379 196.917 120.289 224.254 120.23C256.505 120.162 290.066 122.31 321.322 126.44C347.612 129.915 373.1 135.029 399.237 142.075C424.409 148.862 450.157 157.441 477.951 168.303C512.411 181.768 549.817 199.123 589.127 219.884C605.904 228.771 628.226 240.295 652.117 250.634C701.645 272.071 752.75 287.039 804.011 295.124C822.297 298.013 841.387 300.33 860.75 302.009C884.509 304.03 907.807 305.084 929.994 305.139C964.713 305.226 1005.03 304.514 1044.34 294.869C1064.25 289.988 1081.46 282.85 1096.98 273.048C1124.23 255.834 1142.3 233.739 1159.77 212.371C1168.76 201.38 1177.25 190.998 1186.48 182.011C1189.44 179.132 1192.42 176.166 1195.31 173.297C1205.06 163.604 1215.14 153.583 1226.75 144.32C1240.02 133.664 1254.27 125.02 1269.08 118.629C1286.26 111.22 1303.77 107.074 1321.13 106.308C1331.84 105.835 1342.72 106.318 1354.37 107.787C1385.54 111.712 1416.43 123.114 1447.97 135.455C1475.46 146.216 1502.83 159.925 1527.11 175.103C1554.07 191.915 1579.41 211.637 1602.42 233.721C1622.91 253.396 1641.68 275.054 1658.21 298.093L1657.58 298.26C1622.09 248.782 1578.03 207.444 1526.62 175.396C1502.37 160.24 1475.05 146.55 1447.59 135.808C1416.11 123.489 1385.28 112.108 1354.23 108.197C1342.64 106.736 1331.83 106.256 1321.18 106.726C1289.28 108.137 1255.94 121.577 1227.3 144.574C1215.71 153.821 1205.63 163.833 1195.89 173.516C1193.01 176.387 1190.02 179.354 1187.06 182.233C1177.85 191.204 1169.37 201.577 1160.39 212.558C1151.81 223.043 1142.95 233.885 1132.78 244.307C1121.24 256.123 1109.7 265.618 1097.48 273.339C1081.89 283.184 1064.6 290.354 1044.6 295.259C1026.97 299.585 1008.02 302.444 986.661 304.004C968.576 305.317 950.412 305.559 934.55 305.559Z" fill="#FFE492"/>
<path d="M978.618 306.399C964.606 306.399 951.146 305.891 939.104 305.376C916.963 304.429 893.643 302.463 869.796 299.532C850.489 297.125 831.494 294.117 813.341 290.589C763.632 280.948 714.555 264.899 663.307 241.53C640.958 231.34 619.889 220.376 600.229 210.021C561.416 189.636 522.697 173.108 485.14 160.892C429.905 142.927 378.225 133.376 322.501 130.837C290.751 129.389 257.269 129.98 225.672 132.543C199.225 134.688 174.292 139.864 151.017 144.979C145.194 146.266 139 147.671 132.61 149.155C131.014 149.528 129.403 149.908 127.771 150.291C100.964 156.601 70.6316 163.741 31.7032 163.741C31.0464 163.741 30.3924 163.739 29.7301 163.734C3.39313 163.572 -23.4962 161.284 -49.5034 159.069C-59.814 158.19 -70.4763 157.284 -80.7072 156.549C-100.691 155.117 -117.998 154.694 -133.62 155.259C-190.441 157.317 -238.402 165.642 -265.201 178.103L-265.66 177.737C-252.412 171.577 -233.255 166.229 -210.268 162.271C-187.657 158.378 -161.169 155.795 -133.667 154.799C-118.001 154.232 -100.65 154.656 -80.622 156.091C-70.3801 156.825 -59.7151 157.734 -49.4018 158.61C-23.4193 160.822 3.44534 163.109 29.7329 163.271C69.472 163.519 100.299 156.26 127.494 149.858C129.123 149.475 130.736 149.095 132.333 148.72C138.727 147.234 144.924 145.829 150.753 144.543C174.067 139.417 199.046 134.234 225.565 132.083C257.211 129.517 290.748 128.924 322.551 130.373C350.165 131.631 376.494 134.602 403.04 139.454C430.38 144.451 457.349 151.328 485.489 160.482C523.093 172.715 561.862 189.263 600.716 209.668C620.367 220.02 641.422 230.977 663.753 241.157C714.932 264.494 763.934 280.519 813.564 290.145C831.689 293.667 850.659 296.671 869.939 299.075C893.753 302.003 917.04 303.967 939.148 304.91C976.351 306.5 1015.93 307.316 1054.86 298.522C1075.35 293.893 1092.68 286.709 1107.86 276.559C1134.89 258.48 1151.72 233.82 1166.57 212.062C1174.04 201.114 1181.09 190.774 1188.88 181.959C1191.69 178.779 1194.52 175.492 1197.25 172.313C1205.8 162.368 1214.64 152.084 1225.11 142.48C1237.22 131.292 1250.54 122.012 1264.71 114.899C1280.98 106.73 1297.92 101.684 1315.07 99.9059C1325.79 98.7934 1336.71 98.6161 1348.44 99.3589C1381.21 101.438 1414.5 111.713 1445.6 122.509C1474.31 132.476 1502.66 145.719 1527.58 160.805C1555.29 177.538 1580.83 197.457 1603.48 220.006C1623.74 240.172 1641.62 262.348 1656.62 285.923L1655.92 286.088C1624.02 235.978 1579.46 192.768 1527.04 161.13C1502.18 146.072 1473.88 132.854 1445.23 122.907C1414.2 112.137 1381 101.887 1348.36 99.8156C1336.7 99.0762 1325.86 99.2535 1315.21 100.358C1283.54 103.642 1251.77 118.689 1225.75 142.731C1215.3 152.315 1206.47 162.589 1197.92 172.524C1195.19 175.704 1192.36 178.991 1189.55 182.175C1181.78 190.97 1174.73 201.3 1167.27 212.236C1152.4 234.027 1135.54 258.728 1108.42 276.867C1093.16 287.072 1075.73 294.296 1055.13 298.951C1037.25 302.99 1017.96 305.329 996.161 306.097C990.267 306.314 984.397 306.399 978.618 306.399Z" fill="#FFE492"/>
<path d="M1006.28 308.209C1006.08 308.209 1005.88 308.209 1005.68 308.209C985.875 308.179 966.433 306.704 948.213 305.195C926.106 303.364 902.8 300.485 878.939 296.641C859.719 293.511 840.846 289.812 822.846 285.65C775.124 274.63 728.114 257.612 674.898 232.088C655.734 222.899 636.874 213.003 618.633 203.436C616.352 202.238 614.068 201.042 611.785 199.846C572.771 179.466 532.708 163.749 492.71 153.133C437.94 138.597 382.702 132.608 323.839 134.824C291.564 136.041 258.112 139.365 227.101 144.437C202.632 148.44 180.83 154.863 154.866 162.843C149.604 164.467 143.984 166.22 137.186 168.361L136.806 168.482C123.69 172.641 108.823 177.353 92.1484 180.937C72.9974 185.052 54.4181 187.033 35.3661 187.009C5.65729 186.964 -24.6616 183.598 -53.9802 180.341C-61.1635 179.543 -68.5942 178.719 -75.7665 177.972C-96.3354 175.836 -113.747 174.757 -128.996 174.675C-185.143 174.374 -235.162 179.44 -266.226 188.57L-266.583 188.119C-251.368 183.645 -230.843 180.015 -207.229 177.619C-183.571 175.219 -156.514 174.028 -128.987 174.175C-113.695 174.257 -96.2392 175.338 -75.6263 177.479C-68.4485 178.225 -61.0179 179.05 -53.8318 179.848C-24.5489 183.1 5.73148 186.462 35.3688 186.508C35.5007 186.508 35.6354 186.508 35.7673 186.508C78.1609 186.508 110.458 176.269 136.427 168.037L136.809 167.916C143.61 165.773 149.23 164.02 154.495 162.396C180.503 154.403 202.344 147.969 226.889 143.954C257.953 138.871 291.459 135.542 323.79 134.324C352.594 133.24 379.764 134.067 406.857 136.854C436.052 139.857 464.244 145.031 493.04 152.675C533.114 163.311 573.247 179.053 612.323 199.466C614.607 200.662 616.891 201.86 619.171 203.058C637.404 212.622 656.259 222.514 675.407 231.697C728.553 257.188 775.495 274.184 823.137 285.185C841.112 289.342 859.958 293.034 879.15 296.161C902.978 300 926.251 302.874 948.323 304.701C987.859 307.977 1026.56 310.248 1065.39 302.192C1086.47 297.819 1103.92 290.59 1118.75 280.091C1145.55 261.125 1160.18 234.845 1173.1 211.657C1179.14 200.801 1184.85 190.546 1191.29 181.929C1193.77 178.613 1196.26 175.184 1198.66 171.866C1206.18 161.494 1213.96 150.771 1223.49 140.66C1234.46 128.934 1246.87 119.017 1260.35 111.184C1275.72 102.258 1292.09 96.3155 1309.03 93.5251C1319.53 91.7953 1330.24 90.9521 1341.76 90.9521C1342.01 90.9521 1342.26 90.9522 1342.51 90.9538C1378.31 91.0676 1415.14 100.968 1443.24 109.58C1473.17 118.756 1502.5 131.53 1528.06 146.523C1556.53 163.179 1582.27 183.294 1604.56 206.312C1624.57 226.967 1641.55 249.664 1655.04 273.774L1654.26 273.936C1634.19 238.062 1595.89 186.901 1527.48 146.886C1501.99 131.927 1472.72 119.183 1442.87 110.028C1414.85 101.44 1378.13 91.5678 1342.51 91.4557C1330.78 91.4139 1319.9 92.2537 1309.25 94.0102C1277.87 99.1812 1247.67 115.837 1224.21 140.909C1214.69 150.997 1206.93 161.708 1199.42 172.069C1197.01 175.388 1194.52 178.819 1192.05 182.136C1185.62 190.732 1179.92 200.973 1173.88 211.817C1160.94 235.047 1146.28 261.377 1119.38 280.417C1104.45 290.986 1086.88 298.264 1065.66 302.665C1047.68 306.394 1028.25 308.209 1006.28 308.209Z" fill="#FFE492"/>
<path d="M1028.27 310.564C1024 310.564 1019.65 310.481 1015.18 310.313C995.65 309.582 976.667 307.389 957.321 305.014C934.894 302.26 912.245 298.576 888.079 293.752C868.958 289.9 850.208 285.514 832.349 280.711C787.042 268.546 742.057 250.637 686.49 222.646C672.689 215.695 658.894 208.404 645.553 201.353C638.29 197.515 630.782 193.545 623.343 189.669C583.865 169.153 542.463 154.25 500.287 145.374C444.56 133.645 387.286 131.497 325.186 138.807C292.377 142.67 258.956 148.728 228.538 156.325C204.103 162.427 182.817 170.998 160.28 180.072L158.722 180.699C155.202 182.121 151.643 183.563 148.041 185.022C145.966 185.863 143.877 186.71 141.77 187.563C128.629 192.911 114.435 198.491 98.1586 202.785C79.2605 207.77 60.5685 210.223 41.0081 210.283C8.44406 210.38 -24.7712 205.773 -56.89 201.313C-61.4737 200.675 -66.2168 200.018 -70.8197 199.394C-92.3999 196.466 -109.413 194.782 -124.368 194.089C-179.553 191.535 -231.634 193.335 -267.259 199.029L-267.487 198.504C-231.768 192.794 -179.581 190.987 -124.299 193.547C-109.303 194.241 -92.246 195.931 -70.6246 198.864C-66.0189 199.489 -61.2759 200.147 -56.6894 200.784C-24.9636 205.189 7.8313 209.741 39.9638 209.741C40.3101 209.741 40.6564 209.741 41.0054 209.739C82.5664 209.612 112.151 198.962 141.278 187.111C143.385 186.258 145.474 185.412 147.549 184.57C151.151 183.11 154.707 181.669 158.23 180.246L159.788 179.618C182.363 170.529 203.685 161.944 228.2 155.821C258.673 148.209 292.152 142.142 325.018 138.272C387.275 130.943 444.703 133.098 500.581 144.858C542.862 153.758 584.36 168.694 623.926 189.256C631.365 193.134 638.875 197.102 646.138 200.941C659.474 207.991 673.266 215.28 687.059 222.226C742.56 250.185 787.482 268.069 832.709 280.214C850.544 285.009 869.266 289.39 888.359 293.235C912.489 298.053 935.106 301.731 957.499 304.48C991.492 308.654 1033.8 313.85 1075.93 305.847C1097.59 301.733 1115.16 294.459 1129.64 283.609C1156.18 263.734 1168.48 235.782 1179.34 211.121C1184.05 200.408 1188.51 190.288 1193.71 181.89C1195.73 178.618 1197.76 175.234 1199.73 171.96C1206.31 160.98 1213.12 149.628 1221.86 138.831C1231.73 126.56 1243.21 116.006 1255.98 107.46C1270.46 97.7774 1286.27 90.9402 1302.98 87.1377C1313.7 84.6969 1324.69 83.1929 1336.57 82.5388C1352.49 81.6622 1369.43 82.5991 1388.37 85.3962C1404.39 87.765 1421.56 91.4421 1440.88 96.6399C1472.02 105.023 1502.33 117.331 1528.53 132.231C1557.77 148.808 1583.71 169.122 1605.64 192.607C1625.39 213.754 1641.48 236.971 1653.46 261.615L1652.6 261.769C1627.3 209.741 1583.02 163.878 1527.92 132.629C1501.79 117.769 1471.57 105.496 1440.51 97.1384C1398.9 85.9399 1365.9 81.4715 1336.65 83.0809C1324.85 83.73 1313.94 85.2239 1303.29 87.6462C1263.54 96.6917 1237.5 120.604 1222.66 139.07C1213.94 149.84 1207.14 161.179 1200.56 172.145C1198.6 175.421 1196.57 178.807 1194.54 182.081C1189.36 190.454 1184.91 200.562 1180.2 211.262C1169.32 235.976 1156.99 263.987 1130.34 283.952C1115.74 294.887 1098.02 302.22 1076.19 306.367C1061.39 309.177 1045.61 310.564 1028.27 310.564Z" fill="#FFE492"/>
<path d="M1047.32 313.266C1018.26 313.266 990.324 308.72 966.422 304.833C943.935 301.176 921.297 296.605 897.213 290.862C878.2 286.295 859.571 281.219 841.846 275.774C788.713 259.47 741.346 236.067 698.075 213.205C689.24 208.538 680.315 203.726 671.686 199.074C659.705 192.613 647.314 185.933 634.898 179.496C594.829 158.777 552.09 144.686 507.868 137.614C450.663 128.468 391.347 130.16 326.532 142.787C293.16 149.288 259.772 158.079 229.975 168.21C206.994 176.023 187.549 185.886 166.963 196.329C165.504 197.068 164.042 197.811 162.572 198.554L161.775 198.959C156.771 201.5 151.596 204.126 146.35 206.763C133.781 213.108 119.939 219.671 103.929 224.685C85.3444 230.505 66.6084 233.407 46.644 233.558C11.6013 233.824 -24.1147 227.826 -58.6517 222.026C-61.0727 221.62 -63.4827 221.215 -65.8818 220.815C-88.6573 217.011 -105.272 214.756 -119.748 213.501C-173.549 208.84 -227.696 207.375 -268.306 209.481L-268.389 208.897C-227.712 206.786 -173.486 208.253 -119.614 212.921C-105.096 214.179 -88.4457 216.439 -65.6289 220.25C-63.2299 220.65 -60.8199 221.054 -58.3962 221.463C-23.925 227.251 11.7223 233.233 46.6303 232.972C89.9858 232.644 120.519 219.039 145.735 206.311C150.981 203.675 156.155 201.048 161.159 198.509L161.956 198.104C163.427 197.359 164.888 196.618 166.348 195.879C186.969 185.418 206.447 175.538 229.505 167.698C259.357 157.549 292.809 148.743 326.238 142.23C356.967 136.244 385.829 132.788 414.472 131.664C446.423 130.411 477.926 132.222 508.11 137.049C552.472 144.142 595.338 158.273 635.519 179.049C647.943 185.49 660.337 192.172 672.321 198.634C680.95 203.286 689.87 208.096 698.702 212.762C741.928 235.599 789.238 258.976 842.275 275.25C859.975 280.687 878.576 285.756 897.562 290.317C921.61 296.051 944.212 300.615 966.666 304.267C1001.14 309.875 1044.05 316.854 1086.45 309.51C1108.69 305.656 1126.38 298.337 1140.52 287.135C1166.78 266.325 1176.61 236.653 1185.28 210.472C1188.76 199.952 1192.05 190.017 1196.11 181.858C1197.61 178.84 1199.11 175.722 1200.57 172.705C1206.27 160.908 1212.16 148.707 1220.22 137.009C1228.99 124.182 1239.55 112.987 1251.59 103.738C1265.19 93.3004 1280.43 85.5681 1296.91 80.7552C1307.61 77.6301 1318.64 75.4637 1330.62 74.1304C1346.77 72.3354 1364.69 72.3956 1383.88 74.3094C1400.68 75.9857 1419.06 79.1458 1438.49 83.7045C1470.85 91.2945 1502.15 103.134 1528.99 117.942C1558.98 134.442 1585.13 154.952 1606.7 178.905C1626.19 200.545 1641.39 224.283 1651.87 249.461L1650.93 249.605C1628.73 196.255 1585.2 149.651 1528.35 118.377C1501.59 103.617 1470.4 91.8165 1438.15 84.2516C1396.34 74.4466 1361.23 71.3232 1330.8 74.7076C1318.9 76.0308 1307.95 78.1822 1297.32 81.2838C1258.12 92.7349 1234.24 118.029 1221.11 137.235C1213.07 148.903 1207.18 161.087 1201.49 172.869C1200.04 175.886 1198.53 179.006 1197.03 182.027C1192.98 190.159 1189.7 200.081 1186.22 210.587C1182.05 223.182 1177.32 237.457 1170.46 250.841C1162.6 266.175 1153.05 278.163 1141.28 287.491C1134.48 292.885 1126.66 297.475 1118.04 301.135C1108.76 305.072 1098.22 308.08 1086.71 310.074C1073.54 312.357 1060.32 313.266 1047.32 313.266Z" fill="#FFE492"/>
<path d="M1064.5 316.228C1054.89 316.228 1044.83 315.659 1034.19 314.523C1013.25 312.286 993.209 308.228 975.523 304.649C953.231 300.138 929.956 294.525 906.347 287.969C887.455 282.692 868.947 276.928 851.343 270.831C800.815 253.354 757.284 230.116 709.661 203.761C705.429 201.419 701.131 199.03 696.976 196.718C680.612 187.619 663.692 178.21 646.454 169.32C605.72 148.359 561.644 135.081 515.45 129.854C457.181 123.262 394.07 128.949 327.879 146.763C293.913 155.904 260.555 167.427 231.412 180.089C209.469 189.623 191.407 200.863 172.283 212.764C170.34 213.974 168.389 215.187 166.427 216.405C161.544 219.439 156.284 222.696 150.934 225.957C139.714 232.818 126.04 240.635 109.703 246.579C91.4146 253.234 72.6319 256.588 52.2856 256.831C15.039 257.277 -22.8754 249.769 -59.5422 242.509L-60.9382 242.233C-78.891 238.68 -97.8826 235.089 -115.124 232.91C-167.677 226.267 -222.447 221.654 -269.342 219.923L-269.279 219.297C-222.335 221.03 -167.515 225.646 -114.915 232.296C-97.6242 234.482 -78.5997 238.077 -60.6194 241.636L-59.2234 241.912C-22.6363 249.155 15.2011 256.645 52.2664 256.202C95.0723 255.69 124.635 241.149 150.206 225.51C155.556 222.251 160.81 218.994 165.694 215.961C167.656 214.745 169.607 213.531 171.55 212.323C190.706 200.401 208.802 189.141 230.816 179.575C260.014 166.888 293.435 155.343 327.464 146.186C358.519 137.829 389.08 132.071 418.291 129.073C451.669 125.649 484.422 125.702 515.643 129.234C562.013 134.48 606.25 147.805 647.121 168.839C664.373 177.737 681.301 187.149 697.674 196.253C701.829 198.563 706.127 200.952 710.359 203.294C757.935 229.624 801.42 252.837 851.857 270.284C869.436 276.37 887.916 282.127 906.782 287.397C930.357 293.943 953.594 299.547 975.853 304.052C1010.74 311.115 1054.17 319.903 1096.99 313.17C1119.83 309.578 1137.63 302.215 1151.41 290.659C1177.38 268.886 1184.9 236.068 1190.94 209.698C1193.29 199.426 1195.51 189.725 1198.52 181.829C1199.47 179.339 1200.43 176.775 1201.36 174.294C1206.17 161.406 1211.14 148.078 1218.6 135.189C1230.13 115.133 1252.02 88.3025 1290.86 74.3788C1301.58 70.5345 1312.65 67.7039 1324.69 65.7265C1356.18 60.4785 1393.68 62.1765 1436.13 70.7703C1469.7 77.5674 1501.98 88.9382 1529.47 103.655C1560.22 120.076 1586.57 140.784 1607.78 165.207C1617.52 176.409 1626.11 188.373 1633.35 200.768C1640.25 212.607 1645.95 224.901 1650.29 237.309L1649.28 237.44C1630.19 182.766 1587.4 135.42 1528.79 104.125C1501.4 89.4635 1469.25 78.1362 1435.8 71.3642C1393.55 62.8089 1356.25 61.1159 1324.96 66.3304C1313.01 68.2927 1302.03 71.1016 1291.38 74.9175C1252.8 88.7442 1231.04 115.437 1219.58 135.395C1212.13 148.25 1207.17 161.56 1202.36 174.431C1201.44 176.912 1200.48 179.478 1199.53 181.969C1196.53 189.839 1194.31 199.527 1191.96 209.783C1188.92 223.053 1185.48 238.092 1179.59 252.287C1172.83 268.598 1163.88 281.27 1152.25 291.027C1145.61 296.593 1137.84 301.287 1129.17 304.977C1119.82 308.954 1109.08 311.915 1097.24 313.775C1086.85 315.411 1076 316.228 1064.5 316.228Z" fill="#FFE492"/>
<path d="M1080.33 319.357C1068.81 319.357 1056.67 318.449 1043.7 316.627C1022.68 313.678 1002.46 308.783 984.622 304.463C962.162 299.026 938.9 292.503 915.482 285.074C896.713 279.093 878.328 272.639 860.84 265.889C812.717 247.328 771.442 223.405 727.742 198.081C725.58 196.828 723.417 195.573 721.249 194.318C700.927 182.554 679.916 170.389 658.012 159.147C616.569 137.919 571.158 125.453 523.04 122.093C462.6 117.873 397.392 127.51 329.225 150.735C295.128 162.352 260.901 176.995 232.849 191.966C211.668 203.27 194.679 215.989 176.694 229.456C174.564 231.05 172.429 232.65 170.277 234.252C165.979 237.459 160.865 241.262 155.512 245.152C145.597 252.374 132.088 261.551 115.473 268.455C97.4766 275.935 78.6526 279.747 57.9243 280.107C40.8867 280.366 22.0847 278.765 0.441315 275.211C-18.1408 272.159 -36.1155 268.171 -56.0057 263.654C-74.1618 259.48 -93.3237 255.169 -110.515 252.322C-161.439 243.887 -215.229 236.501 -270.387 230.365L-270.189 229.707C-214.998 235.845 -161.178 243.238 -110.227 251.676C-92.9885 254.532 -73.7991 258.849 -55.621 263.027C-22.282 270.6 19.2103 280.029 57.8941 279.438C102.121 278.668 130.543 262.297 154.668 244.72C160.019 240.834 165.13 237.033 169.425 233.828C171.577 232.225 173.712 230.626 175.839 229.033C193.855 215.544 210.874 202.803 232.124 191.463C260.233 176.461 294.526 161.79 328.689 150.151C397.063 126.856 462.496 117.193 523.166 121.429C546.428 123.054 569.278 126.826 591.075 132.641C614.464 138.879 637.223 147.627 658.721 158.637C680.65 169.89 701.675 182.062 722.007 193.835C724.176 195.091 726.341 196.344 728.504 197.597C772.161 222.9 813.401 246.799 861.431 265.325C878.894 272.065 897.251 278.511 915.993 284.482C939.378 291.9 962.605 298.414 985.031 303.842C1020.28 312.374 1064.14 322.992 1107.52 316.834C1131.01 313.499 1148.93 306.091 1162.29 294.19C1188.04 271.458 1192.62 236.733 1196.3 208.832C1197.62 198.853 1198.87 189.428 1200.93 181.806C1201.36 180.234 1201.78 178.653 1202.21 177.064C1206.06 162.708 1210.05 147.863 1216.97 133.375C1226.86 112.538 1246.65 84.282 1284.8 68.0078C1295.44 63.4675 1306.54 59.9745 1318.74 57.3279C1335.7 53.6157 1354.6 51.8709 1374.91 52.1385C1393.45 52.3828 1413.25 54.3016 1433.75 57.8398C1468.54 63.8406 1501.8 74.743 1529.94 89.3677C1561.45 105.709 1588 126.617 1608.85 151.508C1618.42 162.929 1626.71 175.14 1633.48 187.801C1639.96 199.926 1645.09 212.496 1648.7 225.162L1647.61 225.276C1631.88 170.084 1588.73 120.733 1529.23 89.8762C1501.2 75.3151 1468.09 64.4579 1433.45 58.4806C1390.74 51.1097 1351.2 50.929 1319.1 57.9553C1307 60.5818 1295.98 64.048 1285.42 68.5532C1247.54 84.7153 1227.87 112.825 1218.03 133.559C1211.12 148.008 1207.14 162.832 1203.29 177.169C1202.87 178.758 1202.44 180.341 1202.01 181.914C1199.96 189.507 1198.71 198.92 1197.4 208.884C1193.7 236.866 1189.1 271.691 1163.2 294.568C1156.76 300.304 1149.05 305.106 1140.31 308.835C1130.9 312.846 1119.95 315.757 1107.77 317.487C1098.97 318.731 1089.87 319.357 1080.33 319.357Z" fill="#FFE492"/>
<path d="M1095.2 322.613C1082.08 322.613 1068.18 321.321 1053.2 318.728C1032.01 315.059 1011.66 309.33 993.716 304.276C971.033 297.888 947.782 290.452 924.608 282.178C905.974 275.503 887.713 268.358 870.33 260.945C827.524 242.697 790.939 220.342 752.206 196.674C745.875 192.804 739.326 188.804 732.83 184.871C709.994 171.053 690.494 159.659 669.562 148.97C627.38 127.462 580.636 115.806 530.625 114.328C467.783 112.469 400.471 126.053 330.561 154.702C295.832 168.935 261.635 186.383 234.273 203.835C213.661 216.983 197.546 231.295 180.487 246.446C178.373 248.323 176.252 250.207 174.117 252.092C170.313 255.457 165.279 259.89 160.083 264.335C138.214 283.085 109.643 302.389 63.5557 303.376C62.1184 303.404 60.6758 303.418 59.2358 303.418C23.2478 303.418 -13.4932 294.747 -51.0806 285.066L-53.4274 284.457C-72.0452 279.619 -89.6325 275.05 -105.912 271.724C-167.261 259.191 -226.594 248.611 -271.43 240.795L-271.109 240.111C-226.261 247.93 -166.912 258.511 -105.541 271.05C-89.2176 274.384 -71.6111 278.959 -52.9685 283.803L-50.6244 284.411C-11.6603 294.447 26.3915 303.399 63.5144 302.666C109.09 301.689 137.422 282.534 159.129 263.925C164.323 259.483 169.352 255.053 173.155 251.691C175.29 249.804 177.409 247.922 179.522 246.045C196.609 230.87 212.748 216.534 233.427 203.345C260.844 185.857 295.109 168.373 329.907 154.111C362.205 140.875 394.513 130.712 425.934 123.902C461.985 116.087 497.229 112.628 530.68 113.617C580.95 115.102 627.93 126.814 670.31 148.423C691.271 159.128 710.791 170.534 733.649 184.364C740.148 188.297 746.696 192.299 753.03 196.168C791.725 219.813 828.274 242.147 870.997 260.358C888.357 267.763 906.59 274.896 925.196 281.561C948.337 289.825 971.553 297.249 994.202 303.627C1029.76 313.639 1074 326.099 1118.04 320.49C1142.12 317.423 1160.15 309.972 1173.17 297.711C1198.59 273.944 1200.11 237.265 1201.34 207.793C1201.74 198.178 1202.12 189.094 1203.33 181.775L1203.36 181.607C1206.08 165.218 1208.89 148.271 1215.33 131.55C1220.92 116.966 1228.69 103.853 1238.44 92.5746C1249.43 79.8587 1262.98 69.4465 1278.72 61.6256C1289.25 56.3927 1300.39 52.2355 1312.78 48.9181C1346.24 39.9027 1387.25 38.5109 1431.36 44.8964C1449.12 47.466 1466.63 51.3589 1483.42 56.4646C1500.31 61.6005 1516.12 67.8622 1530.4 75.0725C1562.68 91.3349 1589.43 112.44 1609.92 137.804C1628.34 160.6 1641.2 186.606 1647.11 213.006L1645.95 213.102C1633.31 156.597 1590.92 106.487 1529.66 75.6195C1501.01 61.1622 1466.93 50.7767 1431.1 45.5923C1387.23 39.2436 1346.48 40.6204 1313.25 49.5739C1300.97 52.8662 1289.92 56.9899 1279.47 62.181C1250.08 76.7839 1228.3 100.829 1216.48 131.716C1210.05 148.393 1207.24 165.316 1204.53 181.683L1204.5 181.85C1203.29 189.142 1202.91 198.213 1202.51 207.815C1201.28 237.377 1199.74 274.167 1174.15 298.101C1167.87 304.013 1160.22 308.918 1151.42 312.679C1141.94 316.734 1130.79 319.596 1118.28 321.191C1110.84 322.137 1103.16 322.613 1095.2 322.613Z" fill="#FFE492"/>
<path d="M64.4097 326.712C48.3174 326.712 30.7932 324.803 11.0158 320.905C-8.63528 317.032 -28.0693 311.686 -46.1458 306.486C-49.4186 305.539 -52.6668 304.594 -55.893 303.656C-71.9524 298.983 -87.1214 294.57 -101.298 291.132C-157.828 277.429 -211.711 265.113 -263.822 253.205L-272.456 251.231L-272.022 250.527L-263.387 252.501C-211.274 264.412 -157.383 276.728 -100.842 290.434C-86.6268 293.881 -71.4385 298.299 -55.3598 302.978C-52.1364 303.917 -48.8883 304.862 -45.6181 305.807C-8.51166 316.48 30.9114 326.824 69.1473 325.902C116.149 324.711 144.317 302.421 163.602 283.137C168.543 278.205 173.303 273.29 176.897 269.56C178.881 267.504 180.851 265.449 182.816 263.4C199.112 246.412 214.504 230.365 234.746 215.235C261.465 195.267 295.697 174.968 331.141 158.08C364.023 142.411 397.206 130.032 429.77 121.286C467.121 111.253 503.603 106.047 538.204 105.811C590.268 105.339 638.624 116.243 681.911 138.217C705.907 150.413 727.421 163.605 745.305 174.903C755.036 181.051 764.767 187.353 774.179 193.447C807.493 215.023 841.942 237.331 880.576 255.4C897.834 263.474 915.949 271.296 934.413 278.649C957.263 287.728 980.467 296.062 1003.39 303.42C1039.21 314.919 1083.79 329.231 1128.58 324.152C1153.23 321.357 1171.38 313.862 1184.05 301.24C1209.13 276.395 1207.44 237.707 1206.08 206.621C1205.68 197.429 1205.29 188.744 1205.75 181.753C1206.78 165.993 1208.33 147.676 1213.71 129.736C1218.24 114.534 1225.09 100.781 1234.05 88.8594C1244.19 75.374 1257.18 64.0684 1272.67 55.2555C1282.92 49.4153 1294.42 44.4584 1306.83 40.5204C1324.55 34.8826 1344.42 31.3377 1365.92 29.986C1386.04 28.7196 1407.26 29.3854 1428.99 31.9634C1447.31 34.1382 1465.37 37.7149 1482.66 42.5965C1500.06 47.5082 1516.28 53.6277 1530.88 60.7845C1547.7 69.0253 1563.17 78.7566 1576.85 89.7092C1589.81 100.086 1601.3 111.66 1611 124.106C1629.14 147.391 1641.08 173.934 1645.52 200.86L1644.29 200.935C1634.75 143.114 1593.13 92.2454 1530.1 61.3716C1501.23 47.2154 1465.24 37.034 1428.75 32.7028C1383.63 27.3478 1341.67 30.2821 1307.41 41.1879C1295.09 45.0941 1283.69 50.0125 1273.51 55.8058C1244.34 72.4112 1224.63 97.3294 1214.93 129.871C1209.56 147.763 1208.01 166.048 1206.99 181.783C1206.53 188.749 1206.91 197.42 1207.31 206.601C1207.98 221.937 1208.74 239.32 1206.19 256.125C1203.23 275.624 1196.34 290.51 1185.11 301.633C1179 307.719 1171.41 312.729 1162.55 316.524C1152.99 320.622 1141.64 323.438 1128.81 324.892C1122.34 325.626 1115.87 325.959 1109.44 325.959C1070.95 325.959 1033.65 313.984 1002.81 304.084C979.859 296.715 956.619 288.368 933.739 279.276C915.248 271.914 897.108 264.079 879.826 255.994C841.112 237.888 806.627 215.556 773.28 193.961C763.871 187.868 754.143 181.568 744.417 175.423C726.558 164.139 705.074 150.965 681.122 138.793C638.069 116.936 589.995 106.095 538.223 106.561C456.917 107.116 381.149 135.203 331.904 158.669C296.532 175.523 262.369 195.779 235.707 215.707C215.526 230.792 200.156 246.813 183.885 263.775C181.92 265.824 179.947 267.878 177.963 269.936C174.366 273.668 169.604 278.587 164.66 283.524C156.564 291.619 143.855 303.403 127.021 312.236C118.845 316.525 110.145 319.896 101.162 322.257C91.1452 324.888 80.3895 326.367 69.1995 326.65C67.6139 326.692 66.0173 326.712 64.4097 326.712Z" fill="#FFE492"/>
<path d="M69.5767 350.001C53.4651 350.001 35.9767 347.944 16.3037 343.749C-4.06464 339.406 -24.2021 333.3 -41.2123 327.898C-46.4391 326.235 -51.6548 324.549 -56.7002 322.918C-70.803 318.359 -84.1254 314.051 -96.6866 310.535C-141.795 297.904 -186.61 285.573 -229.952 273.647C-244.288 269.702 -259.111 265.624 -273.477 261.662L-272.939 260.938C-258.572 264.899 -243.749 268.978 -229.413 272.922C-186.071 284.849 -141.251 297.181 -96.1397 309.814C-83.5455 313.34 -70.2067 317.651 -56.0874 322.217C-51.0448 323.848 -45.829 325.532 -40.6078 327.195C-5.32874 338.394 35.592 350.248 74.7759 349.132C122.885 347.73 149.907 323.391 168.077 302.344C172.735 296.952 177.239 291.539 180.641 287.425C182.388 285.314 184.125 283.204 185.859 281.1C201.446 262.171 216.167 244.292 236.068 227.123C261.952 204.793 296.156 181.681 332.375 162.046C382.815 134.82 460.773 101.609 545.726 98.007C599.752 95.6549 649.477 105.749 693.514 128.013C713.3 138.02 732.866 149.563 756.96 165.444C769.137 173.469 781.22 181.787 792.904 189.829C823.306 210.752 854.737 232.388 890.157 250.447C907.315 259.198 925.306 267.708 943.63 275.741C965.818 285.459 989.014 294.704 1012.57 303.219C1048.75 316.219 1093.78 332.401 1139.11 327.821C1163.97 325.362 1182.75 317.608 1194.94 304.776C1219.67 278.808 1214.36 236.322 1210.48 205.301C1209.4 196.596 1208.37 188.373 1208.17 181.74C1207.72 166.998 1207.76 147.561 1212.09 127.929C1219.57 93.9101 1237.91 67.3173 1266.61 48.8935C1276.67 42.4026 1288.2 36.7632 1300.89 32.1308C1318.94 25.5328 1339.31 21.0946 1361.43 18.9415C1382.26 16.914 1404.19 16.9458 1426.61 19.0369C1445.52 20.8403 1464.12 24.1092 1481.89 28.7499C1499.83 33.4374 1516.47 39.4097 1531.35 46.5012C1548.55 54.6952 1564.26 64.46 1578.05 75.5264C1591.12 86.0139 1602.56 97.7511 1612.08 110.415C1629.94 134.191 1640.96 161.268 1643.94 188.721L1642.64 188.773C1636.22 129.632 1595.36 78.004 1530.55 47.1286C1501.16 33.1212 1464.18 23.4233 1426.41 19.8232C1379.86 15.482 1336.69 19.9737 1301.57 32.8134C1288.98 37.4072 1277.54 43.0015 1267.56 49.4405C1239.06 67.7423 1220.83 94.1844 1213.39 128.036C1209.06 147.614 1209.03 167.013 1209.48 181.727C1209.68 188.336 1210.7 196.549 1211.79 205.243C1213.79 221.278 1216.06 239.454 1214.77 257.199C1213.25 277.861 1207.14 293.555 1196.07 305.176C1190.11 311.445 1182.58 316.564 1173.68 320.392C1164.03 324.542 1152.48 327.306 1139.33 328.607C1118.94 330.667 1096.99 328.816 1072.24 322.949C1050.72 317.849 1030.1 310.441 1011.91 303.907C988.318 295.38 965.092 286.122 942.872 276.39C924.521 268.345 906.505 259.824 889.321 251.061C853.828 232.965 822.36 211.306 791.929 190.361C780.25 182.321 768.169 174.008 756.004 165.989C731.951 150.137 712.42 138.616 692.681 128.632C648.905 106.495 599.496 96.4613 545.814 98.7983C461.227 102.387 383.527 135.495 333.238 162.64C297.091 182.235 262.957 205.298 237.129 227.581C217.283 244.702 202.583 262.555 187.021 281.456C185.287 283.562 183.551 285.672 181.803 287.783C178.398 291.9 173.891 297.319 169.228 302.715C150.899 323.95 123.605 348.507 74.8337 349.927C73.0997 349.975 71.3437 350.001 69.5767 350.001Z" fill="#FFE492"/>
<path d="M74.8472 373.292C30.8239 373.292 -15.3675 356.832 -56.3157 342.24C-68.8988 337.756 -80.784 333.52 -92.0784 329.939L-274.5 272.094L-273.865 271.353L-91.4436 329.198C-80.119 332.788 -68.2201 337.028 -55.6204 341.519C-13.0894 356.675 35.1191 373.854 80.4037 372.366C129.574 370.751 155.477 344.363 172.55 321.556C178.134 314.096 183.526 306.506 188.741 299.165C203.006 279.09 217.755 258.331 237.384 239.01C252.971 223.67 272.333 207.581 293.378 192.487C316.464 175.926 341.182 160.733 366.84 147.329C395.131 132.553 423.898 120.329 452.337 110.999C483.793 100.68 514.783 93.9433 544.45 90.9739C603.882 85.0266 657.935 94.052 705.105 117.802C744.305 137.538 777.622 161.942 809.843 185.544C837.889 206.087 866.889 227.328 899.728 245.486C937.659 266.458 978.711 285.812 1021.75 303.008C1058.01 317.497 1103.14 335.531 1149.65 331.478C1188.93 328.055 1211.64 312.055 1219.07 282.562C1225.4 257.474 1219.38 227.715 1214.55 203.804C1212.9 195.655 1211.34 187.958 1210.58 181.716C1206.37 147.308 1209.05 118.903 1218.79 94.8818C1224.87 79.8941 1233.84 66.5342 1245.45 55.1734C1258.42 42.4826 1275.07 31.9031 1294.94 23.7292C1312.13 16.6578 1331.5 11.5219 1352.52 8.46383C1372.53 5.55295 1393.59 4.57764 1415.13 5.56466C1457.49 7.50525 1498.93 16.9673 1531.81 32.2059C1549.38 40.3513 1565.34 50.1513 1579.24 61.3314C1592.4 71.9277 1603.81 83.8305 1613.15 96.712C1630.72 120.978 1640.82 148.593 1642.34 176.569L1640.97 176.597C1637.73 117.021 1596.61 63.2921 1530.97 32.8734C1461.27 0.569325 1362.33 -2.98562 1295.7 24.4235C1229.71 51.575 1202.31 103.005 1211.95 181.654C1212.71 187.876 1214.26 195.563 1215.91 203.702C1220.75 227.665 1226.79 257.488 1220.43 282.689C1216.97 296.415 1210.01 307.446 1199.75 315.478C1193.98 319.993 1187.02 323.684 1179.07 326.444C1170.61 329.382 1160.78 331.354 1149.84 332.307C1145.37 332.697 1140.82 332.893 1136.19 332.893C1119.34 332.893 1101.39 330.298 1081.72 325.042C1059.56 319.12 1038.17 310.575 1020.99 303.709C977.895 286.488 936.785 267.109 898.799 246.107C865.886 227.911 836.856 206.644 808.779 186.079C776.6 162.508 743.324 138.133 704.223 118.448C657.369 94.8601 603.687 85.8932 544.665 91.8003C425.274 103.748 302.29 176.714 238.544 239.452C218.967 258.719 204.238 279.45 189.992 299.498C184.773 306.842 179.379 314.437 173.79 321.904C162.454 337.045 151.259 347.887 138.557 356.021C130.629 361.097 122.028 365.098 112.992 367.914C102.946 371.044 92.0031 372.824 80.4669 373.204C78.6037 373.262 76.7268 373.292 74.8472 373.292Z" fill="#FFE492"/>
</g>
</svg>
